<?xml version="1.0" encoding="utf-8"?>
<!-- Generator: Adobe Illustrator 22.1.0, SVG Export Plug-In . SVG Version: 6.00 Build 0)  -->
<svg version="1.1" id="Calque_1" xmlns="http://www.w3.org/2000/svg" xmlns:xlink="http://www.w3.org/1999/xlink" x="0px" y="0px"
	 viewBox="0 0 260 54" style="enable-background:new 0 0 260 54;" xml:space="preserve">
<style type="text/css">
	.st0{enable-background:new    ;}
	.st1{fill:#1100FF;}
</style>
<g class="st0">
	<path class="st1" d="M12.6,47l3.6-15.2L4.4,21.5l15.5-1.3L26,5.9l6.1,14.3l15.5,1.3L35.9,31.8L39.4,47L26,38.9L12.6,47z"/>
	<path class="st1" d="M64.6,47l3.6-15.2L56.4,21.5l15.5-1.3L78,5.9l6.1,14.3l15.5,1.3L87.9,31.8L91.4,47L78,38.9L64.6,47z"/>
	<path class="st1" d="M116.6,47l3.6-15.2l-11.8-10.3l15.5-1.3L130,5.9l6.1,14.3l15.5,1.3l-11.8,10.3l3.6,15.2L130,38.9L116.6,47z"/>
	<path class="st1" d="M168.6,47l3.6-15.2l-11.8-10.3l15.5-1.3L182,5.9l6.1,14.3l15.5,1.3l-11.8,10.3l3.6,15.2L182,38.9L168.6,47z"/>
	<path class="st1" d="M220.6,47l3.6-15.2l-11.8-10.3l15.5-1.3L234,5.9l6.1,14.3l15.5,1.3l-11.8,10.3l3.6,15.2L234,38.9L220.6,47z"/>
</g>
</svg>
