<svg id="Calque_1" data-name="Calque 1" xmlns="http://www.w3.org/2000/svg" xmlns:xlink="http://www.w3.org/1999/xlink" viewBox="0 0 2206 768"><defs><style>.cls-1{fill:url(#Dégradé_sans_nom_4);}.cls-2,.cls-3{opacity:0.46;isolation:isolate;}.cls-2{fill:url(#Dégradé_sans_nom_2);}.cls-3{fill:url(#Dégradé_sans_nom_3);}</style><linearGradient id="Dégradé_sans_nom_4" x1="456.45" y1="768.73" x2="457.54" y2="768.35" gradientTransform="matrix(1920, 0, 0, -847, -876343.88, 651344)" gradientUnits="userSpaceOnUse"><stop offset="0" stop-color="#24067b"/><stop offset="1" stop-color="#0f31d8"/></linearGradient><linearGradient id="Dégradé_sans_nom_2" x1="456.58" y1="768.55" x2="457.61" y2="768.58" gradientTransform="matrix(2627.29, 0, 0, -586.62, -1199893.39, 451374.75)" gradientUnits="userSpaceOnUse"><stop offset="0" stop-color="#1223b5"/><stop offset="1" stop-color="#09125b"/></linearGradient><linearGradient id="Dégradé_sans_nom_3" x1="456.63" y1="768.42" x2="457.66" y2="768.46" gradientTransform="matrix(3080.32, 269.49, 61.9, -707.46, -1454782.68, 420956.95)" gradientUnits="userSpaceOnUse"><stop offset="0" stop-color="#172ce1"/><stop offset="1" stop-color="#0c1984"/></linearGradient></defs><title>bg</title><g id="Groupe_62" data-name="Groupe 62"><rect id="Rectangle_33" data-name="Rectangle 33" class="cls-1" x="-7.6" y="3" width="2222.53" height="777.69"/><path id="Tracé_11" data-name="Tracé 11" class="cls-2" d="M-310,469.44C87.39,458.58,351.52,246.76,637.07,242.69S1246.23,503.38,1627,506.1s866.15-150.72,866.15-150.72S2674,769.5,2666.82,777.65s-2765,0-2765,0-276-198.24-276-209.1S-310,469.44-310,469.44Z"/><path id="Tracé_12" data-name="Tracé 12" class="cls-3" d="M2773.84,641.32c-492.45-50-787.14-378.74-1141.56-409.26s-799.07,324-1272.94,295.06S-693.75,234.67-693.75,234.67-37.58,758.16-30,770.54s2220.45,8.65,2220.45,8.65S2836.24,805.73,2838,790,2773.84,641.32,2773.84,641.32Z"/></g></svg>