<svg xmlns="http://www.w3.org/2000/svg" xmlns:xlink="http://www.w3.org/1999/xlink" width="2204" height="768" viewBox="0 0 2204 768"><defs><style>.cls-1{fill:none;}.cls-2{fill:url(#Dégradé_sans_nom_16);}.cls-3{fill:url(#Dégradé_sans_nom_16-2);}.cls-4{fill:url(#Dégradé_sans_nom_16-3);}.cls-10,.cls-22,.cls-25,.cls-26,.cls-29,.cls-32,.cls-36,.cls-41,.cls-44,.cls-5,.cls-8{opacity:0.36;}.cls-10,.cls-12,.cls-14,.cls-16,.cls-18,.cls-20,.cls-22,.cls-23,.cls-25,.cls-26,.cls-27,.cls-29,.cls-30,.cls-32,.cls-33,.cls-34,.cls-36,.cls-37,.cls-38,.cls-39,.cls-41,.cls-42,.cls-44,.cls-45,.cls-46,.cls-5,.cls-8{isolation:isolate;}.cls-5{fill:url(#Dégradé_sans_nom_17);}.cls-6{fill:url(#Dégradé_sans_nom_16-4);}.cls-7{fill:url(#Dégradé_sans_nom_16-5);}.cls-8{fill:url(#Dégradé_sans_nom_17-2);}.cls-9{fill:url(#Dégradé_sans_nom_16-6);}.cls-10{fill:url(#Dégradé_sans_nom_17-3);}.cls-11{fill:url(#Dégradé_sans_nom_16-7);}.cls-12,.cls-14,.cls-16,.cls-18,.cls-20,.cls-23,.cls-27,.cls-33,.cls-37,.cls-38,.cls-42,.cls-45{opacity:0.34;}.cls-12{fill:url(#Dégradé_sans_nom_18);}.cls-13{fill:url(#Dégradé_sans_nom_16-8);}.cls-14{fill:url(#Dégradé_sans_nom_18-2);}.cls-15{fill:url(#Dégradé_sans_nom_16-10);}.cls-16{fill:url(#Dégradé_sans_nom_18-3);}.cls-17{fill:url(#Dégradé_sans_nom_16-12);}.cls-18{fill:url(#Dégradé_sans_nom_18-4);}.cls-19{fill:url(#Dégradé_sans_nom_16-14);}.cls-20{fill:url(#Dégradé_sans_nom_18-5);}.cls-21{fill:url(#Dégradé_sans_nom_16-16);}.cls-22{fill:url(#Dégradé_sans_nom_17-4);}.cls-23{fill:url(#Dégradé_sans_nom_18-6);}.cls-24{fill:url(#Dégradé_sans_nom_16-17);}.cls-25{fill:url(#Dégradé_sans_nom_17-5);}.cls-26{fill:url(#Dégradé_sans_nom_17-6);}.cls-27{fill:url(#Dégradé_sans_nom_18-7);}.cls-28{fill:url(#Dégradé_sans_nom_16-19);}.cls-29{fill:url(#Dégradé_sans_nom_17-7);}.cls-30,.cls-34,.cls-39,.cls-46{opacity:0.33;}.cls-30{fill:url(#Dégradé_sans_nom_19);}.cls-31{fill:url(#Dégradé_sans_nom_16-20);}.cls-32{fill:url(#Dégradé_sans_nom_17-8);}.cls-33{fill:url(#Dégradé_sans_nom_18-8);}.cls-34{fill:url(#Dégradé_sans_nom_19-2);}.cls-35{fill:url(#Dégradé_sans_nom_16-21);}.cls-36{fill:url(#Dégradé_sans_nom_17-9);}.cls-37{fill:url(#Dégradé_sans_nom_18-9);}.cls-38{fill:url(#Dégradé_sans_nom_18-10);}.cls-39{fill:url(#Dégradé_sans_nom_19-3);}.cls-40{fill:url(#Dégradé_sans_nom_16-23);}.cls-41{fill:url(#Dégradé_sans_nom_17-11);}.cls-42{fill:url(#Dégradé_sans_nom_18-11);}.cls-43{fill:url(#Dégradé_sans_nom_16-24);}.cls-44{fill:url(#Dégradé_sans_nom_17-12);}.cls-45{fill:url(#Dégradé_sans_nom_18-12);}.cls-46{fill:url(#Dégradé_sans_nom_19-4);}</style><linearGradient id="Dégradé_sans_nom_16" x1="2136.65" y1="768.95" x2="2137.74" y2="768.57" gradientTransform="matrix(1920, 0, 0, -847, -4102183, 651344)" gradientUnits="userSpaceOnUse"><stop offset="0" stop-color="#24067b"/><stop offset="1" stop-color="#0f31d8"/></linearGradient><linearGradient id="Dégradé_sans_nom_16-2" x1="2136.69" y1="769.06" x2="2137.78" y2="768.68" xlink:href="#Dégradé_sans_nom_16"/><linearGradient id="Dégradé_sans_nom_16-3" x1="2136.69" y1="769.06" x2="2137.78" y2="768.68" xlink:href="#Dégradé_sans_nom_16"/><linearGradient id="Dégradé_sans_nom_17" x1="2136.85" y1="768.99" x2="2137.87" y2="769.02" gradientTransform="matrix(2627.29, 0, 0, -586.62, -5614687.11, 451374.75)" gradientUnits="userSpaceOnUse"><stop offset="0" stop-color="#1223b5"/><stop offset="1" stop-color="#09125b"/></linearGradient><linearGradient id="Dégradé_sans_nom_16-4" x1="2136.71" y1="769.11" x2="2137.8" y2="768.73" xlink:href="#Dégradé_sans_nom_16"/><linearGradient id="Dégradé_sans_nom_16-5" x1="2136.71" y1="769.11" x2="2137.8" y2="768.73" xlink:href="#Dégradé_sans_nom_16"/><linearGradient id="Dégradé_sans_nom_17-2" x1="2136.84" y1="769.12" x2="2137.86" y2="769.15" xlink:href="#Dégradé_sans_nom_17"/><linearGradient id="Dégradé_sans_nom_16-6" x1="2136.6" y1="768.82" x2="2137.69" y2="768.44" xlink:href="#Dégradé_sans_nom_16"/><linearGradient id="Dégradé_sans_nom_17-3" x1="2136.85" y1="769.01" x2="2137.87" y2="769.04" xlink:href="#Dégradé_sans_nom_17"/><linearGradient id="Dégradé_sans_nom_16-7" x1="2136.64" y1="768.92" x2="2137.73" y2="768.54" xlink:href="#Dégradé_sans_nom_16"/><linearGradient id="Dégradé_sans_nom_18" x1="2137.12" y1="768.61" x2="2138.15" y2="768.65" gradientTransform="matrix(3080.32, 269.49, 61.9, -707.46, -6631119.45, -32055.74)" gradientUnits="userSpaceOnUse"><stop offset="0" stop-color="#1755e1"/><stop offset="1" stop-color="#0c2fcd"/></linearGradient><linearGradient id="Dégradé_sans_nom_16-8" x1="2136.62" y1="768.85" x2="2137.71" y2="768.47" xlink:href="#Dégradé_sans_nom_16"/><linearGradient id="Dégradé_sans_nom_18-2" x1="2137.13" y1="768.54" x2="2138.15" y2="768.58" xlink:href="#Dégradé_sans_nom_18"/><linearGradient id="Dégradé_sans_nom_16-10" x1="2136.61" y1="768.84" x2="2137.7" y2="768.46" xlink:href="#Dégradé_sans_nom_16"/><linearGradient id="Dégradé_sans_nom_18-3" x1="2137.13" y1="768.52" x2="2138.16" y2="768.56" xlink:href="#Dégradé_sans_nom_18"/><linearGradient id="Dégradé_sans_nom_16-12" x1="2136.65" y1="768.95" x2="2137.74" y2="768.57" xlink:href="#Dégradé_sans_nom_16"/><linearGradient id="Dégradé_sans_nom_18-4" x1="2137.12" y1="768.66" x2="2138.15" y2="768.69" xlink:href="#Dégradé_sans_nom_18"/><linearGradient id="Dégradé_sans_nom_16-14" x1="2136.68" y1="769.04" x2="2137.77" y2="768.66" xlink:href="#Dégradé_sans_nom_16"/><linearGradient id="Dégradé_sans_nom_18-5" x1="2137.12" y1="768.75" x2="2138.15" y2="768.79" xlink:href="#Dégradé_sans_nom_18"/><linearGradient id="Dégradé_sans_nom_16-16" x1="2136.57" y1="768.72" x2="2137.66" y2="768.34" xlink:href="#Dégradé_sans_nom_16"/><linearGradient id="Dégradé_sans_nom_17-4" x1="2136.86" y1="768.57" x2="2137.88" y2="768.6" xlink:href="#Dégradé_sans_nom_17"/><linearGradient id="Dégradé_sans_nom_18-6" x1="2137.13" y1="768.32" x2="2138.16" y2="768.36" xlink:href="#Dégradé_sans_nom_18"/><linearGradient id="Dégradé_sans_nom_16-17" x1="2136.56" y1="768.71" x2="2137.65" y2="768.33" xlink:href="#Dégradé_sans_nom_16"/><linearGradient id="Dégradé_sans_nom_17-5" x1="2136.85" y1="768.7" x2="2137.88" y2="768.73" xlink:href="#Dégradé_sans_nom_17"/><linearGradient id="Dégradé_sans_nom_17-6" x1="2136.85" y1="768.7" x2="2137.88" y2="768.73" xlink:href="#Dégradé_sans_nom_17"/><linearGradient id="Dégradé_sans_nom_18-7" x1="2137.13" y1="768.36" x2="2138.16" y2="768.4" xlink:href="#Dégradé_sans_nom_18"/><linearGradient id="Dégradé_sans_nom_16-19" x1="2136.52" y1="768.58" x2="2137.61" y2="768.2" xlink:href="#Dégradé_sans_nom_16"/><linearGradient id="Dégradé_sans_nom_17-7" x1="2136.86" y1="768.67" x2="2137.88" y2="768.7" xlink:href="#Dégradé_sans_nom_17"/><linearGradient id="Dégradé_sans_nom_19" x1="2139.59" y1="769.21" x2="2140.65" y2="769.26" gradientTransform="matrix(-2641.3, 134.82, -16.68, -709.24, 5666673.38, 257459.08)" gradientUnits="userSpaceOnUse"><stop offset="0" stop-color="#172ce1"/><stop offset="1" stop-color="#0c1984"/></linearGradient><linearGradient id="Dégradé_sans_nom_16-20" x1="2136.47" y1="768.45" x2="2137.56" y2="768.07" xlink:href="#Dégradé_sans_nom_16"/><linearGradient id="Dégradé_sans_nom_17-8" x1="2136.86" y1="768.35" x2="2137.89" y2="768.38" xlink:href="#Dégradé_sans_nom_17"/><linearGradient id="Dégradé_sans_nom_18-8" x1="2137.15" y1="768.03" x2="2138.17" y2="768.07" xlink:href="#Dégradé_sans_nom_18"/><linearGradient id="Dégradé_sans_nom_19-2" x1="2139.6" y1="768.93" x2="2140.66" y2="768.97" xlink:href="#Dégradé_sans_nom_19"/><linearGradient id="Dégradé_sans_nom_16-21" x1="2136.53" y1="768.61" x2="2137.5" y2="768.27" xlink:href="#Dégradé_sans_nom_16"/><linearGradient id="Dégradé_sans_nom_17-9" x1="2136.86" y1="768.57" x2="2137.33" y2="768.58" xlink:href="#Dégradé_sans_nom_17"/><linearGradient id="Dégradé_sans_nom_18-9" x1="2137.14" y1="768.24" x2="2137.56" y2="768.26" xlink:href="#Dégradé_sans_nom_18"/><linearGradient id="Dégradé_sans_nom_18-10" x1="2137.14" y1="768.24" x2="2137.56" y2="768.26" xlink:href="#Dégradé_sans_nom_18"/><linearGradient id="Dégradé_sans_nom_19-3" x1="2139.59" y1="769.11" x2="2140.15" y2="769.13" xlink:href="#Dégradé_sans_nom_19"/><linearGradient id="Dégradé_sans_nom_16-23" x1="2136.47" y1="768.44" x2="2137.56" y2="768.06" xlink:href="#Dégradé_sans_nom_16"/><linearGradient id="Dégradé_sans_nom_17-11" x1="2136.87" y1="768.15" x2="2137.89" y2="768.18" xlink:href="#Dégradé_sans_nom_17"/><linearGradient id="Dégradé_sans_nom_18-11" x1="2137.15" y1="767.96" x2="2138.18" y2="768" xlink:href="#Dégradé_sans_nom_18"/><linearGradient id="Dégradé_sans_nom_16-24" x1="2136.47" y1="768.44" x2="2137.56" y2="768.06" xlink:href="#Dégradé_sans_nom_16"/><linearGradient id="Dégradé_sans_nom_17-12" x1="2136.87" y1="768.15" x2="2137.89" y2="768.18" xlink:href="#Dégradé_sans_nom_17"/><linearGradient id="Dégradé_sans_nom_18-12" x1="2137.15" y1="767.96" x2="2138.18" y2="768" xlink:href="#Dégradé_sans_nom_18"/><linearGradient id="Dégradé_sans_nom_19-4" x1="2139.6" y1="768.73" x2="2140.67" y2="768.77" xlink:href="#Dégradé_sans_nom_19"/></defs><title>Fichier 1</title><g id="Calque_2" data-name="Calque 2"><g id="Calque_1-2" data-name="Calque 1"><path class="cls-1" d="M2023.08,309.13q19.08,9.54,38.36,19.47Q2042.17,318.69,2023.08,309.13Z"/><path class="cls-1" d="M2061.44,328.6q24.11,12.4,48.54,25.3Q2085.55,341,2061.44,328.6Z"/><path class="cls-1" d="M1985.14,290.51q9.43,4.55,18.92,9.2Q1994.57,295,1985.14,290.51Z"/><path class="cls-1" d="M2110,353.9q14.66,7.73,29.43,15.59Q2124.64,361.63,2110,353.9Z"/><path class="cls-1" d="M1078.3,506.6h0l.06-.05Z"/><path class="cls-1" d="M1651.6,751.08c-197.29-.29-390.87-120.18-573.13-244.36C1260.63,630.9,1454.21,750.79,1651.6,751.08Z"/><path class="cls-1" d="M1656,183c78.4,7.5,160.2,33.3,245.3,69.4C1816.2,216.2,1734.4,190.5,1656,183Z"/><path class="cls-1" d="M2139.41,369.49q14.78,7.86,29.67,15.83Q2154.19,377.36,2139.41,369.49Z"/><path class="cls-1" d="M1671.78,331.49q-7.92,2.11-15.85,4.12Q1663.85,333.6,1671.78,331.49Z"/><path class="cls-1" d="M0,497.35v.1c191.48,79.74,405,150.63,589.81,168.32C405,648.08,191.48,577.19,0,497.35Z"/><path class="cls-1" d="M1711.25,320.4q-7.86,2.33-15.76,4.57Q1703.38,322.72,1711.25,320.4Z"/><path class="cls-1" d="M1901.3,252.4c27.59,11.7,55.54,24.49,83.84,38.11-28.3-13.62-56.25-26.41-83.84-38.11q-18.08,7.5-36.6,14.81Q1883.23,259.92,1901.3,252.4Z"/><path class="cls-1" d="M1695.49,325q-7.89,2.23-15.8,4.39Q1687.6,327.22,1695.49,325Z"/><path class="cls-1" d="M1560.66,355.94q-7.92,1.35-15.83,2.58Q1552.74,357.29,1560.66,355.94Z"/><path class="cls-1" d="M1864.7,267.21q-7.41,2.93-14.88,5.8Q1857.29,270.13,1864.7,267.21Z"/><path class="cls-1" d="M1274.8,347.3c42.6,13.3,86,21.2,130.2,21.8C1360.8,368.5,1317.5,360.6,1274.8,347.3Z"/><path class="cls-1" d="M1789.13,295.29q-7.7,2.68-15.43,5.3Q1781.44,298,1789.13,295.29Z"/><path class="cls-1" d="M1849.82,273q-18.69,7.2-37.73,14.12Q1831.13,280.23,1849.82,273Z"/><path class="cls-1" d="M1750.41,308.29q-11.69,3.76-23.45,7.38Q1738.72,312.07,1750.41,308.29Z"/><path class="cls-1" d="M1766,303.19q-7.76,2.58-15.55,5.1Q1758.21,305.77,1766,303.19Z"/><path class="cls-2" d="M0,0V45.68C20.82,30.29,41.4,14.94,61.76,0Z"/><path class="cls-3" d="M1297.53,329.09q5.68-4.48,11.36-8.9l5.67-4.4q8.52-6.57,17-12.94c1.89-1.42,3.79-2.83,5.68-4.23,83.3-61.66,167.32-108.33,260.4-116,2.12-.17,4.24-.33,6.36-.46q9.57-.6,19.26-.65,16.15-.06,32.71,1.5c78.4,7.5,160.2,33.2,245.3,69.4,127.24-52.94,236.6-112,302.7-150.11V0H757.25c160.16,127.12,331.8,289.31,517.55,347.3Q1286.19,338.07,1297.53,329.09Z"/><path class="cls-4" d="M1985.14,290.51q9.43,4.55,18.92,9.2t19,9.42q19.08,9.54,38.36,19.47,24.11,12.4,48.54,25.3,14.66,7.73,29.43,15.59t29.67,15.83L2204,404V102.29c-66.1,38.15-175.46,97.26-302.7,150.11C1928.89,264.1,1956.84,276.89,1985.14,290.51Z"/><path class="cls-5" d="M1985.14,290.51q9.43,4.55,18.92,9.2t19,9.42q19.08,9.54,38.36,19.47,24.11,12.4,48.54,25.3,14.66,7.73,29.43,15.59t29.67,15.83L2204,404V102.29c-66.1,38.15-175.46,97.26-302.7,150.11C1928.89,264.1,1956.84,276.89,1985.14,290.51Z"/><path class="cls-6" d="M2204,102.29h0c-66.1,38.14-175.46,97.17-302.7,150.11C2028.54,199.55,2137.9,140.44,2204,102.29Z"/><path class="cls-7" d="M2204,102.29h0c-66.1,38.14-175.46,97.17-302.7,150.11C2028.54,199.55,2137.9,140.44,2204,102.29Z"/><path class="cls-8" d="M2204,102.29h0c-66.1,38.14-175.46,97.17-302.7,150.11C2028.54,199.55,2137.9,140.44,2204,102.29Z"/><path class="cls-9" d="M1078.3,506.6l.06-.05c68.68-51.19,133-107.87,196.44-159.25C1089.05,289.31,917.41,127.12,757.25,0H61.76C41.4,14.94,20.82,30.29,0,45.68V389.87C186.94,319.78,350,243.16,527,235,690.1,227.5,877.3,369.6,1078.3,506.6Z"/><path class="cls-10" d="M1078.3,506.6l.06-.05c68.68-51.19,133-107.87,196.44-159.25C1089.05,289.31,917.41,127.12,757.25,0H61.76C41.4,14.94,20.82,30.29,0,45.68V389.87C186.94,319.78,350,243.16,527,235,690.1,227.5,877.3,369.6,1078.3,506.6Z"/><path class="cls-11" d="M1544.83,358.52q7.9-1.23,15.83-2.58c31.68-5.4,63.54-12.28,95.27-20.33q7.92-2,15.85-4.12l7.91-2.13q7.9-2.14,15.8-4.39t15.76-4.57q7.88-2.32,15.71-4.73,11.76-3.6,23.45-7.38,7.8-2.52,15.55-5.1l7.74-2.6q7.74-2.61,15.43-5.3,11.53-4,23-8.16,19-6.9,37.73-14.12,7.47-2.88,14.88-5.8,18.52-7.29,36.6-14.81c-85.1-36.1-166.9-61.9-245.3-69.4q-16.56-1.58-32.71-1.5-9.7,0-19.26.65c-2.12.13-4.24.29-6.36.46-93.08,7.68-177.1,54.35-260.4,116-1.89,1.4-3.79,2.81-5.68,4.23q-8.52,6.38-17,12.94l-5.67,4.4q-5.69,4.41-11.36,8.9-11.35,9-22.73,18.21c42.7,13.3,86,21.2,130.2,21.8C1450.45,369.75,1497.4,365.86,1544.83,358.52Z"/><path class="cls-12" d="M1544.83,358.52q7.9-1.23,15.83-2.58c31.68-5.4,63.54-12.28,95.27-20.33q7.92-2,15.85-4.12l7.91-2.13q7.9-2.14,15.8-4.39t15.76-4.57q7.88-2.32,15.71-4.73,11.76-3.6,23.45-7.38,7.8-2.52,15.55-5.1l7.74-2.6q7.74-2.61,15.43-5.3,11.53-4,23-8.16,19-6.9,37.73-14.12,7.47-2.88,14.88-5.8,18.52-7.29,36.6-14.81c-85.1-36.1-166.9-61.9-245.3-69.4q-16.56-1.58-32.71-1.5-9.7,0-19.26.65c-2.12.13-4.24.29-6.36.46-93.08,7.68-177.1,54.35-260.4,116-1.89,1.4-3.79,2.81-5.68,4.23q-8.52,6.38-17,12.94l-5.67,4.4q-5.69,4.41-11.36,8.9-11.35,9-22.73,18.21c42.7,13.3,86,21.2,130.2,21.8C1450.45,369.75,1497.4,365.86,1544.83,358.52Z"/><path class="cls-13" d="M1314.56,315.79q8.52-6.57,17-12.94Q1323.07,309.23,1314.56,315.79Z"/><path class="cls-13" d="M1314.56,315.79q8.52-6.57,17-12.94Q1323.07,309.23,1314.56,315.79Z"/><path class="cls-14" d="M1314.56,315.79q8.52-6.57,17-12.94Q1323.07,309.23,1314.56,315.79Z"/><path class="cls-15" d="M1297.53,329.09q5.68-4.48,11.36-8.9Q1303.21,324.6,1297.53,329.09Z"/><path class="cls-15" d="M1297.53,329.09q5.68-4.48,11.36-8.9Q1303.21,324.6,1297.53,329.09Z"/><path class="cls-16" d="M1297.53,329.09q5.68-4.48,11.36-8.9Q1303.21,324.6,1297.53,329.09Z"/><path class="cls-17" d="M1337.27,298.62c83.3-61.66,167.32-108.33,260.4-116C1504.59,190.29,1420.57,237,1337.27,298.62Z"/><path class="cls-17" d="M1337.27,298.62c83.3-61.66,167.32-108.33,260.4-116C1504.59,190.29,1420.57,237,1337.27,298.62Z"/><path class="cls-18" d="M1337.27,298.62c83.3-61.66,167.32-108.33,260.4-116C1504.59,190.29,1420.57,237,1337.27,298.62Z"/><path class="cls-19" d="M1604,182.15q9.57-.6,19.26-.65Q1613.59,181.55,1604,182.15Z"/><path class="cls-19" d="M1604,182.15q9.57-.6,19.26-.65Q1613.59,181.55,1604,182.15Z"/><path class="cls-20" d="M1604,182.15q9.57-.6,19.26-.65Q1613.59,181.55,1604,182.15Z"/><path class="cls-21" d="M2139.41,369.49q-14.77-7.86-29.43-15.59-24.43-12.87-48.54-25.3-19.27-9.92-38.36-19.47-9.54-4.75-19-9.42t-18.92-9.2c-28.3-13.62-56.25-26.41-83.84-38.11q-18.08,7.5-36.6,14.81-7.41,2.93-14.88,5.8-18.69,7.2-37.73,14.12-11.43,4.14-23,8.16-7.7,2.68-15.43,5.3l-7.74,2.6q-7.76,2.58-15.55,5.1-11.69,3.76-23.45,7.38-7.85,2.4-15.71,4.73T1695.49,325q-7.89,2.23-15.8,4.39l-7.91,2.13q-7.92,2.11-15.85,4.12c-31.73,8.05-63.59,14.93-95.27,20.33q-7.92,1.35-15.83,2.58c-47.43,7.34-94.38,11.23-139.83,10.58-44.2-.6-87.6-8.5-130.2-21.8-63.48,51.38-127.66,108.06-196.44,159.25l-.06.05.17.12c182.26,124.18,375.84,244.07,573.13,244.36,3.13,0,6.26,0,9.4-.08,181.37-3.27,378.11-96.7,543-201.42V404l-34.92-18.7Q2154.19,377.36,2139.41,369.49Z"/><path class="cls-22" d="M2139.41,369.49q-14.77-7.86-29.43-15.59-24.43-12.87-48.54-25.3-19.27-9.92-38.36-19.47-9.54-4.75-19-9.42t-18.92-9.2c-28.3-13.62-56.25-26.41-83.84-38.11q-18.08,7.5-36.6,14.81-7.41,2.93-14.88,5.8-18.69,7.2-37.73,14.12-11.43,4.14-23,8.16-7.7,2.68-15.43,5.3l-7.74,2.6q-7.76,2.58-15.55,5.1-11.69,3.76-23.45,7.38-7.85,2.4-15.71,4.73T1695.49,325q-7.89,2.23-15.8,4.39l-7.91,2.13q-7.92,2.11-15.85,4.12c-31.73,8.05-63.59,14.93-95.27,20.33q-7.92,1.35-15.83,2.58c-47.43,7.34-94.38,11.23-139.83,10.58-44.2-.6-87.6-8.5-130.2-21.8-63.48,51.38-127.66,108.06-196.44,159.25l-.06.05.17.12c182.26,124.18,375.84,244.07,573.13,244.36,3.13,0,6.26,0,9.4-.08,181.37-3.27,378.11-96.7,543-201.42V404l-34.92-18.7Q2154.19,377.36,2139.41,369.49Z"/><path class="cls-23" d="M2139.41,369.49q-14.77-7.86-29.43-15.59-24.43-12.87-48.54-25.3-19.27-9.92-38.36-19.47-9.54-4.75-19-9.42t-18.92-9.2c-28.3-13.62-56.25-26.41-83.84-38.11q-18.08,7.5-36.6,14.81-7.41,2.93-14.88,5.8-18.69,7.2-37.73,14.12-11.43,4.14-23,8.16-7.7,2.68-15.43,5.3l-7.74,2.6q-7.76,2.58-15.55,5.1-11.69,3.76-23.45,7.38-7.85,2.4-15.71,4.73T1695.49,325q-7.89,2.23-15.8,4.39l-7.91,2.13q-7.92,2.11-15.85,4.12c-31.73,8.05-63.59,14.93-95.27,20.33q-7.92,1.35-15.83,2.58c-47.43,7.34-94.38,11.23-139.83,10.58-44.2-.6-87.6-8.5-130.2-21.8-63.48,51.38-127.66,108.06-196.44,159.25l-.06.05.17.12c182.26,124.18,375.84,244.07,573.13,244.36,3.13,0,6.26,0,9.4-.08,181.37-3.27,378.11-96.7,543-201.42V404l-34.92-18.7Q2154.19,377.36,2139.41,369.49Z"/><path class="cls-24" d="M1078.36,506.55c68.78-51.19,133-107.87,196.44-159.25C1211.32,398.68,1147,455.36,1078.36,506.55Z"/><path class="cls-25" d="M1078.36,506.55c68.78-51.19,133-107.87,196.44-159.25C1211.32,398.68,1147,455.36,1078.36,506.55Z"/><path class="cls-24" d="M1078.36,506.55c68.78-51.19,133-107.87,196.44-159.25C1211.32,398.68,1147,455.36,1078.36,506.55Z"/><path class="cls-26" d="M1078.36,506.55c68.78-51.19,133-107.87,196.44-159.25C1211.32,398.68,1147,455.36,1078.36,506.55Z"/><path class="cls-27" d="M1078.36,506.55c68.78-51.19,133-107.87,196.44-159.25C1211.32,398.68,1147,455.36,1078.36,506.55Z"/><path class="cls-28" d="M617,668c186.1,12.6,331.7-64.8,461.3-161.4C877.3,369.6,690.1,227.5,527,235,350,243.16,186.94,319.78,0,389.87V497.35c191.48,79.84,405,150.73,589.81,168.42Q603.51,667.09,617,668Z"/><path class="cls-29" d="M617,668c186.1,12.6,331.7-64.8,461.3-161.4C877.3,369.6,690.1,227.5,527,235,350,243.16,186.94,319.78,0,389.87V497.35c191.48,79.84,405,150.73,589.81,168.42Q603.51,667.09,617,668Z"/><path class="cls-30" d="M617,668c186.1,12.6,331.7-64.8,461.3-161.4C877.3,369.6,690.1,227.5,527,235,350,243.16,186.94,319.78,0,389.87V497.35c191.48,79.84,405,150.73,589.81,168.42Q603.51,667.09,617,668Z"/><path class="cls-31" d="M1661,751c-3.14.06-6.27.08-9.4.08-197.39-.29-391-120.18-573.13-244.36l-.17-.12h0C948.7,603.2,803.1,680.6,617,668q-13.49-.91-27.19-2.23C405,648.08,191.48,577.19,0,497.45V768H2204V549.58C2039.11,654.3,1842.37,747.73,1661,751Z"/><path class="cls-32" d="M1661,751c-3.14.06-6.27.08-9.4.08-197.39-.29-391-120.18-573.13-244.36l-.17-.12h0C948.7,603.2,803.1,680.6,617,668q-13.49-.91-27.19-2.23C405,648.08,191.48,577.19,0,497.45V768H2204V549.58C2039.11,654.3,1842.37,747.73,1661,751Z"/><path class="cls-33" d="M1661,751c-3.14.06-6.27.08-9.4.08-197.39-.29-391-120.18-573.13-244.36l-.17-.12h0C948.7,603.2,803.1,680.6,617,668q-13.49-.91-27.19-2.23C405,648.08,191.48,577.19,0,497.45V768H2204V549.58C2039.11,654.3,1842.37,747.73,1661,751Z"/><path class="cls-34" d="M1661,751c-3.14.06-6.27.08-9.4.08-197.39-.29-391-120.18-573.13-244.36l-.17-.12h0C948.7,603.2,803.1,680.6,617,668q-13.49-.91-27.19-2.23C405,648.08,191.48,577.19,0,497.45V768H2204V549.58C2039.11,654.3,1842.37,747.73,1661,751Z"/><path class="cls-35" d="M1078.3,506.6l.17.12-.17-.12Z"/><path class="cls-36" d="M1078.3,506.6l.17.12-.17-.12Z"/><path class="cls-37" d="M1078.3,506.6l.17.12-.17-.12Z"/><path class="cls-35" d="M1078.3,506.6l.17.12-.17-.12Z"/><path class="cls-36" d="M1078.3,506.6l.17.12-.17-.12Z"/><path class="cls-38" d="M1078.3,506.6l.17.12-.17-.12Z"/><path class="cls-39" d="M1078.3,506.6l.17.12-.17-.12Z"/><path class="cls-40" d="M1661,751c-3.14.06-6.27.08-9.4.08C1654.73,751.08,1657.86,751.06,1661,751Z"/><path class="cls-41" d="M1661,751c-3.14.06-6.27.08-9.4.08C1654.73,751.08,1657.86,751.06,1661,751Z"/><path class="cls-42" d="M1661,751c-3.14.06-6.27.08-9.4.08C1654.73,751.08,1657.86,751.06,1661,751Z"/><path class="cls-43" d="M1661,751c-3.14.06-6.27.08-9.4.08C1654.73,751.08,1657.86,751.06,1661,751Z"/><path class="cls-44" d="M1661,751c-3.14.06-6.27.08-9.4.08C1654.73,751.08,1657.86,751.06,1661,751Z"/><path class="cls-45" d="M1661,751c-3.14.06-6.27.08-9.4.08C1654.73,751.08,1657.86,751.06,1661,751Z"/><path class="cls-46" d="M1661,751c-3.14.06-6.27.08-9.4.08C1654.73,751.08,1657.86,751.06,1661,751Z"/></g></g></svg>