<svg id="Calque_1" data-name="Calque 1" xmlns="http://www.w3.org/2000/svg" xmlns:xlink="http://www.w3.org/1999/xlink" width="2212" height="777" viewBox="0 0 2212 777"><defs><style>.cls-1{fill:none;}.cls-2{fill:url(#Dégradé_sans_nom);}.cls-3{fill:url(#Dégradé_sans_nom_2);}.cls-12,.cls-15,.cls-18,.cls-4,.cls-6,.cls-8{opacity:0.36;}.cls-10,.cls-12,.cls-13,.cls-15,.cls-16,.cls-18,.cls-19,.cls-20,.cls-4,.cls-6,.cls-8{isolation:isolate;}.cls-4{fill:url(#Dégradé_sans_nom_3);}.cls-5{fill:url(#Dégradé_sans_nom_4);}.cls-6{fill:url(#Dégradé_sans_nom_5);}.cls-7{fill:url(#Dégradé_sans_nom_6);}.cls-8{fill:url(#Dégradé_sans_nom_7);}.cls-9{fill:url(#Dégradé_sans_nom_8);}.cls-10,.cls-13,.cls-19{opacity:0.34;}.cls-10{fill:url(#Dégradé_sans_nom_9);}.cls-11{fill:url(#Dégradé_sans_nom_10);}.cls-12{fill:url(#Dégradé_sans_nom_11);}.cls-13{fill:url(#Dégradé_sans_nom_12);}.cls-14{fill:url(#Dégradé_sans_nom_13);}.cls-15{fill:url(#Dégradé_sans_nom_14);}.cls-16,.cls-20{opacity:0.33;}.cls-16{fill:url(#Dégradé_sans_nom_15);}.cls-17{fill:url(#Dégradé_sans_nom_16);}.cls-18{fill:url(#Dégradé_sans_nom_17);}.cls-19{fill:url(#Dégradé_sans_nom_18);}.cls-20{fill:url(#Dégradé_sans_nom_19);}</style><linearGradient id="Dégradé_sans_nom" x1="2135.65" y1="768.95" x2="2136.74" y2="768.57" gradientTransform="matrix(1920, 0, 0, -847, -4100264, 651344)" gradientUnits="userSpaceOnUse"><stop offset="0" stop-color="#24067b"/><stop offset="1" stop-color="#0f31d8"/></linearGradient><linearGradient id="Dégradé_sans_nom_2" x1="2135.69" y1="769.07" x2="2136.78" y2="768.69" xlink:href="#Dégradé_sans_nom"/><linearGradient id="Dégradé_sans_nom_3" x1="2135.83" y1="769.45" x2="2136.85" y2="769.48" gradientTransform="matrix(2627.29, 0, 0, -586.62, -5612060.82, 451374.75)" gradientUnits="userSpaceOnUse"><stop offset="0" stop-color="#1223b5"/><stop offset="1" stop-color="#09125b"/></linearGradient><linearGradient id="Dégradé_sans_nom_4" x1="2135.69" y1="769.06" x2="2136.78" y2="768.68" xlink:href="#Dégradé_sans_nom"/><linearGradient id="Dégradé_sans_nom_5" x1="2135.85" y1="768.99" x2="2136.87" y2="769.02" xlink:href="#Dégradé_sans_nom_3"/><linearGradient id="Dégradé_sans_nom_6" x1="2135.6" y1="768.82" x2="2136.69" y2="768.44" xlink:href="#Dégradé_sans_nom"/><linearGradient id="Dégradé_sans_nom_7" x1="2135.85" y1="769.01" x2="2136.87" y2="769.04" xlink:href="#Dégradé_sans_nom_3"/><linearGradient id="Dégradé_sans_nom_8" x1="2135.64" y1="768.92" x2="2136.73" y2="768.54" xlink:href="#Dégradé_sans_nom"/><linearGradient id="Dégradé_sans_nom_9" x1="2136.12" y1="768.61" x2="2137.15" y2="768.65" gradientTransform="matrix(3080.32, 269.49, 61.9, -707.46, -6628040.13, -31786.25)" gradientUnits="userSpaceOnUse"><stop offset="0" stop-color="#1755e1"/><stop offset="1" stop-color="#0c2fcd"/></linearGradient><linearGradient id="Dégradé_sans_nom_10" x1="2135.57" y1="768.72" x2="2136.66" y2="768.34" xlink:href="#Dégradé_sans_nom"/><linearGradient id="Dégradé_sans_nom_11" x1="2135.86" y1="768.57" x2="2136.88" y2="768.6" xlink:href="#Dégradé_sans_nom_3"/><linearGradient id="Dégradé_sans_nom_12" x1="2136.13" y1="768.32" x2="2137.16" y2="768.36" xlink:href="#Dégradé_sans_nom_9"/><linearGradient id="Dégradé_sans_nom_13" x1="2135.52" y1="768.58" x2="2136.61" y2="768.2" xlink:href="#Dégradé_sans_nom"/><linearGradient id="Dégradé_sans_nom_14" x1="2135.86" y1="768.67" x2="2136.88" y2="768.7" xlink:href="#Dégradé_sans_nom_3"/><linearGradient id="Dégradé_sans_nom_15" x1="2138.59" y1="769.21" x2="2139.65" y2="769.26" gradientTransform="matrix(-2641.3, 134.82, -16.68, -709.24, 5664031.07, 257593.9)" gradientUnits="userSpaceOnUse"><stop offset="0" stop-color="#172ce1"/><stop offset="1" stop-color="#0c1984"/></linearGradient><linearGradient id="Dégradé_sans_nom_16" x1="2135.47" y1="768.45" x2="2136.56" y2="768.07" xlink:href="#Dégradé_sans_nom"/><linearGradient id="Dégradé_sans_nom_17" x1="2135.86" y1="768.35" x2="2136.89" y2="768.38" xlink:href="#Dégradé_sans_nom_3"/><linearGradient id="Dégradé_sans_nom_18" x1="2136.15" y1="768.03" x2="2137.17" y2="768.07" xlink:href="#Dégradé_sans_nom_9"/><linearGradient id="Dégradé_sans_nom_19" x1="2138.6" y1="768.93" x2="2139.66" y2="768.97" xlink:href="#Dégradé_sans_nom_15"/></defs><title>default</title><path class="cls-1" d="M2208-4V-6H748.7c.8.7,1.7,1.3,2.5,2Z" transform="translate(4 6)"/><path class="cls-1" d="M66.2-4c.9-.7,1.8-1.3,2.7-2H-4v2Z" transform="translate(4 6)"/><path class="cls-2" d="M-4-4V47.9C19.7,30.4,43.1,12.9,66.2-4Z" transform="translate(4 6)"/><path class="cls-3" d="M1273.8,347.3C1395.2,248.9,1513.7,169.5,1655,183c78.4,7.5,160.2,33.2,245.3,69.4,130.5-54.2,242.2-115,307.7-153V-4H751.2C912.8,123.7,1086.1,288.7,1273.8,347.3Z" transform="translate(4 6)"/><path class="cls-4" d="M751.2-4c-.8-.7-1.7-1.3-2.5-2H69c-.9.7-1.8,1.3-2.7,2Z" transform="translate(4 6)"/><path class="cls-5" d="M2208,406.7V99.4c-65.5,38-177.2,98.7-307.7,153C1998.4,294,2101,349.4,2208,406.7Z" transform="translate(4 6)"/><path class="cls-6" d="M2208,406.7V99.4c-65.5,38-177.2,98.7-307.7,153C1998.4,294,2101,349.4,2208,406.7Z" transform="translate(4 6)"/><path class="cls-7" d="M1077.3,506.6c68.8-51.2,133-107.9,196.5-159.3C1086.1,288.7,912.8,123.7,751.2-4H66.2C43.1,12.9,19.7,30.4-4,47.9V391c188.2-70.4,352-147.8,530-156C689.1,227.5,876.3,369.6,1077.3,506.6Z" transform="translate(4 6)"/><path class="cls-8" d="M1077.3,506.6c68.8-51.2,133-107.9,196.5-159.3C1086.1,288.7,912.8,123.7,751.2-4H66.2C43.1,12.9,19.7,30.4-4,47.9V391c188.2-70.4,352-147.8,530-156C689.1,227.5,876.3,369.6,1077.3,506.6Z" transform="translate(4 6)"/><path class="cls-9" d="M1900.3,252.4c-85.1-36.1-166.9-61.9-245.3-69.4-141.3-13.5-259.8,65.9-381.2,164.3,42.7,13.3,86,21.2,130.2,21.8C1565.6,371.4,1746.1,316.4,1900.3,252.4Z" transform="translate(4 6)"/><path class="cls-10" d="M1900.3,252.4c-85.1-36.1-166.9-61.9-245.3-69.4-141.3-13.5-259.8,65.9-381.2,164.3,42.7,13.3,86,21.2,130.2,21.8C1565.6,371.4,1746.1,316.4,1900.3,252.4Z" transform="translate(4 6)"/><path class="cls-11" d="M1404,369.1c-44.2-.6-87.6-8.5-130.2-21.8-63.5,51.4-127.8,108.1-196.5,159.3,185.2,126.2,382.1,248,582.7,244.4,183.2-3.3,382.1-98.6,548-204.6V406.7c-107-57.3-209.6-112.7-307.7-154.3C1746.1,316.4,1565.6,371.4,1404,369.1Z" transform="translate(4 6)"/><path class="cls-12" d="M1404,369.1c-44.2-.6-87.6-8.5-130.2-21.8-63.5,51.4-127.8,108.1-196.5,159.3,185.2,126.2,382.1,248,582.7,244.4,183.2-3.3,382.1-98.6,548-204.6V406.7c-107-57.3-209.6-112.7-307.7-154.3C1746.1,316.4,1565.6,371.4,1404,369.1Z" transform="translate(4 6)"/><path class="cls-13" d="M1404,369.1c-44.2-.6-87.6-8.5-130.2-21.8-63.5,51.4-127.8,108.1-196.5,159.3,185.2,126.2,382.1,248,582.7,244.4,183.2-3.3,382.1-98.6,548-204.6V406.7c-107-57.3-209.6-112.7-307.7-154.3C1746.1,316.4,1565.6,371.4,1404,369.1Z" transform="translate(4 6)"/><path class="cls-14" d="M1077.3,506.6C876.3,369.6,689.1,227.5,526,235,348,243.2,184.2,320.6-4,391V496.1C197.7,580.4,424.2,655,616,668,802.1,680.6,947.7,603.2,1077.3,506.6Z" transform="translate(4 6)"/><path class="cls-15" d="M1077.3,506.6C876.3,369.6,689.1,227.5,526,235,348,243.2,184.2,320.6-4,391V496.1C197.7,580.4,424.2,655,616,668,802.1,680.6,947.7,603.2,1077.3,506.6Z" transform="translate(4 6)"/><path class="cls-16" d="M1077.3,506.6C876.3,369.6,689.1,227.5,526,235,348,243.2,184.2,320.6-4,391V496.1C197.7,580.4,424.2,655,616,668,802.1,680.6,947.7,603.2,1077.3,506.6Z" transform="translate(4 6)"/><path class="cls-17" d="M1077.3,506.6C947.7,603.2,802.1,680.6,616,668,424.2,655,197.7,580.4-4,496.2V771H2208V546.4c-165.9,106-364.8,201.3-548,204.6C1459.3,754.6,1262.4,632.8,1077.3,506.6Z" transform="translate(4 6)"/><path class="cls-18" d="M1077.3,506.6C947.7,603.2,802.1,680.6,616,668,424.2,655,197.7,580.4-4,496.2V771H2208V546.4c-165.9,106-364.8,201.3-548,204.6C1459.3,754.6,1262.4,632.8,1077.3,506.6Z" transform="translate(4 6)"/><path class="cls-19" d="M1077.3,506.6C947.7,603.2,802.1,680.6,616,668,424.2,655,197.7,580.4-4,496.2V771H2208V546.4c-165.9,106-364.8,201.3-548,204.6C1459.3,754.6,1262.4,632.8,1077.3,506.6Z" transform="translate(4 6)"/><path class="cls-20" d="M1077.3,506.6C947.7,603.2,802.1,680.6,616,668,424.2,655,197.7,580.4-4,496.2V771H2208V546.4c-165.9,106-364.8,201.3-548,204.6C1459.3,754.6,1262.4,632.8,1077.3,506.6Z" transform="translate(4 6)"/></svg>