<?xml version="1.0" encoding="utf-8"?>
<!-- Generator: Adobe Illustrator 22.1.0, SVG Export Plug-In . SVG Version: 6.00 Build 0)  -->
<svg version="1.1" id="Calque_1" xmlns="http://www.w3.org/2000/svg" xmlns:xlink="http://www.w3.org/1999/xlink" x="0px" y="0px"
	 viewBox="0 0 2206 768" style="enable-background:new 0 0 2206 768;" xml:space="preserve">
<style type="text/css">
	
		.st0{opacity:0.1;fill:#FFFFFF;stroke:#004680;stroke-width:1.4;stroke-linecap:round;stroke-linejoin:round;stroke-miterlimit:10;enable-background:new    ;}
	
		.st1{opacity:0.4;fill:#FFFFFF;stroke:#004680;stroke-width:1.4;stroke-linecap:round;stroke-linejoin:round;stroke-miterlimit:10;enable-background:new    ;}
	.st2{fill:#DCE7F2;}
	.st3{fill:none;stroke:#004680;stroke-width:1.4;stroke-linecap:round;stroke-linejoin:round;stroke-miterlimit:10;}
	.st4{fill:#FFFFFF;}
	.st5{fill:#FFFFFF;stroke:#004680;stroke-width:1.4;stroke-linecap:round;stroke-linejoin:round;stroke-miterlimit:10;}
	
		.st6{opacity:0.3;fill:none;stroke:#004680;stroke-width:1.4;stroke-linecap:round;stroke-linejoin:round;stroke-miterlimit:10;enable-background:new    ;}
	
		.st7{opacity:0.4;fill:none;stroke:#004680;stroke-width:1.4;stroke-linecap:round;stroke-linejoin:round;stroke-miterlimit:10;enable-background:new    ;}
	.st8{fill:none;stroke:#004680;stroke-width:2.2;stroke-linecap:round;stroke-linejoin:round;stroke-miterlimit:10;}
	.st9{opacity:0.2;}
	.st10{fill:#CEFBEA;stroke:#004680;stroke-width:1.4;stroke-miterlimit:10;}
	.st11{opacity:0.9;fill:#FF9739;enable-background:new    ;}
	.st12{opacity:0.9;fill:#FF5656;enable-background:new    ;}
	.st13{fill:#D3CEFB;stroke:#004680;stroke-width:1.4;stroke-miterlimit:10;}
	.st14{opacity:0.5;fill:#004680;enable-background:new    ;}
	.st15{fill:#A4FDD4;}
	.st16{fill:#DCE7F2;stroke:#004680;stroke-width:1.4;stroke-linecap:round;stroke-linejoin:round;stroke-miterlimit:10;}
	.st17{fill:#FFB8B8;stroke:#004680;stroke-width:1.4;stroke-linecap:round;stroke-linejoin:round;stroke-miterlimit:10;}
	.st18{fill:#A0BBFB;stroke:#004680;stroke-width:1.4;stroke-miterlimit:10;}
	.st19{fill:#004680;}
	.st20{opacity:0.7;fill:#004680;enable-background:new    ;}
	.st21{fill:#9DADBD;}
	.st22{fill:#FF8C8C;}
	.st23{fill:#A9F2AB;}
	.st24{fill:#DFE2E5;stroke:#777E92;stroke-width:1.4;stroke-linecap:round;stroke-linejoin:round;stroke-miterlimit:10;}
	.st25{opacity:0.3;fill:none;stroke:#004680;stroke-width:1.4;stroke-miterlimit:10;enable-background:new    ;}
	.st26{opacity:0.3;fill:#004680;enable-background:new    ;}
	.st27{font-family:'ArialMT';}
	.st28{font-size:14.8811px;}
	.st29{fill:#D3CEFB;stroke:#004680;stroke-width:1.4;stroke-linecap:round;stroke-linejoin:round;stroke-miterlimit:10;}
	.st30{fill:#FFFFFF;stroke:#004680;stroke-linecap:round;stroke-linejoin:round;stroke-miterlimit:10;}
	.st31{fill:#E1EAF2;stroke:#004680;stroke-width:1.4;stroke-linecap:round;stroke-linejoin:round;stroke-miterlimit:10;}
	
		.st32{opacity:0.2;fill:#FFFFFF;stroke:#004680;stroke-width:1.4;stroke-linecap:round;stroke-linejoin:round;stroke-miterlimit:10;enable-background:new    ;}
	.st33{opacity:0.8;fill:#3C5A99;enable-background:new    ;}
	.st34{fill:#CFD9E6;}
	.st35{opacity:0.8;fill:#55ADEE;enable-background:new    ;}
	
		.st36{opacity:0.2;fill:#A0BBFB;stroke:#004680;stroke-width:1.4;stroke-linecap:round;stroke-linejoin:round;stroke-miterlimit:10;enable-background:new    ;}
	
		.st37{opacity:0.1;fill:#A0BBFB;stroke:#004680;stroke-width:1.4;stroke-linecap:round;stroke-linejoin:round;stroke-miterlimit:10;enable-background:new    ;}
	.st38{fill:#DCDAEF;stroke:#004680;stroke-width:1.4;stroke-linecap:round;stroke-linejoin:round;stroke-miterlimit:10;}
	.st39{fill:#C3D3E3;stroke:#004680;stroke-width:1.4;stroke-linecap:round;stroke-linejoin:round;stroke-miterlimit:10;}
	
		.st40{opacity:0.15;fill:#FFFFFF;stroke:#004680;stroke-width:1.4;stroke-linecap:round;stroke-linejoin:round;stroke-miterlimit:10;enable-background:new    ;}
	
		.st41{opacity:0.3;fill:#FFFFFF;stroke:#004680;stroke-width:1.4;stroke-linecap:round;stroke-linejoin:round;stroke-miterlimit:10;enable-background:new    ;}
	.st42{fill:none;stroke:#004680;stroke-width:1.4;stroke-linecap:round;stroke-linejoin:round;}
	.st43{fill:none;stroke:#004680;stroke-width:1.4;stroke-linecap:round;stroke-linejoin:round;stroke-dasharray:4.1292,4.1292;}
	.st44{fill:#CEC5EF;stroke:#004680;stroke-width:1.4;stroke-linecap:round;stroke-linejoin:round;stroke-miterlimit:10;}
	.st45{opacity:0.2;fill:#FFFFFF;stroke:#3D6DD1;stroke-width:1.4;stroke-miterlimit:10;enable-background:new    ;}
	.st46{opacity:0.4;fill:#FFFFFF;stroke:#3D6DD1;stroke-width:1.4;stroke-miterlimit:10;enable-background:new    ;}
	.st47{fill:#FFFFFF;stroke:#3D6DD1;stroke-width:1.4;stroke-miterlimit:10;}
	.st48{fill:#FFFFFF;stroke:#3D6DD1;stroke-width:1.4;stroke-linecap:round;stroke-linejoin:round;stroke-miterlimit:10;}
	.st49{fill:#3D6DD1;}
	
		.st50{opacity:0.2;fill:#FFFFFF;stroke:#3D6DD1;stroke-width:1.4;stroke-linecap:round;stroke-linejoin:round;stroke-miterlimit:10;enable-background:new    ;}
	
		.st51{opacity:0.4;fill:#FFFFFF;stroke:#3D6DD1;stroke-width:1.4;stroke-linecap:round;stroke-linejoin:round;stroke-miterlimit:10;enable-background:new    ;}
	
		.st52{opacity:0.15;fill:none;stroke:#004680;stroke-width:1.4;stroke-linecap:round;stroke-linejoin:round;stroke-miterlimit:10;enable-background:new    ;}
	
		.st53{opacity:0.2;fill:#DCE7F2;stroke:#004680;stroke-width:1.4;stroke-linecap:round;stroke-linejoin:round;stroke-miterlimit:10;enable-background:new    ;}
	
		.st54{opacity:0.1;fill:#DCE7F2;stroke:#004680;stroke-width:1.4;stroke-linecap:round;stroke-linejoin:round;stroke-miterlimit:10;enable-background:new    ;}
	
		.st55{opacity:0.4;fill:#DCE7F2;stroke:#004680;stroke-width:1.4;stroke-linecap:round;stroke-linejoin:round;stroke-miterlimit:10;enable-background:new    ;}
	.st56{fill:#D3CEFB;}
	.st57{fill:#E1EAF2;}
	.st58{opacity:0.15;fill:#004680;enable-background:new    ;}
	.st59{fill:#DAC5EF;stroke:#004680;stroke-width:1.4;stroke-linecap:round;stroke-linejoin:round;stroke-miterlimit:10;}
	.st60{fill:#C6F2C7;stroke:#004680;stroke-width:1.4;stroke-linecap:round;stroke-linejoin:round;stroke-miterlimit:10;}
	.st61{clip-path:url(#SVGID_2_);}
	
		.st62{clip-path:url(#SVGID_4_);fill:none;stroke:#004680;stroke-width:1.4;stroke-linecap:round;stroke-linejoin:round;stroke-miterlimit:10;}
	.st63{fill:none;stroke:#004680;stroke-width:1.4;stroke-miterlimit:10;}
</style>
<title>bg</title>
<g id="iphone_4_">
	<path class="st0" d="M1421.3,652.5l138.6,82c11.8,7,26.4,7.1,38.2,0.2l92.3-53.1"/>
	<path class="st0" d="M1710.7,670.1l265.8-152.7c10.6-6.1,10.6-21.4,0-27.5l-156.1-90.1c-11.7-6.8-26.1-6.8-37.9,0L1406.1,616
		c-10.5,6.1-10.6,21.2-0.2,27.4l9.9,5.9"/>
	<path class="st1" d="M1710.7,649.9l265.8-152.7c10.6-6.1,10.6-21.4,0-27.5l-156.1-90.1c-11.7-6.8-26.1-6.8-37.9,0L1406,595.9
		c-10.5,6.1-10.6,21.2-0.2,27.4l9.9,5.9"/>
	<path class="st1" d="M1421.3,632.3l138.6,82c11.8,7,26.4,7.1,38.2,0.2l92.3-53.1"/>
	<path class="st2" d="M1406.3,550.5c-19.5,12.4-19,42,1.1,53.9l151.9,90.7c12.4,7.4,27.9,7.5,40.4,0.3l375.9-215.9
		c20.2-11.6,20.6-38.8,3.4-52.9"/>
	<path class="st3" d="M1513.3,667.7l45.9,27.4c12.4,7.4,27.9,7.5,40.4,0.3l375.9-215.9c20.2-11.6,20.8-38.8,3.6-52.9"/>
	<path class="st3" d="M1406.3,550.5c-19.5,12.4-19,42,1.1,53.9l77.9,46.5"/>
	<path class="st4" d="M1406.8,550.2c-10.5,6.1-10.6,21.2-0.2,27.4l153.9,91.1c11.8,7,26.4,7.1,38.2,0.2l378.4-217.4
		c10.6-6.1,10.6-21.4,0-27.5l-156-90c-11.7-6.8-26.1-6.8-37.9,0L1406.8,550.2z"/>
	<path class="st5" d="M1421.9,586.7l138.6,82c11.8,7,26.4,7.1,38.2,0.2l92.3-53.1"/>
	<polyline class="st6" points="1539.9,486.4 1777.1,351.8 1817.4,374.7 	"/>
	<path class="st3" d="M1510,616c0.5-0.1,1-0.2,1.5-0.3"/>
	<path class="st3" d="M1485.2,601.7c-2.1,3.9-0.4,8.4,4.9,11.5c3.9,2.3,9.1,3.4,14.3,3.4"/>
	<path class="st3" d="M1519.2,612.6c6.7-4.5,6.4-11.3-1-15.6c-7.7-4.5-20.3-4.5-28.1,0c-1,0.5-1.8,1.1-2.5,1.8"/>
	<path class="st5" d="M1708.9,605.6L1976.7,451c10.6-6.1,10.8-21.4,0.2-27.6l-156.2-90.1c-11.7-6.8-26.1-6.8-37.9,0l-376.5,216.3
		c-10.5,6.1-10.6,21.2-0.2,27.4l9.9,5.9"/>
	<polyline class="st7" points="1828.6,379.4 1954.5,451.2 1618.3,642.1 1445.8,540.5 1536.2,489.2 	"/>
	<line class="st3" x1="1699.8" y1="610.9" x2="1700.8" y2="610.3"/>
	<line class="st3" x1="1897.3" y1="398.2" x2="1864.2" y2="379.1"/>
	<path class="st8" d="M1512.6,667.2l46.7,27.9c12.4,7.4,27.9,7.5,40.4,0.3l375.9-215.9c16.6-9.6,22.8-31.8,6.8-50.8
		c-4.6-5.4-2.8-4.1-89.2-53.1c-108.1-61.4-77.8-61.1-173.6-6c-317.8,182.7-315.5,178.2-321.3,187.2c-11,16.9-5.9,38.8,9.1,47.7
		l82.8,49.5"/>
	<line class="st8" x1="1500.8" y1="660.2" x2="1501.9" y2="660.9"/>
</g>
<g id="cards_2_">
	<path class="st4" d="M1750.6,733.2l-6.9,4c-0.5,0.3-1.4,0.2-1.9-0.1l0,0c-0.6-0.3-0.6-0.8-0.1-1.1l6.9-4c0.5-0.3,1.4-0.2,1.9,0.1
		l0,0C1751,732.5,1751.1,733,1750.6,733.2z"/>
	<path class="st4" d="M1732.1,730.2l-8.1,4.7c-0.3,0.2-0.8,0.1-1.1,0l0,0c-0.3-0.2-0.4-0.5-0.1-0.6l8.1-4.7c0.3-0.2,0.8-0.1,1.1,0
		l0,0C1732.4,729.7,1732.4,730,1732.1,730.2z"/>
	<g class="st9">
		<path class="st3" d="M1775.3,753.5l-50.9,29.4c-2,1.1-5.5,1-7.8-0.3l-28.3-16.4c-2.3-1.3-2.5-3.3-0.6-4.5l50.9-29.4
			c2-1.1,5.5-1,7.8,0.3l28.3,16.4C1777.1,750.4,1777.3,752.4,1775.3,753.5z"/>
	</g>
	<g>
		<path class="st10" d="M1775.3,738.3l-50.9,29.4c-2,1.1-5.5,1-7.8-0.3l-28.3-16.4c-2.3-1.3-2.5-3.3-0.6-4.5l50.9-29.4
			c2-1.1,5.5-1,7.8,0.3l28.3,16.4C1777.1,735.1,1777.3,737.1,1775.3,738.3z"/>
		<path class="st4" d="M1718,752.1l-6.9,4c-0.5,0.3-1.4,0.2-1.9-0.1l0,0c-0.6-0.3-0.6-0.8-0.1-1.1l6.9-4c0.5-0.3,1.4-0.2,1.9,0.1
			l0,0C1718.4,751.3,1718.5,751.8,1718,752.1z"/>
		<path class="st4" d="M1728.9,745.8l-6.9,4c-0.5,0.3-1.4,0.2-1.9-0.1l0,0c-0.6-0.3-0.6-0.8-0.1-1.1l6.9-4c0.5-0.3,1.4-0.2,1.9,0.1
			l0,0C1729.3,745,1729.4,745.5,1728.9,745.8z"/>
		<path class="st4" d="M1739.7,739.5l-6.9,4c-0.5,0.3-1.4,0.2-1.9-0.1l0,0c-0.6-0.3-0.6-0.8-0.1-1.1l6.9-4c0.5-0.3,1.4-0.2,1.9,0.1
			l0,0C1740.2,738.7,1740.2,739.2,1739.7,739.5z"/>
		<path class="st4" d="M1741.2,747.1l-23.1,13.3c-0.3,0.2-0.8,0.1-1.1,0l0,0c-0.3-0.2-0.4-0.5-0.1-0.6l23.1-13.3
			c0.3-0.2,0.8-0.1,1.1,0l0,0C1741.5,746.7,1741.5,747,1741.2,747.1z"/>
		<path class="st4" d="M1722,736l-23.1,13.3c-0.3,0.2-0.8,0.1-1.1,0l0,0c-0.3-0.2-0.4-0.5-0.1-0.6l23.1-13.3c0.3-0.2,0.8-0.1,1.1,0
			l0,0C1722.2,735.6,1722.3,735.9,1722,736z"/>
		
			<ellipse transform="matrix(1 -4.046834e-03 4.046834e-03 1 -2.9742 7.1261)" class="st11" cx="1759.4" cy="738.5" rx="4.9" ry="2.8"/>
		
			<ellipse transform="matrix(1 -4.046834e-03 4.046834e-03 1 -2.9653 7.1419)" class="st12" cx="1763.3" cy="736.3" rx="4.9" ry="2.8"/>
	</g>
	<g>
		<path class="st13" d="M1775.3,722.1l-50.9,29.4c-2,1.1-5.5,1-7.8-0.3l-28.3-16.4c-2.3-1.3-2.5-3.3-0.6-4.5l50.9-29.4
			c2-1.1,5.5-1,7.8,0.3l28.3,16.4C1777.1,718.9,1777.3,720.9,1775.3,722.1z"/>
		<path class="st4" d="M1718,735.8l-6.9,4c-0.5,0.3-1.4,0.2-1.9-0.1l0,0c-0.6-0.3-0.6-0.8-0.1-1.1l6.9-4c0.5-0.3,1.4-0.2,1.9,0.1
			l0,0C1718.4,735.1,1718.5,735.6,1718,735.8z"/>
		<path class="st4" d="M1728.9,729.6l-6.9,4c-0.5,0.3-1.4,0.2-1.9-0.1l0,0c-0.6-0.3-0.6-0.8-0.1-1.1l6.9-4c0.5-0.3,1.4-0.2,1.9,0.1
			l0,0C1729.3,728.8,1729.4,729.3,1728.9,729.6z"/>
		<path class="st4" d="M1739.7,723.3l-6.9,4c-0.5,0.3-1.4,0.2-1.9-0.1l0,0c-0.6-0.3-0.6-0.8-0.1-1.1l6.9-4c0.5-0.3,1.4-0.2,1.9,0.1
			l0,0C1740.2,722.5,1740.2,723,1739.7,723.3z"/>
		<path class="st4" d="M1750.6,717l-6.9,4c-0.5,0.3-1.4,0.2-1.9-0.1l0,0c-0.6-0.3-0.6-0.8-0.1-1.1l6.9-4c0.5-0.3,1.4-0.2,1.9,0.1
			l0,0C1751,716.2,1751.1,716.7,1750.6,717z"/>
		<path class="st4" d="M1741.2,730.9l-23.1,13.3c-0.3,0.2-0.8,0.1-1.1,0l0,0c-0.3-0.2-0.4-0.5-0.1-0.6l23.1-13.3
			c0.3-0.2,0.8-0.1,1.1,0l0,0C1741.5,730.5,1741.5,730.8,1741.2,730.9z"/>
		<path class="st4" d="M1722,719.8l-23.1,13.3c-0.3,0.2-0.8,0.1-1.1,0l0,0c-0.3-0.2-0.4-0.5-0.1-0.6l23.1-13.3
			c0.3-0.2,0.8-0.1,1.1,0l0,0C1722.2,719.4,1722.3,719.6,1722,719.8z"/>
		<path class="st4" d="M1732.1,713.9l-8.1,4.7c-0.3,0.2-0.8,0.1-1.1,0l0,0c-0.3-0.2-0.4-0.5-0.1-0.6l8.1-4.7c0.3-0.2,0.8-0.1,1.1,0
			l0,0C1732.4,713.5,1732.4,713.8,1732.1,713.9z"/>
		
			<ellipse transform="matrix(1 -4.046834e-03 4.046834e-03 1 -2.9086 7.126)" class="st11" cx="1759.4" cy="722.3" rx="4.9" ry="2.8"/>
		
			<ellipse transform="matrix(1 -4.046834e-03 4.046834e-03 1 -2.8997 7.1417)" class="st12" cx="1763.3" cy="720.1" rx="4.9" ry="2.8"/>
	</g>
	<g>
		<path class="st5" d="M1706.7,704.6l32-18.4c2-1.1,5.5-1,7.8,0.3l28.3,16.4c2.3,1.3,2.5,3.3,0.6,4.5l-50.9,29.4
			c-2,1.1-5.5,1-7.8-0.3l-28.3-16.4c-2.3-1.3-2.5-3.3-0.6-4.5l11-6.3"/>
		<line class="st3" x1="1703.8" y1="706.2" x2="1704" y2="706.1"/>
		<path class="st14" d="M1718,721.1l-6.9,4c-0.5,0.3-1.4,0.2-1.9-0.1l0,0c-0.6-0.3-0.6-0.8-0.1-1.1l6.9-4c0.5-0.3,1.4-0.2,1.9,0.1
			l0,0C1718.4,720.3,1718.5,720.8,1718,721.1z"/>
		<path class="st14" d="M1728.9,714.8l-6.9,4c-0.5,0.3-1.4,0.2-1.9-0.1l0,0c-0.6-0.3-0.6-0.8-0.1-1.1l6.9-4c0.5-0.3,1.4-0.2,1.9,0.1
			l0,0C1729.3,714,1729.4,714.5,1728.9,714.8z"/>
		<path class="st14" d="M1739.7,708.5l-6.9,4c-0.5,0.3-1.4,0.2-1.9-0.1l0,0c-0.6-0.3-0.6-0.8-0.1-1.1l6.9-4c0.5-0.3,1.4-0.2,1.9,0.1
			l0,0C1740.2,707.7,1740.2,708.2,1739.7,708.5z"/>
		<path class="st14" d="M1750.6,702.2l-6.9,4c-0.5,0.3-1.4,0.2-1.9-0.1l0,0c-0.6-0.3-0.6-0.8-0.1-1.1l6.9-4c0.5-0.3,1.4-0.2,1.9,0.1
			l0,0C1751,701.5,1751.1,702,1750.6,702.2z"/>
		<path class="st14" d="M1741.2,716.1l-23.1,13.3c-0.3,0.2-0.8,0.1-1.1,0l0,0c-0.3-0.2-0.4-0.5-0.1-0.6l23.1-13.3
			c0.3-0.2,0.8-0.1,1.1,0l0,0C1741.5,715.7,1741.5,716,1741.2,716.1z"/>
		<path class="st14" d="M1722,705l-23.1,13.3c-0.3,0.2-0.8,0.1-1.1,0l0,0c-0.3-0.2-0.4-0.5-0.1-0.6l23.1-13.3c0.3-0.2,0.8-0.1,1.1,0
			l0,0C1722.2,704.6,1722.3,704.9,1722,705z"/>
		<path class="st14" d="M1732.1,699.2l-8.1,4.7c-0.3,0.2-0.8,0.1-1.1,0l0,0c-0.3-0.2-0.4-0.5-0.1-0.6l8.1-4.7c0.3-0.2,0.8-0.1,1.1,0
			l0,0C1732.4,698.7,1732.4,699,1732.1,699.2z"/>
		
			<ellipse transform="matrix(1 -4.046834e-03 4.046834e-03 1 -2.8488 7.1259)" class="st11" cx="1759.4" cy="707.5" rx="4.9" ry="2.8"/>
		
			<ellipse transform="matrix(1 -4.046834e-03 4.046834e-03 1 -2.8398 7.1416)" class="st12" cx="1763.3" cy="705.3" rx="4.9" ry="2.8"/>
	</g>
</g>
<g id="wallet_2_">
	<circle class="st15" cx="1982.5" cy="650.6" r="0.7"/>
	<path class="st16" d="M1914.1,607.3l-23.1,13.3c-0.7,0.4-1.2,0.9-1.5,1.4c-0.2,0.3-0.2,0.6-0.2,0.9l0,0v1.5l0,0
		c0,0.6,0.4,1.2,1.2,1.7l2.6,1.5l0,0l0,0l-2.1,1.2c-0.7,0.4-1.2,0.9-1.5,1.4c-0.2,0.3-0.3,0.6-0.2,0.9c0,0.6,0.4,1.3,1.2,1.7
		l30.2,17.4c1.8,1,4.9,0.9,7-0.3l41.1-23.7l0,0c0.1-0.1,0.2-0.1,0.4-0.2c1.6-0.9,3-3.2,3-5.1c0-1.9-1.3-2.6-2.9-1.7l-5.8,3.4l0,0
		l5.8-3.4v-0.3v-1l0,0c0,0,1.7-1,2.8-0.5l-36.4-21c-0.3-0.2-0.7-0.3-1.1-0.3c-0.6,0-1.2,0.2-1.8,0.6l0,0l-8.6,5"/>
	<path class="st17" d="M1913.7,607.5l-22.7,13.1c-0.6,0.3-1,0.7-1.3,1.1c-0.1,0.1-0.1,0.2-0.2,0.3c-0.2,0.3-0.3,0.6-0.2,0.9l0,0v1.5
		l0,0c0,0.6,0.4,1.2,1.2,1.7l2.6,1.5l27.6,15.9c1.8,1,4.9,0.9,7-0.3l34.7-20l0.9-0.5l0,0l5.8-3.4c0.7-0.4,1.4-0.5,1.9-0.3h0.1
		c0.6,0.3,0.9,0.9,0.9,1.9c0,1.9-1.3,4.1-2.9,5.1l0,0l-0.4,0.2l-2.7,1.6l-38.4,22.2c-2.1,1.2-5.2,1.3-7,0.3l-30.2-17.4
		c-0.8-0.5-1.2-1.1-1.2-1.7l0,0v1.5l0,0c0,0.6,0.4,1.2,1.2,1.7l30.2,17.4c1.8,1,4.9,0.9,7-0.3l41.4-23.9l0,0
		c2.3-1.4,4.2-4.6,4.2-7.3c0-0.2,0-0.3,0-0.5c0-0.1,0-0.1,0-0.2c0-0.1,0-0.2-0.1-0.3v-0.1c0-0.1-0.1-0.2-0.1-0.3v-0.1
		c-0.1-0.1-0.1-0.2-0.2-0.3c0,0,0,0,0-0.1c-0.2-0.3-0.4-0.5-0.7-0.7l0,0h-0.1l-36.6-21.1c-0.3-0.2-0.7-0.3-1.1-0.3
		c-0.6,0-1.2,0.2-1.8,0.6l0,0l-7.3,4.2"/>
	<g>
		<path class="st18" d="M1973.5,633.8l-34.5,13.3c-1.3,0.5-3.5,0.1-4.8-1l-15.9-12.9c-1.3-1-1.2-2.3,0.1-2.8l34.5-13.3
			c1.3-0.5,3.5-0.1,4.8,1l15.9,12.9C1974.9,632,1974.9,633.3,1973.5,633.8z"/>
		<path class="st19" d="M1937.3,636.5l-4.7,1.8c-0.3,0.1-0.9,0-1.2-0.2l0,0c-0.3-0.3-0.3-0.6,0-0.7l4.7-1.8c0.3-0.1,0.9,0,1.2,0.2
			l0,0C1937.6,636,1937.6,636.3,1937.3,636.5z"/>
		<path class="st19" d="M1944.7,633.6l-4.7,1.8c-0.3,0.1-0.9,0-1.2-0.2l0,0c-0.3-0.3-0.3-0.6,0-0.7l4.7-1.8c0.3-0.1,0.9,0,1.2,0.2
			l0,0C1945,633.2,1945,633.5,1944.7,633.6z"/>
		<path class="st19" d="M1952,630.8l-4.7,1.8c-0.3,0.1-0.9,0-1.2-0.2l0,0c-0.3-0.3-0.3-0.6,0-0.7l4.7-1.8c0.3-0.1,0.9,0,1.2,0.2l0,0
			C1952.4,630.4,1952.4,630.7,1952,630.8z"/>
		<path class="st19" d="M1959.4,628l-4.7,1.8c-0.3,0.1-0.9,0-1.2-0.2l0,0c-0.3-0.3-0.3-0.6,0-0.7l4.7-1.8c0.3-0.1,0.9,0,1.2,0.2l0,0
			C1959.7,627.5,1959.7,627.8,1959.4,628z"/>
		<path class="st19" d="M1952.2,635.7l-15.6,6c-0.2,0.1-0.5,0-0.7-0.1l0,0c-0.2-0.1-0.2-0.3,0-0.4l15.6-6c0.2-0.1,0.5,0,0.7,0.1l0,0
			C1952.4,635.4,1952.4,635.6,1952.2,635.7z"/>
		<path class="st4" d="M1941.4,626.9l-15.6,6c-0.2,0.1-0.5,0-0.7-0.1l0,0c-0.2-0.1-0.2-0.3,0-0.4l15.6-6c0.2-0.1,0.5,0,0.7,0.1l0,0
			C1941.6,626.7,1941.6,626.8,1941.4,626.9z"/>
		<path class="st4" d="M1948.3,624.3l-5.5,2.1c-0.2,0.1-0.5,0-0.7-0.1l0,0c-0.2-0.1-0.2-0.3,0-0.4l5.5-2.1c0.2-0.1,0.5,0,0.7,0.1
			l0,0C1948.5,624,1948.4,624.2,1948.3,624.3z"/>
		
			<ellipse transform="matrix(0.1481 -0.989 0.989 0.1481 1048.3447 2481.0688)" class="st11" cx="1964.3" cy="632" rx="1.8" ry="3.1"/>
		
			<ellipse transform="matrix(0.1481 -0.989 0.989 0.1481 1051.5537 2482.7937)" class="st12" cx="1966.9" cy="631" rx="1.8" ry="3.1"/>
	</g>
	<path class="st5" d="M1915.6,606.4l-24.6,14.2c-0.2,0.1-0.3,0.2-0.4,0.3s-0.2,0.1-0.3,0.2c-0.1,0.1-0.2,0.2-0.2,0.2
		c-0.1,0.1-0.2,0.2-0.3,0.3l0,0c-0.1,0.1-0.1,0.2-0.2,0.3c0,0,0,0,0,0.1s-0.1,0.2-0.1,0.2c0,0.1-0.1,0.2-0.1,0.3s0,0.2,0,0.2v0.1
		c0,0.1,0,0.1,0,0.1c0,0.1,0,0.2,0.1,0.3c0,0.1,0.1,0.2,0.1,0.3s0.1,0.2,0.1,0.2c0.1,0.1,0.2,0.2,0.2,0.3c0.1,0.1,0.1,0.1,0.1,0.2
		c0.2,0.1,0.3,0.3,0.5,0.4l0,0l13.4,7.8l16.7,9.7c0.2,0.1,0.3,0.2,0.5,0.2c1.8,0.8,4.6,0.6,6.5-0.5l33.5-19.4l7.9-4.6
		c1.1-0.6,2-0.7,2.8-0.4l-36.4-21c-0.3-0.2-0.7-0.3-1.1-0.3c-0.6,0-1.2,0.2-1.8,0.6l0,0l-8.7,5"/>
	<line class="st3" x1="1919" y1="604.4" x2="1918.6" y2="604.7"/>
	<path class="st16" d="M1915,631.6c-6.8,1.6-12.8,6.1-12.8,9.1c0,0.1-0.1,0.5-0.1,0.6l-5.1-2.7c-0.8-0.5-0.9-0.6-1.3-0.9l-0.1-0.1
		c-3.6-2.5,3.8-10.7,9.8-11.6c1.1-0.2,2.8-0.5,3.9,0.2l5.4,3.1C1915.8,630,1916.1,631.4,1915,631.6z"/>
	<path class="st20" d="M1910.8,628.6c0-0.4-0.3-0.9-0.9-1.2c-1.1-0.6-3-0.6-4.1,0c-0.6,0.3-0.8,0.7-0.9,1.1l0,0v0.6l0,0
		c0,0.4,0.3,0.8,0.9,1.2c1.1,0.6,3,0.6,4.1,0c0.6-0.3,0.9-0.8,0.9-1.2V628.6z"/>
	
		<ellipse transform="matrix(5.042207e-03 -1 1 5.042207e-03 1269.6616 2533.145)" class="st19" cx="1907.8" cy="628.5" rx="1.6" ry="2.9"/>
</g>
<g id="pos_2_">
	<path class="st16" d="M1890.3,676.1l-32.1-18.6l1.7-1c2.1-1.2,2.3-3,0.5-4l-18.6-10.7c-1.8-1-4.9-0.9-6.9,0.3l-34.8,20.1
		c-1.1,0.6-1.7,1.5-1.7,2.3l0,0v9.3l0,0c0,0.6,0.4,1.2,1.2,1.7l18.6,10.7c1.8,1,4.9,0.9,6.9-0.3l1.7-1l32.1,18.6
		c2.2,1.3,6,1.1,8.5-0.4l22.3-12.8c1.4-0.8,2.2-1.9,2.1-2.9v-9C1891.8,677.5,1891.4,676.7,1890.3,676.1z"/>
	<path class="st5" d="M1843.7,685.4l15.2,8.8c2.2,1.3,6,1.1,8.5-0.4l22.3-12.8c2.5-1.5,2.8-3.7,0.6-4.9l-32.1-18.6l1.7-1
		c2.1-1.2,2.3-3,0.5-4l-18.6-10.7c-1.8-1-4.9-0.9-6.9,0.3l-34.8,20.1c-2.1,1.2-2.3,3-0.5,4l18.6,10.7c1.8,1,4.9,0.9,6.9-0.3l1.7-1
		l10,5.8"/>
	<line class="st3" x1="1841.1" y1="683.9" x2="1841.4" y2="684"/>
	<path class="st5" d="M1853,655.1l-30.4,17.6c-0.7,0.4-1.8,0.4-2.4,0.1l-11.1-6.4c-0.6-0.3-0.5-1,0.2-1.4l30.4-17.6
		c0.7-0.4,1.8-0.4,2.4-0.1l11.1,6.4C1853.8,654,1853.7,654.7,1853,655.1z"/>
	<path class="st21" d="M1844.4,674.3l-3.3,1.9c-0.6,0.4-1.6,0.4-2.1,0.1l-3.7-2.1c-0.5-0.3-0.5-0.9,0.2-1.2l3.3-1.9
		c0.6-0.4,1.6-0.4,2.1-0.1l3.7,2.1C1845.1,673.4,1845.1,673.9,1844.4,674.3z"/>
	<path class="st21" d="M1851.8,670l-3.3,1.9c-0.6,0.4-1.6,0.4-2.1,0.1l-3.7-2.1c-0.5-0.3-0.5-0.9,0.2-1.2l3.3-1.9
		c0.6-0.4,1.6-0.4,2.1-0.1l3.7,2.1C1852.5,669.1,1852.4,669.7,1851.8,670z"/>
	<path class="st21" d="M1859.1,665.8l-3.3,1.9c-0.6,0.4-1.6,0.4-2.1,0.1l-3.7-2.1c-0.5-0.3-0.5-0.9,0.2-1.2l3.3-1.9
		c0.6-0.4,1.6-0.4,2.1-0.1l3.7,2.1C1859.8,664.9,1859.7,665.4,1859.1,665.8z"/>
	<path class="st21" d="M1852.2,678.7l-3.3,1.9c-0.6,0.4-1.6,0.4-2.1,0.1l-3.7-2.1c-0.5-0.3-0.5-0.9,0.2-1.2l3.3-1.9
		c0.6-0.4,1.6-0.4,2.1-0.1l3.7,2.1C1852.9,677.8,1852.8,678.4,1852.2,678.7z"/>
	<path class="st21" d="M1859.5,674.5l-3.3,1.9c-0.6,0.4-1.6,0.4-2.1,0.1l-3.7-2.1c-0.5-0.3-0.5-0.9,0.2-1.2l3.3-1.9
		c0.6-0.4,1.6-0.4,2.1-0.1l3.7,2.1C1860.2,673.6,1860.1,674.1,1859.5,674.5z"/>
	<path class="st21" d="M1866.9,670.3l-3.3,1.9c-0.6,0.4-1.6,0.4-2.1,0.1l-3.7-2.1c-0.5-0.3-0.5-0.9,0.2-1.2l3.3-1.9
		c0.6-0.4,1.6-0.4,2.1-0.1l3.7,2.1C1867.5,669.4,1867.5,669.9,1866.9,670.3z"/>
	<path class="st21" d="M1859.7,683.1l-3.3,1.9c-0.6,0.4-1.6,0.4-2.1,0.1l-3.7-2.1c-0.5-0.3-0.5-0.9,0.2-1.2l3.3-1.9
		c0.6-0.4,1.6-0.4,2.1-0.1l3.7,2.1C1860.4,682.2,1860.3,682.7,1859.7,683.1z"/>
	<path class="st21" d="M1867,678.8l-3.3,1.9c-0.6,0.4-1.6,0.4-2.1,0.1l-3.7-2.1c-0.5-0.3-0.5-0.9,0.2-1.2l3.3-1.9
		c0.6-0.4,1.6-0.4,2.1-0.1l3.7,2.1C1867.7,677.9,1867.6,678.5,1867,678.8z"/>
	<path class="st21" d="M1874.3,674.6l-3.3,1.9c-0.6,0.4-1.6,0.4-2.1,0.1l-3.7-2.1c-0.5-0.3-0.5-0.9,0.2-1.2l3.3-1.9
		c0.6-0.4,1.6-0.4,2.1-0.1l3.7,2.1C1875,673.7,1875,674.2,1874.3,674.6z"/>
	<path class="st22" d="M1867,687.3l-3.3,1.9c-0.6,0.4-1.6,0.4-2.1,0.1l-3.7-2.1c-0.5-0.3-0.5-0.9,0.2-1.2l3.3-1.9
		c0.6-0.4,1.6-0.4,2.1-0.1l3.7,2.1C1867.7,686.4,1867.6,686.9,1867,687.3z"/>
	<path class="st21" d="M1874.3,683.1l-3.3,1.9c-0.6,0.4-1.6,0.4-2.1,0.1l-3.7-2.1c-0.5-0.3-0.5-0.9,0.2-1.2l3.3-1.9
		c0.6-0.4,1.6-0.4,2.1-0.1l3.7,2.1C1875,682.2,1875,682.7,1874.3,683.1z"/>
	<path class="st23" d="M1881.7,678.8l-3.3,1.9c-0.6,0.4-1.6,0.4-2.1,0.1l-3.7-2.1c-0.5-0.3-0.5-0.9,0.2-1.2l3.3-1.9
		c0.6-0.4,1.6-0.4,2.1-0.1l3.7,2.1C1882.4,677.9,1882.3,678.5,1881.7,678.8z"/>
	<path class="st19" d="M1833.5,648.3l-22.6,13c-0.4,0.2-0.9,0.2-1.2,0.1l-0.1-0.1c-0.3-0.2-0.3-0.5,0.1-0.7l22.6-13
		c0.4-0.2,0.9-0.2,1.2-0.1l0.1,0.1C1833.9,647.8,1833.8,648.1,1833.5,648.3z"/>
	<g>
		<path class="st24" d="M1811.3,628.7"/>
		<path class="st2" d="M1832.2,648.5l-20.7,12c3.2-11.6-3-20.8-11.1-24.1l20.2-10.6C1827.8,628.3,1833.8,637.3,1832.2,648.5z"/>
		<line class="st25" x1="1818.7" y1="630.3" x2="1807.3" y2="636.2"/>
		<line class="st25" x1="1823.2" y1="631.7" x2="1810" y2="638.6"/>
		<line class="st25" x1="1818.2" y1="638.3" x2="1812.1" y2="641.5"/>
		<line class="st25" x1="1824.9" y1="639" x2="1813.8" y2="644.9"/>
		<line class="st25" x1="1826.6" y1="642.3" x2="1814.7" y2="648.6"/>
		<line class="st25" x1="1823.3" y1="648.5" x2="1814.9" y2="652.9"/>
	</g>
	<text transform="matrix(0.866 -0.5 0.866 0.5 1827.9811 670.2002)" class="st26 st27 st28">****</text>
</g>
<g id="cloud_18_">
	<path class="st4" d="M2032.8,22.8c-2.6-10.4-13.1-16.7-23.5-14.1c-4.4,1.1-8,3.6-10.5,6.9c-5.4-2.6-11.7-3.5-18-1.9
		c-14.1,3.5-22.7,17.8-19.1,31.9c3.5,14.1,17.8,22.7,31.9,19.1c6.9-1.7,12.5-6.1,16-11.7c0.9,0,1.8-0.1,2.7-0.3
		c3.6-0.9,6.3-3.5,7.5-6.7C2029.5,43,2035.3,32.8,2032.8,22.8z"/>
	<path class="st2" d="M2017.7,44.5c-0.2,0.1-0.3,0.2-0.4,0.4c-1.1,2.6-3.3,4.7-6.2,5.4c-0.6,0.2-1.3,0.2-1.9,0.3
		c-0.2,0-0.4,0.1-0.6,0.3c-3,4.7-7.7,8.3-13.5,9.7c-4.3,1.1-8.6,0.8-12.6-0.5c-0.8-0.3-0.6-1.4,0.2-1.4c1.8,0,3.7-0.2,5.5-0.7
		c5.8-1.5,10.5-5,13.5-9.7c0.1-0.2,0.3-0.3,0.6-0.3c0.6,0,1.3-0.1,1.9-0.3c2.9-0.7,5.2-2.8,6.2-5.4c0.1-0.2,0.2-0.3,0.4-0.4
		c8.2-2.7,13-11.3,10.8-19.7c-0.8-3.2-2.4-5.9-4.7-8c-0.5-0.5,0-1.4,0.7-1.2c5.2,1.7,9.4,6,10.8,11.7
		C2030.6,33.3,2025.8,41.9,2017.7,44.5z"/>
	<path class="st3" d="M2005.5,10c-2.7,1.3-5,3.2-6.8,5.5c-5.4-2.6-11.7-3.5-18-1.9c-12.7,3.2-20.9,15-19.9,27.6"/>
	<path class="st3" d="M2009.8,8.5c-0.2,0-0.4,0.1-0.6,0.1"/>
	<path class="st3" d="M1961.6,45.6c3.5,14.1,17.8,22.7,31.9,19.1c6.9-1.7,12.5-6.1,16-11.7c0.9,0,1.8-0.1,2.7-0.3
		c3.6-0.9,6.3-3.5,7.5-6.7c9.8-3,15.6-13.2,13.1-23.2c-2.2-8.8-10.1-14.7-18.8-14.7"/>
</g>
<g id="parachote">
	<g>
		<g>
			<path class="st29" d="M1934.7,215.8c0,1.4-0.7,2.7-2,3.4c-29.6,17.1-27.7,16.2-29.2,16.3c-0.8,0-1.6-0.3-2-0.5
				c-0.1-0.1-27.4-15.8-27.4-15.9c-1.1-0.7-1.8-2-1.8-3.3v-31.1c0-1.4,0.7-2.7,2-3.4l11.1-6.4l6.2-3.6l9.5-5.5
				c1.5-0.9,3.4-0.9,4.9,0l9.5,5.5l6.2,3.6l11.2,6.5c1,0.6,1.7,1.6,1.9,2.7C1934.7,184.6,1934.7,182.6,1934.7,215.8z"/>
			<path class="st29" d="M1934.7,184.8v31c0,1.4-0.7,2.7-2,3.4l-9.9,5.7l-6.2,3.6l-11.1,6.4c-0.6,0.3-1.3,0.5-2,0.5v-32.5l0,0
				c0-1.5,0.8-2.9,2.1-3.7l10.9-6.3l6.2-3.6l10.2-5.9c0.6-0.4,1.4-0.1,1.7,0.5C1934.6,184.3,1934.7,184.6,1934.7,184.8z"/>
			<path class="st29" d="M1897.1,196.8l4.3,2.5c1.3,0.8,2.1,2.2,2.1,3.7l0,0v32.5c-0.6,0-1.3-0.1-1.8-0.4l-11.3-6.5l-6.1-3.5
				l-10.1-5.8c-1-0.6-1.6-1.6-1.8-2.8v-31.8c0-0.9,1-1.5,1.8-1l10.1,5.8l6.1,3.6l2.5,1.5"/>
			<polygon class="st5" points="1921.4,174.9 1915.3,171.3 1884.1,189.3 1884.2,189.3 1884.2,225 1890.3,228.5 1890.3,192.9 
				1890.3,192.9 1890.3,192.9 			"/>
			<polyline class="st5" points="1916.5,201.6 1916.5,228.6 1922.7,225 1922.7,189.4 1922.7,189.4 1891.5,171.3 1885.3,174.9 
				1916.6,193 1916.6,193 			"/>
			<path class="st5" d="M1896.4,180.1c-2.2,0.7-4.9,2.3-6.2,4.1c2.4,1.4,3.9,2.7,3.9,2.7s3.5-4.1,7.2-4.5c-2.2-1.8-4-2.3-4-2.3
				H1896.4z"/>
			<path class="st5" d="M1902.7,179.2c0,0,2.2-2.7,3.5-0.8c1.4,1.8,7.4,6,9,5.1c2.5-1.5-1.1,3.3-1.2,3.4s-4.9,0.4-5,0.3
				c-0.1-0.1-7.6-4.8-7.6-4.8s-8.8-5-8.7-5c0.1,0-4.5-5.9-4.5-6s0.2-3.7,0.2-3.7s3-0.4,3.1-0.3s3.7,5,3.7,5L1902.7,179.2z"/>
			<path class="st30" d="M1918.9,178.9c-1.4-2.5-3-4-5-4.5c-2.8-0.7-4.8,0.5-7.6,1.9c-0.6,0.3-1.7,1-1.7,1c-1.2-2.1-2.4-4-3.5-5.9
				c-0.2-0.4-0.5-0.8-0.7-1.1c-0.9-1.5-1.8-3-3.1-4.4c-1.1-1.2-2.8-1.7-4.2-1.2c-0.1,0-0.1,0.1-0.2,0.1h-0.1c0,0-0.1,0-0.1,0.1
				l-4.1,2.1c0,0,1.4,0.3,2.5,0.6c0,0.1,0,0.2,0,0.3c0,0.2,0,0.4,0,0.7c0,0.1,0,0.2,0,0.3c0.2,0.1,0.4,0.3,0.6,0.5
				c1.1,1.2,2,2.7,2.8,4.1c0.2,0.4,0.5,0.8,0.7,1.2c0.3,0.5,0.6,1,0.9,1.4c1,0.7,3.7,6.1,3.7,6.1c0.9,0.7,1.9,1.4,2.9,2.1
				c0.5,0.4,1.1,0.7,1.6,1.1c3.2,2.3,5.7,3.4,7.7,3.4c0.7,0,1.4-0.2,1.9-0.5l0,0l4.2-2.1c1-0.6,1.8-1.7,1.8-3.5 M1913.1,186.6
				c-0.7,0.4-2.7,0.6-7.6-2.8c-1.5-1.1-3.5-2.4-4.6-3.2c4-2.6,8.9-5,12.3,1.3c1,1.9,1,3.2,0.5,4
				C1913.5,186.3,1913.3,186.5,1913.1,186.6z"/>
			<line class="st3" x1="1904.5" y1="177.4" x2="1900.4" y2="179.9"/>
			<path class="st30" d="M1901.5,181.1c-1.4-0.8-1.8-2.3-2.3-3.1c-1.3-2-4.3-8.1-6-9.9c-0.5-0.6-1.2-1-1.9-1.2
				c-0.8-0.2-1.6-0.2-2.3,0c-1.2,0.5-2,1.6-2,3.1c0,0.2,0,0.4,0,0.6c0.7,7,9.4,9.7,13.4,11.7 M1888.8,170.5c0-0.2,0-0.3,0-0.4
				c0-0.5,0.2-1.2,0.8-1.5c0.2-0.1,0.4-0.1,0.6-0.1c0.4,0,0.7,0.1,1.1,0.3c0.2,0.1,0.4,0.3,0.6,0.5c1.1,1.2,2,2.7,2.8,4.1
				c0.2,0.4,0.5,0.8,0.7,1.2c0.3,0.5,0.6,1,0.9,1.4c0.7,1.1,1.4,2.3,2.1,3.5C1894.1,177.6,1889.2,175.1,1888.8,170.5z"/>
		</g>
	</g>
	<path class="st19" d="M1905.4,176.2c-0.2,0-0.4-0.1-0.6-0.3l-68.3-80.5c-0.1-0.2-0.2-0.4-0.2-0.6s0.1-0.4,0.3-0.5
		c0.1-0.1,0.3-0.2,0.5-0.2s0.4,0.1,0.6,0.3l67.7,79.9l68.2-79.9c0.1-0.2,0.4-0.3,0.6-0.3s0.4,0.1,0.5,0.2c0.2,0.1,0.3,0.3,0.3,0.5
		s0,0.4-0.2,0.6L1906,176C1905.9,176.1,1905.7,176.2,1905.4,176.2L1905.4,176.2z"/>
	<path class="st19" d="M1905.4,176.2c-0.3,0-0.6-0.2-0.7-0.5l-20.4-51.2c-0.1-0.2-0.1-0.4,0-0.6s0.2-0.3,0.4-0.4
		c0.1,0,0.2-0.1,0.3-0.1c0.3,0,0.6,0.2,0.7,0.5l19.7,49.5l20.3-49.3c0.1-0.3,0.4-0.5,0.7-0.5c0.1,0,0.2,0,0.3,0.1
		c0.4,0.2,0.6,0.6,0.4,1l-21,51C1906,176,1905.7,176.2,1905.4,176.2L1905.4,176.2z"/>
	<g>
		<g>
			<path class="st31" d="M1908.2,118.9c5.7,0.2,12.1,2.8,18.1,5.4c0.1,0,0.2,0.1,0.2,0.1c2.4-1.1,4.5-2.2,6.4-3
				c7.6-3.4,12.7-5,20.2-6.7c1.2-0.3,2.4-0.6,3.8-0.9c1.1-0.3,2.2-0.5,3.5-0.8c0.1-0.2,0.2-0.4,0.4-0.5c2.8-4.4,6.5-12.6,17.6-19.3
				c0.8-0.5,1.7-1,2.6-1.5c0.1,0,0.1-0.1,0.2-0.1c0-0.2,0-0.4-0.1-0.7c-1.9-24.1-11.6-43.9-25.5-57.5c-9.8-9.6-21.6-16.1-34.3-18.9
				c-4.8-1.1-9.8-1.6-14.7-1.5c-4.8,0.1-9.6,0.6-14.2,1.7c-14.5,3.2-27.8,11.1-38.1,22.3c-6.3,6.9-11.5,15-15.2,24.1
				s-5.9,19.2-6.1,29.9c0,0.3,0,0.5,0,0.8c0.1,0.1,0.1,0.1,0.2,0.2c2.4,1.7,7.2,4.3,12.2,9.9c2.6,2.9,5.2,6.7,7.5,11.6h0.3
				c7.3,0.1,21.6,5.6,32,10.8c0.2-0.1,0.4-0.1,0.6-0.2c1.7-0.6,5.1-3.9,8.7-4.6L1908.2,118.9z"/>
			<path class="st5" d="M1917.6,24.1c20.2,1.6,51.1,12.3,63.3,67.5c-0.9,0.5-1.8,1-2.6,1.5c-11.1,6.8-14.8,15-17.6,19.3
				c-0.1,0.2-0.2,0.4-0.4,0.5c-1.2,0.3-2.4,0.5-3.5,0.8l-8.8-29.3l-30.1-49.3l-11-11.4l4.1,0.1"/>
			<path class="st5" d="M1906.7,23.8h-0.3c-1.6,0.1-6,0.4-12.9,1.8c-40.8,7.5-52.3,38.4-60.6,65.3c0,0.3,0,0.5,0,0.8
				c0.1,0.1,0.1,0.1,0.2,0.2c2.4,1.7,7.2,4.3,12.2,9.9c2.6,2.9,5.2,6.7,7.5,11.6h0.3c-0.1-7.3,0.7-21.2,9.5-43.9
				c9.1-23.4,38-41.7,43.6-45.1l0.1-0.1c0.1-0.1,0.2-0.1,0.3-0.2c0.2-0.1,0.4-0.2,0.5-0.3c0.1,0,0.1,0,0.1,0S1907,23.8,1906.7,23.8z
				"/>
			<path class="st5" d="M1906.5,12.9c-4.8,0.1-9.6,0.6-14.2,1.7c4.5,1.2,9.1,3.3,12.8,7.6c0.4,0.5,0.8,1,1.2,1.5c0,0,0,0.1,0.1,0.1
				l0,0c0,0,0,0.1,0.1,0.1l0,0l0,0l0,0c0,0,0,0,0.1-0.1c0,0,0,0,0.1-0.1c0,0,0.1,0,0.1-0.1l0,0c0.3-0.2,0.5-0.5,0.8-0.7
				c4.5-4.2,6.8-7.1,13.8-8.6C1916.4,13.4,1911.5,12.9,1906.5,12.9z"/>
			<path class="st31" d="M1906.3,23.7c-9.9-3.2-29.3-3.4-52.1,13.2c-6.3,6.9-11.5,15-15.2,24.1s-5.9,19.2-6.1,29.9
				c0,0.3,0,0.5,0,0.8c0.1,0.1,0.1,0.1,0.2,0.2C1838.4,71.5,1852.4,33.8,1906.3,23.7c0.1,0.1,0.1,0.1,0.1,0.1s0,0,0.1,0
				C1906.4,23.8,1906.4,23.7,1906.3,23.7z"/>
			<path class="st5" d="M1896.6,121.3c-4.9,0.8-8.8,2-10.9,2.7c-0.2,0.1-0.4,0.2-0.6,0.2c-2.4-45.4-0.6-65.7,21.1-99.9
				c0.1-0.2,0.2-0.3,0.3-0.5l0.1-0.1l0,0c0,0,3.3,1.7,4.8,3.1c1.6,1.6,3.5,3.5,5.6,5.6c21.7,21.9,18.4,70,16.1,88.8
				c-2,0.9-4.1,1.9-6.4,3c-0.1,0-0.2-0.1-0.2-0.1c-6.8-3-13.7-3.9-19.9-3.9"/>
			<path class="st5" d="M1901.3,120.7c-0.2,0-0.4,0-0.6,0.1"/>
			<path class="st31" d="M1928.1,77.7c0,0.4,0.1,0.8,0.1,1.2 M1928.7,85.7c0.8,15-0.7,28.7-2.4,38.6c0.1,0,0.2,0.1,0.2,0.1
				c2.4-1.1,4.5-2.2,6.4-3c7.6-3.4,12.7-5,20.2-6.7c2.2-0.5,4.5-1.1,7.2-1.7c0.1-0.2,0.2-0.4,0.4-0.5c-8.8-54.4-24.4-70.3-49.5-85.5
				c-0.5-0.3-1-0.6-1.6-0.9c-0.5-0.3-1-0.6-1.5-0.9l0,0c0,0,0,0-0.1-0.1c-0.2-0.1-0.3-0.2-0.5-0.3c0,0-0.1,0-0.1-0.1l0,0
				c0,0-0.1,0-0.1-0.1c-0.1-0.1-0.2-0.1-0.3-0.2c-0.1-0.1-0.3-0.2-0.4-0.2c12.7,15.5,18.7,33.5,21,50.7"/>
			<ellipse class="st5" cx="1906.1" cy="23.9" rx="5.2" ry="2.7"/>
		</g>
	</g>
	<g>
		<path class="st8" d="M1934.7,184.8c0-0.1,0-0.1,0-0.1c0-0.5,0-0.4-0.1-0.6c-0.2-1.1-0.9-2.1-1.9-2.7l-11.2-6.5l0,0l0,0l-4.1-2.4
			l-2.1-1.2l-9.5-5.5c-1.5-0.9-3.4-0.9-4.9,0l-2.4,1.4c-0.3-0.5-0.7-0.9-1.1-1.4c-1.1-1.2-2.8-1.7-4.2-1.2c-0.1,0-0.1,0.1-0.2,0.1
			h-0.1c0,0-0.1,0-0.1,0.1l-4.1,2.1l0,0c-1.1,0.5-1.8,1.6-1.8,3c0,0.2,0,0.4,0,0.6c0.1,1,0.4,1.9,0.8,2.8l-2.5,1.4l-11.1,6.4
			c-1.1,0.6-1.7,1.7-1.9,2.9c0,0.1,0,0.2,0,0.3l0,0c0,0.1,0,0.1,0,0.2v31.1c0,0.1,0,0.2,0,0.3v0.2c0,0.1,0,0.2,0.1,0.3
			c0,0.1,0.1,0.2,0.1,0.4c0.1,0.2,0.1,0.4,0.2,0.5c0,0.1,0.1,0.2,0.2,0.3c0.1,0.2,0.2,0.3,0.4,0.5c0.1,0.1,0.1,0.2,0.2,0.2
			c0.2,0.2,0.4,0.4,0.7,0.6c0.1,0.1,27.3,15.8,27.4,15.9c0.2,0.1,0.6,0.3,1,0.4c0.1,0,0.1,0,0.2,0c0.3,0.1,0.5,0.1,0.8,0.1
			c0.4,0,0.6,0.1,1.3-0.3c0.2-0.1,0.5-0.2,0.7-0.3l1.3-0.8c3.1-1.7,9.9-5.7,25.9-15c1.2-0.7,2-2,2-3.4c0-19.5,0-26.9,0-29.7
			L1934.7,184.8L1934.7,184.8z"/>
		<path class="st8" d="M1981.1,90.8c-1.9-24.1-11.6-43.9-25.5-57.5c-9.8-9.6-21.6-16.1-34.3-18.9c-4.8-1.1-9.8-1.6-14.7-1.5
			c-4.8,0.1-9.6,0.6-14.2,1.7c-14.5,3.2-27.8,11.1-38.1,22.3c-6.3,6.9-11.5,15-15.2,24.1s-5.9,19.2-6.1,29.9c0,0.3,0,0.5,0,0.8
			c0.1,0.1,0.1,0.1,0.2,0.2c2.4,1.7,7.2,4.3,12.2,9.9c2.6,2.9,5.2,6.7,7.5,11.6h0.3c7.3,0.1,21.6,5.6,32,10.8
			c0.2-0.1,0.4-0.1,0.6-0.2c2.2-0.7,6-1.9,10.9-2.7l9.8-0.8c6.2,0,13.2,0.9,19.9,3.9c0.1,0,0.2,0.1,0.2,0.1c2.4-1.1,4.5-2.2,6.4-3
			c7.6-3.4,12.7-5,20.2-6.7c1.2-0.3,2.4-0.6,3.8-0.9c0.5-0.1,1.1-0.2,1.6-0.4c0.6-0.1,1.2-0.3,1.9-0.4c0.1-0.2,0.2-0.4,0.4-0.5
			c2.8-4.4,6.5-12.6,17.6-19.3c0.8-0.5,1.7-1,2.6-1.5c0.1,0,0.1-0.1,0.2-0.1C1981.1,91.3,1981.1,91.1,1981.1,90.8z"/>
	</g>
</g>
<g id="fb">
	<path class="st32" d="M1503.6,203.1v33.5c0,3.1-2.2,6.8-4.8,8.4l-160.4,93.3c-2.7,1.5-4.8,0.3-4.8-2.8V302c0-3.1,2.2-6.8,4.8-8.4
		l160.4-93.3C1501.4,198.8,1503.6,200,1503.6,203.1z"/>
	<path class="st0" d="M1488.1,193.9v33.5c0,3.1-2.2,6.8-4.8,8.4l-160.4,93.3c-2.7,1.5-4.8,0.3-4.8-2.8v-33.5c0-3.1,2.2-6.8,4.8-8.4
		l160.4-93.3C1485.9,189.6,1488.1,190.8,1488.1,193.9z"/>
	<path class="st4" d="M1517.6,244.7c-0.1,3-2.2,6.6-4.8,8.1l-160.4,93.3c-2.7,1.5-4.8,0.3-4.8-2.8v-33.5c0-3.1,2.2-6.8,4.8-8.4
		l160.4-93.3c2.7-1.5,4.8-0.3,4.8,2.8v28.6"/>
	<path class="st3" d="M1517.6,244.8c-0.2,2.9-2.1,6.3-4.6,7.8"/>
	<path class="st3" d="M1403.2,271.8l109.5-63.7c2.7-1.5,4.8-0.3,4.8,2.8v27.8"/>
	<path class="st33" d="M1386,282v44.6l-33.8,19.5c-2.7,1.5-4.8,0.3-4.8-2.8v-33.5c0-3.1,2.2-6.8,4.8-8.4L1386,282z"/>
	<path class="st3" d="M1510.2,254.2l-157.9,91.9c-2.7,1.5-4.8,0.3-4.8-2.8v-33.5c0-3.1,2.2-6.8,4.8-8.4l44.8-26"/>
	<g>
		<path class="st34" d="M1500.8,233.5l-102.4,59.8c-1.7,1-3-0.1-3-2.3l0,0c0-2.2,1.4-4.8,3-5.8l102.4-59.8c1.7-1,3,0.1,3,2.3l0,0
			C1503.8,229.9,1502.5,232.5,1500.8,233.5z"/>
		<path class="st34" d="M1461.3,272.1l-62.9,37c-1.7,1-3-0.1-3-2.3l0,0c0-2.2,1.4-4.8,3-5.8l62.9-37c1.7-1,3,0.1,3,2.3l0,0
			C1464.3,268.6,1463,271.2,1461.3,272.1z"/>
	</g>
	<path class="st4" d="M1371.3,306.4c-0.6,0.3-1.2,0.7-1.7,1c-0.2,0.1-0.5,0.3-0.7,0.5c-0.4,0.3-0.7,0.8-0.7,1.3c0,0.9,0,1.7,0,2.6
		c0.9-0.5,1.9-1.1,2.9-1.7c0,0.5-0.1,0.9-0.1,1.4c-0.1,0.8-0.1,1.5-0.2,2.3c0,0.2-0.1,0.3-0.2,0.4c-0.7,0.4-1.4,0.8-2.1,1.2
		c-0.1,0-0.2,0.1-0.3,0.1c0,3.6,0,7.2,0,10.9c-1.4,0.8-2.8,1.6-4.3,2.5c0-3.6,0-7.2,0-10.9c-0.4,0.2-0.8,0.5-1.2,0.7
		c-0.4,0.3-0.4,0.3-0.4-0.2c0-1,0-1.9,0-2.9c0-0.1,0-0.2,0-0.3c0.6-0.3,1.1-0.6,1.7-1c0-0.1,0-0.2,0-0.3c0-1,0-2,0.1-3
		c0-0.9,0.3-1.9,0.8-2.9s1.2-1.8,2-2.5c0.5-0.4,1-0.7,1.5-1c1-0.6,1.9-1.1,2.9-1.7c0.1,0,0.1-0.1,0.2-0.1
		C1371.3,304,1371.3,305.2,1371.3,306.4z"/>
</g>
<g id="tw">
	<path class="st32" d="M1503.6,282.7v33.5c0,3.1-2.2,6.8-4.8,8.4l-160.4,93.3c-2.7,1.5-4.8,0.3-4.8-2.8v-33.5c0-3.1,2.2-6.8,4.8-8.4
		l160.4-93.3C1501.4,278.4,1503.6,279.7,1503.6,282.7z"/>
	<path class="st0" d="M1488.1,273.5V307c0,3.1-2.2,6.8-4.8,8.4l-160.4,93.3c-2.7,1.5-4.8,0.3-4.8-2.8v-33.5c0-3.1,2.2-6.8,4.8-8.4
		l160.4-93.3C1485.9,269.2,1488.1,270.5,1488.1,273.5z"/>
	<path class="st4" d="M1402.4,351.9l110.3-64.1c2.7-1.5,4.8-0.3,4.8,2.8V324c0,3.1-2.2,6.8-4.8,8.4l-160.4,93.3
		c-2.7,1.5-4.8,0.3-4.8-2.8v-33.5c0-3.1,2.2-6.8,4.8-8.4l34.7-20.2"/>
	<path class="st35" d="M1386,361.6v44.6l-33.8,19.5c-2.7,1.5-4.8,0.3-4.8-2.8v-33.5c0-3.1,2.2-6.8,4.8-8.4L1386,361.6z"/>
	<path class="st3" d="M1407.2,349.1l105.5-61.4c2.7-1.5,4.8-0.3,4.8,2.8V324c0,3.1-2.2,6.8-4.8,8.4l-160.4,93.3
		c-2.7,1.5-4.8,0.3-4.8-2.8v-33.5c0-3.1,2.2-6.8,4.8-8.4l39.6-23"/>
	<line class="st3" x1="1402.5" y1="351.8" x2="1403.4" y2="351.3"/>
	<g>
		<path class="st34" d="M1500.8,313.1l-102.4,59.8c-1.7,1-3-0.1-3-2.3l0,0c0-2.2,1.4-4.8,3-5.8l102.4-59.8c1.7-1,3,0.1,3,2.3l0,0
			C1503.8,309.5,1502.5,312.1,1500.8,313.1z"/>
		<path class="st34" d="M1461.3,351.8l-62.9,37c-1.7,1-3-0.1-3-2.3l0,0c0-2.2,1.4-4.8,3-5.8l62.9-37c1.7-1,3,0.1,3,2.3l0,0
			C1464.3,348.2,1463,350.8,1461.3,351.8z"/>
	</g>
	<path class="st4" d="M1365.9,404.3c-1.8,0.9-3.2-0.1-3.6-1.5c0.3-0.1,0.5-0.2,0.8-0.4c0.3-0.2,0.5-0.4,0.8-0.6
		c-1.8,0.3-2.9-0.8-3.3-3.3c0.5,0,1.1,0,1.7-0.4c-0.9-0.3-1.5-1-1.8-2.1s-0.3-2.4,0.1-3.8c2.3,2,4.9,2.3,8,0.8
		c-0.1-0.3-0.1-0.6-0.1-0.9c-0.2-1.5,0.1-3,0.8-4.6c0.8-1.7,1.9-2.7,3.1-3.1c0.7-0.2,1.4-0.1,1.9,0.3c0.1,0.1,0.2,0,0.3,0
		c0.7-0.6,1.3-1.4,1.9-2.2c0,0,0-0.1,0.1-0.1l0,0c-0.2,1.3-0.6,2.4-1.3,3.5c0.7-0.5,1.3-1.1,1.9-1.9c-0.4,1.1-0.8,2.1-1.3,3.1v0.1
		c-0.2,0.3-0.2,0.6-0.2,1c0.2,1.9,0.1,3.9-0.3,5.9c-0.3,1.6-0.7,3.2-1.3,4.7c-0.5,1.3-1,2.4-1.7,3.6s-1.5,2.3-2.4,3.3
		c-0.8,0.8-1.6,1.5-2.4,2.1c-1,0.7-2.1,1.2-3.1,1.5c-0.9,0.2-1.7,0.4-2.6,0.3c-0.3,0-0.7-0.1-1-0.2c1-0.5,1.9-1.1,2.8-2
		C1364.4,406.6,1365.2,405.6,1365.9,404.3z"/>
</g>
<g id="like_2_">
	<g>
		<path class="st36" d="M1990.4,285l-61.8,35.7c-3,1.7-5.5-0.1-5.5-4.1v-25.8c0-4,2.4-8.7,5.5-10.4l61.8-35.7c3-1.7,5.5,0.1,5.5,4.1
			v25.8C1995.9,278.6,1993.4,283.3,1990.4,285z"/>
		<path class="st37" d="M1976.2,280l-61.8,35.7c-3,1.7-5.5-0.1-5.5-4.1v-25.8c0-4,2.4-8.7,5.5-10.4l61.8-35.7c3-1.7,5.5,0.1,5.5,4.1
			v25.8C1981.6,273.6,1979.2,278.2,1976.2,280z"/>
		<path class="st5" d="M1970.4,269l32.4-18.7c3-1.7,5.5,0.1,5.5,4.1v25.8c0,4-2.4,8.7-5.5,10.4l-61.8,35.7c-3,1.7-5.5-0.1-5.5-4.1
			v-25.8c0-4,2.4-8.7,5.5-10.4l19.3-11.2"/>
		<line class="st3" x1="1965.4" y1="271.9" x2="1966.3" y2="271.4"/>
		<path class="st5" d="M1953.6,311.8c-6,3.4-11.1,0.6-10.8-6.9c0.2-6.6,4.8-14.9,10.9-18.4c6-3.4,10.9-0.6,10.8,6.5
			C1964.4,300,1959.5,308.5,1953.6,311.8z M1947,306.7c0.1,0.3,0.2,0.5,0.3,0.7c0.3,0.6,0.8,1,1.3,1.2c2.4,1,6.3-0.9,9.1-4.4
			c1-1.3,1.9-2.7,2.4-4.2c0.1-0.3,0.2-0.6,0.2-1C1955.8,301.6,1951.4,304.1,1947,306.7z M1951.3,297.2c0-0.9-0.2-1.5-0.5-1.8
			c-0.5-0.5-1.2-0.1-1.8,0.9c-0.9,1.6-0.9,3.8-0.1,4.4c0.5,0.3,1.1,0,1.6-0.9C1951.1,298.8,1951.3,297.9,1951.3,297.2z
			 M1956.2,294.2c0,0.7,0.1,1.3,0.4,1.6c0.6,0.7,1.5,0.2,2.1-1.2c0.6-1.4,0.6-3.2-0.1-3.8c-0.5-0.5-1.3,0-1.9,1.1
			C1956.4,292.7,1956.2,293.4,1956.2,294.2z"/>
		<g>
			<path class="st19" d="M1978.6,290.7l4.4-2.5c0.3-0.2,0.5,0,0.5,0.3v2.6c0,0.3-0.2,0.7-0.5,0.8l-10,5.8c-0.3,0.2-0.5,0-0.5-0.3
				v-0.2c0-0.3,0-0.3,0.3-1c1.6-3.4,4.9-10.5,6.3-13.7c0.3-0.8,0.6-1.7,0.6-2.5c0-1.1-0.8-1.6-2.2-0.8c-1,0.6-1.8,1.8-2.4,2.9
				c-0.2,0.3-0.5,0.5-0.7,0.4l-1.5-0.9c-0.2-0.1-0.2-0.4,0-0.7c0.9-1.7,2.5-4.3,5-5.7c3.6-2.1,5.7-0.7,5.7,2.5c0,1.5-0.4,2.6-1,4.3
				C1981.8,283.8,1979.8,288.1,1978.6,290.7L1978.6,290.7z"/>
			<path class="st19" d="M1986.1,287.1l1.5-2.7c0.2-0.3,0.4-0.5,0.6-0.4c0.6,0.2,1.5,0.5,2.7-0.3c1.2-0.7,2.2-2.1,2.2-3.5
				s-1.1-1.7-3-0.6l-1.4,0.8c-0.2,0.1-0.5,0-0.5-0.3v-2.4c0-0.3,0.2-0.7,0.5-0.8l1.4-0.8c1.8-1,2.7-2.5,2.7-3.7c0-1.3-0.7-1.8-2-1
				c-1.1,0.6-1.8,1.7-2.2,2.4c-0.2,0.3-0.5,0.5-0.7,0.4l-1.5-0.8c-0.2-0.1-0.2-0.5,0-0.8c0.9-1.5,2.4-3.9,4.8-5.3
				c2.9-1.7,5.4-1.1,5.4,2.1c0,2.2-1.5,4.7-2.6,5.9v0.1c1.4-0.3,3,0.2,3,2.9c0,3.1-2.4,7-5.8,9c-3.2,1.8-4.6,0.9-5.2,0.5
				C1986,287.7,1986,287.4,1986.1,287.1z"/>
		</g>
	</g>
	<g>
		<g>
			<line class="st3" x1="2000.1" y1="267.5" x2="2000.1" y2="257"/>
			<line class="st3" x1="2023.3" y1="270.4" x2="2014.1" y2="275.7"/>
			<line class="st3" x1="2016.1" y1="256.1" x2="2009.7" y2="267.3"/>
		</g>
		<path class="st38" d="M2018.4,290c-1.7,0.8-3,3.1-3,5v-1.9c0-1.8-1.3-2.5-2.8-1.6l0,0c-1.6,0.9-2.8,3.1-2.8,4.9v-1.6
			c0-1.8-1.3-2.5-2.8-1.6l0,0c-1.6,0.9-2.8,3.1-2.8,4.9v-14.4c0-1.8-1.3-2.5-2.8-1.6l0,0c-1.6,0.9-2.8,3.1-2.8,4.9v24.3l-3.6-2
			c-1.1-0.6-2.9,0.3-4,2.2c-1.2,1.9-1.2,4.1-0.1,4.7l9,5.1c1.2,0.7,1.8,2.1,1.8,4v7.2c0,1.6,1.1,2.2,2.5,1.4l11.8-6.8
			c1.4-0.8,2.5-2.7,2.5-4.3v-9c0-2.8,1.1-5.7,1.7-7.8c0.5-1.8,1-3.3,1.1-7.2l0,0v-6.9C2021.1,290.1,2020,289.3,2018.4,290z"/>
	</g>
</g>
<g id="bag_2_">
	<polygon class="st16" points="1848,318.5 1777.9,276.8 1784.6,377.4 1855.5,418.2 	"/>
	<polygon class="st16" points="1777.9,276.8 1775.1,293.4 1753.3,290.5 1746.6,403.5 1784.6,377.4 	"/>
	<polygon class="st5" points="1855.5,418.2 1825.8,421.8 1817.5,444.3 1823.6,331.9 1825.8,321.5 1848,318.5 	"/>
	<polygon class="st16" points="1825.8,321.5 1825.8,421.8 1817.5,444.3 1823.6,331.9 	"/>
	<polygon class="st5" points="1824.2,331.3 1753.3,290.5 1746.6,403.5 1817.5,444.3 	"/>
	<g>
		
			<ellipse transform="matrix(0.8633 -0.5047 0.5047 0.8633 78.2261 938.151)" class="st5" cx="1770.9" cy="324.7" rx="2.8" ry="4.9"/>
		
			<ellipse transform="matrix(0.8633 -0.5047 0.5047 0.8633 73.7132 955.0973)" class="st5" cx="1799.9" cy="341.5" rx="2.8" ry="4.9"/>
		<path class="st5" d="M1790.2,360c-1.6,0.1-3.4-0.3-5.2-1.4c-8.3-4.8-15-20.2-15-34.4"/>
		<path class="st5" d="M1794.2,358.5c-0.3,0.2-0.6,0.5-1,0.6"/>
		<path class="st5" d="M1799.9,341.5c0,4.4-0.6,8.2-1.8,11.1"/>
	</g>
</g>
<g id="bag_1_">
	<polygon class="st16" points="1811.3,381.6 1757.3,349.6 1757.3,411.6 1817,444.9 	"/>
	<polygon class="st16" points="1757.3,349.6 1755.1,362.4 1736.8,360.2 1731.7,433.7 1757.3,408.4 	"/>
	<polygon class="st5" points="1817,444.9 1794.2,447.7 1786.3,465.2 1791,392.1 1794.2,383.9 1811.3,381.6 	"/>
	<polygon class="st16" points="1794.2,383.9 1794.2,447.7 1786.3,465.2 1791,392.1 	"/>
	<polyline class="st5" points="1776.9,383.3 1736.8,360.2 1731.7,433.7 1786.3,465.2 1791.4,391.7 1786.4,388.8 	"/>
	<line class="st3" x1="1783.5" y1="387.1" x2="1782.9" y2="386.7"/>
	<g>
		
			<ellipse transform="matrix(0.8633 -0.5047 0.5047 0.8633 43.1064 935.9233)" class="st5" cx="1749.2" cy="388.4" rx="2.2" ry="3.8"/>
		<path class="st5" d="M1769.5,398.2c0.5-0.5,1.3-0.5,2.1,0c1.5,0.9,2.7,2.9,2.7,4.6s-1.2,2.4-2.7,1.5c-0.7-0.4-1.4-1.1-1.9-2"/>
		<path class="st3" d="M1761.6,415.2c-0.5-0.2-1-0.4-1.5-0.7c-6.4-3.7-11.5-15.6-11.5-26.5"/>
		<path class="st3" d="M1769.5,411.5c-1,1.8-2.2,3.1-3.7,3.7"/>
		<path class="st3" d="M1771.6,401.3c0,2-0.2,3.8-0.5,5.4"/>
	</g>
</g>
<g id="open_box">
	<path class="st16" d="M1736.8,420c0,0,0,0.2,0,79.6c0,3.4-1.8,6.5-4.7,8.2c-70.7,40.8-66.2,38.8-69.7,38.8c-1.9,0-3.9-0.7-4.8-1.3
		c-0.1-0.1-11.9-6.9-25.5-14.7c-18.4-10.6-39.9-23.1-40-23.2c-1.7-1.1-2.9-2.6-3.6-4.4c-0.4-1.1-0.7-2.3-0.7-3.5v-74.2l0.1-5.5
		l0.6-0.3l30.5-17.6l14.7-8.5l28.8-16.5l0,0l28,16.5l14.8,8.5L1736.8,420z"/>
	<path class="st39" d="M1662.4,376.9v153.7H1632c-18.4-10.6-39.9-23.1-40-23.2c-1.7-1.1-2.9-2.6-3.6-4.4v-83.5l30.5-17.6l14.7-8.5
		L1662.4,376.9L1662.4,376.9z"/>
	<path class="st5" d="M1662.4,528l0.1-59.1V463l5.1-2.9l26-15l14.9-8.6l24.3-14c0.8-0.4,4.2-2.5,4.2-2.5s0,4.9,0,5.5v74.1
		c0,3.4-1.8,6.5-4.7,8.2l-23.7,13.7l-14.9,8.6l-26.5,15.3c-1.5,0.8-3.1,1.2-4.7,1.3v-8.2"/>
	<path class="st16" d="M1662.4,537.1v9.5c-1.5,0-3-0.3-4.4-1.1l-27.1-15.6l-14.7-8.5l-24.2-14c-2.3-1.5-3.8-3.9-4.2-6.6v-76
		c0-1,0-5,0-5s3.3,2,4.3,2.5l24.1,13.9l14.7,8.5l26.5,15.3c1.6,0.9,5.1,2.9,5.1,2.9s0,4.1,0,5.9l0,0l-0.1,61.7"/>
	<path class="st5" d="M1659.2,463.2"/>
	<path class="st5" d="M1570.9,417.6l-26.4-3.3c-1.7-0.2-2.5,2.1-1,3l73.9,41.6c0.9,0.5,2,0.8,3,0.9l41.4,2.9l-74-43l-9.8-1.2"/>
	<path class="st5" d="M1736.8,420l-74.5-43l21.8-36.6c1.4-2.4,4.5-3.2,6.9-1.8l64.9,36.5c2.4,1.4,3.3,4.5,2,6.9L1736.8,420z"/>
</g>
<g id="pink_box">
	<g>
		<path class="st5" d="M1707.3,384.9c0,2-1.1,3.9-2.9,4.9c-42.8,24.7-40.1,23.5-42.2,23.5c-1.2,0-2.4-0.4-2.9-0.8
			c-0.2-0.1-39.5-22.8-39.7-22.9c-1.6-1-2.6-2.8-2.6-4.8v-44.9c0-2,1.1-3.9,2.9-4.9l16-9.3l8.9-5.2l13.7-7.9c2.2-1.2,4.8-1.2,7,0
			l13.7,7.9l8.9,5.1l16.2,9.4c1.5,0.8,2.5,2.3,2.8,3.9C1707.3,339.9,1707.3,336.9,1707.3,384.9z"/>
		<path class="st5" d="M1707.3,340.1v44.8c0,2-1.1,3.9-2.9,4.9l-14.4,8.3l-9,5.2l-16,9.3c-0.9,0.5-1.9,0.8-2.8,0.8l0.1-47l0,0
			c0-2.2,1.2-4.2,3.1-5.3l15.7-9.1l9-5.2l14.7-8.5c0.9-0.5,2-0.1,2.4,0.8C1707.2,339.4,1707.3,339.8,1707.3,340.1z"/>
		<path class="st5" d="M1624.1,340.8l10.2,5.9l8.9,5.1l16,9.3c1.9,1.1,3.1,3.1,3.1,5.3l0,0l-0.1,47c-0.9,0-1.8-0.2-2.7-0.6
			l-16.4-9.5l-8.9-5.1l-14.6-8.4c-1.4-0.9-2.3-2.4-2.5-4v-46c0-1.3,1.4-2.1,2.6-1.5"/>
		<polyline class="st5" points="1652.8,346.2 1688.2,325.8 1679.2,320.7 1634.3,346.6 1634.3,346.7 1634.3,398.2 1643.2,403.3 
			1643.2,351.8 1643.2,351.8 1643.2,351.8 1645.4,350.5 		"/>
		<line class="st3" x1="1648.3" y1="348.8" x2="1648.9" y2="348.5"/>
		<polygon class="st5" points="1690.1,346.8 1644.9,320.7 1635.9,325.8 1681.1,351.9 1681.1,352 1681.1,403.4 1690.1,398.2 		"/>
		<path class="st5" d="M1652,333.3c-3.2,1-7,3.4-9,5.9c3.4,2.1,5.7,4,5.7,4s5-5.9,10.4-6.5c-3.1-2.6-5.7-3.4-5.7-3.4H1652z"/>
		<path class="st5" d="M1661,332c0,0,3.1-3.8,5.1-1.2c2,2.7,10.6,8.7,12.9,7.4c3.6-2.1-1.6,4.8-1.7,4.9s-7.1,0.6-7.2,0.5s-11-7-11-7
			s-12.7-7.2-12.5-7.2c0.1,0-6.5-8.5-6.5-8.6s0.2-5.3,0.2-5.3s4.3-0.5,4.5-0.4c0.1,0.1,5.4,7.2,5.4,7.2L1661,332z"/>
		<path class="st5" d="M1650,324.5c0.2,0.3,0.3,0.5,0.5,0.8c0.4,0.7,0.9,1.4,1.3,2.1c1.5,1,5.3,8.8,5.3,8.8c1.4,1,2.8,2,4.2,3
			c0.8,0.5,1.5,1.1,2.3,1.6c4.6,3.3,8.3,4.9,11.1,4.9c1.1,0,2-0.2,2.8-0.7c0,0,0,0,0.1,0l6-3.1c2.3-1.3,4-4.8,1.1-10.3
			c-2-3.7-4.4-5.9-7.3-6.6c-4-1-6.9,0.7-11,2.8c-0.9,0.4-2.4,1.5-2.4,1.5c-1.8-3-3.4-5.8-5.1-8.5c-0.3-0.5-0.7-1.1-1-1.6
			c-1.3-2.2-2.6-4.4-4.4-6.3c-1.6-1.8-4.1-2.5-6.1-1.7c-0.1,0-0.2,0.1-0.3,0.1l-0.1,0.1c-0.1,0-0.1,0.1-0.2,0.1l-5.9,3
			c0,0,2,0.5,3.6,0.8c0,0.1,0,0.3,0,0.4c0,0.3,0,0.6,0,0.9c0,0.1,0,0.3,0,0.4c0.3,0.2,0.6,0.4,0.9,0.7c0.5,0.5,0.9,1,1.3,1.6
			 M1674.6,333.6c0.6,0.7,1.1,1.5,1.6,2.4c1.5,2.8,1.4,4.7,0.8,5.8c-0.2,0.4-0.5,0.7-0.9,0.9c-1.1,0.6-4,0.9-11-4.1
			c-2.2-1.6-5.1-3.4-6.7-4.6c3.6-2.3,7.7-4.5,11.5-3.7 M1672.7,331.8c0.1,0.1,0.1,0.1,0.2,0.2"/>
		<line class="st3" x1="1663.7" y1="329.4" x2="1657.8" y2="333.1"/>
		<path class="st5" d="M1659.3,334.8c-2-1.1-2.6-3.4-3.4-4.5c-1.8-2.9-6.3-11.7-8.6-14.3c-0.8-0.8-1.7-1.4-2.7-1.7
			c-1.1-0.4-2.3-0.4-3.4,0.1c-1.8,0.7-2.9,2.4-2.9,4.5c0,0.3,0,0.6,0,0.9c1,10.1,13.6,14,19.3,16.9 M1649.5,323.6
			c0.3,0.6,0.7,1.1,1,1.7c0.4,0.7,0.9,1.4,1.3,2.1c1,1.6,2,3.3,3,5c-6-2.7-13.2-6.4-13.8-12.9c0-0.2,0-0.4,0-0.6
			c0-0.8,0.2-1.7,1.2-2.1c0.3-0.1,0.5-0.1,0.8-0.1c0.5,0,1,0.1,1.5,0.4c0.3,0.2,0.6,0.4,0.9,0.7c0.5,0.6,1,1.2,1.5,1.8"/>
	</g>
	<line class="st3" x1="1644.6" y1="410.3" x2="1644.6" y2="432.7"/>
	<line class="st3" x1="1704.4" y1="394.7" x2="1704.4" y2="412.7"/>
	<line class="st3" x1="1690.1" y1="404.7" x2="1690.1" y2="413.4"/>
	<line class="st3" x1="1629.6" y1="401.3" x2="1629.6" y2="405.9"/>
	<line class="st3" x1="1628.1" y1="293.1" x2="1639.7" y2="304.7"/>
	<line class="st3" x1="1683.9" y1="291.8" x2="1672.3" y2="303.4"/>
	<line class="st3" x1="1656.1" y1="300.1" x2="1656.1" y2="280.9"/>
</g>
<g id="box">
	<path class="st5" d="M1598.7,549.4c0,2.6-1.4,4.9-3.6,6.2c-53.7,31-50.3,29.4-52.9,29.5c-1.5,0-3-0.5-3.6-1
		c-0.2-0.1-49.6-28.6-49.7-28.7c-2-1.3-3.2-3.6-3.2-6v-56.3c0-2.6,1.4-4.9,3.6-6.2l20.1-11.6l11.2-6.5l17.2-9.9
		c2.7-1.6,6.1-1.6,8.8,0l17.2,9.9l11.2,6.5l20.4,11.7c1.8,1.1,3.1,2.8,3.5,4.9C1598.8,492.9,1598.7,489.1,1598.7,549.4z"/>
	<path class="st5" d="M1598.7,493.2v56.2c0,2.6-1.4,4.9-3.6,6.2l-18,10.4l-11.3,6.5l-20.1,11.6c-1.1,0.6-2.3,0.9-3.5,1l0.1-59l0,0
		c0-2.8,1.5-5.3,3.9-6.7l19.7-11.4l11.3-6.5l18.4-10.6c1.2-0.7,2.5-0.1,3,1C1598.7,492.3,1598.7,492.7,1598.7,493.2z"/>
	<path class="st16" d="M1533.6,516.6l4.8,2.8c2.4,1.4,3.9,3.9,3.9,6.7l0,0l-0.1,59c-1.1,0-2.3-0.3-3.3-0.8l-20.6-11.9l-11.1-6.4
		l-18.3-10.6c-1.7-1.1-2.9-3-3.2-5v-57.7c0-1.7,1.8-2.7,3.2-1.9l18.3,10.6l11.1,6.4l9.3,5.4"/>
	<polyline class="st16" points="1531.1,500.4 1574.7,475.2 1563.5,468.8 1507.1,501.3 1507.2,501.4 1507.2,566 1518.3,572.4 
		1518.3,507.8 1518.3,507.8 1518.3,507.8 1523.7,504.7 	"/>
	<polygon class="st16" points="1577.1,501.5 1520.4,468.8 1509.2,475.3 1565.9,508 1565.8,508 1565.8,572.5 1577.1,566 	"/>
	<path class="st16" d="M1529.4,484.6c-4.1,1.2-8.8,4.2-11.3,7.4c4.3,2.6,7.1,5,7.1,5s6.3-7.4,13-8.1c-3.9-3.3-7.2-4.2-7.2-4.2
		L1529.4,484.6L1529.4,484.6z"/>
	<path class="st16" d="M1540.7,483c0,0,3.9-4.8,6.4-1.5s13.3,10.9,16.2,9.2c4.6-2.6-2,6-2.2,6.2c-0.1,0.1-8.9,0.8-9.1,0.6
		c-0.2-0.1-13.8-8.7-13.8-8.7s-15.9-9-15.7-9s-8.1-10.6-8.2-10.8c-0.1-0.2,0.3-6.7,0.3-6.7s5.4-0.7,5.6-0.6s6.8,9.1,6.8,9.1
		L1540.7,483z"/>
	<path class="st16" d="M1570.2,482.6c-2.5-4.6-5.5-7.4-9.1-8.3c-5-1.2-8.7,0.9-13.8,3.5c-1.1,0.5-3,1.8-3,1.8
		c-2.2-3.8-4.3-7.3-6.4-10.7c-0.4-0.7-0.8-1.4-1.3-2.1c-1.6-2.7-3.3-5.5-5.5-7.9c-2-2.2-5.1-3.1-7.7-2.1c-0.1,0-0.2,0.1-0.3,0.1
		l-0.1,0.1c-0.1,0-0.1,0.1-0.2,0.1l-7.4,3.8c0,0,2.6,0.6,4.5,1c0,0.2,0,0.4,0,0.6c0,0.4,0,0.8,0.1,1.2c0,0.2,0,0.3,0.1,0.5
		c0.4,0.2,0.8,0.5,1.1,0.9c2,2.2,3.6,4.8,5.1,7.4c0.4,0.7,0.9,1.4,1.3,2.1c0.5,0.9,1.1,1.7,1.6,2.6c1.9,1.3,5.3,10.3,5.3,10.3
		c2.2,1.3,5,3.3,6.5,4.5c0.9,0.7,1.9,1.3,2.9,2c5.8,4.1,10.4,6.2,13.9,6.2c1.3,0,2.5-0.3,3.5-0.9c0,0,0.1,0,0.1-0.1
		c0,0,7.5-3.8,7.5-3.9C1571.8,493.8,1573.9,489.4,1570.2,482.6z M1559.6,496.5c-1.4,0.8-5,1.2-13.8-5.1c-2.8-2-6.4-4.3-8.4-5.7
		c7.3-4.7,16.2-9,22.4,2.4c1.9,3.5,1.8,5.9,1,7.3C1560.4,495.9,1560,496.3,1559.6,496.5z"/>
	<line class="st3" x1="1544.1" y1="479.7" x2="1536.6" y2="484.3"/>
	<path class="st16" d="M1525.1,465c-0.6-0.8-1.1-1.6-1.6-2.1c-1-1-2.2-1.8-3.4-2.2c-1.4-0.4-2.9-0.4-4.3,0.1c-2.2,0.9-3.6,3-3.6,5.7
		c0,0.4,0,0.8,0.1,1.2c1.3,12.6,17.1,17.5,24.2,21.2 M1526.7,467.5c-0.1-0.2-0.2-0.3-0.3-0.5 M1538.6,486.5
		c-2.5-1.4-3.3-4.2-4.2-5.6c-1.2-1.9-3.5-6.1-5.7-10.1 M1515.5,467.3c0-0.3,0-0.5,0-0.8c0-0.9,0.3-2.2,1.5-2.6
		c0.3-0.1,0.7-0.2,1-0.2c0.6,0,1.3,0.2,1.9,0.5c0.4,0.2,0.8,0.5,1.1,0.9c2,2.2,3.6,4.8,5.1,7.4c0.4,0.7,0.9,1.4,1.3,2.1
		c0.5,0.9,1.1,1.7,1.6,2.6c1.2,2,2.5,4.1,3.7,6.3C1525.3,480.2,1516.4,475.5,1515.5,467.3z"/>
</g>
<g id="coupons">
	<path class="st40" d="M1658.2,587.2c2.1,1.2,5.3,1.5,7.9,0.8l7.9,4.5l-11.7,6.8h-2.9v1.7l-31.7,18.3l-7.8-4.5
		c1.3-1.5,0.9-3.4-1.3-4.7c-2.2-1.3-5.5-1.5-8.1-0.8l-7.8-4.5l31.6-18.2h3v-1.7l11.6-6.7l7.9,4.5
		C1655.5,584.1,1656,585.9,1658.2,587.2z"/>
	<path class="st41" d="M1658.2,576.9c2.1,1.2,5.3,1.5,7.9,0.8l7.9,4.5l-11.7,6.8h-2.9v1.7l-31.7,18.3l-7.8-4.5
		c1.3-1.5,0.9-3.4-1.3-4.7c-2.2-1.3-5.5-1.5-8.1-0.8l-7.8-4.5l31.6-18.2h3v-1.7l11.6-6.7l7.9,4.5
		C1655.5,573.8,1656,575.7,1658.2,576.9z"/>
	<path class="st5" d="M1633.5,594.6l-5.7,3.3l-7.8-4.5c1.3-1.5,0.9-3.4-1.3-4.7c-2.2-1.3-5.5-1.5-8.1-0.8l-7.8-4.5l31.6-18.2h3v-1.7
		l11.6-6.7l7.9,4.5c-1.2,1.5-0.7,3.3,1.4,4.6c2.1,1.2,5.3,1.5,7.9,0.8l7.9,4.5l-11.7,6.8h-2.9v1.7l-13.8,8"/>
	<line class="st3" x1="1641" y1="590.3" x2="1640" y2="590.9"/>
	<g>
		<path class="st19" d="M1620.9,579.5c1.8-1,4.7-1,6.6,0.1s1.9,2.8,0.1,3.8s-4.7,1-6.6-0.1C1619.1,582.3,1619.1,580.6,1620.9,579.5z
			 M1633.1,588l-4.4-12.7l2.5-1.4l4.4,12.7L1633.1,588z M1625.6,582.3c0.7-0.4,0.6-1-0.2-1.4c-0.8-0.4-1.8-0.5-2.5-0.1
			s-0.7,1,0.1,1.4C1623.9,582.6,1624.9,582.6,1625.6,582.3z M1636.6,578.4c1.8-1,4.7-1,6.6,0.1s1.9,2.8,0.1,3.8s-4.7,1-6.6-0.1
			C1634.9,581.2,1634.9,579.5,1636.6,578.4z M1641.3,581.2c0.7-0.4,0.6-1-0.2-1.4c-0.8-0.4-1.8-0.5-2.5-0.1s-0.7,1,0.1,1.4
			C1639.6,581.5,1640.7,581.5,1641.3,581.2z"/>
	</g>
	<g>
		<g>
			<line class="st42" x1="1637.8" y1="565.5" x2="1639.5" y2="566.5"/>
			<line class="st43" x1="1643.1" y1="568.6" x2="1655.6" y2="575.8"/>
			<line class="st42" x1="1657.4" y1="576.9" x2="1659.1" y2="577.9"/>
		</g>
	</g>
</g>
<g id="shoes">
	<path class="st29" d="M1898.4,462c0,2-1,3.8-2.8,4.8c-41.4,23.9-70.2,40.7-72.3,40.7c-1.1,0-2.3-0.4-2.8-0.7
		c-0.1-0.1-38.3-22.1-38.4-22.2c-1.6-1-2.5-2.7-2.5-4.6v-32.8c0-2,1-3.8,2.8-4.8c33.6-19.4,37-21.2,68.8-39.6c2.1-1.2,4.7-1.2,6.8,0
		c26.6,15.3,2.5,1.4,37.6,21.7c1.4,0.8,2.7,2.2,2.7,3.8C1898.5,439.8,1898.4,418.7,1898.4,462z"/>
	<path class="st29" d="M1898.4,462c0,2-1,3.8-2.8,4.8c-41.6,24-70.3,40.7-72.3,40.7v-34.8l0,0c0-2.1,1.1-4.1,3-5.2
		c37-21.4,42.2-24.2,69.6-40c0.9-0.5,2-0.1,2.3,0.7C1898.5,429.1,1898.4,428.9,1898.4,462z"/>
	<path class="st29" d="M1820.6,467.6c1.8,1.1,2.8,3,2.8,5.1l0,0v34.8c-0.9,0-1.8-0.2-2.6-0.6l-15.9-9.2l-8.6-5l-14.2-8.2
		c-1.3-0.9-2.2-2.3-2.5-3.9v-33.8c0-1.3,1.4-2.1,2.5-1.4l14.1,8.2l8.6,5l12,6.9"/>
	<polygon class="st5" points="1871.1,410.3 1796.3,453.6 1796.3,492.8 1804.9,497.7 1804.9,458.5 1879.7,415.3 	"/>
	<polygon class="st5" points="1823,419.1 1814.3,424 1858.1,449.3 1858.1,488.4 1866.8,483.4 1866.8,444.3 	"/>
	<line class="st3" x1="1876.4" y1="450.5" x2="1898.4" y2="437.8"/>
	<line class="st3" x1="1866.8" y1="456.1" x2="1871.9" y2="453.1"/>
	<polyline class="st3" points="1779.7,456.1 1823.4,481 1858.1,461.1 	"/>
	<g>
		<path class="st5" d="M1864.7,435.3c0,1.6,0,1.7,0,1.7l-1.4,0.1c0,0-0.6-16.9-1.1-21.6s4.9-8.6,4.9-8.6
			C1867.2,415.7,1864.7,417.2,1864.7,435.3z"/>
		<path class="st5" d="M1850.6,384.7c2.6,5.6,6.5,16.8,1.8,20.8c-6.4,5.5-12.6,14.8-15.1,22.9c-2.6,8.1-9,12.2-18.7,12.2
			s-18,0-19-2.6s-2.9-7.1,5.8-14.2c8.7-7.1,16.8-15.1,24.2-24.5c6.3-7.9,13.5-18.9,17.9-18.3
			C1849.1,381.4,1849.8,383.1,1850.6,384.7z"/>
		<path class="st5" d="M1832.1,422.7c4-3.5,13.4-23.1,15.9-26.4c2.7-3.7,3.1-17.1-3.3-13.6c-5.5,3-15.4,20.2-30.2,34.6
			C1803.4,428.1,1825,428.9,1832.1,422.7z"/>
		<path class="st5" d="M1852.2,403.7c-2.5,12.2-2.4,19.6-2.4,24.2c0,1.6,0,1.6,0,1.6l-1.4,0.1c0,0-0.6-16.6-1.1-21.2
			c-0.4-4.6,4.9-8.4,4.9-8.4V403.7z"/>
		<path class="st5" d="M1817.5,426.5c4.5,0.3,11.3-1,14.6-3.9c3.8-3.4,12.6-21.4,15.6-26C1844.4,386.4,1836,413.6,1817.5,426.5z"/>
		<path class="st5" d="M1865.8,392c1.5,3.4,3,7.6,3.6,11.3c0.5,3.2,0.5,7.2-2,9.3c-20,17-10.9,35.7-34.4,35.7
			c-9.8,0-18.4,0-19.3-2.6c-1-2.6-2.9-7.2,5.9-14.4c8.8-7.2,17-15.4,24.6-24.9c6.3-7.9,13.5-19,18.1-18.6
			C1864.2,387.9,1865,390.1,1865.8,392z"/>
		<path class="st5" d="M1831.9,434c4.6,0.3,11.5-1,14.9-3.9c4.1-3.6,13.7-23.5,16.1-26.8c1.7-2.4,2-6.4,1.7-9.3
			c-0.2-2.4-0.9-4.9-3.2-5.1c-0.7-0.1-1.4,0.2-2,0.6c-6.3,4-22.8,30.1-30,35.2C1823.5,428.8,1825.2,433.4,1831.9,434z"/>
		<path class="st5" d="M1854,419.1c3.4-6.1,6.9-12.9,8.7-15.5c-3.4-10.5-11.9,17.2-30.7,30.4c4.6,0.3,11.5-1,14.9-3.9
			C1848.5,428.5,1851.2,424,1854,419.1"/>
	</g>
</g>
<g id="delivery">
	<polygon class="st16" points="1779,522.6 1779,530.5 1708.3,570.5 1683.8,556.4 1699.4,546.2 1713.7,538.6 1726.2,531.4 	"/>
	
		<ellipse transform="matrix(0.5047 -0.8633 0.8633 0.5047 409.4742 1790.0212)" class="st5" cx="1764.7" cy="538.2" rx="6.5" ry="3.8"/>
	
		<ellipse transform="matrix(0.5047 -0.8633 0.8633 0.5047 409.4742 1790.0212)" class="st5" cx="1764.7" cy="538.2" rx="3" ry="1.7"/>
	
		<ellipse transform="matrix(0.5047 -0.8633 0.8633 0.5047 394.5411 1781.8176)" class="st5" cx="1750.1" cy="547.1" rx="6.5" ry="3.8"/>
	
		<ellipse transform="matrix(0.5047 -0.8633 0.8633 0.5047 394.5411 1781.8176)" class="st5" cx="1750.1" cy="547.1" rx="3" ry="1.7"/>
	
		<ellipse transform="matrix(0.5047 -0.8633 0.8633 0.5047 361.8489 1762.298)" class="st5" cx="1716.7" cy="565.8" rx="6.5" ry="3.8"/>
	
		<ellipse transform="matrix(0.5047 -0.8633 0.8633 0.5047 361.8489 1762.298)" class="st5" cx="1716.7" cy="565.8" rx="3" ry="1.7"/>
	<path class="st5" d="M1702.3,518.6v-7.7c0-2.3,1.4-5,3.1-6l46.5-26.9c0.7-0.4,1.3-0.5,1.8-0.2l0.2-0.1l23.6,14
		c0.2,0.1,0.4,0.2,0.6,0.3l0,0l0,0c0.5,0.5,0.8,1.2,0.8,2.3v29.6l-52.8,30.5v-21.2L1702.3,518.6"/>
	<path class="st5" d="M1739.3,513.1l-9.9,5.7c-1.7,1-3.1,3.7-3.1,6v29.6l52.8-30.5v-29.6c0-2.3-1.4-3.4-3.1-2.4l-26.9,15.5"/>
	<path class="st44" d="M1752,513.2l-8.8,13.2c-0.5,0.8-0.5,1.7,0,1.8l8.8,3.1c0.5,0.2,1.2-0.7,1.2-1.4v-4.4c0-0.2,0.1-0.4,0.3-0.5
		l10.1-5.8c0.6-0.3,1-1.1,1-1.7v-4.9c0-0.6-0.5-0.9-1-0.6l-10.1,5.8c-0.2,0.1-0.3,0-0.3-0.2v-4.4
		C1753.3,512.5,1752.5,512.5,1752,513.2z"/>
	<line class="st3" x1="1744.7" y1="510" x2="1743.3" y2="510.8"/>
	<polygon class="st16" points="1725.3,532.7 1715.6,538.1 1708.3,561 1708.3,570.5 1683.8,556.4 1683.8,545.6 1692.3,523.4 
		1701.9,517.6 	"/>
	<polygon class="st5" points="1707.4,553.4 1712.5,537.9 1694,527.3 1688.1,542.4 	"/>
	
		<ellipse transform="matrix(0.8633 -0.5047 0.5047 0.8633 -50.5767 935.4357)" class="st5" cx="1701.5" cy="561.1" rx="1.7" ry="3"/>
	
		<ellipse transform="matrix(0.8633 -0.5047 0.5047 0.8633 -48.9146 928.1229)" class="st5" cx="1688.8" cy="554.4" rx="1.7" ry="3"/>
	<path class="st5" d="M1721.1,550.7l-7.3,3.9l3.8-10.9c0.8-2.4,2.5-4.4,4.6-5.7l1.7-1.1v12.3"/>
</g>
<g id="tag">
	<path class="st5" d="M1703.5,449.7l-2.5-4.3c-0.6-0.7-1.6-1.2-2.8-1.4l-21.3-3.2c-1.1-0.2-2.5,0.4-3.1,1.2l-8.4,10.6
		c-0.7,0.8-0.3,1.6,0.7,1.8l21.3,3.2c1.3,0.2,2.7,0.1,4.2-0.3l8.1-2.7C1702.5,453.5,1704.2,451.3,1703.5,449.7z M1697.4,453.1
		c-1-0.1-1.3-0.9-0.7-1.6c0.6-0.8,1.9-1.3,2.8-1.1c1,0.1,1.3,0.9,0.7,1.6C1699.7,452.7,1698.4,453.2,1697.4,453.1z"/>
	<path class="st19" d="M1699.6,456.1c0-0.1,0.1-0.2,0.1-0.3c0.1-0.1,0.3-0.2,0.5-0.2c2.2-1.2,3-2,3.2-3.1c0-0.2-0.1-0.3-0.3-0.4
		c-0.3,0.5-0.8,1-1.4,1.4c-0.3,0.3-0.8,0.7-1.7,1.3c0-0.5-0.1-0.8-0.7-0.9c-0.7-0.2-1-0.4-1.2-0.7c-0.1-0.2-0.1-0.4,0.1-0.6
		c0.1-0.2,0.3-0.3,0.3-0.3h0.1h0.1c0.5,0.1,0.8,0.1,1.1,0.1l0,0c0.2-0.1,0.3-0.3,0.4-0.4c0.1-0.2,0.2-0.3,0.3-0.5
		c-0.1,0-0.1,0-0.2,0c-0.2,0-0.4,0-0.8-0.1h-0.1c-0.1,0-0.3-0.1-0.6-0.1c-0.7,0.1-1.5,0.5-1.9,1.1c-0.1,0.1-0.2,0.3-0.2,0.4
		c-0.2,0.7,0.2,1.5,1.7,1.8c0.2,0.1,0.2,0.4,0.1,0.8c-0.2,0.1-0.3,0.1-0.3,0.1s-1.1,0.2-1.1,0.4v0.1c0,0.2,0.1,0.4,0.4,0.4l0,0
		c0.2,0,0.4,0,0.6,0c-0.8,2.2-1.8,5.6,5.4,6.8l0.7-0.9C1697.8,461.3,1698.9,458.3,1699.6,456.1z"/>
</g>
<g id="confetti">
	<path class="st5" d="M1557.6,308c3.9,10.7,5.7,16.9,13.9,19.3c8.2,2.4,12.8,2.3,16.8,12.1c4.1-1.7,7.1-2.9,7.1-2.9s-2.7-6.5-10-10
		s-12.2-2-15.6-8.9c-3.3-6.9-4.5-13.6-4.5-13.6L1557.6,308z"/>
	<path class="st5" d="M1543.1,385.5l5.8,4.3c0.1-0.1,4.3-5.9,9.7-4.5c5.8,1.6,8.9,2.4,12.8,1.2c3.9-1.2,4.1-2,4.1-2l-5.4-2.5
		c0,0-1.7,2.6-4.5,1.7s-8.1-3.8-12.2-3.6C1548.5,380.3,1543.1,385.5,1543.1,385.5z"/>
	<path class="st5" d="M1496.4,429.1l-5.1,8.6c0.1,0.1,8.7,5.1,7.4,12.8c-1.4,8.2-2.1,12.5,0.1,17.7c2.2,5.1,3.3,5.4,3.3,5.4l2.7-7.8
		c0,0-3.8-2-3-6c0.9-4,4.1-11.6,3.4-17.2C1504.3,435.7,1496.4,429.1,1496.4,429.1z"/>
	<path class="st5" d="M1740.7,321.1l5.1-3.9c0,0,3,3.4,7.4,0s9.4-6.5,16.4-3.2c7,3.2,11,6,11,6l-6.6,5.8c0,0-5.4-6.9-11.2-7.7
		c-5.8-0.8-8.3,1.8-9.3,2.4s-7.2,3.7-10.1,2.2C1740.7,321.1,1740.7,321.1,1740.7,321.1z"/>
	<path class="st5" d="M1756.6,459.4l-4.7,2.1c0,0-1.8-3.2-5.8-1.3s-8.5,3.4-13.4-0.4s-7.5-6.7-7.5-6.7l6.2-3.4c0,0,3,6.4,7.3,8.1
		c4.4,1.7,6.8,0.1,7.7-0.2s6.3-1.6,8.3,0.1C1756.6,459.4,1756.6,459.4,1756.6,459.4z"/>
	<path class="st5" d="M1617,404.7l-4.7,2.1c0,0-1.8-3.2-5.8-1.3c-4,1.8-8.5,3.4-13.4-0.4s-7.5-6.7-7.5-6.7l6.2-3.4
		c0,0,3,6.4,7.3,8.1c4.4,1.7,6.8,0.1,7.7-0.2s6.3-1.6,8.3,0.1C1617,404.7,1617,404.7,1617,404.7z"/>
</g>
<g id="likes">
	<g>
		<path class="st4" d="M1380.3,218.1l3.4-2c0.2-0.1,0.4,0,0.4,0.2v2c0,0.2-0.2,0.5-0.4,0.7l-7.9,4.6c-0.2,0.1-0.4,0-0.4-0.2v-0.2
			c0-0.2,0-0.3,0.2-0.8c1.3-2.7,3.9-8.3,5-10.8c0.2-0.6,0.5-1.4,0.5-2c0-0.9-0.6-1.3-1.7-0.7c-0.8,0.5-1.4,1.4-1.9,2.3
			c-0.2,0.3-0.4,0.4-0.6,0.3l-1.2-0.7c-0.1-0.1-0.2-0.3,0-0.6c0.7-1.4,2-3.4,4-4.5c2.8-1.6,4.5-0.5,4.5,2c0,1.2-0.3,2-0.8,3.4
			C1382.8,212.7,1381.2,216,1380.3,218.1L1380.3,218.1z"/>
		<path class="st4" d="M1386.5,214.9l1.2-2.2c0.1-0.2,0.4-0.4,0.5-0.3c0.7,0.3,1.4,0.3,2.4-0.3c1.1-0.6,1.9-2,1.9-3.2
			c0-1.4-0.8-1.7-2.1-1l-3,1.8c-0.4,0.2-0.6-0.1-0.6-0.5v-7c0-0.2,0.2-0.5,0.4-0.6l6.4-3.7c0.2-0.1,0.4,0,0.4,0.2v2
			c0,0.2-0.2,0.5-0.4,0.6l-4.1,2.4v2.4l1.4-0.8c2.7-1.6,4.5-0.6,4.5,2.4s-2.1,6.6-4.9,8.2c-2.1,1.2-3.4,0.8-3.9,0.4
			C1386.3,215.5,1386.3,215.3,1386.5,214.9z"/>
	</g>
	<g>
		
			<ellipse transform="matrix(0.5047 -0.8633 0.8633 0.5047 466.7733 1242.0042)" class="st45" cx="1315.8" cy="214.2" rx="24.2" ry="14"/>
		
			<ellipse transform="matrix(0.5047 -0.8633 0.8633 0.5047 466.9512 1258.8685)" class="st46" cx="1330.6" cy="222.5" rx="24.2" ry="14"/>
		<path class="st47" d="M1334.1,252.1L1334.1,252.1L1334.1,252.1c0.1,0.1,0.1,0.1,0.1,0.1l2.9,1.7l0.6,0.3c3.1,1.6,7.3,1.3,11.9-1.4
			c9.5-5.5,17.2-18.8,17.2-29.7c0-5.4-1.9-9.2-5-11c-0.1,0-0.1-0.1-0.2-0.1l-3-1.7c-3.1-1.9-7.5-1.6-12.3,1.2
			c-9.5,5.5-17.2,18.8-17.2,29.7C1329.2,246.5,1331.1,250.3,1334.1,252.1z"/>
		<path class="st48" d="M1336.6,228c0,0.1-0.1,0.2-0.1,0.3c-2.4,4.8-3.9,10-3.9,14.7c0,10.9,7.7,15.3,17.2,9.8
			c9.5-5.5,17.2-18.8,17.2-29.7s-7.7-15.3-17.2-9.8c-3.2,1.9-6.2,4.6-8.8,7.9"/>
		<path class="st48" d="M1338.2,225.1l-0.1,0.1"/>
	</g>
	<g>
		<path class="st49" d="M1356.6,225.7c-0.5,0.1-0.9,0.3-1.4,0.6c-0.7,0.5-1.5,1-2.3,1.5c0.1-0.3,0.1-0.6,0.2-0.8
			c0.2-1,0.4-2,0.6-2.9c0.1-1.1-0.5-1.8-1.3-1.6c-0.7,0.2-1,0.5-1.1,1.4c0,0.6-0.1,1.3-0.3,1.9c-0.2,0.8-0.5,1.5-0.9,2.3
			c-0.6,1.1-1.2,2.2-1.8,3.3c-0.2,0.4-0.5,0.7-0.8,1c-0.2,0.2-0.5,0.4-0.7,0.7c-0.1,0.1-0.2,0.4-0.2,0.6c0,0.3,0,0.6,0,1
			c0,1.9,0,3.7,0,5.6c0,0.1,0,0.3,0,0.4c0,0.1,0.1,0.1,0.2,0.1c0.7-0.4,1.3-0.6,2-0.9c1.2-0.5,2.4-1,3.6-1.5
			c0.7-0.3,1.4-0.7,2.1-1.3c0.9-0.8,1.7-1.8,2-3.1c0.2-0.8,0.3-1.5,0.4-2.2c0.2-1.6,0.4-3.1,0.6-4.7
			C1357.4,226.2,1357.1,225.6,1356.6,225.7z"/>
		<path class="st49" d="M1345.5,233.4c0-0.5-0.2-0.7-0.7-0.4c-0.7,0.4-1.4,0.8-2.1,1.2c-0.4,0.3-0.7,0.6-0.7,1.1c0,2.6,0,5.2,0,7.8
			c0,0.5,0.2,0.6,0.7,0.4c0.7-0.4,1.4-0.8,2.1-1.2c0.5-0.3,0.7-0.6,0.7-1.2c0-1.3,0-2.6,0-3.8C1345.5,236,1345.6,234.7,1345.5,233.4
			z M1343.8,242.2c-0.3,0.2-0.5,0-0.5-0.3s0.2-0.8,0.5-0.9c0.3-0.2,0.5,0,0.5,0.3S1344.1,242,1343.8,242.2z"/>
	</g>
</g>
<g id="shares">
	<g>
		<path class="st4" d="M1473.9,162.2v-2c0-0.3,0-0.4,0.3-1l6.4-12.8c0.1-0.1,0.1-0.2,0.3-0.3l1.4-0.8c0.2-0.1,0.4,0,0.4,0.2v9.2
			l1.5-0.9c0.2-0.1,0.4,0,0.4,0.2v2c0,0.2-0.1,0.5-0.4,0.7l-1.5,0.9v2.8c0,0.2-0.2,0.5-0.4,0.6l-2,1.2c-0.2,0.1-0.4,0-0.4-0.2v-2.8
			l-5.6,3.2C1474,162.5,1473.9,162.4,1473.9,162.2z M1476.8,158.2l3-1.7v-4.3l0,0L1476.8,158.2L1476.8,158.2z"/>
		<path class="st4" d="M1486.2,151c0-5,1.8-8.9,4.8-10.7c3.1-1.8,4.9,0.1,4.9,5.1s-1.8,9-4.9,10.7C1488,157.9,1486.2,156,1486.2,151
			z M1493,147.1c0-3-0.8-4.2-2-3.6c-1.1,0.7-2,2.9-2,5.8c0,3,0.8,4.3,2,3.6C1492.2,152.3,1493,150.1,1493,147.1z"/>
		<path class="st4" d="M1498,144.2c0-5,1.8-8.9,4.8-10.7c3.1-1.8,4.9,0.1,4.9,5.1s-1.8,9-4.9,10.7
			C1499.7,151.1,1498,149.2,1498,144.2z M1504.8,140.3c0-3-0.8-4.2-2-3.6c-1.1,0.7-2,2.9-2,5.8c0,3,0.8,4.3,2,3.6
			C1504,145.5,1504.8,143.3,1504.8,140.3z"/>
	</g>
	<g>
		
			<ellipse transform="matrix(0.5047 -0.8633 0.8633 0.5047 564.0245 1297.8008)" class="st50" cx="1413" cy="157.4" rx="24.2" ry="14"/>
		
			<ellipse transform="matrix(0.5047 -0.8633 0.8633 0.5047 564.1028 1314.6643)" class="st51" cx="1427.8" cy="165.7" rx="24.2" ry="14"/>
		<path class="st48" d="M1431.4,195.3L1431.4,195.3L1431.4,195.3c0.1,0.1,0.1,0.1,0.1,0.1l2.9,1.7l0.6,0.3c3.1,1.6,7.3,1.3,11.9-1.4
			c9.5-5.5,17.2-18.8,17.2-29.7c0-5.4-1.9-9.2-5-11c-0.1,0-0.1-0.1-0.2-0.1l-3-1.7c-3.1-1.9-7.5-1.6-12.3,1.2
			c-9.5,5.5-17.2,18.8-17.2,29.7C1426.4,189.7,1428.3,193.5,1431.4,195.3z"/>
		<path class="st48" d="M1433.8,171.2c0,0.1-0.1,0.2-0.1,0.3c-2.4,4.8-3.9,10-3.9,14.7c0,10.9,7.7,15.3,17.2,9.8
			s17.2-18.8,17.2-29.7s-7.7-15.3-17.2-9.8c-3.2,1.9-6.2,4.6-8.8,7.9"/>
		<path class="st48" d="M1435.4,168.4l-0.1,0.1"/>
	</g>
	<path class="st49" d="M1443.3,180.6c-1.2,2.5-3.1,3.1-3.9,2.6c-1-0.6-0.9-2.5,0.1-4.2c0.9-1.5,2.6-2.8,3.8-1.8
		c0.1-0.1,0.2-0.2,0.3-0.3c1.7-2.1,3.4-4.3,5.1-6.4c0.2-0.2,0.3-0.4,0.3-0.6c0-1.1,0.4-2.1,1.2-3.2c0.8-1.1,1.7-1.6,2.5-1.6
		c0.9,0,1.4,0.7,1.4,1.8s-0.4,2.2-1.3,3.2c-0.9,1.1-1.8,1.6-2.6,1.5c-0.3,0-0.4-0.2-0.7-0.3c0,0.1-0.1,0.1-0.2,0.2
		c-1.7,2.2-3.5,4.4-5.2,6.6c-0.3,0.3-0.3,0.8,0,0.8c1.8,0.2,3.6,0.4,5.3,0.6h0.1c0.4-0.8,0.9-1.5,1.5-2c1.8-1.5,3.5-0.6,3.1,1.7
		c-0.2,1.3-1.1,2.8-2,3.4c-1.3,0.9-2.3,0.9-2.8-0.1c-0.2-0.3-0.2-0.8-0.2-1.2c0-0.1-0.1-0.2-0.2-0.2
		C1447,180.9,1445.2,180.7,1443.3,180.6C1443.4,180.6,1443.3,180.6,1443.3,180.6z"/>
</g>
<g id="cloud_17_">
	<path class="st4" d="M1852-6.1c-11.6,0-21.9,6-28,15.1c-0.6-0.1-1.3-0.1-2-0.1c-12.6,0-22.9,10.7-22.9,23.9c0,1.8,0.2,3.6,0.6,5.3
		c-9,0.6-16.1,8.8-16.1,18.8c0,10.4,7.7,18.8,17.2,18.8c5.4,0,10.2-2.7,13.3-6.9c2.2,0.9,4.5,1.4,6.9,1.4c6.9,0,13-4,16.5-9.9
		c4.4,2.1,9.2,3.3,14.4,3.3c18.8,0,34-15.6,34-34.8C1886,9.5,1870.8-6.1,1852-6.1z"/>
	<path class="st2" d="M1868.4,1.6c-0.8-0.6-1.8,0.5-1.2,1.2c4.5,5.3,7.2,12.1,7.2,19.6c0,16.5-13.1,29.9-29.2,29.9
		c-4.1,0-8.1-0.9-11.7-2.5c-0.4-0.2-0.8,0-1.1,0.3c-3.1,4.8-8.1,7.9-13.8,7.9c-1.9,0-3.7-0.4-5.4-1c-0.4-0.1-0.7,0-1,0.3
		c-2.7,3.4-6.7,5.5-11.1,5.5c-6.4,0-11.8-4.5-13.9-10.7c-0.1-0.4-0.7-0.3-0.7,0.1c-1.3,10.6,6.2,20,15.9,20c4.8,0,9.1-2.3,12-6
		c0.2-0.3,0.6-0.4,1-0.3c1.9,0.7,3.8,1.1,5.9,1.1c6.2,0,11.7-3.4,15.1-8.6c0.2-0.4,0.7-0.5,1.1-0.3c3.9,1.8,8.2,2.7,12.7,2.7
		c17.5,0,31.8-14.6,31.8-32.5C1882,17.2,1876.6,7.5,1868.4,1.6z"/>
	<path class="st3" d="M1799.1,75.7c0.4,0,0.7,0,1.1,0c5.4,0,10.2-2.7,13.3-6.9c2.2,0.9,4.5,1.4,6.9,1.4c6.9,0,13-4,16.5-9.9
		c4.4,2.1,9.2,3.3,14.4,3.3c18.8,0,34-15.6,34-34.8S1870.1-6,1851.3-6c-3,0-6,0.4-8.8,1.2"/>
	<path class="st3" d="M1792.1,73.3c0.4,0.2,0.8,0.4,1.2,0.5"/>
	<path class="st3" d="M1837.4-3c-5.7,2.6-10.5,6.8-14,12c-0.6-0.1-1.3-0.1-2-0.1c-12.6,0-22.9,10.7-22.9,23.9c0,1.8,0.2,3.6,0.6,5.3
		c-9,0.6-16.1,8.8-16.1,18.8c0,4.9,1.7,9.3,4.5,12.7"/>
</g>
<g id="bag">
	<path class="st5" d="M1602.3,523.5c-0.4,0.2-0.8,0-0.8-0.4v-8.7c0-2-0.7-3.5-1.9-4.2c-1.2-0.7-2.9-0.5-4.6,0.5
		c-3.6,2.1-6.6,7.2-6.6,11.3v8.7c0,0.5-0.3,1.1-0.8,1.3s-0.8,0-0.8-0.4v-8.7c0-5.1,3.6-11.4,8.1-13.9c2.2-1.2,4.2-1.5,5.7-0.6
		s2.4,2.7,2.4,5.2v8.7C1603,522.7,1602.7,523.3,1602.3,523.5z"/>
	<polygon class="st5" points="1578.8,528 1573.2,577.6 1618.4,552.8 1610.8,511 	"/>
	<polyline class="st5" points="1591,535.4 1591.1,534.2 1586.9,530.1 1578.8,528 1573.2,577.6 1580.8,578.9 1585.5,583.8 
		1590.1,543.6 	"/>
	<polygon class="st5" points="1623.1,517.2 1616.1,514.7 1610.8,511 1613.8,524.2 1630.8,559 	"/>
	<polyline class="st5" points="1590.4,541 1585.5,583.8 1630.8,559 1623.1,517.2 1591.1,534.2 1590.9,536.1 	"/>
	
		<ellipse transform="matrix(0.5047 -0.8633 0.8633 0.5047 323.5868 1649.5065)" class="st5" cx="1599.3" cy="542.8" rx="2.8" ry="1.6"/>
	
		<ellipse transform="matrix(0.5047 -0.8633 0.8633 0.5047 340.1819 1659.1793)" class="st5" cx="1616" cy="533.1" rx="2.8" ry="1.6"/>
	<path class="st5" d="M1615.9,533.9c-0.5,0.3-0.9,0.1-0.9-0.5v-9.9c0-2.3-0.8-4-2.2-4.8c-1.4-0.8-3.3-0.6-5.3,0.5
		c-4.1,2.4-7.4,8.1-7.4,12.8v9.9c0,0.5-0.4,1.2-0.9,1.5s-0.9,0.1-0.9-0.5V533c0-5.8,4.1-12.9,9.2-15.8c2.4-1.4,4.7-1.6,6.5-0.7
		c1.7,1,2.7,3.1,2.7,5.9v9.9C1616.8,533,1616.4,533.7,1615.9,533.9z"/>
</g>
<g id="location_pin">
	<path class="st6" d="M1361.5,692.5c-5.2-0.1-10.3-1.3-14.3-3.6c-8.4-4.8-8.4-12.7-0.1-17.5s21.9-4.8,30.2,0.1
		c8.4,4.8,8.4,12.7,0.1,17.5c-2.5,1.4-5.4,2.4-8.5,3"/>
	<path class="st52" d="M1336.6,697.6c-0.8-0.4-1.6-0.8-2.3-1.2c-15.6-9-15.7-23.5-0.2-32.5c15.5-8.9,40.7-8.9,56.2,0.1
		c15.6,9,15.7,23.5,0.2,32.5c-10.4,6-25.3,8-38.6,5.8"/>
	<path class="st52" d="M1345.2,700.8c-1.1-0.3-2.2-0.7-3.3-1"/>
	<path class="st5" d="M1386.8,625.3c0-6.1-2.1-10.4-5.6-12.5l0,0l-0.1-0.1l0,0l-9.8-5.7l0,0c-3.5-2.1-8.5-1.8-13.9,1.3
		c-10.8,6.2-19.5,21.3-19.5,33.7c0,16.1,19.5,34.2,19.5,34.2l0,0l9.9,5.7l0,0C1367.2,682.1,1386.8,641.5,1386.8,625.3z
		 M1369.8,623.7c0,7.9-5.6,17.5-12.4,21.4c-0.9,0.5-1.7,0.8-2.4,0.9c-0.1-0.7-0.2-1.5-0.2-2.3c0-7.9,5.6-17.5,12.4-21.4
		c0.8-0.5,1.6-0.8,2.4-1.1C1369.7,622,1369.8,622.8,1369.8,623.7z"/>
	<path class="st5" d="M1350.6,634.3c-0.2,0.4-0.3,0.8-0.5,1.2 M1348.6,640.4c-0.6,2.5-0.9,5-0.9,7.5c0,16.1,19.5,34.2,19.5,34.2
		s19.5-40.6,19.5-56.8c0-12.4-8.7-17.4-19.5-11.1c-5.4,3.1-10.4,8.5-13.9,14.7 M1376.1,641.5c-2.3,3.9-5.4,7.4-8.8,9.4
		c-6.9,4-12.4,0.8-12.4-7.1c0-7.9,5.6-17.5,12.4-21.4c2.3-1.3,4.5-1.9,6.3-1.7c3.6,0.4,6.1,3.5,6.1,8.8c0,1.9-0.3,4-0.9,6"/>
</g>
<g id="user">
	<path class="st53" d="M2115.1,365.1V412c0,2.5-1.5,3.7-3.4,2.6l-13.2-7.6l-6.3,4.8l-6.3-12.1l-13.2-7.6c-1.9-1.1-3.4-4-3.4-6.6
		v-46.9c0-2.5,1.5-3.7,3.4-2.6l39,22.5C2113.6,359.7,2115.1,362.6,2115.1,365.1z"/>
	<path class="st54" d="M2128.3,358.3v46.9c0,2.5-1.5,3.7-3.4,2.6l-13.2-7.6l-6.3,4.8l-6.3-12.1l-13.2-7.6c-1.9-1.1-3.4-4-3.4-6.6
		v-46.9c0-2.5,1.5-3.7,3.4-2.6l39,22.5C2126.8,352.9,2128.3,355.8,2128.3,358.3z"/>
	<path class="st55" d="M2103.9,372v46.9c0,2.5-1.5,3.7-3.4,2.6l-13.2-7.6l-6.3,4.8l-6.3-12.1l-13.2-7.6c-1.9-1.1-3.4-4-3.4-6.6
		v-46.9c0-2.5,1.5-3.7,3.4-2.6l39,22.5C2102.4,366.5,2103.9,369.4,2103.9,372z"/>
	<path class="st5" d="M2046.1,387v-34.9c0-2.5,1.5-3.7,3.4-2.6l39,22.5c1.9,1.1,3.4,4,3.4,6.6v46.9c0,2.5-1.5,3.7-3.4,2.6l-13.2-7.6
		l-6.3,4.8l-6.3-12.1l-13.2-7.6c-1.9-1.1-3.4-4-3.4-6.6v-6.7"/>
	<path class="st56" d="M2061.5,380.4c0.7,0.8,0.9,1.5,1.1,2.4c0.1,0.5,0.3,1,0.5,1.6c1.9,5.6,5.7,8.2,8.4,7.3
		c1.2-0.4,1.9-1.6,2.3-3.1c0.1-0.2,0.2-0.4,0.3-0.4c0.8,0.1,1.3-0.3,1.3-1.3c0-0.9-0.3-1.9-1.2-2.7c0.1-0.8,0.3-1.4,0.3-2.2
		c0.1-2-0.3-4-1.9-6.2c-0.1-0.2-0.2-0.5-0.3-0.7c-0.3-1.3-0.9-2.4-1.9-3.2c-0.5-0.4-1-0.7-1.5-0.9c-1.6-0.5-3.1-1.1-4.6-1.4
		c-1.8-0.3-3,0.5-3.1,2.7c-0.1,1.2,0.1,2.6,0.2,3.9c0,0.5,0.1,0.8-0.2,1C2060.6,377.8,2060.6,379.3,2061.5,380.4z"/>
	<path class="st56" d="M2078,403.4c-1.7-3.9-4.3-6.6-7.1-8.9c-0.4-0.4-0.7-0.4-1.1-0.4c-1.7,0.4-4.2-0.9-5.7-3.1
		c-0.5-0.7-0.9-0.9-1.4-1.1c-2-0.7-4-1.1-5.5-0.2c-1,0.6-1.5,1.2-1.8,1.9c-0.5,1.2,0,3.1,1.2,4.6c6.5,7.9,14.3,12.4,20.8,12.3
		c1.2,0,1.7-1.3,1.3-3C2078.6,404.8,2078.4,404.2,2078,403.4z"/>
	<path class="st3" d="M2064.1,386.8c2.1,3.9,5.1,5.6,7.3,4.9c1.2-0.4,1.9-1.6,2.3-3.1c0.1-0.2,0.2-0.4,0.3-0.4
		c0.8,0.1,1.3-0.3,1.3-1.3c0-0.9-0.3-1.9-1.2-2.7c0.1-0.8,0.3-1.4,0.3-2.2c0.1-2-0.3-4-1.9-6.2c-0.1-0.2-0.2-0.5-0.3-0.7
		c-0.3-1.3-0.9-2.4-1.9-3.2c-0.5-0.4-1-0.7-1.5-0.9c-1.6-0.5-3.1-1.1-4.6-1.4c-1.8-0.3-3,0.5-3.1,2.7c-0.1,1.2,0.1,2.6,0.2,3.9
		c0,0.5,0.1,0.8-0.2,1c-0.8,0.5-0.7,2,0.1,3.1c0.5,0.7,0.8,1.3,1,2"/>
	<path class="st3" d="M2066.6,405c0.1,0.1,0.3,0.2,0.4,0.3"/>
	<path class="st3" d="M2069.4,406.5c2.8,1.3,5.5,1.9,8,1.9c1.2,0,1.7-1.3,1.3-3c-0.1-0.5-0.4-1.2-0.7-2c-1.7-3.9-4.3-6.6-7.1-8.9
		c-0.4-0.4-0.7-0.4-1.1-0.4c-1.7,0.4-4.2-0.9-5.7-3.1c-0.5-0.7-0.9-0.9-1.4-1.1c-2-0.7-4-1.1-5.5-0.2c-1,0.6-1.5,1.2-1.8,1.9
		c-0.5,1.2,0,3.1,1.2,4.6c2.4,2.9,5,5.4,7.7,7.3"/>
</g>
<g id="product_ui">
	<g>
		<path class="st40" d="M1695.7-4.4v182.9c0,2.9-2,6.4-4.5,7.8l-118.3,68.3c-2.5,1.4-4.5,0.3-4.5-2.6V69.1c0-2.9,2-6.4,4.5-7.8
			L1691.1-7C1693.6-8.4,1695.7-7.3,1695.7-4.4z"/>
		<path class="st41" d="M1717.1,9.4v182.9c0,2.9-2,6.4-4.5,7.8l-118.3,68.3c-2.5,1.4-4.5,0.3-4.5-2.6V82.9c0-2.9,2-6.4,4.5-7.8
			l118.3-68.3C1715,5.4,1717.1,6.5,1717.1,9.4z"/>
		<path class="st5" d="M1741,143.4v60.4c0,2.9-2,6.4-4.5,7.8l-79.5,45.9l-38.9,22.4c-2.5,1.4-4.5,0.3-4.5-2.6V94.5
			c0-2.9,2-6.4,4.5-7.8l118.3-68.3c2.5-1.4,4.5-0.3,4.5,2.6v116"/>
		<g>
			<path class="st34" d="M1685.5,68.4l-57.2,33c-1.1,0.7-2.1,0-2.1-1.6l0,0c0-1.5,0.9-3.3,2.1-3.9l57.2-33c1.1-0.7,2.1,0,2.1,1.6
				l0,0C1687.5,66,1686.6,67.8,1685.5,68.4z"/>
			<path class="st34" d="M1658.7,94.6l-30.4,17.6c-1.1,0.7-2.1,0-2.1-1.6l0,0c0-1.5,0.9-3.3,2.1-3.9l30.4-17.6
				c1.1-0.7,2.1,0,2.1,1.6l0,0C1660.7,92.2,1659.8,94,1658.7,94.6z"/>
		</g>
		<g>
			<path class="st34" d="M1702,206.6l-74.2,42.8c-0.9,0.5-1.6,0-1.6-1.2l0,0c0-1.2,0.7-2.6,1.6-3.1l74.2-42.8c0.9-0.5,1.6,0,1.6,1.2
				l0,0C1703.6,204.7,1702.9,206.1,1702,206.6z"/>
		</g>
		<g>
			<path class="st34" d="M1663.3,238.8l-35.5,20.5c-0.9,0.5-1.6,0-1.6-1.2l0,0c0-1.2,0.7-2.6,1.6-3.1l35.5-20.5
				c0.9-0.5,1.6,0,1.6,1.2l0,0C1664.9,236.9,1664.2,238.3,1663.3,238.8z"/>
		</g>
		<g>
			<path class="st57" d="M1674.3,124.7c3.3-0.7,7-2.9,10.2-6.4c4-4.3,6.7-9.2,7.6-14.8c0.1-0.7,1.1-2.1,1.7-2.6
				c3.6-2.5,6.8-3.9,9.8-2.5c5.6,2.6,11.7,4.3,17.6,6.3c0.5,0.2,0.9,0.4,1.5,0.7c-0.3,0.8-0.5,1.5-0.8,2.3
				c-3.1,8.2-6.2,16.4-9.5,24.9c-2.9-0.3-5.6-0.6-8.8-1c-0.1,1.4-0.2,2.4-0.2,3.3c0,12.8,0,25.6,0,38.3c0,2-0.4,2.9-2.2,4
				c-14.9,8.5-29.8,17.1-44.7,25.8c-1.7,1-2.3,0.8-2.3-1.3c0.1-12.7,0-25.4,0-38.1c0-1,0-1.9,0-3.6c-3.3,4.1-6,7.6-9,11.3
				c-3.5-5.1-6.9-10.1-10.4-15.3c3.5-5.3,6.9-10.4,10.3-15.5c3.8-5.6,7.5-11.3,11.3-16.9c2.6-3.8,5.6-4.3,8.4-5.8
				c0.3-0.1,0.7,0.6,0.8,1.1c0.5,3.2,2.2,5,4.4,5.7"/>
		</g>
		<g>
			<path class="st3" d="M1650.6,164.7c-1.8,2.2-3.5,4.4-5.2,6.6c-3.5-5.1-6.9-10.1-10.4-15.3c3.5-5.3,6.9-10.4,10.3-15.5
				c3.8-5.6,7.5-11.3,11.3-16.9c2.6-3.8,5.6-4.3,8.4-5.8c0.3-0.1,0.7,0.6,0.8,1.1c0.5,3.2,2.2,5,4.4,5.7"/>
			<path class="st3" d="M1679.9,122.2c1.6-1,3.1-2.4,4.6-3.9c4-4.3,6.7-9.2,7.6-14.8c0.1-0.7,1.1-2.1,1.7-2.6
				c3.6-2.5,6.8-3.9,9.8-2.5c5.6,2.6,11.7,4.3,17.6,6.3c0.5,0.2,0.9,0.4,1.5,0.7c-0.3,0.8-0.5,1.5-0.8,2.3
				c-3.1,8.2-6.2,16.4-9.5,24.9c-2.9-0.3-5.6-0.6-8.8-1c-0.1,1.4-0.2,2.4-0.2,3.3c0,12.8,0,25.6,0,38.3c0,2-0.4,2.9-2.2,4
				c-14.9,8.5-29.8,17.1-44.7,25.8c-1.7,1-2.3,0.8-2.3-1.3c0.1-12.7,0-25.4,0-38.1c0-1,0-1.9,0-3.6c-0.4,0.5-0.7,0.9-1.1,1.4"/>
			<path class="st3" d="M1674.3,124.7c0.3-0.1,0.6-0.1,0.9-0.2"/>
		</g>
		<path class="st5" d="M1683,145v-8.7l12.7-7.3v10.2c0,4-6.3,10.9-6.3,10.9l0,0c0,0-3.2,0.2-5.1-1.1"/>
	</g>
	<path class="st58" d="M1741,173.9v29.9c0,2.9-2,6.4-4.5,7.8l-79.5,45.9V251l-5.6-3l5.6-9.4V227c0-2.7,1.9-6,4.3-7.3L1741,173.9z"/>
	<g>
		<path class="st5" d="M1726.6,194.8l50.3-29c2.4-1.4,4.3-0.4,4.3,2.3v35.5c0,2.7-1.9,5.9-4.3,7.3l-103.8,59.8
			c-2.4,1.4-4.3,0.4-4.3-2.3v-11.6l-5.6-3l5.6-9.4V233c0-2.7,1.9-5.9,4.3-7.3l40.2-23.2"/>
		<line class="st3" x1="1719.4" y1="199" x2="1720.8" y2="198.2"/>
		<path class="st34" d="M1731.4,208.9l-50.3,29c-1.3,0.8-2.4,0-2.4-1.8l0,0c0-1.8,1.1-3.8,2.4-4.6l50.3-29c1.3-0.8,2.4,0,2.4,1.8
			l0,0C1733.8,206,1732.7,208.1,1731.4,208.9z"/>
		<path class="st34" d="M1731.6,220.3l-52.1,30c-0.5,0.3-0.9,0-0.9-0.7l0,0c0-0.7,0.4-1.5,0.9-1.7l52.1-30c0.5-0.3,0.9,0,0.9,0.7
			l0,0C1732.6,219.2,1732.1,220,1731.6,220.3z"/>
		<path class="st34" d="M1715.2,236.8l-35.6,20.5c-0.5,0.3-0.9,0-0.9-0.7l0,0c0-0.7,0.4-1.5,0.9-1.7l35.6-20.5
			c0.5-0.3,0.9,0,0.9,0.7l0,0C1716.1,235.8,1715.7,236.5,1715.2,236.8z"/>
		<path class="st59" d="M1781.3,168.1v35.5c0,2.7-1.9,5.9-4.3,7.3l-35,20.2V186l35-20.2C1779.3,164.4,1781.3,165.5,1781.3,168.1z"/>
		<g>
			<path class="st5" d="M1762.9,202.6c-1.4,0.8-2.8,1.6-4.2,2.4c-0.9,0.5-1.5,0.4-1.8-0.5c-0.9-3-1.8-6.1-2.6-9.2
				c-0.2-0.6-0.3-1.2-0.5-1.8s-0.5-1-1-1.1c-0.3,0-0.6,0-1,0.2c-0.6,0.3-1.2,0.7-1.8,1c-0.6,0.3-1,0-0.8-0.7
				c0.1-0.4,0.4-0.7,0.7-0.9c0.7-0.4,1.4-0.8,2-1.2c1.5-0.7,2.5-0.2,3,1.1c0.3,0.6,0.5,1.4,0.6,2.1c0.1,0.4,0.3,0.4,0.7,0.2
				c4.6-2.7,9.2-5.3,13.7-7.9c0.1-0.1,0.3-0.2,0.4-0.2c0.6-0.3,1,0,0.8,0.8c-0.4,1.8-0.8,3.5-1.2,5.3c-0.4,1.8-0.8,3.6-1.2,5.4
				c-0.3,1.2-0.9,2.1-1.9,2.7C1765.7,201,1764.3,201.8,1762.9,202.6z"/>
			<path class="st5" d="M1766.5,202.5c1-0.6,1.7-0.1,1.7,1s-0.8,2.5-1.7,3c-1,0.6-1.8,0.1-1.8-1S1765.5,203,1766.5,202.5z"/>
			<path class="st5" d="M1761.2,207.5c0,1.1-0.8,2.5-1.7,3c-1,0.6-1.7,0.1-1.7-1s0.8-2.5,1.7-3
				C1760.4,206,1761.2,206.4,1761.2,207.5z"/>
		</g>
		<path class="st5" d="M1787.1,154.3l-3.3-1.4l0,0c-1.6-0.7-3.7-0.5-6,0.8c-5,2.9-9.1,9.9-9.1,15.6c0,2.7,0.9,4.6,2.4,5.6l0,0h0.1
			c0.4,0.2,0.8,0.4,1.3,0.6l2.2,0.9l1.5-2.6c0.1,0,0.1-0.1,0.2-0.1c5-2.9,9.1-9.9,9.1-15.6c0,0,0,0,0-0.1l0.3-0.6L1787.1,154.3z"/>
		
			<ellipse transform="matrix(0.5047 -0.8633 0.8633 0.5047 739.2344 1618.8521)" class="st5" cx="1780.4" cy="165.2" rx="12.8" ry="7.4"/>
		<g>
			<path class="st19" d="M1777.5,170.5l0.7-1.2c0.1-0.2,0.2-0.3,0.3-0.2c0.4,0.2,0.8,0.4,1.7-0.1c0.8-0.5,1.4-1.4,1.4-2.2
				c0-1-0.6-1.2-1.9-0.5l-0.8,0.4c-0.1,0.1-0.2,0-0.2-0.2v-1c0-0.2,0.1-0.4,0.2-0.5l0.8-0.4c1.1-0.6,1.7-1.6,1.7-2.4
				c0-0.8-0.6-1.1-1.3-0.7c-0.7,0.4-1.1,1.1-1.4,1.5c-0.1,0.2-0.2,0.3-0.4,0.2l-0.7-0.3c-0.1,0-0.1-0.2,0-0.4
				c0.4-0.8,1.2-2.1,2.5-2.8c1.6-0.9,2.9-0.6,2.9,1.2c0,1.3-0.8,2.5-1.4,3.2v0.1c0.7-0.1,1.6,0.2,1.6,1.6c0,1.8-1.2,3.7-3.1,4.8
				c-1.7,1-2.5,0.5-2.8,0.3C1777.4,170.9,1777.4,170.7,1777.5,170.5z"/>
		</g>
	</g>
</g>
<g id="shopping_cart">
	<path class="st55" d="M1630.9,752.2v52.7c0,3.1-1.9,6.7-4.2,8.1l-13.2,7.6l-6.6,12.6l-6.6-5l-13.2,7.6c-2.3,1.3-4.2-0.1-4.2-3.2
		v-52.7c0-3.1,1.9-6.7,4.2-8.1l39.5-22.8C1629,747.6,1630.9,749.1,1630.9,752.2z"/>
	<path class="st53" d="M1620.8,746.1v52.7c0,3.1-1.9,6.7-4.2,8.1l-13.2,7.6l-6.6,12.6l-6.6-5l-13.2,7.6c-2.3,1.3-4.2-0.1-4.2-3.2
		v-52.7c0-3.1,1.9-6.7,4.2-8.1l39.5-22.8C1618.9,741.6,1620.8,743,1620.8,746.1z"/>
	<path class="st54" d="M1609.7,740.1v52.7c0,3.1-1.9,6.7-4.2,8.1l-13.2,7.6l-6.6,12.6l-6.6-5l-13.2,7.6c-2.3,1.3-4.2-0.1-4.2-3.2
		v-52.7c0-3.1,1.9-6.7,4.2-8.1l39.5-22.8C1607.8,735.5,1609.7,737,1609.7,740.1z"/>
	<path class="st5" d="M1623.7,825.5L1623.7,825.5l-6.7,12.7l-6.6-5l-13.2,7.6c-2.3,1.3-4.2-0.1-4.2-3.2v-52.7c0-3.1,1.9-6.7,4.2-8.1
		l39.5-22.8c2.3-1.3,4.2,0.1,4.2,3.2v52.7c0,3.1-1.9,6.7-4.2,8.1l-8.1,4.7"/>
	<g>
		<path class="st60" d="M1629.7,796.4c-0.3,1.2-0.5,2.4-0.8,3.6c-0.4,1.8-1.3,3.1-2.8,3.9c-2.1,1.2-4.1,2.4-6.2,3.6
			c-2.1,1.2-4.1,2.4-6.2,3.6c-1.3,0.8-2.3,0.5-2.6-0.8c-1.3-4.5-2.6-9-3.9-13.5c-0.2-0.9-0.5-1.7-0.7-2.6c-0.2-0.9-0.7-1.5-1.5-1.6
			c-0.4-0.1-1,0-1.5,0.3c-0.9,0.4-1.7,1-2.6,1.5s-1.5,0-1.2-1.1c0.2-0.6,0.6-1.1,1-1.4c1-0.6,2-1.2,3-1.7c2.3-1.1,3.7-0.3,4.5,1.6
			c0.4,0.9,0.7,2,0.9,3.1c0.1,0.6,0.4,0.6,1,0.3c6.7-3.9,13.5-7.8,20.2-11.7c0.2-0.1,0.4-0.2,0.6-0.4c0.9-0.4,1.4,0,1.2,1.2
			c-0.3,1.5-0.6,3-1,4.5 M1630.7,792.1c0,0.2-0.1,0.4-0.1,0.6"/>
		<path class="st60" d="M1625.2,807.3c1.4-0.8,2.6-0.2,2.6,1.5c0,1.6-1.2,3.6-2.6,4.4c-1.4,0.8-2.6,0.1-2.6-1.5
			C1622.6,810.1,1623.8,808.1,1625.2,807.3z"/>
		<path class="st60" d="M1612.8,815.7c0.5-1,1.2-2,2.1-2.5c1.4-0.8,2.6-0.2,2.6,1.5c0,1.6-1.1,3.6-2.6,4.4c-0.8,0.5-1.5,0.5-1.9,0.1
			"/>
	</g>
</g>
<g id="email">
	<path class="st2" d="M1958.4,540.8"/>
	<path class="st2" d="M1949.6,530.4"/>
	<polygon class="st31" points="2012.4,606.6 2007.8,604 2007.8,523.7 2012.4,526.3 	"/>
	<polygon class="st31" points="2012.4,606.6 2017,604 2017,523.7 2012.4,526.3 	"/>
	<g>
		<path class="st5" d="M1996.1,490.9l-18.4,10.8l11.5,31.6l8.2,15l49-29v-23.2c0-8.8-5.3-19-11.9-22.8l0,0c-2.9-1.7-5.6-1.8-7.7-0.7
			l0,0l-20.5,12.1"/>
		<line class="st3" x1="2001.9" y1="487.5" x2="2001.7" y2="487.6"/>
		<path class="st16" d="M1997.6,548.4l-23.9-13.8v-23.2c0-8.8,5.3-12.8,11.9-9l0,0c6.6,3.8,11.9,14,11.9,22.8L1997.6,548.4
			L1997.6,548.4z"/>
	</g>
	<path class="st17" d="M2033.9,465.7l-10.8,6.2l0,0c0,4.8,3.4,6.7,7.6,4.3l3.2-1.9v38.4l3.8-2.2v-38.4v-8.7L2033.9,465.7z"/>
	<path class="st16" d="M1987.5,553.4l-2.2,1.3c-7.6,4.4-19.1,4.9-25.7,1.1l0,0c-6.6-3.8-5.8-10.4,1.8-14.8l12.1-7.1l23.8,13.8
		l-3.3,1.9"/>
	<line class="st3" x1="1990.8" y1="551.5" x2="1990.2" y2="551.8"/>
	<g>
		<g>
			<defs>
				<path id="SVGID_1_" d="M1997.6,548.4l-91.4,2.3l67.5-39.2c0-8.8,5.3-12.8,11.9-9l0,0c6.6,3.8,11.9,14,11.9,22.8L1997.6,548.4
					L1997.6,548.4z"/>
			</defs>
			<clipPath id="SVGID_2_">
				<use xlink:href="#SVGID_1_"  style="overflow:visible;"/>
			</clipPath>
			<g class="st61">
				<path class="st5" d="M1970.3,546.9l28.3-16.3c1.4-0.8,2.5-3,2.5-4.8v-20c0-1.9-1.1-2.7-2.5-1.9l-28.3,16.3
					c-1.4,0.8-2.5,3-2.5,4.8v20C1967.8,546.8,1968.9,547.7,1970.3,546.9z"/>
				<polyline class="st3" points="1971.9,523.3 1984.5,527.7 1998.2,507.1 				"/>
				<line class="st3" x1="1998.5" y1="527.2" x2="1991" y2="523"/>
				<line class="st3" x1="1970.7" y1="542.7" x2="1978.3" y2="529.8"/>
				<line class="st3" x1="1946.2" y1="531.7" x2="1961.3" y2="523"/>
				<line class="st3" x1="1952.6" y1="533.5" x2="1961.3" y2="528.5"/>
				<line class="st3" x1="1958.3" y1="535.7" x2="1961.3" y2="534"/>
			</g>
		</g>
		<g>
			<defs>
				<path id="SVGID_3_" d="M1997.6,548.4l-91.4,2.3l67.5-39.2c0-8.8,5.3-12.8,11.9-9l0,0c6.6,3.8,11.9,14,11.9,22.8L1997.6,548.4
					L1997.6,548.4z"/>
			</defs>
			<clipPath id="SVGID_4_">
				<use xlink:href="#SVGID_3_"  style="overflow:visible;"/>
			</clipPath>
			<path class="st62" d="M1973.7,511.4c0-8.8,5.3-12.8,11.9-9l0,0c6.6,3.8,11.9,14,11.9,22.8v23.2"/>
		</g>
	</g>
</g>
<g id="colored_bubbles_1_">
	<circle class="st4" cx="1224" cy="230.9" r="8.6"/>
	<circle class="st4" cx="2228.4" cy="22.2" r="8.6"/>
	<circle class="st4" cx="1953.6" cy="-31" r="6.1"/>
	<circle class="st4" cx="1360.6" cy="156.8" r="5"/>
	<circle class="st4" cx="2103.9" cy="226.1" r="4"/>
	<circle class="st4" cx="2151.8" cy="104.8" r="4.5"/>
	<circle class="st4" cx="1783.1" cy="-37.8" r="4.5"/>
	<circle class="st4" cx="1298.5" cy="444.3" r="4.5"/>
</g>
<g id="magnifying_glass">
	<path class="st16" d="M1481.3,722.1h-5.4c-0.8-0.6-1.6-1.2-2.6-1.7c-10.6-6.1-27.6-6.1-38.1-0.1c-1,0.6-1.9,1.2-2.6,1.8h-5.2v9.3
		l0,0c0,4,2.7,7.9,8,11c10.6,6.1,27.6,6.1,38.1,0.1c5.3-3,7.9-7,7.8-11l0,0L1481.3,722.1L1481.3,722.1z"/>
	
		<ellipse transform="matrix(5.421953e-03 -1 1 5.421953e-03 724.3126 2172.4731)" class="st5" cx="1454.3" cy="722.1" rx="15.6" ry="27"/>
	<path class="st3" d="M1475.2,722.4c-0.1,3-2.1,6-6.1,8.3c-0.3,0.2-0.5,0.3-0.8,0.4"/>
	<path class="st3" d="M1435.4,717c1-1.2,2.4-2.4,4.1-3.4c4.2-2.4,9.7-3.6,15.3-3.5"/>
	<path class="st3" d="M1433.5,721.4c0.1-0.6,0.2-1.2,0.4-1.8"/>
	<path class="st16" d="M1476.9,734.4L1476.9,734.4L1476.9,734.4L1476.9,734.4c-0.7-0.4-1.6-0.4-2.5,0.2c-1.9,1.1-3.4,3.8-3.4,5.9
		c0,1.1,0.4,1.9,1,2.2l0,0l23.6,13.7l4.8-8.4L1476.9,734.4z"/>
	
		<ellipse transform="matrix(0.5047 -0.8633 0.8633 0.5047 92.5452 1665.6733)" class="st16" cx="1497.9" cy="752.2" rx="4.9" ry="2.8"/>
</g>
<g id="coins_4_">
	<g>
		<path class="st5" d="M2085.4,581.7c0.4,0.2,0.8,0.5,1.2,0.7c8.4,4.4,21.7,4,29.7-0.8c4.1-2.4,6.1-5.6,5.9-8.7l-0.1-3.9
			c0-3.1-2.1-6.2-6.4-8.4c-8.4-4.4-21.7-4-29.7,0.8c-4,2.4-6,5.4-5.9,8.4l0,0l0.1,4.4l0,0c0,1.7,0.7,3.3,2,4.9"/>
		<path class="st5" d="M2095.2,580.7c-3.1-0.5-6-1.4-8.5-2.7c-8.4-4.4-8.6-11.8-0.6-16.5c8.1-4.8,21.4-5.1,29.7-0.8
			c8.4,4.4,8.6,11.8,0.6,16.5c-3.5,2.1-8,3.3-12.7,3.7"/>
		<path class="st5" d="M2099.8,581.1h-0.1"/>
		
			<ellipse transform="matrix(0.9997 -2.264077e-02 2.264077e-02 0.9997 -12.3525 47.7167)" class="st5" cx="2101.1" cy="569.4" rx="18" ry="10"/>
		<path class="st5" d="M2104,573.2l-2.8-2.2c-1.7,0.4-3.3,0.1-4.6-0.9c-1.6-1.2-1-2.6,1.6-3.6c2.5-1,5.1-0.9,6.6,0.3
			c1.3,1,1.1,2.1-0.1,2.7l2.8,2.2c2.6-1.2,3-3.3,0.6-5.5l2.1-0.8l-1.9-1.5l-2.2,0.9c-3.2-1.9-7.4-2.2-11.1-0.7
			c-3.7,1.5-4.5,3.8-2.4,6.1l-2,0.8l1.9,1.5l2-0.8C2097.5,573.7,2101,574.2,2104,573.2z"/>
	</g>
	<g>
		<path class="st5" d="M2097.1,574.3c0.3,0.2,0.5,0.3,0.8,0.5c8.4,4.4,21.7,4,29.7-0.8c4.1-2.4,6.1-5.6,5.9-8.7l-0.1-3.9
			c0-3.1-2.1-6.2-6.4-8.4c-8.4-4.4-21.7-4-29.7,0.8c-4,2.4-6,5.4-5.9,8.4l0,0l0.1,4.4l0,0c0,1.7,0.7,3.3,2,4.9"/>
		<path class="st5" d="M2107.3,573.2c-3.4-0.4-6.6-1.4-9.3-2.8c-8.4-4.4-8.6-11.8-0.6-16.5c8.1-4.8,21.4-5.1,29.7-0.8
			s8.6,11.8,0.6,16.5c-3.4,2-7.6,3.2-12,3.6"/>
		<path class="st5" d="M2111.1,573.5h-0.1"/>
		
			<ellipse transform="matrix(0.9997 -2.264077e-02 2.264077e-02 0.9997 -12.1776 47.9706)" class="st5" cx="2112.4" cy="561.8" rx="18" ry="10"/>
		<path class="st5" d="M2115.3,565.6l-2.8-2.2c-1.7,0.4-3.3,0.1-4.6-0.9c-1.6-1.2-1-2.6,1.6-3.6c2.5-1,5.1-0.9,6.6,0.3
			c1.3,1,1.1,2.1-0.1,2.7l2.8,2.2c2.6-1.2,3-3.3,0.6-5.5l2.1-0.8l-1.9-1.5l-2.2,0.9c-3.2-1.9-7.4-2.2-11.1-0.7
			c-3.7,1.5-4.5,3.8-2.4,6.1l-2,0.8l1.9,1.5l2-0.8C2108.8,566,2112.3,566.6,2115.3,565.6z"/>
	</g>
	<g>
		<path class="st5" d="M2085.1,565c0.3,0.1,0.5,0.3,0.8,0.4c8.4,4.4,21.7,4,29.7-0.8c4.1-2.4,6.1-5.6,5.9-8.7l-0.1-3.9
			c0-3.1-2.1-6.2-6.4-8.4c-8.4-4.4-21.7-4-29.7,0.8c-4,2.4-6,5.4-5.9,8.4l0,0l0.1,4.4l0,0c0,1.7,0.7,3.3,2,4.9"/>
		<path class="st5" d="M2094.7,563.8c-3.2-0.5-6.2-1.4-8.8-2.7c-8.4-4.4-8.6-11.8-0.6-16.5c8.1-4.8,21.4-5.1,29.7-0.8
			c8.4,4.4,8.6,11.8,0.6,16.5c-3.2,1.9-7.3,3.1-11.6,3.6"/>
		<path class="st5" d="M2099.1,564.2h-0.1"/>
		
			<ellipse transform="matrix(0.9997 -2.264077e-02 2.264077e-02 0.9997 -11.9701 47.6965)" class="st5" cx="2100.4" cy="552.5" rx="18" ry="10"/>
		<path class="st5" d="M2103.3,556.3l-2.8-2.2c-1.7,0.4-3.3,0.1-4.6-0.9c-1.6-1.2-1-2.6,1.6-3.6c2.5-1,5.1-0.9,6.6,0.3
			c1.3,1,1.1,2.1-0.1,2.7l2.8,2.2c2.6-1.2,3-3.3,0.6-5.5l2.1-0.8l-1.9-1.5l-2.2,0.9c-3.2-1.9-7.4-2.2-11.1-0.7
			c-3.7,1.5-4.5,3.8-2.4,6.1l-2,0.8l1.9,1.5l2-0.8C2096.8,556.7,2100.3,557.3,2103.3,556.3z"/>
	</g>
</g>
<g id="tree_8_">
	
		<ellipse transform="matrix(5.421953e-03 -1 1 5.421953e-03 1629.598 2694.3108)" class="st2" cx="2169.3" cy="527.9" rx="7.9" ry="13.6"/>
	<path class="st16" d="M2171.3,529.1h-4.5c-0.5,0-0.9-0.4-0.9-0.9v-35.3c0-0.5,0.4-0.9,0.9-0.9h4.5c0.5,0,0.9,0.4,0.9,0.9v35.3
		C2172.3,528.6,2171.8,529.1,2171.3,529.1z"/>
	<path class="st4" d="M2187.2,483.4c0,10.8-8.8,19.6-19.6,19.6c-5.5,0-10.6-2.3-14.1-6c-3.4-3.5-5.5-8.3-5.5-13.5
		c0-10.8,8.8-19.6,19.6-19.6c8.5,0,15.7,5.4,18.4,13C2186.8,478.8,2187.2,481,2187.2,483.4z"/>
	<path class="st4" d="M2186,476.7c-1.7,12.1-12,21.4-24.6,21.4c-2.8,0-5.4-0.5-7.9-1.3c-3.4-3.5-5.5-8.3-5.5-13.5
		c0-10.8,8.8-19.6,19.6-19.6C2176.1,463.8,2183.3,469.2,2186,476.7z"/>
	<path class="st63" d="M2187.2,483.4c0,10.8-8.8,19.6-19.6,19.6c-5.5,0-10.6-2.3-14.1-6c-3.4-3.5-5.5-8.3-5.5-13.5
		c0-10.8,8.8-19.6,19.6-19.6c8.5,0,15.7,5.4,18.4,13C2186.8,478.8,2187.2,481,2187.2,483.4z"/>
	
		<ellipse transform="matrix(0.3628 -0.9319 0.9319 0.3628 926.6619 2313.3726)" class="st4" cx="2155" cy="479.1" rx="5.3" ry="3.2"/>
</g>
<g id="trees_11_">
	<g>
		
			<ellipse transform="matrix(5.421953e-03 -1 1 5.421953e-03 770.8743 1876.6382)" class="st2" cx="1328.9" cy="550.8" rx="7.7" ry="13.3"/>
		<path class="st16" d="M1330.8,551.9h-4.4c-0.5,0-0.9-0.4-0.9-0.9v-34.4c0-0.5,0.4-0.9,0.9-0.9h4.4c0.5,0,0.9,0.4,0.9,0.9V551
			C1331.7,551.5,1331.3,551.9,1330.8,551.9z"/>
		<path class="st4" d="M1346.3,507.4c0,10.5-8.6,19.1-19.1,19.1c-5.4,0-10.3-2.3-13.8-5.9c-3.3-3.4-5.3-8.1-5.3-13.2
			c0-10.5,8.6-19.1,19.1-19.1c8.3,0,15.3,5.2,18,12.6C1345.9,502.9,1346.3,505.1,1346.3,507.4z"/>
		<path class="st4" d="M1345.2,500.9c-1.6,11.8-11.7,20.9-24,20.9c-2.7,0-5.3-0.4-7.7-1.3c-3.3-3.4-5.3-8.1-5.3-13.2
			c0-10.5,8.6-19.1,19.1-19.1C1335.5,488.3,1342.5,493.5,1345.2,500.9z"/>
		<path class="st63" d="M1346.3,507.4c0,10.5-8.6,19.1-19.1,19.1c-5.4,0-10.3-2.3-13.8-5.9c-3.3-3.4-5.3-8.1-5.3-13.2
			c0-10.5,8.6-19.1,19.1-19.1c8.3,0,15.3,5.2,18,12.6C1345.9,502.9,1346.3,505.1,1346.3,507.4z"/>
		
			<ellipse transform="matrix(0.3628 -0.9319 0.9319 0.3628 368.9515 1545.8989)" class="st4" cx="1314.9" cy="503.2" rx="5.2" ry="3.1"/>
	</g>
	<g>
		
			<ellipse transform="matrix(5.421953e-03 -1 1 5.421953e-03 738.9338 1862.7042)" class="st2" cx="1305.9" cy="559.9" rx="6.1" ry="10.6"/>
		<path class="st16" d="M1307.2,560.7h-3.1c-0.5,0-0.9-0.4-0.9-0.9v-27c0-0.5,0.4-0.9,0.9-0.9h3.1c0.5,0,0.9,0.4,0.9,0.9v27
			C1308.1,560.3,1307.7,560.7,1307.2,560.7z"/>
		<path class="st4" d="M1319.7,525.2c0,8.4-6.8,15.2-15.2,15.2c-4.3,0-8.2-1.8-11-4.7c-2.6-2.7-4.2-6.4-4.2-10.5
			c0-8.4,6.8-15.2,15.2-15.2c6.6,0,12.2,4.2,14.3,10.1C1319.4,521.7,1319.7,523.4,1319.7,525.2z"/>
		<path class="st4" d="M1318.8,520.1c-1.3,9.4-9.4,16.6-19.1,16.6c-2.2,0-4.2-0.4-6.1-1c-2.6-2.7-4.2-6.4-4.2-10.5
			c0-8.4,6.8-15.2,15.2-15.2C1311.1,510,1316.7,514.2,1318.8,520.1z"/>
		<path class="st63" d="M1319.7,525.2c0,8.4-6.8,15.2-15.2,15.2c-4.3,0-8.2-1.8-11-4.7c-2.6-2.7-4.2-6.4-4.2-10.5
			c0-8.4,6.8-15.2,15.2-15.2c6.6,0,12.2,4.2,14.3,10.1C1319.4,521.7,1319.7,523.4,1319.7,525.2z"/>
		
			<ellipse transform="matrix(0.3628 -0.9319 0.9319 0.3628 338.6555 1539.0594)" class="st4" cx="1294.7" cy="521.9" rx="4.1" ry="2.5"/>
	</g>
</g>
</svg>
