<svg xmlns="http://www.w3.org/2000/svg" xmlns:xlink="http://www.w3.org/1999/xlink" viewBox="0 0 708 674.47"><defs><style>.cls-1,.cls-103,.cls-55,.cls-72,.cls-73,.cls-76{fill:none;}.cls-18,.cls-2,.cls-65,.cls-79{fill:#004680;}.cls-2,.cls-27,.cls-34,.cls-82{opacity:0.1;}.cls-12,.cls-3{fill:#5b6dc2;}.cls-4,.cls-58,.cls-99{fill:#fff;}.cls-5{fill:#7d8edf;}.cls-6{fill:url(#linear-gradient);}.cls-7{fill:url(#linear-gradient-2);}.cls-8{fill:url(#linear-gradient-3);}.cls-9{fill:url(#linear-gradient-4);}.cls-10{fill:#dce7f2;}.cls-11,.cls-115,.cls-33,.cls-81{opacity:0.2;}.cls-12{opacity:0.6;}.cls-13{fill:#49e5eb;}.cls-14{fill:#ff9739;}.cls-14,.cls-15{opacity:0.9;}.cls-15{fill:#ff5656;}.cls-16,.cls-33,.cls-34{fill:#9880ff;}.cls-17,.cls-35{fill:#f7de6e;}.cls-18{opacity:0.5;}.cls-19{fill:#d18af6;}.cls-20{fill:#ca76f6;}.cls-21{fill:#9e5ed2;}.cls-22{fill:#e6eef5;}.cls-23{fill:#c1d2e0;}.cls-24,.cls-26{fill:#ffb95e;}.cls-24,.cls-25{fill-rule:evenodd;}.cls-25{fill:#edf3f7;}.cls-27{fill:#3d6dd1;}.cls-28{fill:url(#linear-gradient-5);}.cls-29{fill:#3c5a99;}.cls-29,.cls-32{opacity:0.8;}.cls-30{fill:#cfd9e6;}.cls-31{fill:url(#linear-gradient-6);}.cls-32{fill:#55adee;}.cls-35{stroke:#f7de6e;}.cls-35,.cls-55,.cls-72,.cls-73,.cls-76,.cls-83{stroke-linecap:round;stroke-linejoin:round;}.cls-103,.cls-35,.cls-72,.cls-73,.cls-76,.cls-83{stroke-width:1.4px;}.cls-36{fill:#e97c69;}.cls-37{fill:#f99581;}.cls-38{fill:#fe7e68;}.cls-39{fill:#2a8a92;}.cls-40{fill:#41c6d0;}.cls-41{fill:#25c4d0;}.cls-42{fill:#5938a0;}.cls-43{fill:#481ea0;}.cls-44{fill:#895cdb;}.cls-45{fill:#7549c5;}.cls-46{fill:#aa82f5;}.cls-47{fill:#fc7b9e;}.cls-48{fill:#f8527e;}.cls-49{fill:#f84a79;}.cls-50{fill:#fcbdce;}.cls-51{fill:url(#linear-gradient-7);}.cls-52{fill:url(#linear-gradient-8);}.cls-53{fill:url(#linear-gradient-9);}.cls-54{fill:url(#linear-gradient-10);}.cls-55{stroke:#f8527e;stroke-width:2px;}.cls-56{fill:url(#linear-gradient-11);}.cls-57{fill:url(#linear-gradient-12);}.cls-103,.cls-112,.cls-58,.cls-72,.cls-99{opacity:0.3;}.cls-59{fill:#c260f6;}.cls-60{fill:#fd4778;}.cls-61{fill:#fe7398;}.cls-62{fill:#fea5bc;}.cls-63{fill:#00325c;}.cls-64{fill:#3c5582;}.cls-66{fill:#8699b8;}.cls-67{fill:#f2bb64;}.cls-68{fill:#495e82;}.cls-69{fill:#01c6fa;}.cls-70{fill:#6730c9;}.cls-71{fill:#7750e6;}.cls-103,.cls-72,.cls-73,.cls-83{stroke:#004680;}.cls-111,.cls-73,.cls-79{opacity:0.15;}.cls-74{fill:url(#linear-gradient-13);}.cls-75{fill:url(#linear-gradient-14);}.cls-76{stroke:#fff;}.cls-77{fill:url(#linear-gradient-15);}.cls-78{fill:#5e7eff;}.cls-80,.cls-81,.cls-82{fill:#5ae096;}.cls-83{fill:#e1eaf2;}.cls-84{fill:#6bc6ff;}.cls-85{fill:#26abff;}.cls-86{clip-path:url(#clip-path);}.cls-87{fill:url(#linear-gradient-16);}.cls-88{fill:url(#linear-gradient-17);}.cls-89{fill:url(#linear-gradient-18);}.cls-90{fill:url(#linear-gradient-19);}.cls-91{fill:#adbfd1;}.cls-92{fill:#27d676;}.cls-93{fill:#e5c22b;}.cls-94{fill:#fde480;}.cls-95{fill:#fbdb45;}.cls-96{fill:#d2a62a;}.cls-97{fill:url(#linear-gradient-20);}.cls-98{fill:url(#linear-gradient-21);}.cls-99{font-size:11.82px;font-family:SFUIDisplay-Bold, SFUIDisplay Bold;font-weight:700;}.cls-100{fill:#9dadbd;}.cls-101{fill:#ff8c8c;}.cls-102{fill:#a9f2ab;}.cls-103{stroke-miterlimit:10;}.cls-104{fill:#835cee;}.cls-105{fill:#ac91ff;}.cls-106{fill:#a0bbfb;}.cls-107{fill:#956eff;}.cls-108{fill:url(#linear-gradient-22);}.cls-109{fill:url(#linear-gradient-23);}.cls-110,.cls-111,.cls-112{fill:#4294ff;}.cls-113{fill:#deecff;}.cls-114,.cls-115,.cls-116{fill:#52f995;}.cls-116{opacity:0.4;}.cls-117{fill:#d9f9e6;}</style><linearGradient id="linear-gradient" x1="310.79" y1="347.38" x2="338.52" y2="489.39" gradientUnits="userSpaceOnUse"><stop offset="0" stop-color="#aec1fc"/><stop offset="1" stop-color="#cdd7f9"/></linearGradient><linearGradient id="linear-gradient-2" x1="455.62" y1="308.81" x2="486.16" y2="308.81" xlink:href="#linear-gradient"/><linearGradient id="linear-gradient-3" x1="147.46" y1="495.27" x2="179.22" y2="477.04" xlink:href="#linear-gradient"/><linearGradient id="linear-gradient-4" x1="520.63" y1="57.75" x2="579.57" y2="57.75" gradientUnits="userSpaceOnUse"><stop offset="0" stop-color="#e5edf6"/><stop offset="1" stop-color="#e6f0fa"/></linearGradient><linearGradient id="linear-gradient-5" x1="49.53" y1="226.23" x2="184.71" y2="226.23" gradientUnits="userSpaceOnUse"><stop offset="0" stop-color="#e5edf6"/><stop offset="1" stop-color="#f0f5fa"/></linearGradient><linearGradient id="linear-gradient-6" x1="49.53" y1="289.49" x2="184.71" y2="289.49" xlink:href="#linear-gradient-5"/><linearGradient id="linear-gradient-7" x1="284.59" y1="350.98" x2="286.76" y2="330.93" gradientUnits="userSpaceOnUse"><stop offset="0" stop-color="#f84a79" stop-opacity="0"/><stop offset="1" stop-color="#f84a79"/></linearGradient><linearGradient id="linear-gradient-8" x1="332.25" y1="335.1" x2="334.06" y2="318.46" xlink:href="#linear-gradient-7"/><linearGradient id="linear-gradient-9" x1="321.25" y1="335.7" x2="322.26" y2="326.4" xlink:href="#linear-gradient-7"/><linearGradient id="linear-gradient-10" x1="273.42" y1="329.77" x2="274.09" y2="323.64" xlink:href="#linear-gradient-7"/><linearGradient id="linear-gradient-11" x1="232.9" y1="466.92" x2="220.71" y2="402.07" gradientUnits="userSpaceOnUse"><stop offset="0" stop-color="#eda75a"/><stop offset="1" stop-color="#fbdc76"/></linearGradient><linearGradient id="linear-gradient-12" x1="174.1" y1="464.66" x2="190.73" y2="398.7" xlink:href="#linear-gradient-11"/><linearGradient id="linear-gradient-13" x1="55.45" y1="563.87" x2="64.77" y2="477.89" gradientUnits="userSpaceOnUse"><stop offset="0" stop-color="#ffae75"/><stop offset="1" stop-color="#ff33c0"/></linearGradient><linearGradient id="linear-gradient-14" x1="63.13" y1="555.71" x2="67.72" y2="461.15" xlink:href="#linear-gradient-13"/><linearGradient id="linear-gradient-15" x1="261.78" y1="124.55" x2="362.99" y2="124.55" xlink:href="#linear-gradient-5"/><clipPath id="clip-path"><path class="cls-1" d="M566.06,441.74l-72.61,1.8,53.63-31.18c0-7,4.25-10.19,9.49-7.17h0c5.24,3,9.49,11.14,9.49,18.13Z"/></clipPath><linearGradient id="linear-gradient-16" x1="571.71" y1="412.85" x2="547.12" y2="429.14" xlink:href="#linear-gradient-11"/><linearGradient id="linear-gradient-17" x1="524.54" y1="425.04" x2="537.99" y2="425.04" xlink:href="#linear-gradient-11"/><linearGradient id="linear-gradient-18" x1="529.62" y1="427.94" x2="537.99" y2="427.94" xlink:href="#linear-gradient-11"/><linearGradient id="linear-gradient-19" x1="534.14" y1="430.99" x2="537.99" y2="430.99" xlink:href="#linear-gradient-11"/><linearGradient id="linear-gradient-20" x1="406.45" y1="548.08" x2="480.67" y2="548.08" gradientUnits="userSpaceOnUse"><stop offset="0" stop-color="#ccddf0"/><stop offset="1" stop-color="#d1e1f0"/></linearGradient><linearGradient id="linear-gradient-21" x1="406.45" y1="544.39" x2="480.67" y2="544.39" xlink:href="#linear-gradient-4"/><linearGradient id="linear-gradient-22" x1="488.39" y1="504.19" x2="493.05" y2="504.19" xlink:href="#linear-gradient-4"/><linearGradient id="linear-gradient-23" x1="392.38" y1="37.53" x2="464.91" y2="37.53" xlink:href="#linear-gradient-4"/></defs><title>Fichier 1</title><g id="Calque_2" data-name="Calque 2"><g id="Calque_1-2" data-name="Calque 1"><g id="iphone"><path class="cls-2" d="M85.9,523l-8.22-4.87a13.21,13.21,0,0,1,.15-22.82L391,315.43a31.54,31.54,0,0,1,31.49,0l129.82,75a13.2,13.2,0,0,1,0,22.89L237.49,594.13a31.54,31.54,0,0,1-31.79-.21L90.43,525.69"/><path class="cls-3" d="M77.42,443.21c-16.23,10.29-15.84,34.94.94,44.87l126.32,75.43a33.33,33.33,0,0,0,33.59.22L550.93,384.11a27.19,27.19,0,0,0,3.72-44.56"/><path class="cls-4" d="M77.83,443a13.21,13.21,0,0,0-.15,22.82l128,75.78a31.52,31.52,0,0,0,31.79.21L552.25,361a13.2,13.2,0,0,0,0-22.89L422.46,263.11a31.56,31.56,0,0,0-31.49,0Z"/><path class="cls-5" d="M85.9,470.66l-8.22-4.87A13.21,13.21,0,0,1,77.83,443L391,263.08a31.56,31.56,0,0,1,31.49,0l129.82,74.95a13.2,13.2,0,0,1,0,22.89L237.49,541.78a31.52,31.52,0,0,1-31.79-.21L90.43,473.34"/><polygon class="cls-6" points="532.25 360.85 386.15 443.78 252.53 519.62 109.1 435.16 184.3 392.46 189.12 389.73 386.15 277.85 386.38 277.73 419.93 296.83 427.5 301.15 532.25 360.85"/><path class="cls-7" d="M484.66,318.26a1.48,1.48,0,0,1-.75-.2l-27.54-15.9a1.5,1.5,0,0,1,1.5-2.6l27.54,15.9a1.5,1.5,0,0,1-.75,2.8Z"/><path class="cls-8" d="M147.71,481.67c-6.43,3.71-6.43,9.78,0,13.49s16.94,3.72,23.35,0,6.42-9.77,0-13.49S154.14,478,147.71,481.67Z"/></g><path class="cls-9" d="M579.09,46.34a15.73,15.73,0,0,0-27.67-5.87,21.39,21.39,0,1,0,8.83,30.43,8.49,8.49,0,0,0,2.17-.27,8.7,8.7,0,0,0,6.06-5.42A15.74,15.74,0,0,0,579.09,46.34Z"/><path class="cls-10" d="M566.83,64a.58.58,0,0,0-.34.33,7.44,7.44,0,0,1-5.07,4.39,7.62,7.62,0,0,1-1.56.22.56.56,0,0,0-.46.26,18.26,18.26,0,0,1-21.15,7.51.57.57,0,0,1,.17-1.11,18.35,18.35,0,0,0,15.43-8.45.56.56,0,0,1,.46-.26,7.62,7.62,0,0,0,1.55-.22,7.43,7.43,0,0,0,5.08-4.39.57.57,0,0,1,.34-.32,13.43,13.43,0,0,0,8.81-16,13.28,13.28,0,0,0-3.77-6.47.57.57,0,0,1,.56-1,13.44,13.44,0,0,1,0,25.5Z"/><g id="cards"><path class="cls-4" d="M369.86,588.61l-5.52,3.19a1.69,1.69,0,0,1-1.53-.06h0c-.45-.26-.5-.66-.11-.89l5.52-3.18a1.69,1.69,0,0,1,1.53.06h0C370.2,588,370.25,588.39,369.86,588.61Z"/><path class="cls-4" d="M355.19,586.16l-6.42,3.71a1,1,0,0,1-.86,0h0c-.25-.15-.28-.37-.06-.5l6.42-3.71a1,1,0,0,1,.86,0h0C355.38,585.82,355.41,586,355.19,586.16Z"/><g class="cls-11"><path class="cls-12" d="M389.5,604.73,349,628.09a6.86,6.86,0,0,1-6.16-.26l-22.5-13c-1.83-1.06-2-2.65-.45-3.56l40.47-23.36a6.83,6.83,0,0,1,6.16.26l22.5,13C390.87,602.22,391.08,603.81,389.5,604.73Z"/></g><path class="cls-13" d="M389.5,592.6,349,616a6.86,6.86,0,0,1-6.16-.26l-22.5-13c-1.83-1.06-2-2.65-.45-3.56l40.47-23.36a6.83,6.83,0,0,1,6.16.26l22.5,13C390.87,590.1,391.08,591.69,389.5,592.6Z"/><path class="cls-4" d="M344,603.56l-5.52,3.19a1.69,1.69,0,0,1-1.53-.06h0c-.45-.26-.5-.66-.11-.89l5.52-3.18a1.69,1.69,0,0,1,1.53.06h0C344.31,602.94,344.36,603.34,344,603.56Z"/><path class="cls-4" d="M352.6,598.58l-5.52,3.19a1.73,1.73,0,0,1-1.53-.07h0c-.45-.26-.5-.65-.11-.88l5.52-3.19a1.73,1.73,0,0,1,1.53.07h0C352.94,598,353,598.35,352.6,598.58Z"/><path class="cls-4" d="M361.23,593.6l-5.52,3.18a1.69,1.69,0,0,1-1.53-.06h0c-.45-.26-.5-.66-.11-.88l5.52-3.19a1.69,1.69,0,0,1,1.53.06h0C361.57,593,361.62,593.37,361.23,593.6Z"/><path class="cls-4" d="M362.42,599.65l-18.33,10.58a.94.94,0,0,1-.86,0h0c-.25-.14-.28-.36-.06-.49l18.33-10.58a1,1,0,0,1,.85,0h0C362.61,599.3,362.64,599.52,362.42,599.65Z"/><path class="cls-4" d="M347.13,590.82,328.8,601.4a1,1,0,0,1-.86,0h0c-.25-.15-.28-.37-.06-.5l18.33-10.58a1,1,0,0,1,.85,0h0C347.32,590.47,347.35,590.69,347.13,590.82Z"/><ellipse class="cls-14" cx="376.88" cy="592.8" rx="3.9" ry="2.25" transform="translate(-2.4 1.53) rotate(-0.23)"/><ellipse class="cls-15" cx="379.93" cy="591.03" rx="3.9" ry="2.25" transform="matrix(1, 0, 0, 1, -2.39, 1.54)"/><path class="cls-16" d="M389.5,579.72,349,603.08a6.86,6.86,0,0,1-6.16-.25l-22.5-13c-1.83-1.05-2-2.64-.45-3.55l40.47-23.37a6.86,6.86,0,0,1,6.16.26l22.5,13C390.87,577.22,391.08,578.81,389.5,579.72Z"/><path class="cls-4" d="M344,590.68l-5.52,3.19a1.73,1.73,0,0,1-1.53-.07h0c-.45-.26-.5-.65-.11-.88l5.52-3.19a1.73,1.73,0,0,1,1.53.07h0C344.31,590.06,344.36,590.45,344,590.68Z"/><path class="cls-4" d="M352.6,585.7l-5.52,3.18a1.69,1.69,0,0,1-1.53-.06h0c-.45-.26-.5-.66-.11-.88l5.52-3.19a1.69,1.69,0,0,1,1.53.06h0C352.94,585.08,353,585.47,352.6,585.7Z"/><path class="cls-4" d="M361.23,580.71l-5.52,3.19a1.69,1.69,0,0,1-1.53-.06h0c-.45-.26-.5-.66-.11-.89l5.52-3.18a1.69,1.69,0,0,1,1.53.06h0C361.57,580.09,361.62,580.49,361.23,580.71Z"/><path class="cls-4" d="M369.86,575.73l-5.52,3.19a1.73,1.73,0,0,1-1.53-.07h0c-.45-.26-.5-.65-.11-.88l5.52-3.19a1.73,1.73,0,0,1,1.53.07h0C370.2,575.11,370.25,575.5,369.86,575.73Z"/><path class="cls-4" d="M362.42,586.76l-18.33,10.59a1,1,0,0,1-.86,0h0c-.25-.15-.28-.37-.06-.49l18.33-10.59a1,1,0,0,1,.85,0h0C362.61,586.41,362.64,586.64,362.42,586.76Z"/><path class="cls-4" d="M347.13,577.94,328.8,588.52a1,1,0,0,1-.86,0h0c-.25-.14-.28-.36-.06-.49l18.33-10.58a1,1,0,0,1,.85,0h0C347.32,577.59,347.35,577.81,347.13,577.94Z"/><path class="cls-4" d="M355.19,573.28,348.77,577a.94.94,0,0,1-.86,0h0c-.25-.14-.28-.36-.06-.49l6.42-3.71a.94.94,0,0,1,.86,0h0C355.38,572.93,355.41,573.15,355.19,573.28Z"/><ellipse class="cls-14" cx="376.88" cy="579.91" rx="3.9" ry="2.25" transform="translate(-2.34 1.53) rotate(-0.23)"/><ellipse class="cls-15" cx="379.93" cy="578.15" rx="3.9" ry="2.25" transform="translate(-2.34 1.54) rotate(-0.23)"/><path class="cls-17" d="M335,565.82l25.39-14.66a6.86,6.86,0,0,1,6.16.26l22.5,13c1.82,1.06,2,2.65.45,3.56L349,591.33a6.83,6.83,0,0,1-6.16-.26l-22.5-13c-1.83-1.05-2-2.64-.45-3.55l8.72-5"/><path class="cls-18" d="M344,578.93l-5.52,3.19a1.73,1.73,0,0,1-1.53-.07h0c-.45-.26-.5-.65-.11-.88l5.52-3.19a1.73,1.73,0,0,1,1.53.07h0C344.31,578.31,344.36,578.7,344,578.93Z"/><path class="cls-18" d="M352.6,574l-5.52,3.18a1.69,1.69,0,0,1-1.53-.06h0c-.45-.26-.5-.66-.11-.88L351,573a1.69,1.69,0,0,1,1.53.06h0C352.94,573.33,353,573.72,352.6,574Z"/><path class="cls-18" d="M361.23,569l-5.52,3.19a1.69,1.69,0,0,1-1.53-.06h0c-.45-.27-.5-.66-.11-.89l5.52-3.18a1.69,1.69,0,0,1,1.53.06h0C361.57,568.34,361.62,568.74,361.23,569Z"/><path class="cls-18" d="M369.86,564l-5.52,3.19a1.73,1.73,0,0,1-1.53-.07h0c-.45-.26-.5-.65-.11-.88l5.52-3.19a1.73,1.73,0,0,1,1.53.07h0C370.2,563.36,370.25,563.75,369.86,564Z"/><path class="cls-18" d="M362.42,575l-18.33,10.58a.94.94,0,0,1-.86,0h0c-.25-.15-.28-.37-.06-.49l18.33-10.59a1,1,0,0,1,.85,0h0C362.61,574.66,362.64,574.88,362.42,575Z"/><path class="cls-18" d="M347.13,566.18,328.8,576.77a1,1,0,0,1-.86,0h0c-.25-.14-.28-.37-.06-.49l18.33-10.59a1,1,0,0,1,.85,0h0C347.32,565.84,347.35,566.06,347.13,566.18Z"/><path class="cls-18" d="M355.19,561.53l-6.42,3.71a1,1,0,0,1-.86,0h0c-.25-.14-.28-.36-.06-.49l6.42-3.71a1,1,0,0,1,.86,0h0C355.38,561.18,355.41,561.4,355.19,561.53Z"/><ellipse class="cls-14" cx="376.88" cy="568.16" rx="3.9" ry="2.25" transform="translate(-2.3 1.53) rotate(-0.23)"/><ellipse class="cls-15" cx="379.93" cy="566.4" rx="3.9" ry="2.25" transform="translate(-2.29 1.54) rotate(-0.23)"/></g><g id="parachoute"><path class="cls-19" d="M516.09,177.52a3.12,3.12,0,0,1-1.57,2.72c-23.53,13.59-22,12.91-23.2,12.92a3.23,3.23,0,0,1-1.6-.42c-.08-.05-21.73-12.54-21.8-12.6a3.13,3.13,0,0,1-1.42-2.62V152.83a3.15,3.15,0,0,1,1.57-2.72l8.8-5.08,4.9-2.84,7.52-4.35a3.91,3.91,0,0,1,3.86,0l7.52,4.34,4.91,2.83,8.93,5.15A3.07,3.07,0,0,1,516,152.3C516.12,152.75,516.09,151.11,516.09,177.52Z"/><path class="cls-20" d="M516.09,152.88v24.64a3.12,3.12,0,0,1-1.57,2.72l-7.89,4.56-4.95,2.85-8.81,5.09a3.31,3.31,0,0,1-1.55.42l0-25.84h0a3.38,3.38,0,0,1,1.7-2.93l8.64-5,4.95-2.85,8.07-4.66a.94.94,0,0,1,1.33.42A2.78,2.78,0,0,1,516.09,152.88Z"/><path class="cls-21" d="M486.24,162.4l3.41,2a3.4,3.4,0,0,1,1.69,2.94h0l0,25.84a3,3,0,0,1-1.47-.36l-9-5.2L476,184.78l-8-4.64a3.09,3.09,0,0,1-1.4-2.21V152.65a1,1,0,0,1,1.42-.82l8,4.63,4.88,2.83,2,1.16"/><polygon class="cls-4" points="505.58 145.01 500.67 142.18 475.94 156.46 475.96 156.47 475.96 184.78 480.84 187.6 480.84 159.29 480.84 159.29 480.85 159.29 505.58 145.01"/><polyline class="cls-4" points="501.68 166.25 501.68 187.65 506.63 184.8 506.63 156.54 506.62 156.54 481.77 142.19 476.87 145.03 501.72 159.37 501.74 159.36"/><path class="cls-22" d="M486.67,150.21a10.72,10.72,0,0,0-4.93,3.24,28.08,28.08,0,0,1,3.13,2.17s2.76-3.24,5.7-3.55a9.68,9.68,0,0,0-3.15-1.86Z"/><path class="cls-4" d="M485.72,149.13a10.75,10.75,0,0,0-4.93,3.24,26.94,26.94,0,0,1,3.13,2.17s2.76-3.24,5.71-3.55a9.8,9.8,0,0,0-3.15-1.86Z"/><path class="cls-4" d="M490.66,148.44s1.73-2.11,2.81-.65,5.84,4.78,7.11,4.05c2-1.16-.89,2.64-.94,2.7s-3.9.33-4,.28l-6-3.83s-7-3.93-6.89-3.93-3.57-4.65-3.6-4.74.14-2.92.14-2.92,2.38-.29,2.46-.24,3,4,3,4Z"/><path class="cls-22" d="M503.59,148.21a6.39,6.39,0,0,0-4-3.59c-2.2-.55-3.8.38-6,1.51a14.65,14.65,0,0,0-1.34.8c-1-1.66-1.88-3.19-2.8-4.67-.19-.3-.37-.6-.55-.91a21.39,21.39,0,0,0-2.43-3.46,3.12,3.12,0,0,0-3.36-.92L483,137l-.06,0-.1.05-3.23,1.66,2,.44a1.94,1.94,0,0,0,0,.24,3,3,0,0,0,0,.52l0,.22a2.05,2.05,0,0,1,.5.39,19.76,19.76,0,0,1,2.24,3.23l.57.93c.23.38.47.76.7,1.15.83.57,2.91,4.86,2.91,4.86.75.57,1.54,1.11,2.29,1.64l1.27.88c2.54,1.81,4.55,2.71,6.08,2.71a3,3,0,0,0,1.53-.38l0,0,3.31-1.69a2.69,2.69,0,0,0,1.45-2.74A8.27,8.27,0,0,0,503.59,148.21Zm-4.65,6.14c-.59.34-2.18.51-6.06-2.26-1.21-.86-2.81-1.88-3.68-2.51,3.21-2.07,7.09-4,9.8,1.06.81,1.52.79,2.58.43,3.2A1.27,1.27,0,0,1,498.94,154.35Z"/><path class="cls-22" d="M489.72,149.94c-1.11-.6-1.45-1.84-1.85-2.47-1-1.57-3.45-6.46-4.74-7.87a3.4,3.4,0,0,0-1.5-.95,2.92,2.92,0,0,0-1.87,0,2.58,2.58,0,0,0-1.59,2.49c0,.17,0,.35,0,.52.55,5.53,7.49,7.67,10.62,9.3m-9.18-9.44c0-.12,0-.24,0-.36a1.17,1.17,0,0,1,.67-1.16,1.33,1.33,0,0,1,.45-.08,1.65,1.65,0,0,1,.84.24,2.05,2.05,0,0,1,.5.39,19.76,19.76,0,0,1,2.24,3.23l.57.93c.23.38.47.76.7,1.15.55.88,1.09,1.79,1.65,2.75C483.9,147.17,480,145.14,479.63,141.55Z"/><path class="cls-23" d="M492.86,146.07a.61.61,0,0,1-.46-.22l-54.26-64a.66.66,0,0,1-.14-.45.61.61,0,0,1,.21-.41.62.62,0,0,1,.39-.14.64.64,0,0,1,.47.21l53.8,63.44,54.19-63.44a.61.61,0,0,1,.46-.21.62.62,0,0,1,.39.14.61.61,0,0,1,.21.42.65.65,0,0,1-.14.44l-54.65,64a.61.61,0,0,1-.46.22Z"/><path class="cls-23" d="M492.86,146.07a.59.59,0,0,1-.55-.38L476.13,105a.59.59,0,0,1,0-.47.63.63,0,0,1,.33-.33.64.64,0,0,1,.23,0,.6.6,0,0,1,.56.38l15.64,39.35L509,104.71a.62.62,0,0,1,.56-.36.52.52,0,0,1,.24.05.59.59,0,0,1,.31.79L493.42,145.7a.6.6,0,0,1-.55.37Z"/><path class="cls-24" d="M495.1,100.51c4.52.14,9.58,2.2,14.39,4.3l.18.08c1.89-.91,3.57-1.72,5.13-2.41a79.84,79.84,0,0,1,16-5.35l3-.69c.87-.2,1.78-.42,2.75-.63l.28-.42c2.21-3.47,5.18-10,14-15.37q1-.6,2-1.17l.16-.09c0-.17,0-.35,0-.52-1.53-19.11-9.23-34.85-20.28-45.67a56.23,56.23,0,0,0-27.26-15,51.52,51.52,0,0,0-11.71-1.22,54.44,54.44,0,0,0-11.29,1.32,58.51,58.51,0,0,0-30.26,17.69,63.6,63.6,0,0,0-12.06,19.13,67.85,67.85,0,0,0-4.89,23.8c0,.21,0,.43,0,.64l.17.12a43,43,0,0,1,9.68,7.9,39.08,39.08,0,0,1,6,9.18h.26c5.82,0,17.12,4.48,25.38,8.61l.5-.17c1.37-.47,4.06-3.07,6.9-3.65Z"/><path class="cls-25" d="M502.56,25.23c16,1.28,40.57,9.8,50.29,53.62q-1.08.57-2,1.17c-8.78,5.4-11.75,11.9-14,15.37l-.28.42c-1,.21-1.88.43-2.75.63l-7-23.29L502.94,34l-8.75-9,3.26.08"/><path class="cls-25" d="M493.88,25h-.27a65,65,0,0,0-10.22,1.4c-32.4,6-41.56,30.5-48.17,51.92,0,.21,0,.43,0,.64l.17.12a43,43,0,0,1,9.68,7.9,39.08,39.08,0,0,1,6,9.18h.26c0-5.76.54-16.85,7.56-34.88,7.25-18.63,30.17-33.17,34.6-35.84l.09-.06.22-.13.38-.23.06,0Z"/><path class="cls-25" d="M493.72,16.34a54.44,54.44,0,0,0-11.29,1.32,19.39,19.39,0,0,1,10.17,6,13.48,13.48,0,0,1,1,1.23l0,.05h0a.25.25,0,0,1,0,.07l0,0,0,0s0,0,0,0l0-.05s0,0,0,0a.17.17,0,0,0,.06-.06h0l.6-.57c3.57-3.35,5.37-5.64,10.95-6.83A51.52,51.52,0,0,0,493.72,16.34Z"/><path class="cls-25" d="M493.57,24.91c-7.9-2.52-23.3-2.71-41.4,10.44a63.6,63.6,0,0,0-12.06,19.13,67.85,67.85,0,0,0-4.89,23.8c0,.21,0,.43,0,.64l.17.12c4.27-16.17,15.36-46.11,58.24-54.07h.1Z"/><path class="cls-25" d="M485.85,102.4a53.51,53.51,0,0,0-8.69,2.16l-.5.17c-1.92-36.1-.46-52.23,16.78-79.33.07-.12.14-.24.22-.36a.35.35,0,0,0,0-.08,0,0,0,0,0,0,0,18.49,18.49,0,0,1,3.81,2.48c1.28,1.28,2.77,2.77,4.45,4.47,17.21,17.42,14.61,55.6,12.82,70.58-1.56.69-3.24,1.5-5.13,2.41l-.18-.08a38.93,38.93,0,0,0-15.85-3.09"/><path class="cls-24" d="M510.86,67.81c0,.32.07.65.1,1m.42,5.33a142.21,142.21,0,0,1-1.89,30.7l.18.08c1.89-.91,3.57-1.72,5.13-2.41a79.84,79.84,0,0,1,16-5.35c1.72-.41,3.61-.84,5.74-1.32l.28-.42c-7-43.2-19.38-55.87-39.32-68l-1.24-.75-1.2-.7h0l-.05,0-.38-.22-.07,0h0l-.07,0-.24-.14-.34-.19c10.12,12.28,14.84,26.6,16.68,40.25"/><ellipse class="cls-26" cx="493.38" cy="25.03" rx="4.12" ry="2.13"/></g><g id="fb"><path class="cls-27" d="M173.61,167.43v26.63a8.48,8.48,0,0,1-3.85,6.64L42.28,274.84c-2.12,1.23-3.85.25-3.85-2.2V246a8.49,8.49,0,0,1,3.85-6.64l127.48-74.14C171.89,164,173.61,165,173.61,167.43Z"/><path class="cls-27" d="M161.28,160.13v26.62a8.5,8.5,0,0,1-3.85,6.64L30,267.53c-2.12,1.23-3.85.25-3.85-2.19V238.71A8.5,8.5,0,0,1,30,232.07l127.48-74.14C159.55,156.7,161.28,157.68,161.28,160.13Z"/><path class="cls-28" d="M184.7,200.49a8.51,8.51,0,0,1-3.84,6.4L53.38,281c-2.12,1.23-3.85.25-3.85-2.19V252.21a8.5,8.5,0,0,1,3.85-6.64l127.48-74.14c2.13-1.23,3.85-.25,3.85,2.19v22.71"/><path class="cls-29" d="M80.21,230.08v35.47L53.38,281c-2.12,1.23-3.85.25-3.85-2.19V252.21a8.5,8.5,0,0,1,3.85-6.64Z"/><path class="cls-30" d="M171.39,191.57l-81.34,47.5c-1.33.77-2.42,0-2.42-1.83h0a5.81,5.81,0,0,1,2.42-4.62l81.34-47.5c1.33-.77,2.42,0,2.42,1.83h0A5.82,5.82,0,0,1,171.39,191.57Z"/><path class="cls-30" d="M140,222.27,90.05,251.64c-1.33.78-2.42,0-2.42-1.82h0a5.81,5.81,0,0,1,2.42-4.62L140,215.82c1.34-.77,2.42.05,2.42,1.83h0A5.78,5.78,0,0,1,140,222.27Z"/></g><g id="tw"><path class="cls-27" d="M173.61,230.68v26.63a8.48,8.48,0,0,1-3.85,6.64L42.28,338.09c-2.12,1.23-3.85.25-3.85-2.19V309.27a8.5,8.5,0,0,1,3.85-6.64l127.48-74.14C171.89,227.26,173.61,228.24,173.61,230.68Z"/><path class="cls-27" d="M161.28,223.38V250a8.5,8.5,0,0,1-3.85,6.64L30,330.79c-2.12,1.23-3.85.25-3.85-2.19V302A8.49,8.49,0,0,1,30,295.33l127.48-74.14C159.55,220,161.28,220.94,161.28,223.38Z"/><path class="cls-31" d="M93.24,285.64l87.62-51c2.13-1.22,3.85-.24,3.85,2.2V263.5a8.48,8.48,0,0,1-3.85,6.65L53.38,344.29c-2.12,1.22-3.85.24-3.85-2.2V315.47a8.49,8.49,0,0,1,3.85-6.64l27.55-16"/><path class="cls-32" d="M80.21,293.34V328.8L53.38,344.29c-2.12,1.22-3.85.24-3.85-2.2V315.47a8.49,8.49,0,0,1,3.85-6.64Z"/><path class="cls-30" d="M171.39,254.82l-81.34,47.5c-1.33.77-2.42,0-2.42-1.82h0a5.79,5.79,0,0,1,2.42-4.62l81.34-47.51c1.33-.77,2.42,0,2.42,1.83h0A5.81,5.81,0,0,1,171.39,254.82Z"/><path class="cls-30" d="M140,285.52,90.05,314.9c-1.33.77-2.42,0-2.42-1.83h0a5.81,5.81,0,0,1,2.42-4.62L140,279.07c1.34-.77,2.42.05,2.42,1.83h0A5.78,5.78,0,0,1,140,285.52Z"/><path class="cls-4" d="M64.2,327.29a2,2,0,0,1-2.9-1.2,5.2,5.2,0,0,0,.62-.32,7.5,7.5,0,0,0,.61-.46c-1.47.22-2.35-.63-2.61-2.59a2.51,2.51,0,0,0,1.33-.31,2.33,2.33,0,0,1-1.41-1.7,5.8,5.8,0,0,1,.06-3c1.79,1.6,3.89,1.84,6.34.67,0-.24-.09-.45-.12-.68a6.35,6.35,0,0,1,.65-3.62,4.29,4.29,0,0,1,2.46-2.44,1.67,1.67,0,0,1,1.54.22c.06.05.12,0,.2,0A9.89,9.89,0,0,0,72.51,310l.06-.07,0,0a7.25,7.25,0,0,1-1,2.78,7.84,7.84,0,0,0,1.53-1.48,13.43,13.43,0,0,1-1,2.44l0,.06a1,1,0,0,0-.16.76,16.73,16.73,0,0,1-.22,4.7,21.25,21.25,0,0,1-1,3.75,18.9,18.9,0,0,1-1.35,2.83,15.13,15.13,0,0,1-1.93,2.63,11.63,11.63,0,0,1-1.94,1.69A8.63,8.63,0,0,1,63,331.3a5.34,5.34,0,0,1-2,.2,5.86,5.86,0,0,1-.82-.14,7.63,7.63,0,0,0,2.2-1.55A10.63,10.63,0,0,0,64.2,327.29Z"/></g><g id="like"><path class="cls-33" d="M560.37,232.49l-49.08,28.34c-2.39,1.38-4.33-.09-4.33-3.28V237c0-3.2,1.94-6.9,4.33-8.28l49.08-28.34c2.4-1.38,4.34.08,4.34,3.27v20.52C564.71,227.4,562.77,231.11,560.37,232.49Z"/><path class="cls-34" d="M549.07,228.49,500,256.82c-2.39,1.39-4.33-.08-4.33-3.27V233c0-3.19,1.94-6.9,4.33-8.28l49.08-28.34c2.4-1.38,4.34.09,4.34,3.28v20.52C553.41,223.4,551.47,227.11,549.07,228.49Z"/><path class="cls-16" d="M544.51,219.75l25.73-14.86c2.4-1.38,4.34.09,4.34,3.28v20.52c0,3.19-1.94,6.89-4.34,8.28L521.16,265.3c-2.39,1.39-4.33-.08-4.33-3.27V241.51c0-3.19,1.94-6.9,4.33-8.28l15.35-8.86"/><path class="cls-17" d="M531.1,253.81c-4.76,2.74-8.79.51-8.61-5.49.16-5.24,3.82-11.83,8.68-14.61s8.63-.51,8.6,5.2C539.75,244.38,535.8,251.14,531.1,253.81Zm-5.24-4.06a5,5,0,0,0,.2.56,2,2,0,0,0,1.05.94c1.92.77,5-.73,7.2-3.47a11.15,11.15,0,0,0,1.9-3.33c.08-.25.12-.5.19-.79Zm3.42-7.55a2.09,2.09,0,0,0-.41-1.46c-.39-.38-1-.1-1.42.7-.72,1.25-.74,3.06,0,3.51.37.24.86,0,1.26-.68A4.11,4.11,0,0,0,529.28,242.2Zm3.94-2.43a2,2,0,0,0,.31,1.26c.44.59,1.2.17,1.67-.93s.44-2.5-.08-3-1.06,0-1.48.85A4,4,0,0,0,533.22,239.77Z"/><path class="cls-4" d="M551,237l3.46-2c.21-.12.39,0,.39.22v2a.89.89,0,0,1-.39.67l-8,4.59c-.21.13-.37,0-.37-.23v-.17c0-.23,0-.27.25-.79,1.28-2.69,3.93-8.34,5-10.91a5.83,5.83,0,0,0,.5-2c0-.88-.64-1.29-1.74-.66a6.17,6.17,0,0,0-1.93,2.27c-.16.27-.41.41-.56.33l-1.22-.72c-.13-.06-.15-.33,0-.59a11.65,11.65,0,0,1,4-4.54c2.84-1.64,4.53-.52,4.53,2a9,9,0,0,1-.78,3.39c-.62,1.64-2.24,5-3.17,7Z"/><path class="cls-4" d="M557,234.15l1.16-2.16c.14-.23.35-.4.51-.33a2.29,2.29,0,0,0,2.18-.22,3.4,3.4,0,0,0,1.72-2.81c0-1.13-.89-1.35-2.36-.5l-1.12.64a.23.23,0,0,1-.37-.21v-1.9a.82.82,0,0,1,.37-.64l1.12-.64a3.79,3.79,0,0,0,2.13-3c0-1-.58-1.4-1.59-.82a4.94,4.94,0,0,0-1.74,1.92c-.13.27-.36.41-.54.35l-1.21-.67c-.16-.06-.14-.36,0-.6a11,11,0,0,1,3.8-4.21c2.32-1.34,4.31-.87,4.31,1.7a8,8,0,0,1-2.05,4.69v.09c1.09-.21,2.4.19,2.4,2.29,0,2.49-1.89,5.6-4.64,7.18-2.51,1.45-3.67.75-4.09.39C556.85,234.62,556.87,234.37,557,234.15Z"/><line class="cls-35" x1="568.08" y1="218.61" x2="568.08" y2="210.28"/><line class="cls-35" x1="586.49" y1="220.9" x2="579.23" y2="225.09"/><line class="cls-35" x1="580.82" y1="209.56" x2="575.69" y2="218.41"/><path class="cls-17" d="M582.66,236.47a4.92,4.92,0,0,0-2.41,4v-1.52c0-1.43-1-2-2.26-1.28h0a5,5,0,0,0-2.26,3.89v-1.28c0-1.43-1-2-2.26-1.29h0a5,5,0,0,0-2.26,3.9V231.39c0-1.43-1-2-2.26-1.28h0A5,5,0,0,0,566.7,234v19.33l-2.84-1.62c-.87-.49-2.31.23-3.21,1.73s-.95,3.23,0,3.75l7.13,4.06a3.47,3.47,0,0,1,1.45,3.19v5.74c0,1.24.88,1.75,2,1.12l9.39-5.42a4.34,4.34,0,0,0,2-3.39v-7.13a22.47,22.47,0,0,1,1.32-6.17,19.29,19.29,0,0,0,.91-5.74l0,0v-5.5C584.77,236.55,583.86,235.87,582.66,236.47Z"/></g><g id="bag"><polygon class="cls-36" points="447.27 259.08 391.58 226 396.86 305.9 453.21 338.32 447.27 259.08"/><polygon class="cls-37" points="391.58 226 389.29 239.2 371.97 236.82 366.69 326.63 396.86 305.9 391.58 226"/><polygon class="cls-37" points="453.21 338.32 429.64 341.19 423.04 359.05 427.82 269.73 429.64 261.46 447.27 259.07 453.21 338.32"/><polygon class="cls-38" points="429.64 261.46 429.64 341.19 423.04 359.05 427.82 269.73 429.64 261.46"/><polygon class="cls-17" points="428.31 269.24 371.97 236.82 366.69 326.63 423.04 359.05 428.31 269.24"/><ellipse class="cls-36" cx="385.97" cy="264.04" rx="2.25" ry="3.89" transform="translate(-80.49 230.89) rotate(-30.31)"/><ellipse class="cls-36" cx="409.03" cy="277.35" rx="2.25" ry="3.89" transform="translate(-84.06 244.35) rotate(-30.31)"/><path class="cls-4" d="M400.71,293.88a8,8,0,0,1-4-1.17c-6.58-3.8-11.9-16.32-12.1-28.51a1.1,1.1,0,0,1,1.08-1.12h0a1.1,1.1,0,0,1,1.1,1.08c.19,11.3,5.12,23.25,11,26.65a4.75,4.75,0,0,0,5,.3c3-1.7,4.88-7,5-13.83a1.1,1.1,0,0,1,2.2,0c-.09,7.72-2.36,13.6-6.07,15.72A6.44,6.44,0,0,1,400.71,293.88Z"/></g><g id="bag-2" data-name="bag"><polygon class="cls-39" points="418.06 309.26 375.16 283.77 375.16 333.11 422.64 359.51 418.06 309.26"/><polygon class="cls-40" points="375.16 283.77 373.39 293.94 358.9 292.26 354.83 350.65 375.16 330.55 375.16 283.77"/><polygon class="cls-40" points="422.64 359.51 404.48 361.71 398.24 375.62 401.92 317.61 404.48 311.09 418.06 309.25 422.64 359.51"/><polygon class="cls-41" points="404.48 311.09 404.48 361.71 398.24 375.62 401.92 317.61 404.48 311.09"/><polyline class="cls-13" points="390.72 310.57 358.9 292.26 354.83 350.65 398.24 375.62 402.3 317.23 398.31 314.94"/><ellipse class="cls-39" cx="368.7" cy="312.38" rx="1.82" ry="3.16" transform="translate(-107.25 228.78) rotate(-30.31)"/><ellipse class="cls-39" cx="387.43" cy="323.19" rx="1.82" ry="3.16" transform="translate(-110.15 239.71) rotate(-30.31)"/><path class="cls-4" d="M380.66,336.72a6.52,6.52,0,0,1-3.26-1c-5.38-3.1-9.72-13.32-9.89-23.25a1,1,0,0,1,1-1h0a1,1,0,0,1,1,1c.15,9.14,4.14,18.81,8.89,21.55a3.74,3.74,0,0,0,3.91.24c2.39-1.36,3.91-5.63,4-11.13a1,1,0,0,1,1-1h0a1,1,0,0,1,1,1c-.07,6.31-1.93,11.11-5,12.85A5.32,5.32,0,0,1,380.66,336.72Z"/></g><g id="open_box" data-name="open box"><path class="cls-42" d="M358.9,339.74V403a7.48,7.48,0,0,1-3.75,6.49c-56.19,32.44-52.61,30.82-55.41,30.85a7.71,7.71,0,0,1-3.82-1l-20.25-11.69c-14.58-8.41-31.71-18.31-31.81-18.4a7.38,7.38,0,0,1-2.88-3.51,7.46,7.46,0,0,1-.52-2.74l0-59,.05-4.4.45-.27,24.26-14,11.7-6.77,22.85-13.13h0l22.28,13.09,11.73,6.76Z"/><path class="cls-43" d="M299.8,305.5V427.64H275.67c-14.58-8.41-31.71-18.31-31.81-18.4a7.38,7.38,0,0,1-2.88-3.51V339.36l24.26-14,11.7-6.77,22.85-13.13Z"/><path class="cls-44" d="M299.75,425.55l.05-46.93v-4.69l4.05-2.32,20.64-11.91,11.8-6.81,19.29-11.13c.6-.35,3.32-2,3.32-2V403a7.48,7.48,0,0,1-3.75,6.49l-18.86,10.88-11.8,6.82-21,12.15a7.7,7.7,0,0,1-3.71,1v-6.5"/><path class="cls-45" d="M299.74,432.8v7.53a7.3,7.3,0,0,1-3.5-.85l-21.52-12.42-11.66-6.73-19.2-11.09a7.39,7.39,0,0,1-3.33-5.27V339.63s2.58,1.56,3.38,2l19.15,11.06,11.66,6.74,21,12.15,4,2.34v4.69l-.05,49"/><path class="cls-46" d="M227.11,337.87l-21-2.61a1.28,1.28,0,0,0-.78,2.38l58.7,33a5.67,5.67,0,0,0,2.4.72l32.9,2.28-58.82-34.13-7.82-1"/><path class="cls-46" d="M358.85,339.79l-59.16-34.13L317,276.59a4.06,4.06,0,0,1,5.48-1.46l51.58,29a4.06,4.06,0,0,1,1.55,5.51Z"/></g><g id="pink_box" data-name="pink box"><path class="cls-47" d="M335.43,311.89a4.53,4.53,0,0,1-2.27,3.93c-34,19.64-31.83,18.65-33.53,18.67a4.63,4.63,0,0,1-2.3-.6c-.12-.07-31.4-18.12-31.51-18.21a4.51,4.51,0,0,1-2.05-3.79V276.22a4.54,4.54,0,0,1,2.26-3.93l12.72-7.35,7.08-4.09,10.87-6.29a5.61,5.61,0,0,1,5.58,0l10.87,6.27,7.09,4.08,12.9,7.44a4.5,4.5,0,0,1,2.2,3.1C335.47,276.1,335.43,273.72,335.43,311.89Z"/><path class="cls-48" d="M335.43,276.29v35.6a4.53,4.53,0,0,1-2.27,3.93l-11.4,6.59-7.15,4.12-12.73,7.36a4.73,4.73,0,0,1-2.25.6l.05-37.34h0a4.86,4.86,0,0,1,2.45-4.23l12.48-7.21,7.15-4.12,11.67-6.74a1.36,1.36,0,0,1,1.92.61A4.69,4.69,0,0,1,335.43,276.29Z"/><path class="cls-49" d="M269.37,276.8l8.07,4.67,7.06,4.08,12.73,7.35a4.91,4.91,0,0,1,2.45,4.24h0l-.05,37.34a4.5,4.5,0,0,1-2.11-.51l-13-7.52-7.06-4.07-11.62-6.71a4.49,4.49,0,0,1-2-3.19V276a1.36,1.36,0,0,1,2-1.19"/><polyline class="cls-4" points="292.16 281.13 320.25 264.92 313.15 260.83 277.42 281.46 277.44 281.47 277.44 322.39 284.5 326.46 284.5 285.55 284.5 285.55 284.51 285.55 286.28 284.53"/><polygon class="cls-4" points="321.75 281.58 285.84 260.85 278.76 264.94 314.67 285.67 314.62 285.7 314.62 326.53 321.75 322.41 321.75 281.58 321.75 281.58"/><path class="cls-50" d="M291.55,270.87a15.59,15.59,0,0,0-7.13,4.68,40.17,40.17,0,0,1,4.53,3.14s4-4.68,8.24-5.13a14.16,14.16,0,0,0-4.55-2.69Z"/><path class="cls-4" d="M298.68,269.87s2.51-3.05,4.07-.94,8.44,6.91,10.27,5.85c2.89-1.67-1.28,3.82-1.36,3.91s-5.63.48-5.75.4-8.72-5.53-8.72-5.53-10.07-5.69-9.95-5.69-5.16-6.72-5.2-6.83.2-4.22.2-4.22,3.43-.43,3.55-.36,4.3,5.75,4.3,5.75Z"/><path class="cls-50" d="M289.94,263.88l.39.64c.34.55.68,1.1,1,1.67,1.2.82,4.2,7,4.2,7,1.09.82,2.22,1.6,3.31,2.36l1.83,1.28c3.68,2.62,6.58,3.92,8.8,3.92a4.34,4.34,0,0,0,2.21-.55l.05,0,4.78-2.44c1.85-1.07,3.19-3.85.87-8.15-1.57-2.92-3.51-4.69-5.76-5.24-3.18-.79-5.5.55-8.72,2.19A18.77,18.77,0,0,0,301,267.7c-1.4-2.41-2.73-4.63-4.06-6.76l-.79-1.31a30.9,30.9,0,0,0-3.5-5,4.54,4.54,0,0,0-4.87-1.33,1.89,1.89,0,0,1-.21.09l-.09.05-.14.07-4.67,2.4,2.84.63c0,.12,0,.24,0,.36a4.71,4.71,0,0,0,0,.75c0,.1,0,.21,0,.31a3,3,0,0,1,.72.57,15.65,15.65,0,0,1,1,1.24m22.17,11.35a12.53,12.53,0,0,1,1.27,1.94c1.18,2.19,1.15,3.73.63,4.63a1.85,1.85,0,0,1-.71.73c-.86.5-3.15.74-8.75-3.26-1.75-1.24-4.07-2.72-5.33-3.64,2.88-1.84,6.12-3.6,9.11-2.94m2.31,1.09.17.13"/><path class="cls-50" d="M297.32,272c-1.6-.87-2.09-2.66-2.67-3.57-1.44-2.27-5-9.33-6.85-11.37a4.84,4.84,0,0,0-2.17-1.37,4.13,4.13,0,0,0-2.69,0,3.71,3.71,0,0,0-2.3,3.6c0,.25,0,.5,0,.74.8,8,10.82,11.1,15.34,13.44m-6.5-10.36c.28.45.54.89.82,1.33s.68,1.1,1,1.67q1.17,1.9,2.38,4c-4.81-2.12-10.46-5.06-11-10.25a4.35,4.35,0,0,1,0-.51,1.67,1.67,0,0,1,.95-1.68,1.84,1.84,0,0,1,.66-.12,2.4,2.4,0,0,1,1.21.35,3,3,0,0,1,.72.57,17.64,17.64,0,0,1,1.15,1.41"/><path class="cls-51" d="M285.67,351.09a1.25,1.25,0,0,1-1.25-1.25V332.06a1.25,1.25,0,0,1,2.5,0v17.78A1.25,1.25,0,0,1,285.67,351.09Z"/><path class="cls-52" d="M333.15,335.19a1.25,1.25,0,0,1-1.25-1.25V319.62a1.25,1.25,0,0,1,2.5,0v14.32A1.24,1.24,0,0,1,333.15,335.19Z"/><path class="cls-53" d="M321.76,335.75a1.24,1.24,0,0,1-1.25-1.25v-6.9a1.25,1.25,0,0,1,2.5,0v6.9A1.25,1.25,0,0,1,321.76,335.75Z"/><path class="cls-54" d="M273.75,329.8a1.25,1.25,0,0,1-1.25-1.25v-3.68a1.25,1.25,0,0,1,2.5,0v3.68A1.24,1.24,0,0,1,273.75,329.8Z"/><line class="cls-55" x1="276.98" y1="243.35" x2="281.76" y2="248.12"/><line class="cls-55" x1="316.85" y1="237.91" x2="307.64" y2="247.12"/><line class="cls-55" x1="294.77" y1="230.32" x2="294.77" y2="229.24"/><line class="cls-55" x1="294.77" y1="244.52" x2="294.77" y2="233.39"/></g><g id="box"><path class="cls-17" d="M249.18,442.54a5.7,5.7,0,0,1-2.84,4.93c-42.64,24.62-39.93,23.39-42.06,23.41a5.75,5.75,0,0,1-2.89-.76c-.15-.08-39.38-22.72-39.51-22.83a5.65,5.65,0,0,1-2.58-4.75V397.8a5.69,5.69,0,0,1,2.84-4.93l15.95-9.22,8.88-5.13,13.64-7.89a7,7,0,0,1,7,0l13.63,7.86,8.9,5.13L246.32,393a5.67,5.67,0,0,1,2.76,3.88C249.23,397.65,249.18,394.67,249.18,442.54Z"/><path class="cls-56" d="M249.18,397.89v44.65a5.7,5.7,0,0,1-2.84,4.93L232,455.73l-9,5.17-16,9.22a5.79,5.79,0,0,1-2.82.76l.06-46.83v0a6.09,6.09,0,0,1,3.07-5.3l15.66-9,9-5.17,14.64-8.45a1.71,1.71,0,0,1,2.41.76A6.14,6.14,0,0,1,249.18,397.89Z"/><path class="cls-57" d="M197.45,416.51l3.81,2.21a6.12,6.12,0,0,1,3.08,5.31v0l-.06,46.83a5.63,5.63,0,0,1-2.65-.64l-16.33-9.43-8.85-5.11-14.57-8.41a5.6,5.6,0,0,1-2.53-4V397.47a1.71,1.71,0,0,1,2.56-1.49l14.54,8.4,8.85,5.11,7.42,4.29"/><polyline class="cls-4" points="195.46 403.64 230.14 383.62 221.24 378.49 176.43 404.37 176.45 404.38 176.45 455.7 185.3 460.81 185.3 409.49 185.3 409.49 185.31 409.5 189.58 407.03"/><polygon class="cls-4" points="232.03 404.52 186.98 378.52 178.1 383.65 223.14 409.65 223.07 409.69 223.07 460.9 232.03 455.73 232.03 404.52 232.03 404.52"/><path class="cls-22" d="M196.26,393.47a19.48,19.48,0,0,0-8.94,5.87,49.83,49.83,0,0,1,5.67,3.93s5-5.87,10.34-6.43a17.33,17.33,0,0,0-5.7-3.37Z"/><path class="cls-4" d="M194.15,391.09a19.45,19.45,0,0,0-8.94,5.87,50.16,50.16,0,0,1,5.67,3.94s5-5.88,10.34-6.44a17.65,17.65,0,0,0-5.71-3.37Z"/><path class="cls-4" d="M203.09,389.83s3.14-3.82,5.1-1.18,10.58,8.68,12.89,7.34c3.62-2.1-1.62,4.8-1.72,4.91s-7.05.59-7.2.49l-10.94-6.93s-12.63-7.13-12.49-7.13-6.46-8.43-6.51-8.58.24-5.29.24-5.29,4.31-.54,4.46-.44,5.39,7.2,5.39,7.2Z"/><path class="cls-22" d="M226.57,389.48c-2-3.66-4.4-5.88-7.23-6.57-4-1-6.9.69-10.94,2.74a25.89,25.89,0,0,0-2.42,1.46c-1.75-3-3.42-5.8-5.08-8.47-.34-.55-.67-1.1-1-1.65a38.13,38.13,0,0,0-4.39-6.28,5.7,5.7,0,0,0-6.1-1.67l-.27.12-.12.06-.16.08-5.87,3,3.57.8c0,.14,0,.29,0,.44a7.31,7.31,0,0,0,0,.94,2.6,2.6,0,0,0,.05.39,4,4,0,0,1,.9.71,36.19,36.19,0,0,1,4.07,5.86l1,1.68c.43.68.86,1.38,1.29,2.08,1.49,1,4.21,8.22,4.21,8.22a48.31,48.31,0,0,1,5.21,3.56c.73.58,1.53,1.06,2.29,1.6,4.61,3.29,8.26,4.92,11,4.92a5.36,5.36,0,0,0,2.77-.7l.07-.05,6-3.06C227.79,398.36,229.47,394.88,226.57,389.48Zm-8.47,11.07c-1.08.62-3.95.92-11-4.09-2.19-1.56-5.09-3.42-6.68-4.57,5.83-3.73,12.85-7.16,17.76,1.93,1.48,2.75,1.44,4.68.79,5.81A2.39,2.39,0,0,1,218.1,400.55Z"/><path class="cls-22" d="M190.7,375.46a16.34,16.34,0,0,0-1.25-1.64,6.33,6.33,0,0,0-2.73-1.73,5.12,5.12,0,0,0-3.37.06,4.65,4.65,0,0,0-2.89,4.52c0,.31,0,.62,0,.93,1,10,13.57,13.91,19.24,16.85m1.65-1.89c-2-1.1-2.63-3.35-3.35-4.48-1-1.55-2.75-4.87-4.53-8m-10.4-2.75a4.64,4.64,0,0,1,0-.64,2.08,2.08,0,0,1,1.2-2.1,2.25,2.25,0,0,1,.82-.15,3.1,3.1,0,0,1,1.52.43,4,4,0,0,1,.9.71,36.19,36.19,0,0,1,4.07,5.86l1,1.68c.43.68.86,1.38,1.29,2.08,1,1.6,2,3.26,3,5C190.85,387.53,183.75,383.85,183.11,377.34Z"/></g><g id="coupons"><path class="cls-58" d="M296.41,472.56a8.77,8.77,0,0,0,6.3.65l6.25,3.61-9.29,5.37h-2.29v1.32L272.24,498l-6.2-3.59c1.06-1.2.71-2.72-1.05-3.74a8.86,8.86,0,0,0-6.47-.6l-6.21-3.58L277.42,472h2.37v-1.37l9.26-5.34,6.25,3.61C294.33,470.12,294.7,471.58,296.41,472.56Z"/><path class="cls-58" d="M296.41,464.42a8.77,8.77,0,0,0,6.3.65l6.25,3.61-9.29,5.37h-2.29v1.32l-25.15,14.52L266,486.3c1.06-1.2.71-2.72-1.05-3.74a8.86,8.86,0,0,0-6.47-.6l-6.21-3.58,25.11-14.49h2.37v-1.37l9.26-5.34,6.25,3.61C294.33,462,294.7,463.44,296.41,464.42Z"/><path class="cls-47" d="M302.71,456.3a8.77,8.77,0,0,1-6.3-.65c-1.71-1-2.08-2.44-1.12-3.63L289,448.41l-9.26,5.34v1.06a.68.68,0,0,1,.76-.05l1.74,1a.7.7,0,0,1-.35,1.31.64.64,0,0,1-.35-.1l-1.74-1a.69.69,0,0,1-.3-.85h-2.14l-25.1,14.49,6.21,3.58a8.86,8.86,0,0,1,6.47.6c1.76,1,2.11,2.53,1,3.74l6.21,3.58,4.56-2.63,9.64-5.57,10.95-6.31v-.78a.57.57,0,0,1-.22,0,.73.73,0,0,1-.35-.09l-1.73-1a.7.7,0,1,1,.7-1.22l1.73,1a.7.7,0,0,1,.34.73h1.82l9.29-5.37Zm-14.77,3.53a.7.7,0,0,1-.61.35.73.73,0,0,1-.35-.09l-2.7-1.56a.7.7,0,0,1,.7-1.21l2.7,1.56A.69.69,0,0,1,287.94,459.83Zm5.4,3.12a.7.7,0,0,1-.61.35.73.73,0,0,1-.35-.09l-2.7-1.56a.7.7,0,0,1,.7-1.21l2.7,1.55A.71.71,0,0,1,293.34,463Z"/><path class="cls-4" d="M266.79,466.49a5.83,5.83,0,0,1,5.27.05c1.55.89,1.49,2.23.06,3a5.79,5.79,0,0,1-5.25,0C265.37,468.67,265.38,467.31,266.79,466.49Zm9.69,6.7L273,463.13l2-1.14,3.46,10.06Zm-6-4.54c.53-.31.48-.78-.15-1.14a2,2,0,0,0-1.95-.07c-.54.31-.52.79.1,1.14A2.1,2.1,0,0,0,270.53,468.65Zm8.79-3a5.83,5.83,0,0,1,5.27.05c1.54.89,1.49,2.22.06,3.05a5.78,5.78,0,0,1-5.26-.06C277.9,467.8,277.9,466.44,279.32,465.62Zm3.73,2.16c.54-.31.49-.79-.14-1.15a2.05,2.05,0,0,0-2-.06c-.54.31-.52.78.09,1.14A2.1,2.1,0,0,0,283.05,467.78Z"/></g><g id="shoes"><path class="cls-19" d="M487.3,373.12a4.36,4.36,0,0,1-2.2,3.8c-32.91,19-55.78,32.32-57.43,32.34a4.52,4.52,0,0,1-2.23-.58c-.12-.07-30.39-17.54-30.49-17.63a4.34,4.34,0,0,1-2-3.66V361.33a4.37,4.37,0,0,1,2.19-3.8c26.68-15.43,29.36-16.81,54.66-31.43a5.36,5.36,0,0,1,5.39,0l29.88,17.22a3.77,3.77,0,0,1,2.13,3C487.37,355.47,487.31,338.71,487.3,373.12Z"/><path class="cls-20" d="M487.3,354.72c0,3.9,0,9.7,0,18.39a4.39,4.39,0,0,1-2.2,3.81c-33,19.06-55.82,32.32-57.43,32.34l0-20.32v-7.36h0a4.71,4.71,0,0,1,2.38-4.09c29.41-17,33.53-19.21,55.27-31.76a1.32,1.32,0,0,1,1.86.59c.07.39.08.47.08,6.9Z"/><path class="cls-21" d="M427.71,381.57h0v7.36l0,20.32a4.3,4.3,0,0,1-2-.5L413,401.48l-6.82-3.94-11.26-6.49A4.35,4.35,0,0,1,393,388V361.07a1.32,1.32,0,0,1,2-1.15l11.23,6.49,6.82,3.94,9.51,5.49,2.94,1.71A4.73,4.73,0,0,1,427.71,381.57Z"/><path class="cls-59" d="M487.3,353.21v1.51l-59.24,34.12a.62.62,0,0,1-.35.1h0a.63.63,0,0,1-.33-.09L393,369.23v-1.5a.69.69,0,0,1,.34.09l34.36,19.61h0L487,353.31A.64.64,0,0,1,487.3,353.21Z"/><polygon class="cls-4" points="465.57 332.06 406.2 366.41 406.2 397.55 413.02 401.49 413.02 370.36 472.44 336.02 465.57 332.06"/><polygon class="cls-4" points="427.37 339.02 420.48 342.96 455.23 363.02 455.23 394.07 462.14 390.08 462.14 359.06 427.37 339.02"/><path class="cls-60" d="M460.54,351.93c0,1.26,0,1.31,0,1.31l-1.1.05s-.51-13.39-.85-17.14,3.92-6.82,3.92-6.82C462.49,336.3,460.54,337.51,460.54,351.93Z"/><path class="cls-61" d="M449.28,311.68c2.1,4.48,5.2,13.33,1.42,16.54a43.57,43.57,0,0,0-12,18.17c-2,6.4-7.16,9.73-14.84,9.73s-14.33,0-15.1-2.05-2.3-5.63,4.61-11.26a125.37,125.37,0,0,0,19.19-19.45c5-6.31,10.7-15,14.22-14.51C448.11,309.05,448.7,310.45,449.28,311.68Z"/><path class="cls-60" d="M434.63,341.86c3.17-2.79,10.66-18.37,12.61-21,2.11-2.94,2.43-13.55-2.63-10.79-4.39,2.4-12.24,16.06-24,27.5C411.84,346.17,429,346.81,434.63,341.86Z"/><path class="cls-60" d="M450.59,326.81a84.22,84.22,0,0,0-1.92,19.2c0,1.24,0,1.29,0,1.29l-1.08.06s-.5-13.17-.84-16.86,3.86-6.7,3.86-6.7Z"/><path class="cls-62" d="M423,344.93c3.6.26,9-.78,11.61-3.07,3.05-2.69,10-17,12.41-20.66C444.36,313,437.72,334.64,423,344.93Z"/><path class="cls-61" d="M461.39,317.48a37,37,0,0,1,2.83,9c.39,2.58.37,5.69-1.61,7.38-15.87,13.48-8.65,28.38-27.34,28.38-7.81,0-14.58,0-15.36-2.09s-2.34-5.72,4.69-11.45a127.5,127.5,0,0,0,19.52-19.79c5-6.29,10.76-15.1,14.36-14.77C460.1,314.26,460.72,316,461.39,317.48Z"/><path class="cls-60" d="M434.45,350.83c3.66.26,9.15-.8,11.81-3.13,3.22-2.84,10.84-18.68,12.82-21.32,1.35-1.87,1.62-5.11,1.38-7.42-.19-1.9-.67-3.87-2.58-4a2.55,2.55,0,0,0-1.57.47c-5,3.19-18.12,23.89-23.82,28C427.77,346.75,429.11,350.4,434.45,350.83Z"/><path class="cls-62" d="M452,339c2.74-4.86,5.51-10.25,6.88-12.31-2.72-8.32-9.48,13.67-24.43,24.14,3.66.26,9.15-.8,11.81-3.13,1.38-1.22,3.55-4.79,5.74-8.7"/></g><g id="delivery"><polygon class="cls-63" points="342.3 458.18 340.24 460.01 336.83 457.63 337.68 455.69 342.3 458.18"/><polygon class="cls-63" points="368.77 443.32 366.71 445.15 363.3 442.77 364.15 440.83 368.77 443.32"/><polygon class="cls-63" points="380.47 436.22 378.41 438.04 375 435.66 375.84 433.72 380.47 436.22"/><polygon class="cls-64" points="392.41 421.23 392.41 427.56 336.25 459.35 316.8 448.13 329.14 439.99 340.57 434 350.48 428.23 392.41 421.23"/><ellipse class="cls-65" cx="381.09" cy="433.6" rx="5.19" ry="3" transform="translate(-185.57 543.76) rotate(-59.69)"/><ellipse class="cls-66" cx="381.09" cy="433.6" rx="2.36" ry="1.36" transform="translate(-185.57 543.76) rotate(-59.69)"/><ellipse class="cls-65" cx="369.42" cy="440.72" rx="5.19" ry="3" transform="translate(-197.5 537.22) rotate(-59.69)"/><ellipse class="cls-66" cx="369.42" cy="440.72" rx="2.36" ry="1.36" transform="translate(-197.5 537.22) rotate(-59.69)"/><ellipse class="cls-65" cx="342.93" cy="455.56" rx="5.19" ry="3" transform="matrix(0.5, -0.86, 0.86, 0.5, -223.43, 521.69)"/><ellipse class="cls-66" cx="342.93" cy="455.56" rx="2.36" ry="1.36" transform="translate(-223.43 521.69) rotate(-59.69)"/><path class="cls-17" d="M331.52,418.07V412a5.93,5.93,0,0,1,2.49-4.75l37-21.34a1.68,1.68,0,0,1,1.47-.2l.13-.1,18.74,11.11a1.17,1.17,0,0,1,.44.26l0,0h0a2.42,2.42,0,0,1,.63,1.82v23.5l-41.93,24.21V429.69l-19-11.62"/><path class="cls-67" d="M360.84,413.74,353,418.29a5.92,5.92,0,0,0-2.49,4.75v23.49l41.93-24.21v-23.5c0-1.83-1.11-2.67-2.48-1.87l-21.36,12.33"/><path class="cls-4" d="M371,413.83l-7,10.47c-.4.61-.4,1.32,0,1.47l7,2.44c.39.14,1-.52,1-1.1v-3.52a.53.53,0,0,1,.23-.41l8-4.64a1.79,1.79,0,0,0,.8-1.38v-3.89c0-.51-.36-.71-.8-.46l-8,4.64c-.13.08-.23,0-.23-.13V413.8C372,413.22,371.39,413.24,371,413.83Z"/><path class="cls-68" d="M349.75,429.26l-5,2.83a7.89,7.89,0,0,0-3.61,4.45l-4.88,15.23v7.58L316.8,448.13v-8.56l6.76-17.64,7.58-4.62Z"/><polygon class="cls-66" points="335.5 445.74 339.59 433.43 324.9 424.96 320.21 436.97 335.5 445.74"/><ellipse class="cls-66" cx="330.84" cy="451.88" rx="1.38" ry="2.39" transform="translate(-182.83 228.74) rotate(-30.31)"/><ellipse class="cls-66" cx="320.72" cy="446.5" rx="1.38" ry="2.39" transform="translate(-181.5 222.9) rotate(-30.31)"/><path class="cls-66" d="M346.42,443.55l-5.8,3.13,3-8.64a8.8,8.8,0,0,1,3.65-4.56l1.37-.86,0,9.74"/></g><g id="tag"><path class="cls-48" d="M332.47,363.36l-2-3.41a3.55,3.55,0,0,0-2.26-1.11l-16.88-2.52a3,3,0,0,0-2.49,1l-6.67,8.39c-.53.67-.28,1.31.57,1.43l16.89,2.52a8.12,8.12,0,0,0,3.34-.27l6.4-2.15C331.62,366.37,333,364.62,332.47,363.36ZM327.62,366c-.77-.11-1-.69-.52-1.3a2.67,2.67,0,0,1,2.26-.88c.76.11,1,.69.52,1.3A2.69,2.69,0,0,1,327.62,366Z"/><path class="cls-5" d="M329.37,368.46l.09-.26.37-.19c1.78-1,2.39-1.59,2.52-2.47a.3.3,0,0,0-.21-.33,4.75,4.75,0,0,1-1.09,1.11,5,5,0,0,1-1.38,1,.66.66,0,0,0-.57-.76c-.54-.12-.83-.34-.92-.57a.46.46,0,0,1,.05-.48.55.55,0,0,1,.24-.22l.11,0h.09a4.53,4.53,0,0,0,.86.1h0a3.34,3.34,0,0,0,.33-.32,1.45,1.45,0,0,0,.21-.41h-.15a3.24,3.24,0,0,1-.65-.07l-.07,0a1.86,1.86,0,0,0-.46,0,2.06,2.06,0,0,0-1.49.88,1,1,0,0,0-.16.35c-.17.58.16,1.19,1.34,1.46.19.05.18.3.09.64a1,1,0,0,1-.25.08s-.84.18-.85.32l0,.05c0,.13.08.29.35.34h0a1.35,1.35,0,0,0,.52,0c-.61,1.72-1.44,4.48,4.28,5.4l.58-.72C327.94,372.53,328.77,370.18,329.37,368.46Z"/></g><g id="confetti"><path class="cls-49" d="M216.53,250.79c3.12,8.52,4.56,13.44,11,15.36s10.2,1.8,13.32,9.61l5.64-2.29a17.05,17.05,0,0,0-7.92-7.92c-5.76-2.76-9.72-1.56-12.36-7.08a48,48,0,0,1-3.6-10.84Z"/><path class="cls-17" d="M205,312.33l4.64,3.41c.07-.07,3.43-4.71,7.73-3.54,4.62,1.26,7.07,1.9,10.15.92s3.27-1.6,3.27-1.6l-4.32-2a3.3,3.3,0,0,1-3.6,1.37c-2.23-.72-6.47-3-9.7-2.86C209.26,308.18,205,312.33,205,312.33Z"/><path class="cls-59" d="M167.94,347l-4.07,6.8c.1.08,6.89,4.09,5.85,10.14-1.13,6.49-1.7,9.93,0,14s2.62,4.28,2.62,4.28l2.18-6.18s-3-1.61-2.34-4.76,3.27-9.24,2.67-13.66C174.17,352.25,167.94,347,167.94,347Z"/><path class="cls-69" d="M362,261.17l4.08-3.12s2.42,2.67,5.9,0,7.46-5.15,13.06-2.58a62.47,62.47,0,0,1,8.77,4.79l-5.24,4.64s-4.29-5.49-8.87-6.15a9.09,9.09,0,0,0-7.42,1.92c-.8.45-5.74,2.92-8,1.71Z"/><path class="cls-13" d="M374.58,371l-3.75,1.7s-1.4-2.52-4.6-1.06-6.75,2.67-10.65-.35a49.1,49.1,0,0,1-6-5.32l4.93-2.67s2.35,5.06,5.81,6.4a7.26,7.26,0,0,0,6.13-.16c.71-.21,5-1.25,6.56.11Z"/><path class="cls-37" d="M263.74,327.62l-3.75,1.7s-1.4-2.52-4.6-1.06-6.75,2.66-10.65-.35a50.15,50.15,0,0,1-6-5.32l4.93-2.67s2.35,5.06,5.81,6.39a7.31,7.31,0,0,0,6.13-.15c.71-.21,5-1.25,6.56.1Z"/></g><g id="bag-3" data-name="bag"><path class="cls-4" d="M252,422c-.34.19-.61,0-.61-.35v-6.9a3.59,3.59,0,0,0-1.53-3.34,3.67,3.67,0,0,0-3.67.37,11.49,11.49,0,0,0-5.21,9v6.9a1.33,1.33,0,0,1-.6,1c-.34.2-.61,0-.61-.34v-6.9a14.16,14.16,0,0,1,6.42-11.07c1.71-1,3.32-1.15,4.53-.46s1.88,2.15,1.88,4.12v6.9A1.35,1.35,0,0,1,252,422Z"/><polygon class="cls-70" points="233.34 425.58 228.88 464.97 264.85 445.27 258.76 412.05 233.34 425.58"/><polyline class="cls-71" points="243.04 431.44 243.15 430.48 239.78 427.21 233.34 425.58 228.88 464.97 234.94 466 238.69 469.87 242.3 437.97"/><polygon class="cls-71" points="268.57 416.95 262.99 415 258.76 412.05 262 430.16 274.66 450.18 268.57 416.95"/><polyline class="cls-16" points="242.54 435.88 238.69 469.87 274.66 450.18 268.57 416.95 243.15 430.48 242.98 432"/><ellipse class="cls-70" cx="249.68" cy="437.25" rx="2.22" ry="1.28" transform="translate(-253.81 432.12) rotate(-59.69)"/><ellipse class="cls-70" cx="262.94" cy="429.59" rx="2.22" ry="1.28" transform="translate(-240.63 439.78) rotate(-59.69)"/><path class="cls-4" d="M262.88,430.26c-.38.22-.69.05-.69-.39V422a4.12,4.12,0,0,0-1.73-3.79c-1.12-.63-2.6-.48-4.17.43a13,13,0,0,0-5.91,10.18v7.83a1.51,1.51,0,0,1-.68,1.18c-.38.22-.69.05-.69-.39v-7.83a16,16,0,0,1,7.28-12.55c1.94-1.12,3.76-1.31,5.14-.52s2.13,2.44,2.13,4.67v7.83A1.53,1.53,0,0,1,262.88,430.26Z"/></g><g id="location_pin" data-name="location pin"><path class="cls-72" d="M60.7,556.25a24.47,24.47,0,0,1-11.35-2.89c-6.65-3.84-6.69-10.05-.07-13.87s17.37-3.8,24,0,6.69,10.06.08,13.87a21.26,21.26,0,0,1-6.72,2.38"/><path class="cls-73" d="M40.91,560.29c-.63-.31-1.25-.64-1.85-1-12.37-7.14-12.44-18.69-.14-25.79s32.3-7.06,44.67.08,12.44,18.69.14,25.79c-8.28,4.79-20.07,6.33-30.67,4.64"/><path class="cls-73" d="M47.74,562.87c-.89-.25-1.77-.52-2.63-.83"/><path class="cls-74" d="M80.78,502.88c0-4.86-1.69-8.28-4.44-9.91h0l-.1-.06h0l-7.77-4.5h0c-2.81-1.65-6.72-1.43-11,1.07-8.57,4.95-15.52,16.93-15.52,26.76,0,12.83,15.52,27.19,15.52,27.19h0L65.27,548h0S80.78,515.71,80.78,502.88ZM67.3,501.59c0,6.25-4.43,13.88-9.88,17a6,6,0,0,1-1.87.75,10.63,10.63,0,0,1-.15-1.84c0-6.25,4.42-13.88,9.87-17a10.8,10.8,0,0,1,1.88-.87A12.51,12.51,0,0,1,67.3,501.59Z"/><path class="cls-75" d="M50.5,514.87a20.34,20.34,0,0,0-.75,5.92c0,12.83,15.52,27.19,15.52,27.19s15.51-32.27,15.51-45.1c0-9.84-6.94-13.8-15.51-8.85-4.32,2.49-8.17,6.81-11,11.67A38.31,38.31,0,0,0,50.5,514.87Zm21.8.86a20.17,20.17,0,0,1-7,7.43c-5.45,3.15-9.87.63-9.87-5.63s4.42-13.88,9.87-17a8.5,8.5,0,0,1,5-1.32c2.9.3,4.84,2.81,4.84,6.95a16.77,16.77,0,0,1-.74,4.76"/></g><g id="user"><path class="cls-34" d="M671,291.29v37.27c0,2-1.22,2.93-2.72,2.06l-10.47-6-5,3.8-5-9.62-10.47-6a6.54,6.54,0,0,1-2.72-5.21V270.24c0-2,1.22-2.92,2.72-2.05l31,17.9A6.53,6.53,0,0,1,671,291.29Z"/><path class="cls-33" d="M656.56,299.07v37.27c0,2-1.22,2.93-2.72,2.06l-10.47-6-5,3.81-5-9.62-10.46-6.05a6.49,6.49,0,0,1-2.73-5.2V278c0-2,1.22-2.92,2.73-2.06l31,17.91A6.52,6.52,0,0,1,656.56,299.07Z"/><path class="cls-16" d="M604.59,313.53V285.79c0-2,1.22-2.93,2.73-2.06l31,17.9a6.54,6.54,0,0,1,2.72,5.21V344.1c0,2-1.22,2.93-2.72,2.06l-10.47-6-5,3.81-5-9.63-10.46-6a6.52,6.52,0,0,1-2.73-5.2v-5.34"/><path class="cls-1" d="M630,326.55a19.61,19.61,0,0,0-5.62-7.11.92.92,0,0,0-.88-.28c-1.34.33-3.34-.74-4.53-2.47a1.93,1.93,0,0,0-1.1-.87c-1.62-.52-3.18-.9-4.4-.2a3.12,3.12,0,0,0-1.45,1.53,4,4,0,0,0,1,3.63c5.2,6.25,11.37,9.82,16.52,9.74.94,0,1.38-1,1-2.4A9.86,9.86,0,0,0,630,326.55Z"/><path class="cls-76" d="M618.91,313.35c1.63,3.08,4,4.46,5.84,3.86a3.26,3.26,0,0,0,1.84-2.47c0-.15.15-.31.28-.29.65.09,1-.27,1-1a2.92,2.92,0,0,0-.92-2.17c.09-.61.21-1.14.25-1.73a6.88,6.88,0,0,0-1.5-4.9,1.58,1.58,0,0,1-.22-.57,4.3,4.3,0,0,0-1.53-2.54,4.23,4.23,0,0,0-1.15-.71,26.18,26.18,0,0,0-3.68-1.08c-1.42-.25-2.36.43-2.45,2.18a20.92,20.92,0,0,0,.2,3.1c0,.37.06.62-.17.78-.62.43-.59,1.6.11,2.47a3.64,3.64,0,0,1,.77,1.55"/><path class="cls-76" d="M620.94,327.83l.33.2"/><path class="cls-76" d="M623.17,329a14.76,14.76,0,0,0,6.34,1.5c.94,0,1.38-1,1-2.4a9.86,9.86,0,0,0-.56-1.57,19.61,19.61,0,0,0-5.62-7.11.92.92,0,0,0-.88-.28c-1.34.33-3.34-.74-4.53-2.47a1.93,1.93,0,0,0-1.1-.87c-1.62-.52-3.18-.9-4.4-.2a3.12,3.12,0,0,0-1.45,1.53,4,4,0,0,0,1,3.63,34.74,34.74,0,0,0,6.1,5.81"/></g><g id="product_ui" data-name="product ui"><path class="cls-27" d="M327,2.54v145.3a7.92,7.92,0,0,1-3.59,6.2l-94,54.28c-2,1.15-3.6.23-3.6-2V61a8,8,0,0,1,3.6-6.2l94-54.28C325.39-.65,327,.26,327,2.54Z"/><path class="cls-27" d="M347.18,15.12v145.3a7.92,7.92,0,0,1-3.6,6.2l-94,54.28c-2,1.14-3.6.23-3.6-2.05V73.55a7.92,7.92,0,0,1,3.6-6.2l94-54.28C345.57,11.92,347.18,12.84,347.18,15.12Z"/><path class="cls-77" d="M363,120v48a7.93,7.93,0,0,1-3.59,6.2l-63.15,36.46-30.87,17.82c-2,1.14-3.6.23-3.6-2.05V81.12a7.94,7.94,0,0,1,3.6-6.2l94-54.28c2-1.15,3.59-.23,3.59,2.05v92.16"/><path class="cls-30" d="M318.9,60.43,273.44,86.67c-.9.52-1.64,0-1.64-1.24h0a3.93,3.93,0,0,1,1.64-3.13L318.9,56.06c.9-.53,1.64,0,1.64,1.24h0A3.94,3.94,0,0,1,318.9,60.43Z"/><path class="cls-30" d="M297.61,81.24l-24.17,14c-.9.52-1.64,0-1.64-1.24h0a4,4,0,0,1,1.64-3.14l24.17-13.95c.91-.52,1.64,0,1.64,1.24h0A3.9,3.9,0,0,1,297.61,81.24Z"/><path class="cls-30" d="M332,170.18l-58.92,34c-.72.41-1.3,0-1.3-1h0a3.09,3.09,0,0,1,1.3-2.48l58.92-34c.71-.41,1.29,0,1.29,1h0A3.11,3.11,0,0,1,332,170.18Z"/><path class="cls-30" d="M301.26,195.76,273.1,212c-.72.42-1.3,0-1.3-1h0a3.09,3.09,0,0,1,1.3-2.47l28.16-16.26c.72-.41,1.3,0,1.3,1h0A3.09,3.09,0,0,1,301.26,195.76Z"/><path class="cls-1" d="M310.05,105.11a16.57,16.57,0,0,0,8.13-5.07,22.33,22.33,0,0,0,6.07-11.74,4.34,4.34,0,0,1,1.32-2c2.85-2,5.37-3.1,7.77-2,4.47,2,9.33,3.38,14,5a12.68,12.68,0,0,1,1.16.52c-.23.66-.4,1.23-.61,1.79-2.47,6.5-5,13-7.54,19.8l-7-.76c-.06,1.1-.14,1.87-.15,2.59,0,10.16,0,20.33,0,30.46a3,3,0,0,1-1.79,3.14Q313.72,157,296,167.32c-1.38.8-1.84.65-1.83-1,.06-10.12,0-20.2,0-30.29v-2.85l-7.12,9-8.26-12.13c2.77-4.18,5.46-8.27,8.17-12.34,3-4.48,6-9,9-13.43,2.06-3,4.43-3.38,6.67-4.61.22-.12.54.47.61.89.43,2.52,1.72,4,3.49,4.5"/><path class="cls-78" d="M347.36,89.27c-4.69-1.63-9.55-3-14-5-2.4-1.1-4.92,0-7.77,2a4.38,4.38,0,0,0-1.32,2A22.29,22.29,0,0,1,318.18,100a24.06,24.06,0,0,1-3.67,3.12,9.6,9.6,0,0,1-3.78,1.79l-.68.17a7.14,7.14,0,0,1-3.35,0c-1.8-.41-3.07-2-3.49-4.5-.07-.42-.39-1-.61-.9-2.24,1.24-4.62,1.58-6.67,4.62-3,4.45-6,8.94-9,13.42-2.71,4.08-5.4,8.16-8.17,12.34l8.26,12.14,4.16-5.27,2.08-2.64.88-1.1V136c0,10.09,0,20.16,0,30.29,0,1.65.45,1.81,1.83,1q17.75-10.33,35.51-20.5a3,3,0,0,0,1.79-3.15c-.06-10.12,0-20.29,0-30.45,0-.72.09-1.49.15-2.59l7,.75,7.54-19.79c.21-.57.38-1.14.6-1.79C348.1,89.61,347.75,89.41,347.36,89.27ZM327,116.7c0,3.19-5,8.68-5,8.68a7.86,7.86,0,0,1-1.36.12,3.15,3.15,0,0,1-2.68-1,7.23,7.23,0,0,1-1-3.18v-6.92L327,108.57Z"/><path class="cls-79" d="M363,144.22V168a7.93,7.93,0,0,1-3.59,6.2l-63.15,36.46v-5.13l-4.42-2.35,4.42-7.45v-9.18a7.48,7.48,0,0,1,3.45-5.83Z"/><path class="cls-4" d="M351.62,160.83l39.94-23c1.91-1.11,3.46-.28,3.46,1.83v28.18a7.49,7.49,0,0,1-3.46,5.82L309.1,221.18c-1.91,1.1-3.45.28-3.45-1.84v-9.19l-4.42-2.35,4.42-7.45v-9.18a7.48,7.48,0,0,1,3.45-5.83L341,166.94"/><path class="cls-30" d="M355.39,172l-40,23c-1.06.62-1.92,0-1.92-1.45h0a4.59,4.59,0,0,1,1.92-3.66l40-23c1.06-.61,1.92,0,1.92,1.45h0A4.59,4.59,0,0,1,355.39,172Z"/><path class="cls-30" d="M355.59,181.09,314.22,204.9c-.4.23-.72,0-.72-.55h0a1.75,1.75,0,0,1,.72-1.39l41.37-23.81c.4-.23.72,0,.72.55h0A1.76,1.76,0,0,1,355.59,181.09Z"/><path class="cls-30" d="M342.54,194.22l-28.32,16.29c-.4.23-.72,0-.72-.55h0a1.73,1.73,0,0,1,.72-1.39l28.32-16.29c.4-.23.73,0,.73.55h0A1.74,1.74,0,0,1,342.54,194.22Z"/><path class="cls-80" d="M395,139.63v28.18a7.49,7.49,0,0,1-3.46,5.82l-27.77,16V153.83l27.77-16C393.47,136.69,395,137.52,395,139.63Z"/><path class="cls-4" d="M380.45,167.05,377.13,169c-.73.42-1.22.29-1.43-.4-.7-2.43-1.39-4.86-2.09-7.28-.14-.47-.27-.93-.4-1.4s-.37-.81-.79-.86a1.41,1.41,0,0,0-.78.14c-.46.22-.93.53-1.39.79s-.79,0-.62-.57a1.25,1.25,0,0,1,.55-.75c.54-.32,1.09-.67,1.62-.92a1.57,1.57,0,0,1,2.42.85,11.78,11.78,0,0,1,.51,1.68c.07.3.22.32.52.15q5.44-3.17,10.91-6.31a2.9,2.9,0,0,1,.34-.19c.49-.24.78,0,.65.65-.3,1.39-.62,2.79-.93,4.19s-.63,2.84-1,4.27a3.13,3.13,0,0,1-1.49,2.12Z"/><path class="cls-4" d="M383.25,166.93c.78-.45,1.39-.1,1.39.79a3.07,3.07,0,0,1-1.38,2.4.86.86,0,0,1-1.4-.8A3.08,3.08,0,0,1,383.25,166.93Z"/><path class="cls-4" d="M379.08,170.93a3.06,3.06,0,0,1-1.38,2.4c-.76.44-1.39.08-1.39-.8a3,3,0,0,1,1.39-2.39C378.47,169.69,379.08,170,379.08,170.93Z"/><path class="cls-49" d="M399.63,128.67,397,127.58h0a5.28,5.28,0,0,0-4.8.66A15.85,15.85,0,0,0,385,140.66c0,2.15.72,3.69,1.9,4.48h0l.05,0a3.58,3.58,0,0,0,1,.44l1.76.7,1.2-2.05.14-.08a15.85,15.85,0,0,0,7.19-12.41v-.05l.27-.45Z"/><ellipse class="cls-47" cx="394.32" cy="137.31" rx="10.14" ry="5.86" transform="matrix(0.5, -0.86, 0.86, 0.5, 76.77, 408.42)"/><path class="cls-4" d="M392,141.55l.55-.93c.1-.15.19-.2.27-.16a1.18,1.18,0,0,0,1.33-.09,2.26,2.26,0,0,0,1.13-1.77c0-.79-.51-1-1.48-.41l-.6.35c-.12.06-.2,0-.2-.13v-.77a.39.39,0,0,1,.2-.37l.6-.35a2.36,2.36,0,0,0,1.34-1.89c0-.67-.5-.84-1.05-.53a2.93,2.93,0,0,0-1.08,1.22c-.07.13-.2.22-.29.18l-.52-.27c-.1,0-.08-.18,0-.32a5.48,5.48,0,0,1,2-2.25c1.25-.72,2.29-.45,2.29.94a4,4,0,0,1-1.1,2.54v.05c.57-.08,1.29.16,1.29,1.25a4.78,4.78,0,0,1-2.47,3.83c-1.33.77-2,.37-2.23.2A.31.31,0,0,1,392,141.55Z"/></g><g id="shopping_cart" data-name="shopping cart"><path class="cls-81" d="M268.57,600.76v41.88a8,8,0,0,1-3.35,6.4l-10.46,6-5.24,10-5.25-4-10.46,6c-1.85,1.07-3.35-.07-3.35-2.53V622.76a8,8,0,0,1,3.35-6.4l31.41-18.13C267.07,597.16,268.57,598.29,268.57,600.76Z"/><path class="cls-82" d="M257.9,594v41.88a8,8,0,0,1-3.36,6.4l-10.45,6-5.25,10-5.24-4-10.46,6c-1.85,1.07-3.35-.07-3.35-2.53V616a8,8,0,0,1,3.35-6.4l31.4-18.13C256.39,590.44,257.9,591.57,257.9,594Z"/><path class="cls-80" d="M269,661.93l-.08.05-5.24,10-5.25-4-10.45,6c-1.85,1.07-3.36-.07-3.36-2.53V629.66a8,8,0,0,1,3.36-6.4l31.4-18.13c1.85-1.07,3.35.06,3.35,2.53v41.88a8,8,0,0,1-3.35,6.4l-6.47,3.74"/><path class="cls-76" d="M273.83,638.79c-.21,1-.42,1.89-.64,2.84a4.5,4.5,0,0,1-2.19,3.13l-4.89,2.83-4.9,2.83c-1.07.61-1.8.42-2.1-.6q-1.55-5.34-3.09-10.72c-.19-.68-.39-1.37-.59-2.05s-.54-1.19-1.15-1.27a2.09,2.09,0,0,0-1.16.21c-.67.31-1.36.78-2.05,1.15s-1.16,0-.91-.84a1.82,1.82,0,0,1,.82-1.09c.8-.47,1.6-1,2.38-1.36,1.81-.83,2.94-.24,3.57,1.25a16.55,16.55,0,0,1,.74,2.47c.11.44.33.47.76.22q8-4.66,16.08-9.29l.5-.28c.72-.35,1.15,0,1,.95-.26,1.19-.52,2.38-.79,3.58m-.58,2.6-.11.51"/><path class="cls-76" d="M270.23,647.41c1.14-.66,2-.14,2,1.16a4.51,4.51,0,0,1-2,3.54c-1.11.64-2.05.11-2.05-1.17A4.54,4.54,0,0,1,270.23,647.41Z"/><path class="cls-76" d="M260.35,654.14a4.46,4.46,0,0,1,1.69-2c1.14-.66,2-.15,2,1.16a4.47,4.47,0,0,1-2,3.53,1.38,1.38,0,0,1-1.55.08"/></g><g id="mail"><polygon class="cls-83" points="577.87 488.01 574.2 485.89 574.2 422.11 577.87 424.23 577.87 488.01"/><polygon class="cls-83" points="577.87 488.01 581.53 485.89 581.53 422.11 577.87 424.23 577.87 488.01"/><path class="cls-84" d="M564.93,396.08l-14.58,8.62,9.15,25.13,6.56,11.91,38.93-23V400.3c0-7-4.25-15.1-9.49-18.12h0c-2.32-1.34-4.44-1.45-6.09-.56h0l-16.29,9.62"/><path class="cls-85" d="M566.06,441.74l-19-10.95V412.36c0-7,4.25-10.19,9.49-7.17h0c5.24,3,9.49,11.14,9.49,18.13Z"/><path class="cls-48" d="M595,376.08,586.37,381h0c0,3.81,2.69,5.34,6,3.42L595,383v30.5l3-1.72V374.36Z"/><path class="cls-85" d="M558.06,445.72l-1.74,1c-6,3.49-15.17,3.87-20.4.85h0c-5.23-3-4.57-8.29,1.46-11.78l9.63-5.6L566,441.13l-2.66,1.55"/><g class="cls-86"><path class="cls-87" d="M544.43,440.56l22.49-13a4.81,4.81,0,0,0,2-3.83V407.9c0-1.48-.9-2.16-2-1.52l-22.49,13a4.8,4.8,0,0,0-2,3.83v15.86C542.43,440.52,543.32,441.2,544.43,440.56Z"/><path class="cls-4" d="M555.68,426.05a.67.67,0,0,1-.24,0l-10-3.54a.7.7,0,0,1,.47-1.32l9.52,3.36,10.59-16a.69.69,0,0,1,1-.19.7.7,0,0,1,.2,1l-10.89,16.41A.69.69,0,0,1,555.68,426.05Z"/><line class="cls-4" x1="566.79" y1="424.94" x2="560.86" y2="421.56"/><path class="cls-4" d="M566.79,425.64a.73.73,0,0,1-.35-.09l-5.93-3.38a.69.69,0,0,1-.26-.95.68.68,0,0,1,1-.26l5.93,3.38a.68.68,0,0,1,.26,1A.67.67,0,0,1,566.79,425.64Z"/><line class="cls-4" x1="544.75" y1="437.25" x2="550.72" y2="426.96"/><path class="cls-4" d="M544.75,438a.73.73,0,0,1-.35-.09.7.7,0,0,1-.25-1l6-10.29a.7.7,0,1,1,1.22.7l-6,10.29A.7.7,0,0,1,544.75,438Z"/><path class="cls-88" d="M537.89,421.21a.7.7,0,0,0-.95-.25l-12.05,7a.7.7,0,0,0-.26,1,.72.72,0,0,0,.61.35.73.73,0,0,0,.35-.09l12-7A.71.71,0,0,0,537.89,421.21Z"/><path class="cls-89" d="M536.94,425.32l-7,4a.7.7,0,0,0-.26,1,.72.72,0,0,0,.61.35.73.73,0,0,0,.35-.09l7-4a.7.7,0,0,0-.7-1.21Z"/><path class="cls-90" d="M536.94,429.68l-2.45,1.41a.7.7,0,0,0,.35,1.31.73.73,0,0,0,.35-.09l2.45-1.41a.71.71,0,0,0,.25-1A.69.69,0,0,0,536.94,429.68Z"/><path class="cls-1" d="M547.08,412.36c0-7,4.25-10.19,9.49-7.17h0c5.24,3,9.49,11.14,9.49,18.13v18.42"/></g></g><g id="magnifying_glass" data-name="magnifying glass"><path class="cls-64" d="M155.88,579.78H151.6a17.63,17.63,0,0,0-2-1.36c-8.39-4.85-22-4.87-30.3-.06a17.23,17.23,0,0,0-2.11,1.42H113v7.36h0c0,3.15,2.14,6.3,6.32,8.72,8.4,4.84,22,4.87,30.31,0,4.18-2.41,6.26-5.59,6.22-8.77h0Z"/><ellipse class="cls-68" cx="134.46" cy="579.78" rx="12.37" ry="21.43" transform="translate(-446.04 711.09) rotate(-89.69)"/><ellipse class="cls-84" cx="134.46" cy="579.78" rx="9.36" ry="16.21" transform="translate(-446.04 711.09) rotate(-89.69)"/><path class="cls-4" d="M142.5,585.54a.7.7,0,0,1-.32-1.32l.44-.24c2-1.13,3.06-2.6,3.11-4.13a.7.7,0,0,1,1.4,0c-.06,2-1.42,3.91-3.81,5.29a4.82,4.82,0,0,1-.5.27A.61.61,0,0,1,142.5,585.54Z"/><path class="cls-4" d="M123.7,577.46a.68.68,0,0,1-.44-.16.7.7,0,0,1-.1-1,8.85,8.85,0,0,1,2.55-2.1,17.92,17.92,0,0,1,9.07-2.1.7.7,0,0,1,.69.71.68.68,0,0,1-.71.69,16.58,16.58,0,0,0-8.35,1.91,7.65,7.65,0,0,0-2.16,1.77A.71.71,0,0,1,123.7,577.46Z"/><path class="cls-4" d="M122.61,580h-.06a.7.7,0,0,1-.64-.76,5.6,5.6,0,0,1,.26-1.2.7.7,0,0,1,.9-.42.7.7,0,0,1,.42.89,3.23,3.23,0,0,0-.18.85A.7.7,0,0,1,122.61,580Z"/><path class="cls-64" d="M152.38,589.5h0l-.08,0h0a2,2,0,0,0-1.89.21,6,6,0,0,0-2.73,4.72,1.9,1.9,0,0,0,.81,1.77h0l18.73,10.92,3.86-6.68Z"/><ellipse class="cls-68" cx="169.06" cy="603.69" rx="3.86" ry="2.23" transform="translate(-437.43 444.96) rotate(-59.69)"/></g><g id="tree"><ellipse class="cls-10" cx="694.18" cy="426.97" rx="6.08" ry="10.54" transform="translate(263.45 1118.82) rotate(-89.69)"/><rect class="cls-91" x="691.48" y="399.03" width="4.97" height="28.81" rx="0.94" ry="0.94"/><path class="cls-92" d="M708,392.44a15.14,15.14,0,0,1-26.09,10.48,15,15,0,0,1-4.23-10.48,15.16,15.16,0,1,1,30.32,0Z"/><path class="cls-80" d="M707.11,387.31a19.29,19.29,0,0,1-25.2,15.61,15,15,0,0,1-4.23-10.48,15.16,15.16,0,0,1,29.43-5.13Z"/><ellipse class="cls-4" cx="683.15" cy="389.07" rx="4.14" ry="2.48" transform="translate(72.72 884.49) rotate(-68.73)"/></g><g id="trees"><ellipse class="cls-10" cx="34.8" cy="443.69" rx="6.08" ry="10.54" transform="translate(-409.07 476.08) rotate(-89.69)"/><rect class="cls-91" x="32.11" y="415.74" width="4.97" height="28.81" rx="0.94" ry="0.94"/><path class="cls-92" d="M48.63,409.15a15.14,15.14,0,0,1-26.09,10.48,15,15,0,0,1-4.23-10.48,15.16,15.16,0,0,1,30.32,0Z"/><path class="cls-80" d="M47.73,404a19.25,19.25,0,0,1-25.19,15.61,15,15,0,0,1-4.23-10.48A15.16,15.16,0,0,1,47.73,404Z"/><ellipse class="cls-4" cx="23.78" cy="405.78" rx="4.14" ry="2.48" transform="translate(-362.98 280.7) rotate(-68.73)"/><ellipse class="cls-10" cx="16.5" cy="450.86" rx="4.85" ry="8.39" transform="translate(-434.45 464.91) rotate(-89.69)"/><rect class="cls-91" x="14.35" y="428.6" width="3.96" height="22.95" rx="0.94" ry="0.94"/><path class="cls-92" d="M27.51,423.35A12.06,12.06,0,0,1,6.73,431.7a11.91,11.91,0,0,1-3.37-8.35,12.08,12.08,0,1,1,24.15,0Z"/><path class="cls-80" d="M26.8,419.26A15.36,15.36,0,0,1,6.73,431.7a11.91,11.91,0,0,1-3.37-8.35,12.08,12.08,0,0,1,23.44-4.09Z"/><ellipse class="cls-4" cx="7.71" cy="420.66" rx="3.3" ry="1.98" transform="translate(-387.08 275.21) rotate(-68.73)"/></g><g id="coins"><path class="cls-93" d="M649.07,457.9c2.83-1.8,4.23-4.06,4.23-6.26l0,0-.23-4.11H651.5a10.84,10.84,0,0,0-3-2.16c-6.14-3.17-16-2.67-21.94,1.11a11.89,11.89,0,0,0-2.2,1.77,2.87,2.87,0,0,1-.6,0c-.26-.12-1.69.59-1.69.59l.2,4h0l0,.37c.17,2.22,1.78,4.34,4.81,5.86,6.22,3.11,16.09,2.61,21.93-1.12"/><path class="cls-94" d="M627.14,455l.07-.15a24.19,24.19,0,0,0,21.47-1.09,8.82,8.82,0,0,0,3.81-4.35,5.17,5.17,0,0,0-.6-4.56,9.36,9.36,0,0,0-3.73-3.17,21.68,21.68,0,0,0-10.81-2,22.44,22.44,0,0,0-10.65,3.09,9,9,0,0,0-3.86,4.37,5.08,5.08,0,0,0,.57,4.54,9.35,9.35,0,0,0,3.8,3.18l-.07.15-.08.15a9.65,9.65,0,0,1-3.94-3.3,5.41,5.41,0,0,1-.6-4.83,9.31,9.31,0,0,1,4-4.54,22.66,22.66,0,0,1,10.83-3.15,22,22,0,0,1,11,2.05,9.83,9.83,0,0,1,3.86,3.28,5.51,5.51,0,0,1,.63,4.86,9.11,9.11,0,0,1-3.95,4.53,24.51,24.51,0,0,1-21.8,1.1l.08-.15"/><path class="cls-95" d="M626.93,454.82c6.22,3.12,16.09,2.62,21.93-1.11s5.6-9.38-.54-12.55-16-2.67-21.93,1.11-5.68,9.43.54,12.55"/><path class="cls-96" d="M642.65,448.71l0,0c1.59-1,1.54-2.2.12-3.1l.69-.44c.35-.22.38-.54.06-.71l-.06,0a1.38,1.38,0,0,0-1.21.11l-.75.48a9.94,9.94,0,0,0-3.41-.52,1.85,1.85,0,0,0-.91.24c-.43.28-.44.65-.05.85a1.25,1.25,0,0,0,.58.13,6.73,6.73,0,0,1,3.29.61c.92.48,1,1.08.33,1.52l0,0c-.66.42-1.35.46-3.3-.09-2.27-.63-3.85-.78-5.55.3l0,0c-1.41.9-1.48,2.05-.29,2.9l-1,.63c-.35.22-.39.53-.07.7l.06,0a1.34,1.34,0,0,0,1.22-.11l1-.63a8.59,8.59,0,0,0,2.79.51,1.68,1.68,0,0,0,1-.24c.41-.27.43-.64,0-.84a1,1,0,0,0-.5-.12,6.34,6.34,0,0,1-2.62-.56c-.86-.45-.89-1-.28-1.41l0,0c.71-.46,1.41-.45,3.46.12,2.24.62,3.85.64,5.38-.33"/><path class="cls-93" d="M642.75,448.24l0,0c1.59-1,1.54-2.2.12-3.1l.69-.44c.36-.22.38-.54.06-.71l-.06,0a1.38,1.38,0,0,0-1.21.11l-.74.48a10,10,0,0,0-3.42-.52,1.78,1.78,0,0,0-.9.24c-.43.28-.45.65-.06.85a1.16,1.16,0,0,0,.58.13,6.75,6.75,0,0,1,3.3.61c.91.48,1,1.08.33,1.52l0,0c-.65.42-1.35.46-3.3-.09-2.26-.63-3.85-.78-5.55.3l0,0c-1.4.9-1.47,2.05-.29,2.9l-1,.63c-.35.22-.38.53-.06.7l.06,0a1.32,1.32,0,0,0,1.21-.11l1-.63a8.64,8.64,0,0,0,2.79.51,1.68,1.68,0,0,0,1-.24c.42-.27.44-.64,0-.84a1,1,0,0,0-.5-.12,6.35,6.35,0,0,1-2.63-.56c-.86-.45-.88-1-.28-1.41l0,0c.71-.46,1.41-.45,3.46.12,2.24.62,3.86.64,5.38-.33"/><path class="cls-93" d="M658,454.87c2.83-1.8,4.23-4.06,4.23-6.26l0,0-.23-4.11h-1.59a11,11,0,0,0-3-2.16c-6.14-3.17-16-2.67-21.94,1.11a12.32,12.32,0,0,0-2.21,1.77,3,3,0,0,1-.6,0c-.26-.12-1.68.59-1.68.59l.2,4h0l0,.38c.17,2.21,1.78,4.33,4.81,5.85,6.22,3.12,16.09,2.61,21.93-1.12"/><path class="cls-94" d="M636.09,452l.07-.15a24.2,24.2,0,0,0,21.47-1.09,8.82,8.82,0,0,0,3.81-4.35,5.17,5.17,0,0,0-.6-4.56,9.43,9.43,0,0,0-3.73-3.17,21.68,21.68,0,0,0-10.81-2,22.26,22.26,0,0,0-10.65,3.1,8.91,8.91,0,0,0-3.86,4.36,5,5,0,0,0,.57,4.54,9.35,9.35,0,0,0,3.8,3.18l-.07.15-.08.16a9.74,9.74,0,0,1-3.94-3.31,5.41,5.41,0,0,1-.6-4.83,9.26,9.26,0,0,1,4-4.54,22.65,22.65,0,0,1,10.82-3.15,22,22,0,0,1,11,2.05,9.77,9.77,0,0,1,3.86,3.29,5.49,5.49,0,0,1,.63,4.85,9.11,9.11,0,0,1-4,4.53,24.56,24.56,0,0,1-21.8,1.11l.08-.16"/><path class="cls-95" d="M635.88,451.8c6.22,3.12,16.09,2.62,21.93-1.12s5.6-9.37-.54-12.55-16-2.67-21.93,1.11-5.69,9.43.54,12.56"/><path class="cls-96" d="M651.6,445.68l0,0c1.59-1,1.54-2.2.12-3.1l.69-.44c.35-.22.38-.54.06-.71l-.06,0a1.38,1.38,0,0,0-1.21.11l-.75.48a10.18,10.18,0,0,0-3.41-.52,1.71,1.71,0,0,0-.91.25c-.43.27-.45.64-.06.84a1.17,1.17,0,0,0,.59.13,6.62,6.62,0,0,1,3.29.62c.91.47,1,1.07.33,1.51l0,0c-.66.42-1.35.46-3.31-.09-2.26-.63-3.84-.78-5.54.31h0c-1.41.9-1.48,2.05-.3,2.9l-1,.63c-.35.22-.39.53-.07.7l.06,0a1.34,1.34,0,0,0,1.22-.11l1-.63a8.59,8.59,0,0,0,2.79.51,1.68,1.68,0,0,0,1-.24c.41-.27.43-.64,0-.84a1.05,1.05,0,0,0-.5-.12,6.34,6.34,0,0,1-2.62-.56c-.86-.45-.89-1-.29-1.41l0,0c.71-.46,1.41-.45,3.46.12,2.24.62,3.85.64,5.38-.33"/><path class="cls-93" d="M651.7,445.21l0,0c1.59-1,1.54-2.2.12-3.1l.69-.44c.35-.22.38-.54.06-.71l-.06,0a1.38,1.38,0,0,0-1.21.11l-.74.48a10.29,10.29,0,0,0-3.42-.52,1.76,1.76,0,0,0-.91.25c-.42.27-.44.64,0,.84a1.14,1.14,0,0,0,.58.13,6.64,6.64,0,0,1,3.3.62c.91.47,1,1.07.32,1.51l0,0c-.66.42-1.35.46-3.3-.09-2.27-.63-3.85-.78-5.55.31h0c-1.4.9-1.47,2.05-.29,2.9l-1,.63c-.35.22-.39.53-.07.7l.06,0a1.36,1.36,0,0,0,1.22-.1l1-.63a8.86,8.86,0,0,0,2.79.5,1.68,1.68,0,0,0,1-.24c.42-.27.44-.64,0-.84a1.05,1.05,0,0,0-.5-.12,6.34,6.34,0,0,1-2.62-.56c-.86-.45-.89-1-.28-1.41l0,0c.71-.46,1.41-.45,3.46.12,2.24.62,3.85.64,5.38-.33"/><path class="cls-93" d="M645.06,447.8c2.83-1.8,4.23-4.06,4.22-6.26l0,0-.23-4.11h-1.59a11,11,0,0,0-3-2.15c-6.14-3.17-16-2.67-21.94,1.11a12.24,12.24,0,0,0-2.2,1.77,2.91,2.91,0,0,1-.6,0c-.26-.12-1.69.59-1.69.59l.2,4h0l0,.37c.17,2.22,1.79,4.34,4.81,5.85,6.23,3.12,16.1,2.62,21.94-1.11"/><path class="cls-94" d="M623.12,444.91l.08-.15a24.2,24.2,0,0,0,21.47-1.09,8.75,8.75,0,0,0,3.8-4.35,5.13,5.13,0,0,0-.59-4.56,9.5,9.5,0,0,0-3.73-3.17,21.7,21.7,0,0,0-10.81-2,22.44,22.44,0,0,0-10.66,3.09,9,9,0,0,0-3.85,4.37,5.08,5.08,0,0,0,.56,4.54,9.38,9.38,0,0,0,3.81,3.18l-.08.15-.07.15a9.65,9.65,0,0,1-3.94-3.3,5.41,5.41,0,0,1-.61-4.83,9.29,9.29,0,0,1,4-4.54,22.59,22.59,0,0,1,10.82-3.15,22.07,22.07,0,0,1,11,2,9.79,9.79,0,0,1,3.86,3.29,5.48,5.48,0,0,1,.63,4.86,9,9,0,0,1-3.94,4.53,24.51,24.51,0,0,1-21.8,1.1l.07-.15"/><path class="cls-95" d="M622.91,444.72c6.22,3.12,16.1,2.62,21.94-1.11s5.6-9.38-.54-12.55-16-2.67-21.94,1.11-5.68,9.43.54,12.55"/><path class="cls-96" d="M638.63,438.61l0,0c1.59-1,1.54-2.2.12-3.1l.7-.44c.35-.22.37-.54,0-.71l-.06,0a1.38,1.38,0,0,0-1.21.11l-.74.48a10,10,0,0,0-3.42-.52,1.78,1.78,0,0,0-.9.24c-.43.28-.45.65-.06.85a1.28,1.28,0,0,0,.58.13,6.75,6.75,0,0,1,3.3.61c.91.48,1,1.08.33,1.52h0c-.65.42-1.34.47-3.3-.09-2.26-.62-3.84-.77-5.55.31l0,0c-1.4.89-1.47,2-.29,2.89l-1,.63c-.35.23-.38.54-.06.71l.06,0a1.35,1.35,0,0,0,1.21-.11l1-.63a8.64,8.64,0,0,0,2.79.51,1.68,1.68,0,0,0,1-.24c.42-.27.44-.64,0-.84a1,1,0,0,0-.5-.12,6.22,6.22,0,0,1-2.63-.57c-.86-.44-.88-1-.28-1.4l0,0c.72-.46,1.41-.45,3.46.12,2.24.62,3.86.64,5.38-.33"/><path class="cls-93" d="M638.74,438.14l0,0c1.59-1,1.54-2.2.12-3.1l.69-.44c.35-.22.38-.54.06-.71l-.06,0a1.38,1.38,0,0,0-1.21.11l-.75.48a9.94,9.94,0,0,0-3.41-.52,1.7,1.7,0,0,0-.91.24c-.43.28-.45.65-.06.85a1.29,1.29,0,0,0,.59.13,6.73,6.73,0,0,1,3.29.61c.91.48,1,1.08.33,1.52h0c-.66.42-1.35.47-3.31-.09-2.26-.62-3.84-.77-5.54.31l0,0c-1.41.89-1.48,2.05-.3,2.89l-1,.63c-.35.23-.39.54-.07.71l.06,0a1.37,1.37,0,0,0,1.22-.11l1-.63a8.7,8.7,0,0,0,2.8.51,1.68,1.68,0,0,0,1-.24c.41-.27.43-.64,0-.84a1,1,0,0,0-.5-.12,6.17,6.17,0,0,1-2.62-.57c-.86-.44-.89-1-.29-1.4l0,0c.71-.46,1.41-.45,3.46.12,2.24.62,3.85.64,5.38-.33"/></g><g id="pos"><path class="cls-97" d="M479.5,550.75,454,536l1.37-.79c1.63-.94,1.81-2.37.39-3.19L441,523.52a6.14,6.14,0,0,0-5.52.23l-27.66,16a2.26,2.26,0,0,0-1.35,1.79h0v7.42h0a1.65,1.65,0,0,0,1,1.34l14.75,8.51a6.13,6.13,0,0,0,5.52-.22l1.36-.79,25.54,14.74a7.53,7.53,0,0,0,6.76-.28L479,562a2.68,2.68,0,0,0,1.65-2.33v-7.15A2,2,0,0,0,479.5,550.75Z"/><path class="cls-98" d="M442.47,558.16l12.11,7a7.47,7.47,0,0,0,6.76-.28L479,554.66c2-1.16,2.22-2.91.48-3.91L454,536l1.37-.79c1.63-.94,1.81-2.37.39-3.19L441,523.52a6.14,6.14,0,0,0-5.52.23l-27.66,16c-1.64.94-1.82,2.37-.4,3.19l14.75,8.51a6.11,6.11,0,0,0,5.52-.23l1.36-.79,8,4.6"/><path class="cls-64" d="M449.85,534.07,425.67,548a2.07,2.07,0,0,1-1.87.08L415,543c-.48-.28-.42-.76.14-1.08L439.28,528a2.07,2.07,0,0,1,1.87-.08L450,533C450.46,533.26,450.4,533.75,449.85,534.07Z"/><text class="cls-99" transform="matrix(0.87, -0.5, 0.87, 0.5, 429.94, 546.05)">****</text><path class="cls-100" d="M443.05,549.32l-2.64,1.52a1.85,1.85,0,0,1-1.68.07l-2.9-1.68c-.43-.24-.38-.68.12-1l2.64-1.53a1.9,1.9,0,0,1,1.67-.07l2.91,1.68C443.6,548.6,443.55,549,443.05,549.32Z"/><path class="cls-100" d="M448.87,546l-2.64,1.52a1.83,1.83,0,0,1-1.67.07l-2.91-1.68c-.43-.25-.38-.68.12-1l2.64-1.53a1.86,1.86,0,0,1,1.67-.07L449,545C449.42,545.24,449.37,545.67,448.87,546Z"/><path class="cls-100" d="M454.69,542.6l-2.64,1.52a1.83,1.83,0,0,1-1.67.07l-2.91-1.68c-.43-.25-.37-.68.12-1l2.64-1.52a1.85,1.85,0,0,1,1.68-.07l2.9,1.68C455.24,541.88,455.19,542.31,454.69,542.6Z"/><path class="cls-100" d="M449.2,552.87l-2.64,1.53a1.9,1.9,0,0,1-1.67.07L442,552.79c-.43-.25-.37-.68.12-1l2.64-1.52a1.85,1.85,0,0,1,1.68-.07l2.9,1.68C449.75,552.15,449.7,552.59,449.2,552.87Z"/><path class="cls-100" d="M455,549.51,452.39,551a1.88,1.88,0,0,1-1.68.06l-2.91-1.67c-.43-.25-.37-.68.12-1l2.64-1.52a1.85,1.85,0,0,1,1.68-.07l2.91,1.67C455.58,548.79,455.52,549.23,455,549.51Z"/><path class="cls-100" d="M460.85,546.15l-2.64,1.52a1.85,1.85,0,0,1-1.68.07l-2.9-1.68c-.43-.24-.38-.68.12-1l2.64-1.53a1.9,1.9,0,0,1,1.67-.07l2.91,1.68C461.4,545.43,461.34,545.86,460.85,546.15Z"/><path class="cls-100" d="M455.15,556.31l-2.64,1.52a1.83,1.83,0,0,1-1.67.07l-2.91-1.68c-.43-.25-.37-.68.12-1l2.64-1.53a1.89,1.89,0,0,1,1.68-.07l2.9,1.68C455.7,555.59,455.65,556,455.15,556.31Z"/><path class="cls-100" d="M461,553l-2.64,1.52a1.85,1.85,0,0,1-1.68.07l-2.91-1.68c-.43-.25-.37-.68.12-1l2.64-1.52a1.85,1.85,0,0,1,1.68-.07L461.1,552C461.53,552.23,461.47,552.66,461,553Z"/><path class="cls-100" d="M466.8,549.59l-2.64,1.52a1.85,1.85,0,0,1-1.68.07l-2.9-1.68c-.43-.25-.38-.68.12-1l2.63-1.52a1.85,1.85,0,0,1,1.68-.07l2.91,1.68C467.35,548.87,467.29,549.3,466.8,549.59Z"/><path class="cls-101" d="M461,559.67l-2.64,1.52a1.85,1.85,0,0,1-1.68.07l-2.91-1.68c-.43-.24-.37-.68.12-1l2.64-1.53a1.92,1.92,0,0,1,1.68-.07l2.91,1.68C461.53,559,461.47,559.38,461,559.67Z"/><path class="cls-100" d="M466.8,556.31l-2.64,1.52a1.85,1.85,0,0,1-1.68.07l-2.9-1.68c-.43-.24-.38-.68.12-1l2.64-1.53a1.86,1.86,0,0,1,1.67-.07l2.91,1.68C467.35,555.59,467.29,556,466.8,556.31Z"/><path class="cls-102" d="M472.62,553,470,554.47a1.83,1.83,0,0,1-1.67.07l-2.91-1.68c-.43-.25-.38-.68.12-1l2.64-1.52a1.83,1.83,0,0,1,1.67-.07l2.91,1.68C473.17,552.23,473.12,552.66,472.62,553Z"/><path class="cls-64" d="M434.31,528.69l-17.95,10.36a1.07,1.07,0,0,1-1,0l-.07,0c-.25-.14-.22-.39.07-.56l17.95-10.37a1.13,1.13,0,0,1,1,0l.07,0C434.63,528.27,434.6,528.52,434.31,528.69Z"/><path class="cls-10" d="M433.33,528.82l-16.45,9.5c2.59-9.18-2.39-16.53-8.8-19.14l16-8.44C429.8,512.81,434.58,519.92,433.33,528.82Z"/><line class="cls-103" x1="422.56" y1="514.38" x2="413.57" y2="519.12"/><line class="cls-103" x1="426.19" y1="515.47" x2="415.65" y2="521.02"/><line class="cls-103" x1="422.17" y1="520.77" x2="417.36" y2="523.3"/><line class="cls-103" x1="427.48" y1="521.32" x2="418.66" y2="525.97"/><line class="cls-103" x1="428.89" y1="523.92" x2="419.42" y2="528.9"/><line class="cls-103" x1="426.26" y1="528.83" x2="419.59" y2="532.34"/></g><g id="wallet"><path class="cls-104" d="M539.4,496.6l-4.63,2.68h0l4.64-2.68v-1.09h0s1.34-.81,2.19-.38l-29-16.71a1.66,1.66,0,0,0-.87-.22,3,3,0,0,0-1.47.44h0l-33,19a2.76,2.76,0,0,0-1.16,1.1,1.52,1.52,0,0,0-.18.73h0v1.22h0a1.66,1.66,0,0,0,.94,1.33l2.05,1.19h0l-1.64,1a2.76,2.76,0,0,0-1.16,1.1,1.35,1.35,0,0,0-.2.73,1.63,1.63,0,0,0,1,1.37l24,13.84a6.18,6.18,0,0,0,5.54-.24l32.66-18.84h0a2,2,0,0,0,.29-.15,5.13,5.13,0,0,0,2.35-4C541.74,496.46,540.69,495.86,539.4,496.6Z"/><path class="cls-105" d="M542.69,497a1.1,1.1,0,0,0,0-.18,2,2,0,0,0,0-.26.16.16,0,0,0,0-.09.79.79,0,0,0-.08-.26l0-.09a2.15,2.15,0,0,0-.14-.26s0,0,0,0a1.77,1.77,0,0,0-.55-.54h0l0,0-29.1-16.79a1.66,1.66,0,0,0-.87-.22,3,3,0,0,0-1.47.44h0l-33,19a3.15,3.15,0,0,0-1,.86,1.2,1.2,0,0,0-.15.24,1.35,1.35,0,0,0-.2.73h0v1.22h0a1.66,1.66,0,0,0,.94,1.33l2,1.18,21.92,12.66a6.18,6.18,0,0,0,5.54-.24L534,499.72l.74-.43h0l4.63-2.69a1.71,1.71,0,0,1,1.52-.22.09.09,0,0,1,.07,0,1.57,1.57,0,0,1,.75,1.53,5.16,5.16,0,0,1-2.34,4v0l-.3.17L537,503.37,506.44,521a6.18,6.18,0,0,1-5.54.24l-24-13.84a1.63,1.63,0,0,1-1-1.37h0v1.23h0a1.65,1.65,0,0,0,.94,1.32l24,13.84a6.15,6.15,0,0,0,5.54-.24l32.93-19,0,0a7.43,7.43,0,0,0,3.32-5.77A2.6,2.6,0,0,0,542.69,497Z"/><path class="cls-106" d="M542.91,508.11l-27.4,10.57a4.27,4.27,0,0,1-3.78-.76l-12.62-10.25c-1-.83-1-1.83.08-2.25l27.4-10.56a4.29,4.29,0,0,1,3.79.76L543,505.86C544,506.69,544,507.7,542.91,508.11Z"/><path class="cls-65" d="M514.13,510.26l-3.73,1.44a1.05,1.05,0,0,1-.94-.19h0c-.26-.21-.25-.46,0-.56l3.74-1.44a1.06,1.06,0,0,1,.94.19h0C514.41,509.9,514.4,510.15,514.13,510.26Z"/><path class="cls-65" d="M520,508l-3.74,1.44a1.06,1.06,0,0,1-.94-.18h0c-.25-.21-.24-.46,0-.56l3.74-1.44a1,1,0,0,1,.94.18h0C520.25,507.65,520.24,507.9,520,508Z"/><path class="cls-65" d="M525.82,505.75l-3.73,1.44a1.05,1.05,0,0,1-.94-.19h0c-.26-.2-.25-.45,0-.56l3.74-1.44a1.07,1.07,0,0,1,.93.19h0C526.1,505.4,526.09,505.65,525.82,505.75Z"/><path class="cls-65" d="M531.67,503.5l-3.74,1.44a1.1,1.1,0,0,1-.94-.19h0c-.25-.21-.24-.46,0-.56l3.74-1.44a1.05,1.05,0,0,1,.94.19h0C531.94,503.14,531.93,503.39,531.67,503.5Z"/><path class="cls-65" d="M526,509.62l-12.41,4.78a.61.61,0,0,1-.53-.1h0c-.14-.12-.14-.26,0-.32l12.41-4.78a.61.61,0,0,1,.53.1h0C526.1,509.42,526.1,509.56,526,509.62Z"/><path class="cls-4" d="M517.38,502.66,505,507.44a.59.59,0,0,1-.52-.1h0c-.14-.12-.14-.26,0-.32l12.41-4.78a.61.61,0,0,1,.53.1h0C517.53,502.46,517.53,502.6,517.38,502.66Z"/><path class="cls-4" d="M522.84,500.55l-4.35,1.68a.58.58,0,0,1-.53-.11h0c-.14-.11-.14-.25,0-.31l4.35-1.68a.61.61,0,0,1,.53.11h0C523,500.35,523,500.49,522.84,500.55Z"/><ellipse class="cls-14" cx="535.59" cy="506.77" rx="1.42" ry="2.45" transform="translate(-44.92 961.39) rotate(-81.48)"/><ellipse class="cls-15" cx="537.65" cy="505.97" rx="1.42" ry="2.45" transform="matrix(0.15, -0.99, 0.99, 0.15, -42.37, 962.76)"/><path class="cls-107" d="M539.39,495.44a2.52,2.52,0,0,1,2.19-.33l-28.94-16.7a1.66,1.66,0,0,0-.87-.22,3,3,0,0,0-1.47.44h0l-33,19a2.88,2.88,0,0,0-.34.23l-.22.16a1.7,1.7,0,0,0-.19.19,2.51,2.51,0,0,0-.23.25l0,0a1.2,1.2,0,0,0-.15.24l0,0a1.54,1.54,0,0,0-.08.19c0,.08-.05.16-.06.23a1.35,1.35,0,0,0,0,.18s0,.06,0,.09,0,.07,0,.12a1.42,1.42,0,0,0,0,.2,1.19,1.19,0,0,0,.08.2l.08.18a2.11,2.11,0,0,0,.19.23l.11.12a2.24,2.24,0,0,0,.43.31h0L487.62,507l13.28,7.67a2.32,2.32,0,0,0,.39.18,6.32,6.32,0,0,0,5.15-.4l26.64-15.38Z"/><path class="cls-105" d="M496.41,506.41c-5.38,1.29-10.15,4.81-10.21,7.24a3.8,3.8,0,0,0-.05.46l-4-2.15c-.65-.39-.72-.51-1-.7l-.11-.07c-2.89-2,3-8.5,7.79-9.2a5,5,0,0,1,3.12.14l4.29,2.48C497.09,505.14,497.29,506.19,496.41,506.41Z"/><path class="cls-108" d="M493.05,504a1.12,1.12,0,0,0-.69-1,3.75,3.75,0,0,0-3.3,0,1.09,1.09,0,0,0-.67.9h0v.49h0a1.1,1.1,0,0,0,.68.93,3.78,3.78,0,0,0,3.3,0,1.11,1.11,0,0,0,.68-.94Z"/><ellipse class="cls-4" cx="490.72" cy="503.95" rx="1.3" ry="2.33" transform="translate(-15.7 992.11) rotate(-89.71)"/></g><g id="cloud"><path class="cls-109" d="M439.27,7.27a24.28,24.28,0,0,0-19.58,11.8c-.47,0-.94,0-1.41,0-9.07.44-16,8.48-15.59,18a17.71,17.71,0,0,0,.61,3.82c-6.43.75-11.26,6.86-10.91,14,.37,7.47,6.18,13.26,13,12.93a11.94,11.94,0,0,0,9.31-5.45,13.06,13.06,0,0,0,5,.76,13.88,13.88,0,0,0,11.54-7.69,23.81,23.81,0,0,0,10.43,1.85c13.48-.66,23.86-12.38,23.19-26.18S452.74,6.62,439.27,7.27Z"/><path class="cls-10" d="M451.29,12.19a.62.62,0,0,0-.8.93A21.75,21.75,0,0,1,456.33,27a21.26,21.26,0,0,1-19.94,22.51,20.49,20.49,0,0,1-8.47-1.38.62.62,0,0,0-.76.27,11.86,11.86,0,0,1-9.66,6.14,11,11,0,0,1-3.89-.51.6.6,0,0,0-.69.22,10.22,10.22,0,0,1-7.75,4.32,10.71,10.71,0,0,1-10.34-7.22.27.27,0,0,0-.52.07c-.6,7.63,5.13,14.13,12.1,13.79a11.08,11.08,0,0,0,8.44-4.72.63.63,0,0,1,.7-.23,11.9,11.9,0,0,0,4.27.58,12.91,12.91,0,0,0,10.51-6.71.63.63,0,0,1,.77-.28,22.09,22.09,0,0,0,9.24,1.52c12.59-.61,22.3-11.56,21.67-24.46A23.49,23.49,0,0,0,451.29,12.19Z"/></g><g id="likes"><path class="cls-110" d="M67.21,171.77l2.73-1.58c.17-.09.3,0,.3.18V172a.65.65,0,0,1-.3.52l-6.29,3.63c-.17.1-.29,0-.29-.18v-.14c0-.18,0-.21.2-.62,1-2.13,3.1-6.59,4-8.61a4.58,4.58,0,0,0,.39-1.58c0-.7-.5-1-1.37-.52A4.87,4.87,0,0,0,65,166.27c-.13.21-.32.33-.45.26l-1-.57c-.1,0-.12-.26,0-.46a9,9,0,0,1,3.14-3.59c2.24-1.29,3.57-.41,3.57,1.58a7.23,7.23,0,0,1-.61,2.68c-.49,1.3-1.77,4-2.5,5.56Z"/><path class="cls-110" d="M72.18,169.28l1-1.71c.11-.18.31-.3.41-.25a2,2,0,0,0,1.88-.23,3.18,3.18,0,0,0,1.49-2.58c0-1.1-.61-1.38-1.63-.79l-2.41,1.39c-.32.19-.49-.06-.49-.36v-5.59a.67.67,0,0,1,.29-.5l5.07-2.92c.17-.1.3,0,.3.16v1.59a.67.67,0,0,1-.3.51l-3.24,1.86v1.95l1.12-.65c2.16-1.25,3.58-.49,3.58,1.93a8.2,8.2,0,0,1-3.89,6.48c-1.63.94-2.71.62-3.09.3C72,169.71,72,169.6,72.18,169.28Z"/><ellipse class="cls-111" cx="14.66" cy="168.5" rx="20.67" ry="11.93" transform="translate(-138.2 96.12) rotate(-59.69)"/><ellipse class="cls-112" cx="27.26" cy="175.58" rx="20.67" ry="11.93" transform="matrix(0.5, -0.86, 0.86, 0.5, -138.07, 110.5)"/><path class="cls-110" d="M30.35,200.82h0l.08,0,0,0L33,202.33l.5.29c2.64,1.39,6.22,1.11,10.17-1.17,8.09-4.67,14.66-16,14.66-25.29,0-4.61-1.62-7.86-4.25-9.38,0,0-.13-.07-.19-.11l-2.58-1.49c-2.66-1.58-6.37-1.38-10.48,1-8.09,4.68-14.66,16-14.66,25.3C26.14,196.06,27.75,199.29,30.35,200.82Z"/><path class="cls-113" d="M32.41,180.28l-.12.25A28.65,28.65,0,0,0,29,193.09c0,9.29,6.56,13,14.66,8.36s14.66-16,14.66-25.29-6.56-13-14.66-8.36a31.43,31.43,0,0,0-7.5,6.7A28.27,28.27,0,0,0,32.41,180.28Z"/><path class="cls-110" d="M49.76,178.77a2.93,2.93,0,0,0-1.13.5c-.59.4-1.17.77-1.8,1.18.06-.24.11-.45.15-.64.15-.78.34-1.58.44-2.34s-.38-1.42-1-1.24a1,1,0,0,0-.85,1.15,9.33,9.33,0,0,1-.23,1.52,6.18,6.18,0,0,1-.74,1.81c-.49.85-.93,1.73-1.42,2.58a5,5,0,0,1-.61.76c-.17.2-.37.36-.53.56a1.13,1.13,0,0,0-.19.44,5.1,5.1,0,0,0,0,.77c0,1.48,0,3,0,4.43a1.82,1.82,0,0,0,0,.33c0,.06.09.12.14.09a8.53,8.53,0,0,1,1.56-.7c1-.39,1.91-.79,2.87-1.21a6.14,6.14,0,0,0,1.69-1,4.7,4.7,0,0,0,1.57-2.45c.14-.6.21-1.18.29-1.77.16-1.25.31-2.49.47-3.74C50.44,179.17,50.18,178.71,49.76,178.77Z"/><path class="cls-110" d="M41,184.92c0-.43-.16-.52-.53-.31l-1.69,1a1,1,0,0,0-.51.91c0,2.06,0,4.11,0,6.17,0,.41.16.5.52.3l1.67-1a1,1,0,0,0,.54-1v-6.12Zm-1.39,6.93c-.23.14-.43,0-.43-.25a1,1,0,0,1,.43-.74c.24-.14.44,0,.44.24A1,1,0,0,1,39.62,191.85Z"/></g><g id="shares"><path class="cls-114" d="M140,128.83v-1.55a1.44,1.44,0,0,1,.2-.77l5.07-10.16a.66.66,0,0,1,.22-.23l1.09-.62c.16-.1.29,0,.29.18V123l1.2-.7c.17-.1.29,0,.29.17V124a.66.66,0,0,1-.29.51l-1.2.7v2.19a.66.66,0,0,1-.28.51l-1.6.92c-.14.08-.27,0-.27-.19v-2.19L140.26,129C140.1,129.11,140,129,140,128.83Zm2.36-3.18,2.37-1.37v-3.41h0l-2.34,4.74Z"/><path class="cls-114" d="M149.78,119.93c0-4,1.39-7.11,3.85-8.53s3.87.12,3.87,4.07-1.41,7.12-3.87,8.54S149.78,123.87,149.78,119.93Zm5.42-3.13c0-2.36-.64-3.37-1.57-2.84s-1.55,2.28-1.55,4.64.65,3.39,1.55,2.87S155.2,119.18,155.2,116.8Z"/><path class="cls-114" d="M159.14,114.53c0-4,1.39-7.11,3.85-8.53s3.87.11,3.87,4.07-1.41,7.12-3.87,8.54S159.14,118.47,159.14,114.53Zm5.42-3.13c0-2.36-.65-3.38-1.57-2.84s-1.55,2.28-1.55,4.64.64,3.39,1.55,2.87S164.56,113.78,164.56,111.4Z"/><ellipse class="cls-115" cx="94.36" cy="122.49" rx="19.26" ry="11.12" transform="translate(-59.01 142.14) rotate(-59.69)"/><ellipse class="cls-116" cx="106.1" cy="129.09" rx="19.26" ry="11.12" transform="translate(-58.89 155.54) rotate(-59.69)"/><path class="cls-114" d="M109,152.61h0l.08,0,0,0,2.34,1.34.47.27c2.46,1.29,5.79,1,9.47-1.1,7.54-4.35,13.66-14.9,13.66-23.55,0-4.3-1.51-7.33-4-8.75a1,1,0,0,0-.18-.1l-2.4-1.39c-2.48-1.47-5.93-1.28-9.76.93-7.54,4.36-13.66,14.9-13.66,23.56C105.06,148.17,106.55,151.18,109,152.61Z"/><path class="cls-117" d="M110.9,133.47l-.12.24a26.74,26.74,0,0,0-3.08,11.7c0,8.66,6.12,12.14,13.66,7.79S135,138.29,135,129.63s-6.12-12.14-13.66-7.78a25.36,25.36,0,0,0-7,6.23"/><path class="cls-114" d="M117.91,141.63c-1,2-2.45,2.44-3.09,2s-.75-2,.06-3.36c.7-1.21,2.08-2.22,3-1.47l.22-.26,4-5.08a.72.72,0,0,0,.21-.5,4.23,4.23,0,0,1,.94-2.51,2.58,2.58,0,0,1,2-1.26c.7,0,1.08.52,1.08,1.46a4.12,4.12,0,0,1-1,2.58,2.47,2.47,0,0,1-2.09,1.17,1.74,1.74,0,0,1-.55-.23,1.64,1.64,0,0,0-.16.18l-4.15,5.25c-.21.26-.22.61,0,.63l4.24.48h.08a4.44,4.44,0,0,1,1.17-1.58c1.44-1.23,2.76-.5,2.43,1.35a4.55,4.55,0,0,1-1.61,2.72c-1,.72-1.8.73-2.19,0a4.91,4.91,0,0,1-.2-.93c0-.09-.06-.18-.13-.19-1.41-.16-2.82-.3-4.24-.45Z"/></g><path class="cls-4" d="M69.51,249.27l-1.37.79a4.81,4.81,0,0,0-.55.37,1.28,1.28,0,0,0-.55,1c0,.68,0,1.35,0,2.06l2.28-1.32c0,.38-.06.73-.09,1.09-.06.59-.12,1.19-.16,1.79a.3.3,0,0,1-.19.29l-1.66,1-.21.12v8.62l-3.39,2v-8.62l-1,.56c-.35.2-.35.2-.35-.2v-2.5l1.31-.76v-.25c0-.8,0-1.58,0-2.39a5.77,5.77,0,0,1,.61-2.31,5.67,5.67,0,0,1,1.6-1.95,10.57,10.57,0,0,1,1.17-.8c.77-.47,1.54-.9,2.31-1.34l.16-.08Z"/></g></g></svg>