<svg xmlns="http://www.w3.org/2000/svg" viewBox="0 0 135.87 160.87"><defs><style>.cls-1{fill:#c31718;}</style></defs><title>Fichier 1</title><g id="Calque_2" data-name="Calque 2"><g id="Calque_1-2" data-name="Calque 1"><path class="cls-1" d="M134.05,83.46c2.39,18.24,3.37,42.74-.73,63.55a.91.91,0,0,1-.88.67s-8.58-13.82-67.37-8.21c-36.64,3.51-56.49,13.86-64,21.35-.58.58-1.06.23-.64-.45C7.68,148.78,28.07,128.15,57,109.43c29.75-19.31,72.66-26,76.85-26.38C134,83,134,83.19,134.05,83.46Z" transform="translate(-0.25 -0.25)"/><path class="cls-1" d="M118.25,34c3.33,15.34,6,27.76,5.26,39.26,0,.51-.13.73-.53.88A196.42,196.42,0,0,0,61.23,97.64c-32.46,19.51-45,32.6-51.31,40.66-.4.5-.88.38-.62-.16,5.35-11.33,16.45-40.58,49.4-70.62,32.7-29.8,53.66-33.4,58.39-34.47C117.79,32.89,118.1,33.27,118.25,34Z" transform="translate(-0.25 -0.25)"/><path class="cls-1" d="M89.5.35c1.86,4.28,6,25.68,5,32.17,0,0,0,.08-.08.11A233.49,233.49,0,0,0,61,55.11c-19.69,16-31.78,34-35.58,38.73a.2.2,0,0,1-.34-.2,231,231,0,0,1,30.81-56.8C74.17,12.61,87.71.59,89.3.26A.15.15,0,0,1,89.5.35Z" transform="translate(-0.25 -0.25)"/></g></g></svg>