<svg xmlns="http://www.w3.org/2000/svg" xmlns:xlink="http://www.w3.org/1999/xlink" viewBox="0 0 293.75 299.998">
  <defs>
    <style>
      .cls-1 {
        fill: #214091;
      }

      .cls-1, .cls-9 {
        opacity: 0.1;
      }

      .cls-2 {
        fill: url(#linear-gradient);
      }

      .cls-3 {
        fill: url(#linear-gradient-2);
      }

      .cls-4 {
        fill: #37538a;
      }

      .cls-5 {
        fill: url(#linear-gradient-3);
      }

      .cls-25, .cls-6 {
        fill: #fff;
      }

      .cls-7 {
        fill: url(#linear-gradient-4);
      }

      .cls-8 {
        fill: #d6dced;
      }

      .cls-9 {
        fill: #0c223d;
      }

      .cls-10 {
        fill: #cce2f9;
      }

      .cls-11 {
        fill: url(#linear-gradient-5);
      }

      .cls-12 {
        fill: url(#linear-gradient-6);
      }

      .cls-13 {
        fill: url(#linear-gradient-7);
      }

      .cls-14 {
        fill: #dfe4f1;
      }

      .cls-15 {
        fill: url(#linear-gradient-8);
      }

      .cls-16 {
        fill: url(#linear-gradient-9);
      }

      .cls-17 {
        fill: url(#linear-gradient-10);
      }

      .cls-18 {
        fill: url(#linear-gradient-11);
      }

      .cls-19 {
        fill: url(#linear-gradient-12);
      }

      .cls-20 {
        fill: #fefefc;
      }

      .cls-21 {
        fill: #3b455e;
      }

      .cls-22 {
        fill: url(#linear-gradient-13);
      }

      .cls-23 {
        fill: #40ff93;
      }

      .cls-24 {
        fill: #ff578f;
      }

      .cls-25 {
        opacity: 0.3;
      }

      .cls-26 {
        fill: url(#linear-gradient-14);
      }

      .cls-27 {
        fill: url(#linear-gradient-15);
      }

      .cls-28 {
        fill: #ebf4fd;
      }

      .cls-29 {
        fill: url(#linear-gradient-16);
      }

      .cls-30 {
        fill: url(#linear-gradient-17);
      }

      .cls-31 {
        fill: url(#linear-gradient-18);
      }

      .cls-32 {
        fill: #4b93ef;
      }

      .cls-33 {
        fill: url(#linear-gradient-19);
      }

      .cls-34 {
        fill: url(#linear-gradient-20);
      }

      .cls-35 {
        fill: url(#linear-gradient-21);
      }

      .cls-36 {
        fill: url(#linear-gradient-22);
      }

      .cls-37 {
        fill: url(#linear-gradient-23);
      }

      .cls-38 {
        fill: url(#linear-gradient-24);
      }

      .cls-39 {
        fill: url(#linear-gradient-25);
      }

      .cls-40 {
        fill: url(#linear-gradient-26);
      }

      .cls-41 {
        fill: url(#linear-gradient-27);
      }

      .cls-42 {
        fill: url(#linear-gradient-28);
      }

      .cls-43 {
        fill: url(#linear-gradient-29);
      }
    </style>
    <linearGradient id="linear-gradient" y1="-0.147" x2="1" y2="-0.147" gradientUnits="objectBoundingBox">
      <stop offset="0" stop-color="#c9cfe7"/>
      <stop offset="1" stop-color="#ebf0f6"/>
    </linearGradient>
    <linearGradient id="linear-gradient-2" x1="0" y1="-1.659" x2="1" y2="-1.659" xlink:href="#linear-gradient"/>
    <linearGradient id="linear-gradient-3" x1="0" y1="-0.194" x2="1" y2="-0.194" xlink:href="#linear-gradient"/>
    <linearGradient id="linear-gradient-4" x1="0" y1="-6.916" x2="1" y2="-6.916" xlink:href="#linear-gradient"/>
    <linearGradient id="linear-gradient-5" x1="0.002" y1="-10.307" x2="1.002" y2="-10.307" gradientUnits="objectBoundingBox">
      <stop offset="0" stop-color="#3282ed"/>
      <stop offset="1" stop-color="#60a2f0"/>
    </linearGradient>
    <linearGradient id="linear-gradient-6" x1="0.001" y1="-6.652" x2="1" y2="-6.652" xlink:href="#linear-gradient-5"/>
    <linearGradient id="linear-gradient-7" x1="0.001" y1="-6.157" x2="0.999" y2="-6.157" xlink:href="#linear-gradient-5"/>
    <linearGradient id="linear-gradient-8" x1="0.001" y1="-0.573" x2="0.997" y2="-0.573" xlink:href="#linear-gradient"/>
    <linearGradient id="linear-gradient-9" x1="-0.004" y1="-1.821" x2="1.004" y2="-1.821" xlink:href="#linear-gradient"/>
    <linearGradient id="linear-gradient-10" x1="-0.007" y1="-3.05" x2="1.007" y2="-3.05" xlink:href="#linear-gradient"/>
    <linearGradient id="linear-gradient-11" x1="0" y1="-8.045" x2="1" y2="-8.045" xlink:href="#linear-gradient"/>
    <linearGradient id="linear-gradient-12" y1="-8.083" x2="0.986" y2="-8.083" gradientUnits="objectBoundingBox">
      <stop offset="0" stop-color="#37538a"/>
      <stop offset="0.53" stop-color="#7183ab"/>
      <stop offset="1" stop-color="#37538a"/>
    </linearGradient>
    <linearGradient id="linear-gradient-13" x1="-0.007" y1="-9.8" x2="0.993" y2="-9.8" xlink:href="#linear-gradient-12"/>
    <linearGradient id="linear-gradient-14" x1="0.536" y1="4.123" x2="0.087" y2="4.488" gradientUnits="objectBoundingBox">
      <stop offset="0" stop-color="#6dacef"/>
      <stop offset="1" stop-color="#97c9fe"/>
    </linearGradient>
    <linearGradient id="linear-gradient-15" x1="-0.261" y1="3.676" x2="1.334" y2="4.675" gradientUnits="objectBoundingBox">
      <stop offset="0" stop-color="#7ab4f4"/>
      <stop offset="0.95" stop-color="#daeafa"/>
      <stop offset="1" stop-color="#dfedfa"/>
    </linearGradient>
    <linearGradient id="linear-gradient-16" y1="85.444" x2="1" y2="85.444" gradientUnits="objectBoundingBox">
      <stop offset="0" stop-color="#7ab4f4"/>
      <stop offset="1" stop-color="#dfedfa"/>
    </linearGradient>
    <linearGradient id="linear-gradient-17" x1="-0.116" y1="39.224" x2="1.11" y2="39.224" xlink:href="#linear-gradient-16"/>
    <linearGradient id="linear-gradient-18" x1="199.795" y1="154.431" x2="200.961" y2="154.431" xlink:href="#linear-gradient-5"/>
    <linearGradient id="linear-gradient-19" x1="151.521" y1="127.724" x2="152.688" y2="127.724" xlink:href="#linear-gradient"/>
    <linearGradient id="linear-gradient-20" x1="202.79" y1="174.94" x2="203.953" y2="174.94" xlink:href="#linear-gradient"/>
    <linearGradient id="linear-gradient-21" x1="202.707" y1="174.514" x2="203.87" y2="174.514" xlink:href="#linear-gradient"/>
    <linearGradient id="linear-gradient-22" x1="0.268" y1="-6.216" x2="0.624" y2="-6.243" xlink:href="#linear-gradient-14"/>
    <linearGradient id="linear-gradient-23" x1="0" y1="-6.046" x2="1" y2="-6.046" xlink:href="#linear-gradient-15"/>
    <linearGradient id="linear-gradient-24" y1="-88.45" x2="0.999" y2="-88.45" xlink:href="#linear-gradient-16"/>
    <linearGradient id="linear-gradient-25" x1="-0.365" y1="-83.801" x2="1.368" y2="-83.801" xlink:href="#linear-gradient-16"/>
    <linearGradient id="linear-gradient-26" x1="-238.673" y1="6.269" x2="-237.543" y2="6.269" xlink:href="#linear-gradient-5"/>
    <linearGradient id="linear-gradient-27" x1="-233.683" y1="26.675" x2="-232.556" y2="26.675" xlink:href="#linear-gradient"/>
    <linearGradient id="linear-gradient-28" x1="-266.824" y1="29.975" x2="-265.686" y2="29.975" xlink:href="#linear-gradient"/>
    <linearGradient id="linear-gradient-29" x1="-266.588" y1="29.695" x2="-265.451" y2="29.695" xlink:href="#linear-gradient"/>
  </defs>
  <g id="Groupe_71" data-name="Groupe 71" transform="translate(-798.752 -3250.681)">
    <g id="notebook" transform="translate(477.012 2993)">
      <path id="Tracé_279" data-name="Tracé 279" class="cls-1" d="M497.77,464.63l-62.56,36.12a8,8,0,0,1-7.16-.32L324,440.37c-2.13-1.23-2.38-3.08-.56-4.14L386,400.11a8,8,0,0,1,7.16.33l104,60.06C499.34,461.73,499.59,463.58,497.77,464.63Z"/>
      <path id="Tracé_280" data-name="Tracé 280" class="cls-2" d="M533.86,359.24,503.62,437c-.51,2.5-1.73,3.43-3.86,2.2L395.48,379.14a8.51,8.51,0,0,1-3.85-6.66l28.1-73.93c.3-1.62,2.3-3.86,4.75-2.59l106.94,57.33A5.22,5.22,0,0,1,533.86,359.24Z"/>
      <path id="Tracé_281" data-name="Tracé 281" class="cls-3" d="M323.33,412.81l62.69-32a8,8,0,0,1,7.16.32L494,439.33h5v4.06a2,2,0,0,1-1.21,1.94l-62.56,36.12a8,8,0,0,1-7.16-.33L324,421.07C321.89,419.84,320.79,414.08,323.33,412.81Z"/>
      <path id="Tracé_282" data-name="Tracé 282" class="cls-4" d="M533.17,360.23l-30.25,77.26c-.61,2.46-1.72,3.44-3.86,2.2L395,379.64c-4.12-2.05-4.3-4.27-3.86-6.66l28.47-74.15c.33-1.78,1.73-3.43,3.86-2.2l107.17,57.65A5.34,5.34,0,0,1,533.17,360.23Z"/>
      <path id="Tracé_283" data-name="Tracé 283" class="cls-5" d="M499.41,432.68l30.24-74.09a1.68,1.68,0,0,0-.77-1.33L423.94,300.81c-.43-.25-.77-.05-.77.44l-28.47,71a1.68,1.68,0,0,0,.77,1.33l103.16,59.56C499.06,433.37,499.41,433.17,499.41,432.68Z"/>
      <path id="Tracé_284" data-name="Tracé 284" class="cls-6" d="M497.77,441.09l-62.56,36.12a8,8,0,0,1-7.16-.32L324,416.83c-2.13-1.23-2.38-3.08-.56-4.13L386,376.58c1.83-1.06,5-.91,7.16.32l104,60.06C499.34,438.19,499.59,440,497.77,441.09Z"/>
      <path id="Tracé_285" data-name="Tracé 285" class="cls-7" d="M365.16,433.34l34.29,19.8a3.52,3.52,0,0,0,3.16-.13l15.75-9.1c.94-.54,1-1.35.23-1.82l-34.3-19.8a3.5,3.5,0,0,0-3.15.13l-15.76,9.1C364.45,432.06,364.35,432.87,365.16,433.34Z"/>
      <path id="Tracé_286" data-name="Tracé 286" class="cls-8" d="M362.91,439.27h.65a4.8,4.8,0,0,1,1.91.6l24.19,14c.77.45,1.14,1,1,1.48H390a4.64,4.64,0,0,1-1.91-.6l-24.18-14C363.19,440.3,362.82,439.74,362.91,439.27Z"/>
      <path id="Tracé_287" data-name="Tracé 287" class="cls-4" d="M455.21,455.65l-4.81-2.82a.31.31,0,0,1,0-.59l1.46-.85a1.1,1.1,0,0,1,1,0l4.81,2.82a.31.31,0,0,1,0,.59l-1.46.85a1.1,1.1,0,0,1-1,0Zm5.8-4.43-11.87-7a.31.31,0,0,1,0-.59l4.39-2.55a1.1,1.1,0,0,1,1,0L466.42,448a.32.32,0,0,1,.19.41.3.3,0,0,1-.19.19l-4.4,2.55a1.11,1.11,0,0,1-1,.05Zm6.78-3.93-8.61-5c-.28-.17-.29-.43,0-.59l4.4-2.55a1.1,1.1,0,0,1,1,0l8.62,5c.29.17.29.43,0,.6l-4.41,2.55a1.1,1.1,0,0,1-1,0Zm6.79-3.93-4.47-2.61c-.28-.16-.29-.43,0-.59l4.41-2.55a1.17,1.17,0,0,1,1,0l4.48,2.61a.31.31,0,0,1,0,.59l-4.41,2.56a1.09,1.09,0,0,1-1,0Zm-6.73-3.92-4.46-2.6a.32.32,0,0,1-.19-.41.3.3,0,0,1,.19-.19l4.4-2.55a1.1,1.1,0,0,1,1,0l4.47,2.61a.31.31,0,0,1,0,.59l-4.41,2.55a1.1,1.1,0,0,1-1,0Zm-6.71-3.92-4.46-2.6a.31.31,0,0,1,0-.59l4.39-2.55a1.17,1.17,0,0,1,1,0l4.46,2.6a.31.31,0,0,1,0,.59l-4.39,2.56a1.1,1.1,0,0,1-1,0Zm-6.71-3.91L450,429c-.28-.17-.29-.43,0-.59l4.39-2.56a1.1,1.1,0,0,1,1,0l4.45,2.59c.28.17.28.43,0,.59l-4.39,2.55a1.11,1.11,0,0,1-1.02.03Zm-6.69-3.9-4.44-2.59c-.28-.17-.28-.43,0-.59l4.38-2.55a1.1,1.1,0,0,1,1,0l4.45,2.59a.31.31,0,0,1,0,.59l-4.38,2.55a1.12,1.12,0,0,1-1.01,0Zm-6.68-3.9-4.43-2.59a.31.31,0,0,1,0-.59l4.38-2.55a1.1,1.1,0,0,1,1,0l4.44,2.58c.28.17.28.43,0,.59l-4.38,2.55A1.09,1.09,0,0,1,441.06,423.81Zm-6.67-3.89L430,417.34c-.28-.16-.29-.43,0-.59l4.37-2.55a1.1,1.1,0,0,1,1,0l4.43,2.58c.28.17.28.43,0,.59l-4.38,2.55a1.1,1.1,0,0,1-1,0ZM427.73,416l-4.42-2.57a.31.31,0,0,1,0-.59l4.36-2.55a1.1,1.1,0,0,1,1,0l4.42,2.58c.28.16.29.43,0,.59L428.74,416a1.06,1.06,0,0,1-1.01,0Zm-6.65-3.87-4.4-2.57c-.28-.17-.29-.43,0-.59l4.36-2.55a1.1,1.1,0,0,1,1,0l4.42,2.57c.28.17.28.43,0,.59l-4.36,2.55a1.14,1.14,0,0,1-1,0Zm-5.63-3.87a1.1,1.1,0,0,1-1,0l-4.4-2.57c-.28-.16-.29-.43,0-.59l4.35-2.55a1.1,1.1,0,0,1,1,0l4.4,2.56c.28.17.29.43,0,.59Zm-6.62-3.86a1.1,1.1,0,0,1-1,0l-4.39-2.56a.31.31,0,0,1,0-.59l4.35-2.54a1,1,0,0,1,1,0l4.4,2.56a.31.31,0,0,1,0,.59Zm-6.62-3.86a1.1,1.1,0,0,1-1,0L396.82,398c-.28-.17-.28-.43,0-.59l4.34-2.55a1,1,0,0,1,1,0l4.39,2.55c.28.17.28.43,0,.59Zm-6.6-3.85a1,1,0,0,1-1,0l-4.38-2.55a.31.31,0,0,1,0-.59l4.34-2.54a1.1,1.1,0,0,1,1,0l4.38,2.55c.28.17.28.43,0,.59ZM389,392.87a1.1,1.1,0,0,1-1,0l-6.79-4c-.27-.16-.28-.42,0-.58l4.32-2.54a1,1,0,0,1,1,0l6.79,3.95a.31.31,0,0,1,0,.59Zm92.24,46.59-4.47-2.61c-.28-.16-.29-.43,0-.59l2.37-1.36a1.17,1.17,0,0,1,1,0l4.47,2.61c.29.17.29.43,0,.59l-2.37,1.37a1.09,1.09,0,0,1-1,0Zm-6.73-3.92-4.46-2.6c-.28-.17-.29-.44,0-.6l2.36-1.36a1.1,1.1,0,0,1,1,0l4.47,2.6c.28.16.29.43,0,.59l-2.37,1.36a1.09,1.09,0,0,1-1,0Zm-6.71-3.92-4.46-2.6a.31.31,0,0,1,0-.59l2.35-1.36a1.17,1.17,0,0,1,1,0l4.46,2.6c.28.17.28.43,0,.59l-2.36,1.37a1.1,1.1,0,0,1-1,0Zm-6.71-3.91-4.44-2.59c-.29-.17-.29-.43,0-.59l2.35-1.36a1.1,1.1,0,0,1,1,0l4.45,2.59c.29.17.29.43,0,.59l-2.35,1.36a1.08,1.08,0,0,1-1,0Zm-6.69-3.9-4.4-2.59c-.28-.17-.28-.43,0-.59l2.35-1.36a1.1,1.1,0,0,1,1,0l4.44,2.59a.31.31,0,0,1,0,.59l-2.35,1.36a1.14,1.14,0,0,1-1,0Zm-6.68-3.9-4.43-2.59a.31.31,0,0,1,0-.59l2.34-1.35a1.1,1.1,0,0,1,1,0l4.43,2.58c.29.17.29.43,0,.59l-2.34,1.36a1.06,1.06,0,0,1-1,0ZM441.07,416l-4.43-2.58a.31.31,0,0,1,0-.59l2.33-1.36a1.1,1.1,0,0,1,1,0l4.43,2.58c.28.17.28.43,0,.59L442.08,416A1.12,1.12,0,0,1,441.07,416Zm-6.66-3.89L430,409.56a.31.31,0,0,1,0-.59l2.32-1.36a1.1,1.1,0,0,1,1,0l4.42,2.57a.31.31,0,0,1,0,.59l-2.33,1.36a1.1,1.1,0,0,1-1,0Zm-6.65-3.87-4.41-2.57c-.28-.17-.28-.43,0-.59l2.31-1.36a1.1,1.1,0,0,1,1,0l4.42,2.57c.28.17.28.43,0,.59l-2.32,1.36a1.13,1.13,0,0,1-1,0Zm-5.63-3.87a1.1,1.1,0,0,1-1,0l-4.41-2.57a.31.31,0,0,1,0-.59l2.31-1.35a1.1,1.1,0,0,1,1,0l4.4,2.56c.28.17.28.43,0,.59Zm-6.62-3.87a1,1,0,0,1-1,0l-4.4-2.5a.31.31,0,0,1,0-.59l2.31-1.35a1.1,1.1,0,0,1,1,0l4.4,2.56a.31.31,0,0,1,0,.59Zm-6.62-3.85a1.1,1.1,0,0,1-1,0l-4.39-2.56c-.28-.17-.28-.43,0-.59l2.29-1.35a1,1,0,0,1,1,0l4.39,2.55c.28.17.28.43,0,.59Zm-6.6-3.85a1.1,1.1,0,0,1-1,0l-4.37-2.55a.31.31,0,0,1,0-.59l2.29-1.35a1.1,1.1,0,0,1,1,0l4.39,2.55c.28.17.28.43,0,.59Zm-6.6-3.85a1.1,1.1,0,0,1-1,0l-6.78-4c-.27-.16-.28-.42,0-.58l2.28-1.35a1.1,1.1,0,0,1,1,0l6.81,4a.31.31,0,0,1,0,.59Zm-6.5,6.16c.27.16.28.42,0,.58l-4.33,2.54a1,1,0,0,1-1,0l-9.28-5.42a.31.31,0,0,1-.18-.4.32.32,0,0,1,.18-.18l4.32-2.55a1.1,1.1,0,0,1,1,0ZM385.88,401a.31.31,0,0,1,0,.59l-4.33,2.54a1,1,0,0,1-1,0l-12.63-7.39c-.27-.16-.28-.42,0-.58l4.31-2.54a1.1,1.1,0,0,1,1,0ZM371,400c.27.16.28.42,0,.58l-4.31,2.54a1.1,1.1,0,0,1-1,0l-4.35-2.55a.31.31,0,0,1,0-.59l4.31-2.53a1.1,1.1,0,0,1,1,0Zm1.2,1.29a1.1,1.1,0,0,1,1,0l4.36,2.55c.28.17.28.43,0,.59L373.25,407a1,1,0,0,1-1,0l-4.36-2.55a.31.31,0,0,1,0-.59Zm6.57,3.84a1,1,0,0,1,1,0l5.63,3.29a.31.31,0,0,1,0,.59l-4.32,2.53a1,1,0,0,1-1,0l-5.62-3.29c-.28-.17-.28-.43,0-.59Zm11.68-3.08-4.38-2.56a.31.31,0,0,1-.18-.4.32.32,0,0,1,.18-.18l4.33-2.54a1,1,0,0,1,1,0l4.38,2.55c.28.17.28.43,0,.59l-4.33,2.54a1.1,1.1,0,0,1-1,.05Zm-7.68,2.74,4.33-2.54a1.1,1.1,0,0,1,1,0l4.37,2.56c.28.16.29.43,0,.59l-4.32,2.6a1.1,1.1,0,0,1-1,0l-4.38-2.56c-.27-.18-.28-.44,0-.6Zm3.84,4.93a1,1,0,0,1,1,0l6.39,3.74a.31.31,0,0,1,0,.59l-4.34,2.53a1,1,0,0,1-1,0l-6.38-3.74c-.28-.17-.28-.43,0-.59Zm17-5.65a1.1,1.1,0,0,1,1,0l4.4,2.57a.31.31,0,0,1,.18.4.32.32,0,0,1-.18.18l-4.35,2.55a1.1,1.1,0,0,1-1,0l-4.39-2.57a.31.31,0,0,1-.18-.4.32.32,0,0,1,.18-.18ZM397,406l-4.38-2.56c-.28-.17-.28-.43,0-.59l4.33-2.54a1,1,0,0,1,1,0l4.38,2.56c.28.16.29.42,0,.58L398.05,406a1.14,1.14,0,0,1-1.05,0Zm2,3.35-4.34,2.54a1.1,1.1,0,0,1-1,0l-4.38-2.57a.31.31,0,0,1-.18-.4.32.32,0,0,1,.18-.18l4.34-2.55a1,1,0,0,1,1,0l4.39,2.56a.312.312,0,0,1,.07.56Zm-3,3.21,4.34-2.55a1.1,1.1,0,0,1,1,0l4.39,2.56c.28.17.28.43,0,.59l-4.34,2.54a1.1,1.1,0,0,1-1,0L396,413.14a.31.31,0,0,1-.18-.4.32.32,0,0,1,.18-.18Zm-.73,2.25a1,1,0,0,1,1,0l28.18,16.5a.31.31,0,0,1,0,.59L420,434.45a1,1,0,0,1-1,0L390.85,418a.31.31,0,0,1,0-.59Zm35.93,4.8,4.43,2.58c.28.17.28.43,0,.59l-4.37,2.55a1.1,1.1,0,0,1-1,0l-4.42-2.58c-.28-.17-.28-.43,0-.59l4.37-2.55a1.1,1.1,0,0,1,.94,0Zm-5.55,5.2-4.37,2.54a1.1,1.1,0,0,1-1,0l-4.41-2.58c-.28-.17-.29-.43,0-.59l4.36-2.55a1.1,1.1,0,0,1,1,0l4.41,2.58a.33.33,0,0,1,0,.6Zm-1.1-9.08,4.42,2.58a.31.31,0,0,1,0,.59l-4.36,2.54a1.1,1.1,0,0,1-1,0l-4.42-2.58a.31.31,0,0,1,0-.59l4.36-2.54a1.06,1.06,0,0,1,.95,0ZM419,420.92l-4.36,2.55a1,1,0,0,1-1,0l-4.41-2.57c-.27-.17-.28-.43,0-.59l4.35-2.55a1.1,1.1,0,0,1,1,0l4.41,2.57a.34.34,0,0,1,.01.59Zm-2.1-9.07a1.1,1.1,0,0,1,1,0l4.41,2.58c.28.16.28.42,0,.59L418,417.56a1.1,1.1,0,0,1-1,0L412.5,415c-.28-.17-.28-.43,0-.59Zm-6.58,1.83-4.39-2.56c-.28-.17-.29-.43,0-.59l4.35-2.55a1,1,0,0,1,1,0l4.41,2.56c.28.17.28.43,0,.59l-4.35,2.55a1.08,1.08,0,0,1-1.07,0Zm2.05,3.36L408,419.59a1.1,1.1,0,0,1-1,0L402.57,417c-.28-.16-.29-.43,0-.59l4.35-2.54a1.1,1.1,0,0,1,1,0l4.4,2.58a.31.31,0,0,1,.13.42.33.33,0,0,1-.13.13Zm10.13,11,4.37-2.54a1.1,1.1,0,0,1,1,0l4.42,2.59a.31.31,0,0,1,0,.59l-4.37,2.54a1.1,1.1,0,0,1-1,0l-4.42-2.59a.31.31,0,0,1-.2-.39.3.3,0,0,1,.15-.18Zm4.19,4.56,6.35,3.73a.31.31,0,0,1,0,.59l-4.37,2.54a1.1,1.1,0,0,1-1,0l-6.35-3.72c-.28-.16-.29-.43,0-.59l4.37-2.54a1.13,1.13,0,0,1,.95,0Zm17.85-5.22L449,430c.28.16.29.43,0,.59l-4.39,2.55a1.1,1.1,0,0,1-1,0l-4.43-2.59a.31.31,0,0,1,0-.59l4.38-2.55a1.09,1.09,0,0,1,.95,0Zm-12.05-.77a.31.31,0,0,1,0-.59l4.37-2.54a1.17,1.17,0,0,1,1,0l4.43,2.59a.31.31,0,0,1,0,.59l-4.38,2.55a1.1,1.1,0,0,1-1,0Zm6.49,6-4.38,2.54a1.1,1.1,0,0,1-1,0l-4.43-2.59c-.28-.17-.28-.43,0-.59l4.37-2.55a1.1,1.1,0,0,1,1,0L439,432a.31.31,0,0,1,.18.4.3.3,0,0,1-.22.19Zm1.22.71a1.1,1.1,0,0,1,1,0l4.44,2.59c.28.17.28.43,0,.59l-4.39,2.55a1.1,1.1,0,0,1-1,0l-4.43-2.59c-.28-.17-.29-.43,0-.59Zm-4.92,4.35,4.79,2.8c.28.16.29.43,0,.59l-4.38,2.55a1.1,1.1,0,0,1-1,0l-4.79-2.81c-.28-.16-.28-.42,0-.59l4.37-2.54a1.08,1.08,0,0,1,1,0Zm10.56-3.23a.31.31,0,0,1,0-.59l4.38-2.55a1.1,1.1,0,0,1,1,0l4.45,2.59a.32.32,0,0,1,.19.41.3.3,0,0,1-.19.19L451.24,437a1.1,1.1,0,0,1-1,0Zm6.68,3.32,4.39-2.55a1.1,1.1,0,0,1,1,0l4.45,2.6a.31.31,0,0,1,0,.59L458,441a1.1,1.1,0,0,1-1,0l-4.45-2.6c-.32-.17-.32-.44,0-.6Zm-5.58,5.2-4.44-2.59a.32.32,0,0,1-.19-.41.3.3,0,0,1,.19-.19l4.38-2.54a1.17,1.17,0,0,1,1,0l4.44,2.6c.28.17.29.43,0,.59L447.91,443a1.08,1.08,0,0,1-1,0Zm-7.6.49,4.8,2.81a.31.31,0,0,1,0,.59l-1.46.85a1.1,1.1,0,0,1-1,0l-4.79-2.81c-.28-.16-.29-.43,0-.59l1.46-.85a1.14,1.14,0,0,1,.94,0Zm9.92,2.22,4.8,2.81c.29.17.29.44,0,.6l-1.26.73a1.1,1.1,0,0,1-1,0L447,447c-.29-.17-.29-.43,0-.59l1.26-.74a1.13,1.13,0,0,1,.95,0ZM446,447.5l4.8,2.82c.28.16.29.43,0,.59l-1.36.79a1.1,1.1,0,0,1-1,0l-4.8-2.81c-.28-.17-.28-.43,0-.59l1.36-.79a1.13,1.13,0,0,1,1-.01Z"/>
      <path id="Tracé_288" data-name="Tracé 288" class="cls-9" d="M509.52,365.34l-70.12-38a1.55,1.55,0,0,0-2.11.55,2.146,2.146,0,0,0-.1.22l-21,52a2,2,0,0,0,.9,2.45l69.41,38.69a1.55,1.55,0,0,0,2.14-.49c0-.08.09-.16.12-.24l21.7-52.66A2,2,0,0,0,509.52,365.34Z"/>
      <path id="Tracé_289" data-name="Tracé 289" class="cls-6" d="M432.13,323l.19-.47,73.23,39.76-.19.47L432.13,323m73.62,34-70.13-38a1.52,1.52,0,0,0-2.09.54,1.131,1.131,0,0,0-.11.22l-21,52a2,2,0,0,0,.9,2.45l69.42,38.68a1.55,1.55,0,0,0,2.13-.46l.13-.26,21.7-52.66a2,2,0,0,0-.94-2.5"/>
      <path id="Tracé_290" data-name="Tracé 290" class="cls-10" d="M464.54,388.16l-26-13.92a.82.82,0,0,0-1.12.29l-.06.12h0a1.07,1.07,0,0,0,.48,1.3l26,13.93a.83.83,0,0,0,1.15-.26l.06-.12h0a1.09,1.09,0,0,0-.51-1.34Z"/>
      <path id="Tracé_291" data-name="Tracé 291" class="cls-11" d="M455,383.12l-16.48-8.88a.82.82,0,0,0-1.12.29l-.06.12h0a1.07,1.07,0,0,0,.48,1.3l16.46,8.89a.84.84,0,0,0,1.21-.39h0A1.09,1.09,0,0,0,455,383.12Z"/>
      <path id="Tracé_292" data-name="Tracé 292" class="cls-10" d="M474.37,370.58a6,6,0,0,1-7.83,3.28,6.649,6.649,0,0,1-.84-.43L449,364.19a9,9,0,0,1-4-11,6.86,6.86,0,0,1,8.91-3.83,7.334,7.334,0,0,1,.8.38,9.32,9.32,0,0,1,9.75-.21,12.05,12.05,0,0,1,6.07,11.31l.34.18A7.83,7.83,0,0,1,474.37,370.58Z"/>
      <path id="Tracé_293" data-name="Tracé 293" class="cls-12" d="M464.64,369.62l-1.72-4.72a1,1,0,0,0-1.14-.64l-4.27,1.42a.88.88,0,0,0-.49,1.14h0a.94.94,0,0,0,1.14.63l2.29-.75-4.23,10.21a1,1,0,0,0,.46,1.27.79.79,0,0,0,1.09-.26l.06-.12,4.24-10.21.93,2.54a1,1,0,0,0,.47.56.83.83,0,0,0,.67.08.88.88,0,0,0,.5-1.15Z"/>
      <path id="Tracé_294" data-name="Tracé 294" class="cls-13" d="M454.76,371.64l-2.29.75,4.23-10.21a1,1,0,0,0-.46-1.28.8.8,0,0,0-1.1.28l-.05.11-4.23,10.21-.92-2.54a.94.94,0,0,0-1.14-.63.88.88,0,0,0-.5,1.14h0l1.72,4.71a1,1,0,0,0,.47.56.83.83,0,0,0,.67.08l4.25-1.41a.87.87,0,0,0,.5-1.12v-.05a.94.94,0,0,0-1.15-.6Z"/>
      <path id="Tracé_295" data-name="Tracé 295" class="cls-14" d="M505.55,362.25l-73.23-39.76-.19.47,73.23,39.76.19-.47"/>
      <path id="Tracé_296" data-name="Tracé 296" class="cls-15" d="M436.19,322.14a.64.64,0,0,1-.82.36l-.09-.05a.82.82,0,0,1-.37-1,.65.65,0,0,1,.84-.35h.07a.82.82,0,0,1,.37,1.04Z"/>
      <path id="Tracé_297" data-name="Tracé 297" class="cls-16" d="M437.94,323.08a.63.63,0,0,1-.81.37l-.1-.05a.84.84,0,0,1-.38-1,.63.63,0,0,1,.81-.37l.1.05a.84.84,0,0,1,.38,1Z"/>
      <path id="Tracé_298" data-name="Tracé 298" class="cls-17" d="M439.68,324a.63.63,0,0,1-.8.37l-.11-.06a.82.82,0,0,1-.37-1,.64.64,0,0,1,.82-.36l.09.05a.82.82,0,0,1,.37,1Z"/>
    </g>
    <g id="router" transform="translate(461.012 2925)">
      <path id="Tracé_465" data-name="Tracé 465" class="cls-18" d="M596.93,541.26l-45.06-26a3.51,3.51,0,0,1-1.76-3.1V511l32.21-15.39,49.14,18.61v6a6.56,6.56,0,0,1-3.28,5.74L601.61,541.3A4.76,4.76,0,0,1,596.93,541.26Z"/>
      <path id="Tracé_466" data-name="Tracé 466" class="cls-19" d="M579.56,491.45h0a1.4,1.4,0,0,1-1.41-1.39h0l.69-33.47a.71.71,0,0,1,.71-.71h0a.73.73,0,0,1,.72.71L581,490a1.39,1.39,0,0,1-1.33,1.45Z"/>
      <path id="Tracé_467" data-name="Tracé 467" class="cls-20" d="M596.81,537.91,550.23,511a.08.08,0,0,1,0-.11h0l32.12-25.18,49.14,28.47-29.91,23.38A4.29,4.29,0,0,1,596.81,537.91Z"/>
      <path id="Tracé_468" data-name="Tracé 468" class="cls-21" d="M607.46,522.18l-34-19.63a1.22,1.22,0,0,1-.42-1.67,1.321,1.321,0,0,1,.29-.33l5.31-4.09a1.23,1.23,0,0,1,1.35-.09L614,516a1.2,1.2,0,0,1,.44,1.65,1.27,1.27,0,0,1-.3.35l-5.31,4.09A1.23,1.23,0,0,1,607.46,522.18Z"/>
      <path id="Tracé_469" data-name="Tracé 469" class="cls-22" d="M629,522.1h0a1.41,1.41,0,0,1-1.4-1.42h0l.68-33.47a.72.72,0,0,1,.72-.7h0a.71.71,0,0,1,.72.7h0l.69,33.47A1.41,1.41,0,0,1,629,522.1Z"/>
      <ellipse id="Ellipse_347" data-name="Ellipse 347" class="cls-23" cx="1.03" cy="1.79" rx="1.03" ry="1.79" transform="matrix(0.005, -1, 1, 0.005, 563.93, 516.042)"/>
      <path id="Tracé_470" data-name="Tracé 470" class="cls-23" d="M558.41,512c0-.57.81-1,1.8-1s1.79.47,1.78,1-.8,1-1.79,1S558.41,512.56,558.41,512Z"/>
      <ellipse id="Ellipse_348" data-name="Ellipse 348" class="cls-24" cx="1.03" cy="1.79" rx="1.03" ry="1.79" transform="matrix(0.005, -1, 1, 0.005, 593.57, 532.954)"/>
      <path id="Tracé_471" data-name="Tracé 471" class="cls-25" d="M586.58,504.39l-7.25-4.19c-.25-.14-.22-.39.07-.56h0a1.1,1.1,0,0,1,1,0l7.24,4.18c.25.14.22.4-.07.57h0a1.15,1.15,0,0,1-.99,0Z"/>
      <path id="Tracé_472" data-name="Tracé 472" class="cls-25" d="M581.09,504.34l-4.46-2.58c-.25-.14-.22-.39.07-.56h0a1,1,0,0,1,1,0l4.46,2.57c.25.14.22.4-.07.57h0A1.1,1.1,0,0,1,581.09,504.34Z"/>
      <path id="Tracé_473" data-name="Tracé 473" class="cls-25" d="M592.47,510.91,590.9,510c-.25-.14-.22-.4.07-.57h0a1.1,1.1,0,0,1,1,0l1.58.91c.25.15.22.4-.07.57h0A1.06,1.06,0,0,1,592.47,510.91Z"/>
      <path id="Tracé_474" data-name="Tracé 474" class="cls-25" d="M589,508.88l-5.69-3.28c-.25-.15-.22-.4.07-.57h0a1,1,0,0,1,1,0l5.69,3.28c.25.15.22.4-.07.57h0A1,1,0,0,1,589,508.88Z"/>
      <path id="Tracé_475" data-name="Tracé 475" class="cls-25" d="M604.52,514.74l-15.83-9.13c-.25-.15-.22-.4.07-.57h0a1,1,0,0,1,1,0l15.83,9.14c.25.14.22.4-.07.56h0A1,1,0,0,1,604.52,514.74Z"/>
    </g>
    <g id="iphone" transform="translate(439.012 3128)">
      <path id="Tracé_507" data-name="Tracé 507" class="cls-26" d="M390.58,208l-21.44-13.76c-2.23-1.29-4-4.74-4-7.72l-2.27-60.36c0-3.39,4.08-4.18,6.31-2.9l23.66,13.66c2.23,1.29,4,4.74,4,7.72v58.88C396.84,208,392.92,209.16,390.58,208Z"/>
      <path id="Tracé_508" data-name="Tracé 508" class="cls-27" d="M390.39,207.85l-23.65-13.66c-2.24-1.29-4-4.74-4-7.72V126.93c0-3,1.8-4.34,4-3.05l23.65,13.65c2.23,1.29,4,4.75,4,7.72v59.54C394.43,207.77,392.62,209.14,390.39,207.85Z"/>
      <path id="Tracé_509" data-name="Tracé 509" class="cls-28" d="M365,182.36V129.75c0-1.05.64-1.54,1.43-1.08l24.3,14a3.42,3.42,0,0,1,1.43,2.74V198c0,1.06-.64,1.55-1.43,1.09l-24.3-14a3.44,3.44,0,0,1-1.43-2.73Z"/>
      <path id="Tracé_510" data-name="Tracé 510" class="cls-29" d="M381.53,135.71l-5.94-3.43a.8.8,0,0,1-.34-.65h0c0-.24.15-.36.34-.25l5.94,3.43a.8.8,0,0,1,.34.65h0C381.87,135.71,381.72,135.82,381.53,135.71Z"/>
      <ellipse id="Ellipse_349" data-name="Ellipse 349" class="cls-30" cx="1.86" cy="3.22" rx="1.86" ry="3.22" transform="translate(375.336 194.469) rotate(-30.31)"/>
      <path id="Tracé_511" data-name="Tracé 511" class="cls-9" d="M389.27,197.72l-22.88-13.2a4.55,4.55,0,0,1-1.89-3.63V134.8c0-1.39.85-2,1.89-1.43l22.88,13.21a4.53,4.53,0,0,1,1.89,3.62v46.09C391.16,197.69,390.31,198.33,389.27,197.72Z"/>
      <path id="Tracé_512" data-name="Tracé 512" class="cls-6" d="M384.51,194.89l-22.87-13.21a4.57,4.57,0,0,1-1.9-3.62V132c0-1.4.85-2,1.9-1.44l22.87,13.21a4.54,4.54,0,0,1,1.9,3.62v46.09C386.41,194.85,385.56,195.49,384.51,194.89Z"/>
      <path id="Tracé_513" data-name="Tracé 513" class="cls-10" d="M380.9,161.35c0,1.9-1.34,2.66-3,1.71l-5.59-3.23-4.22-2.44a8.25,8.25,0,0,1-3.75-6.46c0-2.37,1.66-3.33,3.72-2.16.86-1.16,2.45-1.36,4.25-.31a11,11,0,0,1,4.87,7.41,3.3,3.3,0,0,1,.72.32A6.58,6.58,0,0,1,380.9,161.35Z"/>
      <path id="Tracé_514" data-name="Tracé 514" class="cls-10" d="M380.22,171.26l-15.53-9a.83.83,0,0,1-.34-.64h0c0-.25.15-.37.34-.26l15.53,9a.79.79,0,0,1,.33.64h0C380.55,171.25,380.4,171.36,380.22,171.26Z"/>
      <path id="Tracé_515" data-name="Tracé 515" class="cls-31" d="M375,168.24l-10.3-6a.83.83,0,0,1-.34-.64h0c0-.25.15-.37.34-.26l10.3,6a.83.83,0,0,1,.34.64h0C375.33,168.23,375.18,168.35,375,168.24Z"/>
      <path id="Tracé_516" data-name="Tracé 516" class="cls-32" d="M375.43,158.74l-1.37-2.36a.72.72,0,0,0-.24-.25.24.24,0,0,0-.23,0l-1.37.78c-.13.08-.13.32,0,.55a.72.72,0,0,0,.24.25.24.24,0,0,0,.23,0l.79-.45v6.21a.73.73,0,0,0,.34.58.21.21,0,0,0,.34-.19v-6.22L375,159c.14.22.35.35.48.27S375.56,159,375.43,158.74Z"/>
      <path id="Tracé_517" data-name="Tracé 517" class="cls-32" d="M372.21,160.88l-.8.46v-6.22a.73.73,0,0,0-.34-.58.2.2,0,0,0-.33.19v6.21l-.79-1.36a.719.719,0,0,0-.24-.25.25.25,0,0,0-.24,0c-.13.08-.13.32,0,.55l1.37,2.36a.72.72,0,0,0,.24.25.21.21,0,0,0,.24,0l1.36-.78c.14-.07.14-.32,0-.54S372.34,160.81,372.21,160.88Z"/>
      <path id="Tracé_518" data-name="Tracé 518" class="cls-33" d="M378.93,179.18l-13.51-7.8a1.25,1.25,0,0,1-.53-1h0c0-.39.23-.57.53-.4l13.51,7.8a1.27,1.27,0,0,1,.53,1h0C379.46,179.17,379.22,179.35,378.93,179.18Z"/>
      <path id="Tracé_519" data-name="Tracé 519" class="cls-34" d="M377.35,181.19l-10.36-6a.64.64,0,0,1-.26-.51h0c0-.19.12-.28.26-.2l10.36,6a.64.64,0,0,1,.26.51h0C377.61,181.18,377.49,181.27,377.35,181.19Z"/>
      <path id="Tracé_520" data-name="Tracé 520" class="cls-35" d="M377.35,183,367,177a.63.63,0,0,1-.26-.5h0c0-.2.12-.29.26-.2l10.36,6a.63.63,0,0,1,.26.5h0C377.61,183,377.49,183.08,377.35,183Z"/>
    </g>
    <g id="ipad" transform="translate(475.012 2963)">
      <g id="iPad-2">
        <g id="body">
          <path id="Tracé_521" data-name="Tracé 521" class="cls-36" d="M478.23,586.82l-46-26.58c-2.2-1.27-2.62-5.45.07-7l63.57-33.31c2.54-1.47,6.39-1.63,8.59-.35L551,543.1c2.2,1.28,1.35,5.51-1.19,7l-63,36.38C484.29,587.93,480.44,588.09,478.23,586.82Z"/>
          <path id="Tracé_522" data-name="Tracé 522" class="cls-37" d="M478.23,584.39l-46-26.58c-2.2-1.27-1.93-3.5.62-5l63-36.38c2.54-1.47,6.39-1.63,8.59-.36l46,26.58c2.21,1.27,1.93,3.49-.61,5l-63,36.38C484.29,585.5,480.44,585.66,478.23,584.39Z"/>
          <path id="Tracé_523" data-name="Tracé 523" class="cls-28" d="M547.47,547,488.4,581.06a1.23,1.23,0,0,1-1.06,0l-1.13-.66-42.66-24.63-4.48-2.58h0l-1.16-.67c-.27-.15-.24-.43.08-.61l59.07-34.1a1.14,1.14,0,0,1,1.05,0l49.44,28.54C547.81,546.5,547.78,546.77,547.47,547Z"/>
          <path id="Tracé_524" data-name="Tracé 524" class="cls-38" d="M528.35,533l-7.19-4.15c-.18-.11-.16-.28.05-.4h0a.74.74,0,0,1,.68,0l7.2,4.16c.17.1.15.28-.05.39h0a.76.76,0,0,1-.69,0Z"/>
          <ellipse id="Ellipse_350" data-name="Ellipse 350" class="cls-39" cx="1.7" cy="2.94" rx="1.7" ry="2.94" transform="matrix(0.005, -1, 1, 0.005, 456.159, 570.526)"/>
        </g>
      </g>
      <path id="Tracé_525" data-name="Tracé 525" class="cls-9" d="M484.94,574.33,449.65,554c-1.39-.8-1.21-2.19.38-3.11l45.23-26.11a6,6,0,0,1,5.39-.23l35.29,20.38c1.39.8,1.21,2.19-.38,3.11L490.33,574.1a6,6,0,0,1-5.39.23Z"/>
      <path id="Tracé_526" data-name="Tracé 526" class="cls-6" d="M485.47,567.51l-35.3-20.38c-1.38-.8-1.2-2.19.39-3.11l45.23-26.11a6,6,0,0,1,5.39-.22l35.29,20.38c1.38.79,1.21,2.18-.38,3.11l-45.23,26.11a6,6,0,0,1-5.39.22Z"/>
      <path id="Tracé_527" data-name="Tracé 527" class="cls-10" d="M514.76,543.75a9.81,9.81,0,0,1-8.86,0L497.61,539l-6.27-3.63c-3.08-1.77-3.09-4.64,0-6.4a12.29,12.29,0,0,1,11.05,0,16,16,0,0,1,9.88,1.59c3.59,2.07,4,5.27,1.31,7.59a6.693,6.693,0,0,1,1.19.54C517.19,540.05,517.2,542.34,514.76,543.75Z"/>
      <path id="Tracé_528" data-name="Tracé 528" class="cls-10" d="M500.49,550.81,477.44,537.5c-.27-.16-.24-.44.08-.62h0a1.21,1.21,0,0,1,1.08,0l23,13.31c.28.16.24.44-.08.62h0a1.17,1.17,0,0,1-1.03,0Z"/>
      <path id="Tracé_529" data-name="Tracé 529" class="cls-40" d="M492.74,546.33l-15.3-8.83c-.27-.16-.24-.44.08-.62h0a1.21,1.21,0,0,1,1.08,0l15.3,8.83c.27.16.24.44-.08.63h0A1.21,1.21,0,0,1,492.74,546.33Z"/>
      <path id="Tracé_530" data-name="Tracé 530" class="cls-32" d="M505.93,539.46v-2.33a.36.36,0,0,0-.21-.29,1.081,1.081,0,0,0-.5-.12h-4c-.38,0-.7.18-.7.41a.36.36,0,0,0,.21.29,1.08,1.08,0,0,0,.5.12h2.33l-8,4.61a.3.3,0,0,0,0,.57,1.1,1.1,0,0,0,1,0l8-4.61v1.36c0,.23.32.41.71.41S505.93,539.69,505.93,539.46Z"/>
      <path id="Tracé_531" data-name="Tracé 531" class="cls-32" d="M496,539.68h-2.36l8-4.61a.31.31,0,0,0,.18-.4.32.32,0,0,0-.18-.18,1.1,1.1,0,0,0-1,0l-8,4.61v-1.35a.36.36,0,0,0-.21-.29,1.08,1.08,0,0,0-.5-.12c-.39,0-.7.18-.7.41v2.34a.36.36,0,0,0,.21.28,1.08,1.08,0,0,0,.5.12H496c.38,0,.7-.18.7-.4S496.39,539.68,496,539.68Z"/>
      <path id="Tracé_532" data-name="Tracé 532" class="cls-41" d="M491.23,556.67l-21.76-12.56c-.41-.24-.36-.66.12-.94h0a1.85,1.85,0,0,1,1.62-.07L493,555.67c.41.24.36.65-.12.93h0a1.78,1.78,0,0,1-1.65.07Z"/>
      <path id="Tracé_533" data-name="Tracé 533" class="cls-42" d="M487.45,557.72l-19.79-11.43c-.23-.13-.21-.37.06-.52h0a1,1,0,0,1,.91,0l19.79,11.43c.23.13.2.37-.07.52h0A1,1,0,0,1,487.45,557.72Z"/>
      <path id="Tracé_534" data-name="Tracé 534" class="cls-43" d="M485.27,559l-19.8-11.43c-.23-.13-.2-.37.07-.52h0a1,1,0,0,1,.9,0l19.8,11.43c.23.13.2.37-.07.52h0A1,1,0,0,1,485.27,559Z"/>
    </g>
  </g>
</svg>
