<svg xmlns="http://www.w3.org/2000/svg" xmlns:xlink="http://www.w3.org/1999/xlink" viewBox="0 0 164.7 258.15">
  <defs>
    <style>
      .cls-1 {
        fill: none;
      }

      .cls-2 {
        fill: url(#linear-gradient);
      }

      .cls-3 {
        fill: url(#linear-gradient-2);
      }

      .cls-4 {
        fill: url(#linear-gradient-3);
      }

      .cls-5 {
        fill: url(#linear-gradient-4);
      }

      .cls-6 {
        fill: url(#linear-gradient-5);
      }

      .cls-7 {
        fill: url(#linear-gradient-6);
      }

      .cls-8 {
        fill: url(#linear-gradient-7);
      }

      .cls-9 {
        fill: url(#linear-gradient-8);
      }

      .cls-10 {
        fill: url(#radial-gradient);
      }

      .cls-11, .cls-24 {
        opacity: 0.2;
      }

      .cls-11 {
        fill: url(#linear-gradient-9);
      }

      .cls-12, .cls-13, .cls-28 {
        opacity: 0.3;
      }

      .cls-12 {
        fill: url(#linear-gradient-10);
      }

      .cls-13 {
        fill: url(#linear-gradient-11);
      }

      .cls-14, .cls-25 {
        opacity: 0.4;
      }

      .cls-14 {
        fill: url(#linear-gradient-12);
      }

      .cls-15 {
        fill: url(#linear-gradient-13);
      }

      .cls-16 {
        clip-path: url(#clip-path);
      }

      .cls-17, .cls-23, .cls-24 {
        fill: #fff;
      }

      .cls-18 {
        fill: #cfd5ea;
      }

      .cls-19 {
        fill: #e6ebf4;
      }

      .cls-20 {
        fill: #9199b5;
      }

      .cls-21 {
        fill: url(#linear-gradient-14);
      }

      .cls-22 {
        fill: #fbdb45;
      }

      .cls-22, .cls-23 {
        opacity: 0.5;
      }

      .cls-25 {
        fill: url(#linear-gradient-15);
      }

      .cls-26, .cls-27 {
        fill: #37538a;
      }

      .cls-26 {
        opacity: 0.6;
      }

      .cls-28 {
        fill: #67b6de;
      }

      .cls-29, .cls-31 {
        fill: #69cfff;
      }

      .cls-30 {
        fill: #fdf077;
      }

      .cls-31 {
        opacity: 0.7;
      }
    </style>
    <linearGradient id="linear-gradient" y1="1.02" x2="1" y2="1.02" gradientUnits="objectBoundingBox">
      <stop offset="0" stop-color="#7ab4f4"/>
      <stop offset="1" stop-color="#dfedfa"/>
    </linearGradient>
    <linearGradient id="linear-gradient-2" x1="0" y1="21.343" x2="1" y2="21.343" xlink:href="#linear-gradient"/>
    <linearGradient id="linear-gradient-3" x1="0" y1="53.162" x2="1" y2="53.162" xlink:href="#linear-gradient"/>
    <linearGradient id="linear-gradient-4" x1="0" y1="80.157" x2="1" y2="80.157" xlink:href="#linear-gradient"/>
    <linearGradient id="linear-gradient-5" x1="0" y1="45.771" x2="0.997" y2="45.771" xlink:href="#linear-gradient"/>
    <linearGradient id="linear-gradient-6" x1="0" y1="26.756" x2="1" y2="26.756" xlink:href="#linear-gradient"/>
    <linearGradient id="linear-gradient-7" x1="0" y1="51.621" x2="1.003" y2="51.621" xlink:href="#linear-gradient"/>
    <linearGradient id="linear-gradient-8" x1="0.002" y1="28.942" x2="1" y2="28.942" xlink:href="#linear-gradient"/>
    <radialGradient id="radial-gradient" cx="647.07" cy="345.62" r="72.712" gradientTransform="translate(21.792 33.458) scale(0.575 0.575)" gradientUnits="userSpaceOnUse">
      <stop offset="0" stop-color="#1768d4"/>
      <stop offset="1" stop-color="#5ea0f0"/>
    </radialGradient>
    <linearGradient id="linear-gradient-9" x1="0.5" y1="0.982" x2="0.5" y2="1.592" gradientUnits="objectBoundingBox">
      <stop offset="0" stop-color="#308dff"/>
      <stop offset="1" stop-color="#3b94ff" stop-opacity="0"/>
    </linearGradient>
    <linearGradient id="linear-gradient-10" x1="0.5" y1="6.502" x2="0.5" y2="5.69" xlink:href="#linear-gradient"/>
    <linearGradient id="linear-gradient-11" x1="0.504" y1="5.155" x2="0.504" y2="4.343" xlink:href="#linear-gradient"/>
    <linearGradient id="linear-gradient-12" x1="0.5" y1="2.527" x2="0.5" y2="1.716" gradientUnits="objectBoundingBox">
      <stop offset="0" stop-color="#fff"/>
      <stop offset="1" stop-color="#fff" stop-opacity="0"/>
    </linearGradient>
    <linearGradient id="linear-gradient-13" y1="1.368" x2="1" y2="1.368" gradientUnits="objectBoundingBox">
      <stop offset="0" stop-color="#3282ed"/>
      <stop offset="1" stop-color="#60a2f0"/>
    </linearGradient>
    <clipPath id="clip-path">
      <path id="Tracé_97" data-name="Tracé 97" class="cls-1" d="M698.32,297.13l-50.47,28.72-1.77-1.04-50.27-29.52,50.07-28.37.2.12Z"/>
    </clipPath>
    <linearGradient id="linear-gradient-14" x1="-0.01" y1="10.963" x2="0.994" y2="10.963" xlink:href="#linear-gradient-13"/>
    <linearGradient id="linear-gradient-15" x1="0.5" y1="2.693" x2="0.5" y2="1.882" xlink:href="#linear-gradient-12"/>
  </defs>
  <g id="machinery" transform="translate(730.42 342.73) rotate(180)">
    <path id="Tracé_83" data-name="Tracé 83" class="cls-2" d="M564.72,294.63l80.44-45.59,84.26,48.55-81.09,46.14Z" transform="translate(1 -1)"/>
    <circle id="Ellipse_18" data-name="Ellipse 18" class="cls-3" cx="1.97" cy="1.97" r="1.97" transform="translate(700.92 277.97)"/>
    <circle id="Ellipse_19" data-name="Ellipse 19" class="cls-4" cx="2.07" cy="2.07" r="2.07" transform="translate(636.06 209.92)"/>
    <circle id="Ellipse_20" data-name="Ellipse 20" class="cls-5" cx="1.34" cy="1.34" r="1.34" transform="translate(606.58 212.92)"/>
    <circle id="Ellipse_21" data-name="Ellipse 21" class="cls-6" cx="1.51" cy="1.51" r="1.51" transform="translate(583.83 251.13)"/>
    <circle id="Ellipse_22" data-name="Ellipse 22" class="cls-7" cx="2.07" cy="2.07" r="2.07" transform="translate(718.97 242.58)"/>
    <circle id="Ellipse_23" data-name="Ellipse 23" class="cls-8" cx="1.57" cy="1.57" r="1.57" transform="translate(696.62 223.17)"/>
    <path id="Tracé_79" data-name="Tracé 79" class="cls-9" d="M556,239.74a2.76,2.76,0,1,0,2.75,2.77h0a2.76,2.76,0,0,0-2.75-2.76" transform="translate(26 -77)"/>
    <path id="Tracé_84" data-name="Tracé 84" class="cls-10" d="M698.32,297.13l-50.47,28.72-1.77-1.04-50.27-29.52,50.07-28.37.2.12Z"/>
    <path id="Tracé_85" data-name="Tracé 85" class="cls-11" d="M595.81,295.29V84.58l101.55,59.2V297.46l-49.51,28.39Z"/>
    <path id="Tracé_86" data-name="Tracé 86" class="cls-12" d="M638.63,226.28h0a.85.85,0,0,1,.84.84h0v27.41a.42.42,0,0,1-.42.42h-.84a.42.42,0,0,1-.42-.42V227.12a.85.85,0,0,1,.84-.84Z"/>
    <path id="Tracé_87" data-name="Tracé 87" class="cls-13" d="M706.454,200.83h0a.805.805,0,0,0-.824.754h0v59.276a.4.4,0,0,0,.419.383h.824a.4.4,0,0,0,.419-.383V201.584a.8.8,0,0,0-.824-.754h0Z" transform="translate(1.15 -14.723)"/>
    <rect id="Rectangle_51" data-name="Rectangle 51" class="cls-14" width="2.2" height="37.41" rx="1.1" transform="translate(692.94 271.76)"/>
    <path id="Tracé_88" data-name="Tracé 88" class="cls-15" d="M646.08,267.04v57.77l-50.27-29.52,50.07-28.37Z"/>
    <g id="Groupe_70" data-name="Groupe 70" class="cls-16">
      <path id="Tracé_89" data-name="Tracé 89" class="cls-17" d="M631.61,326.92l.01-34.32,1.51-.44,21.33,12.87.01,34.31-1.25.62Z"/>
      <path id="Tracé_90" data-name="Tracé 90" class="cls-18" d="M653.22,339.96V305.6l1.13-.58.11.01.01,34.31Z"/>
      <path id="Tracé_91" data-name="Tracé 91" class="cls-19" d="M631.62,292.6l1.23-.6,21.61,13.03-1.24.62Z"/>
      <path id="Tracé_92" data-name="Tracé 92" class="cls-20" d="M645.57,309.65l-11.32-7.11a.62.62,0,0,1-.2-.85h0a.63.63,0,0,1,.86-.2l11.33,7.11a.63.63,0,0,1,.2.86.64.64,0,0,1-.87.2"/>
      <path id="Tracé_93" data-name="Tracé 93" class="cls-20" d="M649.09,311.75l-1.18-.71a.623.623,0,1,1,.64-1.07l1.18.7a.63.63,0,0,1-.64,1.08"/>
      <path id="Tracé_94" data-name="Tracé 94" class="cls-20" d="M637.85,310.09,634,307.78a.64.64,0,0,1-.22-.86.63.63,0,0,1,.86-.21l3.88,2.31a.623.623,0,1,1-.64,1.07"/>
      <path id="Tracé_95" data-name="Tracé 95" class="cls-20" d="M649.07,317.14l-8.35-5.34a.623.623,0,0,1,.67-1.05l8.35,5.33a.63.63,0,0,1,.11.88.62.62,0,0,1-.78.18"/>
      <path id="Tracé_96" data-name="Tracé 96" class="cls-20" d="M649.34,322.27,636.13,314a.64.64,0,0,1-.15-.88.63.63,0,0,1,.81-.19L650,321.2a.64.64,0,0,1,.15.88.63.63,0,0,1-.81.19"/>
    </g>
    <g id="Groupe_74" data-name="Groupe 74" transform="translate(1338.77 474.97) rotate(180)">
      <path id="Tracé_98" data-name="Tracé 98" class="cls-17" d="M651.3,257.39V209.08l2.13-.62,30.04,18.12v48.3l-1.75.87Z"/>
      <path id="Tracé_99" data-name="Tracé 99" class="cls-18" d="M681.72,275.75V227.38l1.59-.82.16.02v48.3Z"/>
      <path id="Tracé_100" data-name="Tracé 100" class="cls-19" d="M651.3,209.08l1.74-.86,30.43,18.36-1.75.87Z"/>
      <path id="Tracé_101" data-name="Tracé 101" class="cls-20" d="M671,233.08l-16-10a.88.88,0,0,1-.28-1.21.89.89,0,0,1,1.22-.28l15.94,10a.88.88,0,0,1,.28,1.21.89.89,0,0,1-1.21.28"/>
      <path id="Tracé_102" data-name="Tracé 102" class="cls-20" d="M675.91,236l-1.67-1a.88.88,0,0,1-.3-1.21h0a.87.87,0,0,1,1.19-.32h0l1.67,1a.89.89,0,0,1,.25,1.22.88.88,0,0,1-1.15.29"/>
      <path id="Tracé_103" data-name="Tracé 103" class="cls-20" d="M660.09,233.71l-5.47-3.26a.883.883,0,1,1,.9-1.52h0l5.47,3.26a.883.883,0,1,1-.9,1.52"/>
      <path id="Tracé_104" data-name="Tracé 104" class="cls-20" d="M675.88,243.62l-11.76-7.51a.89.89,0,0,1-.27-1.22.88.88,0,0,1,1.22-.26h0l11.76,7.5a.9.9,0,0,1-1,1.49"/>
      <path id="Tracé_105" data-name="Tracé 105" class="cls-20" d="M676.26,250.84l-18.59-11.59a.88.88,0,1,1,.93-1.49l18.59,11.59a.88.88,0,0,1-.93,1.49"/>
    </g>
    <g id="Groupe_77" data-name="Groupe 77" transform="translate(-2 -4)">
      <g id="Groupe_75" data-name="Groupe 75" transform="translate(1257.47 519.57) rotate(-180)">
        <path id="Tracé_106" data-name="Tracé 106" class="cls-18" d="M650.58,285.3l-2.82,1.4-27.87-15.78V245.24h.01l3.41-1,27.26,15.39Z"/>
        <path id="Tracé_107" data-name="Tracé 107" class="cls-17" d="M647.76,261.03V286.7l-27.87-15.78V245.24h.01Z"/>
        <path id="Tracé_108" data-name="Tracé 108" class="cls-19" d="M619.89,245.24l2.78-1.37,27.9,15.76-2.81,1.4Z"/>
        <path id="Tracé_109" data-name="Tracé 109" class="cls-19" d="M626.79,270.15h0m7.83-6.83h0a2.82,2.82,0,0,0-1.27.33,5.241,5.241,0,0,0-1.47,1.22,9.7,9.7,0,0,0-1,1.38h0a13.139,13.139,0,0,1-1.78,2.29,7.292,7.292,0,0,1-.88.79l-.2.12-.19-.6a8,8,0,0,0-.68-1.56,2.59,2.59,0,0,0-.61-.67,1.851,1.851,0,0,0-.44-.23,1.48,1.48,0,0,0-.51-.09h0a1.581,1.581,0,0,0-.61.12,2.069,2.069,0,0,0-.57.3h0a3.761,3.761,0,0,0-.83.81c-.14.18-.26.37-.38.56a2.9,2.9,0,0,1-.35.49l-.08.05h-.11a2.219,2.219,0,0,1-.86-.27.72.72,0,0,0-.29-.06.7.7,0,0,0-.68.7.71.71,0,0,0,.39.61h0a3.489,3.489,0,0,0,1.45.4h0a1.59,1.59,0,0,0,.57-.1,1.47,1.47,0,0,0,.41-.22,2.151,2.151,0,0,0,.48-.52c.19-.26.33-.51.49-.74a2.58,2.58,0,0,1,.59-.6h0a1.3,1.3,0,0,1,.26-.14h.21a.87.87,0,0,1,.27.27,4.6,4.6,0,0,1,.48,1c.15.4.26.82.38,1.16a1,1,0,0,0,.14.3,1.1,1.1,0,0,0,.88.47h0a1.71,1.71,0,0,0,.63-.15,3.568,3.568,0,0,0,.95-.63,11.608,11.608,0,0,0,1.42-1.47,14.8,14.8,0,0,0,1.23-1.71h0a7.229,7.229,0,0,1,1.2-1.55,3.831,3.831,0,0,1,.73-.54,1.391,1.391,0,0,1,.63-.18h0a1.1,1.1,0,0,1,.53.16,3.18,3.18,0,0,1,1,1.27,14,14,0,0,1,1.08,3.19,18.119,18.119,0,0,0,.93,3.07,3,3,0,0,0,.5.82,1.64,1.64,0,0,0,.35.29,1.09,1.09,0,0,0,.5.13h0a1,1,0,0,0,.47-.12,1.659,1.659,0,0,0,.54-.48,5.5,5.5,0,0,0,.57-1.07c.26-.6.52-1.28.78-1.84a5.076,5.076,0,0,1,.4-.72,1.468,1.468,0,0,1,.31-.35h0a1.62,1.62,0,0,1,.75-.32A.71.71,0,0,0,644,268a.69.69,0,0,0-.69-.63h-.06a3,3,0,0,0-1.39.55h0a2.5,2.5,0,0,0-.59.58,7,7,0,0,0-.71,1.28c-.31.68-.57,1.41-.82,1.93-.06.14-.13.26-.18.36a6.753,6.753,0,0,1-.42-1.05c-.16-.51-.34-1.17-.54-2a12.251,12.251,0,0,0-1.67-4.28,3.649,3.649,0,0,0-1.07-1,2.34,2.34,0,0,0-1.23-.35"/>
        <path id="Tracé_110" data-name="Tracé 110" class="cls-21" d="M621.1,267.13a3.48,3.48,0,0,0,1.48.4,1.649,1.649,0,0,0,.58-.1,1.371,1.371,0,0,0,.43-.23,2.68,2.68,0,0,0,.49-.52c.19-.27.33-.53.5-.76a2.29,2.29,0,0,1,.61-.63h0a1.169,1.169,0,0,1,.27-.15h.23a.809.809,0,0,1,.29.29,4.051,4.051,0,0,1,.5,1.05c.15.42.27.85.39,1.2h0a1.094,1.094,0,0,0,1.04.78,1.809,1.809,0,0,0,.65-.15,4.4,4.4,0,0,0,1-.65,11.583,11.583,0,0,0,1.46-1.51,15.637,15.637,0,0,0,1.26-1.76h0a8.106,8.106,0,0,1,1.25-1.6,3.408,3.408,0,0,1,.75-.56A1.41,1.41,0,0,1,635,262a1,1,0,0,1,.55.16,3.28,3.28,0,0,1,1.07,1.32,14.692,14.692,0,0,1,1.12,3.29,18.8,18.8,0,0,0,1,3.17,3.371,3.371,0,0,0,.51.83,1.309,1.309,0,0,0,.36.3,1,1,0,0,0,.51.13.89.89,0,0,0,.48-.11,1.619,1.619,0,0,0,.55-.49,6.547,6.547,0,0,0,.59-1.11c.26-.62.53-1.31.8-1.89a6.789,6.789,0,0,1,.41-.75,1.649,1.649,0,0,1,.33-.37h0a1.86,1.86,0,0,1,.78-.33.69.69,0,0,0,.63-.74h0a.68.68,0,0,0-.73-.62h0a3,3,0,0,0-1.42.56h0a2.36,2.36,0,0,0-.6.58,7.063,7.063,0,0,0-.73,1.32c-.32.71-.6,1.46-.85,2a3,3,0,0,1-.33.58v.05h0l.1.14-.06-.16h0l.1.14-.06-.16.12.32v-.34H640l.12.32h0l.16-.29h-.16v.32l.16-.29-.06.11.08-.09h0l-.06.11.08-.09h0a1.34,1.34,0,0,1-.18-.28,6.354,6.354,0,0,1-.44-1.12c-.17-.52-.35-1.19-.54-2a13,13,0,0,0-1.72-4.41,4,4,0,0,0-1.1-1.07,2.449,2.449,0,0,0-1.26-.36,2.85,2.85,0,0,0-1.31.35,5.66,5.66,0,0,0-1.51,1.25,10.079,10.079,0,0,0-1,1.42h0a13.444,13.444,0,0,1-1.83,2.36,7.1,7.1,0,0,1-.91.82l-.33.19h-.08v.25l.08-.24h-.08v.25l.08-.24-.1.32.25-.22a.4.4,0,0,0-.15-.1l-.1.32.25-.22-.19.17.22-.13h0l-.19.17.22-.13-.11.07.12-.05h0l-.11.07.12-.05h0c-.08-.23-.17-.54-.29-.89a7.126,7.126,0,0,0-.7-1.6,2.5,2.5,0,0,0-.62-.68,1.7,1.7,0,0,0-.44-.24,1.9,1.9,0,0,0-.53-.09,1.67,1.67,0,0,0-.62.12,2.489,2.489,0,0,0-.58.31h0a3.93,3.93,0,0,0-.85.83c-.16.21-.28.41-.39.58a2.543,2.543,0,0,1-.36.5l-.09.06h-.13a2.6,2.6,0,0,1-.9-.27.69.69,0,0,0-.91.33.7.7,0,0,0,.33.92Z"/>
      </g>
    </g>
    <circle id="Ellipse_24" data-name="Ellipse 24" class="cls-22" cx="0.76" cy="0.76" r="0.76" transform="translate(654.35 285.04)"/>
    <circle id="Ellipse_25" data-name="Ellipse 25" class="cls-23" cx="1.01" cy="1.01" r="1.01" transform="translate(623.08 288.72)"/>
    <circle id="Ellipse_26" data-name="Ellipse 26" class="cls-24" cx="0.92" cy="0.92" r="0.92" transform="translate(662.59 305.23)"/>
    <rect id="Rectangle_52" data-name="Rectangle 52" class="cls-25" width="2.2" height="37.41" rx="1.1" transform="translate(668.7 268.65)"/>
    <g id="Groupe_76" data-name="Groupe 76" transform="translate(-10 -10)">
      <path id="Tracé_590" data-name="Tracé 590" class="cls-26" d="M580.42,318.66a2.331,2.331,0,0,0-3.49,2v39.43a4.61,4.61,0,0,0,2.38,4L630.11,393a2.35,2.35,0,0,0,3.18-.92,2.389,2.389,0,0,0,.29-1.08V352.11a4.63,4.63,0,0,0-2.33-4Z" transform="translate(1255.51 523.635) rotate(-180)"/>
      <path id="Tracé_589" data-name="Tracé 589" class="cls-27" d="M631.15,353.39a4.43,4.43,0,0,0-2.21-3.84L581.53,322.1a1.45,1.45,0,0,0-2,.54,1.48,1.48,0,0,0-.19.71v35.47a4.42,4.42,0,0,0,2.24,3.85l47.47,27a1.39,1.39,0,0,0,2.08-1.21Z" transform="translate(1255.51 523.635) rotate(-180)"/>
      <path id="Tracé_584" data-name="Tracé 584" class="cls-28" d="M582.86,337.25c0,3.07,1.87,6.64,4.17,8s4.18-.08,4.18-3.15-1.87-6.65-4.18-8S582.86,334.17,582.86,337.25Zm1.52.87c0-1.95,1.19-2.85,2.65-2a6.34,6.34,0,0,1,2.66,5.07c0,2-1.19,2.86-2.66,2A6.39,6.39,0,0,1,584.38,338.12Z" transform="translate(1255.51 523.635) rotate(-180)"/>
      <path id="Tracé_585" data-name="Tracé 585" class="cls-28" d="M582.86,350.86c0,3.07,1.87,6.64,4.17,8s4.18-.08,4.18-3.15-1.87-6.65-4.18-8S582.86,347.78,582.86,350.86Zm1.52.87c0-2,1.19-2.85,2.65-2a6.34,6.34,0,0,1,2.66,5.07c0,2-1.19,2.86-2.66,2A6.39,6.39,0,0,1,584.38,351.73Z" transform="translate(1255.51 523.635) rotate(-180)"/>
      <path id="Tracé_586" data-name="Tracé 586" class="cls-29" d="M582.86,350.91c0,3.06,1.88,6.6,4.17,7.92s4.18-.08,4.18-3.15-1.85-6.61-4.14-7.95v2a6.37,6.37,0,0,1,2.62,5c0,2-1.19,2.86-2.66,2a6.34,6.34,0,0,1-2.65-5Z" transform="translate(1255.51 523.635) rotate(-180)"/>
      <path id="Tracé_583" data-name="Tracé 583" class="cls-30" d="M589.69,341.19c0,2-1.19,2.86-2.66,2H587v2h0c2.31,1.33,4.18-.08,4.18-3.15s-1.87-6.65-4.18-8h0v2h0A6.31,6.31,0,0,1,589.69,341.19Z" transform="translate(1255.51 523.635) rotate(-180)"/>
      <path id="Tracé_588" data-name="Tracé 588" class="cls-30" d="M621.44,375.62l-2.92-17.34c-.48-2.83-3.2-4.4-3.67-2.11h0c-.73,3.54-4.33,3-6.68-.95l-2.07-3.51c-.67-1.13-1.68-1.5-2.13-.76l-6.67,10.82Z" transform="translate(1255.51 523.635) rotate(-180)"/>
      <path id="Tracé_587" data-name="Tracé 587" class="cls-31" d="M595.43,360.69l30,17.32-2.35-8.4c-.76-2.71-3.14-4.24-4.06-2.61l-.68,1.19c-.57,1-2,.12-2.57-1.57l-4.16-13.48c-.84-2.7-3.21-4.09-4.07-2.37l-2.85,5.77c-.51,1-1.91.32-2.52-1.28h0c-1-2.63-3.31-3.68-4-1.82Z" transform="translate(1255.51 523.635) rotate(-180)"/>
    </g>
    <circle id="Ellipse_358" data-name="Ellipse 358" class="cls-6" cx="3.51" cy="3.51" r="3.51" transform="translate(690.83 106.13)"/>
    <circle id="Ellipse_359" data-name="Ellipse 359" class="cls-6" cx="2.51" cy="2.51" r="2.51" transform="translate(685.83 170.13)"/>
    <path id="Tracé_591" data-name="Tracé 591" class="cls-13" d="M706.454,200.83h0a.805.805,0,0,0-.824.754h0v59.276a.4.4,0,0,0,.419.383h.824a.4.4,0,0,0,.419-.383V201.584a.8.8,0,0,0-.824-.754h0Z" transform="translate(1.15 -14.723)"/>
    <path id="Tracé_592" data-name="Tracé 592" class="cls-13" d="M706.317,200.83h0a.671.671,0,0,0-.687.628h0v49.391a.335.335,0,0,0,.349.319h.687a.335.335,0,0,0,.349-.319V201.458a.671.671,0,0,0-.687-.628h0Z" transform="translate(-115.572 20.351)"/>
  </g>
</svg>
