<?xml version="1.0" standalone="no"?>
<!DOCTYPE svg PUBLIC "-//W3C//DTD SVG 20010904//EN"
 "http://www.w3.org/TR/2001/REC-SVG-20010904/DTD/svg10.dtd">
<svg version="1.0" xmlns="http://www.w3.org/2000/svg"
 width="842.000000pt" height="842.000000pt" viewBox="0 0 842.000000 842.000000"
 preserveAspectRatio="xMidYMid meet">
<metadata>
Created by potrace 1.11, written by Peter Selinger 2001-2013
</metadata>
<g transform="translate(0.000000,842.000000) scale(0.100000,-0.100000)"
fill="#000000" stroke="none">
<path d="M16 7783 c9 -21 21 -53 27 -70 6 -18 14 -33 19 -33 4 0 8 -7 8 -15 0
-8 11 -39 25 -69 14 -30 25 -57 25 -60 0 -3 11 -29 24 -58 13 -29 54 -125 91
-213 37 -88 78 -184 91 -213 13 -29 24 -55 24 -57 0 -3 9 -24 19 -48 11 -23
45 -103 76 -177 31 -74 65 -152 76 -172 10 -21 16 -38 14 -38 -3 0 4 -18 15
-40 11 -21 20 -46 20 -55 0 -8 4 -15 10 -15 5 0 13 -12 16 -27 6 -24 39 -105
89 -218 7 -16 31 -73 53 -125 22 -52 48 -113 58 -135 9 -22 18 -42 18 -45 1
-3 32 -77 69 -165 89 -209 97 -226 107 -250 5 -11 22 -51 38 -90 156 -368 227
-536 242 -570 10 -22 34 -80 55 -130 20 -49 50 -118 66 -153 16 -35 29 -65 29
-68 0 -4 100 -242 131 -311 11 -23 19 -44 19 -47 0 -3 13 -34 29 -68 16 -35
45 -103 66 -153 20 -49 43 -103 50 -120 8 -16 39 -91 70 -165 32 -74 64 -151
72 -170 26 -61 40 -92 83 -195 23 -55 48 -114 55 -130 13 -28 36 -83 40 -95 3
-8 35 -82 50 -115 7 -16 23 -54 35 -84 11 -30 30 -75 42 -100 34 -77 66 -151
278 -656 39 -93 77 -183 85 -200 7 -16 25 -59 40 -95 14 -36 35 -83 45 -105
10 -22 35 -80 55 -130 21 -49 48 -114 61 -143 13 -29 24 -55 24 -58 0 -3 14
-35 30 -71 17 -35 30 -66 30 -69 0 -2 9 -23 19 -47 11 -23 32 -71 46 -107 28
-68 39 -94 72 -170 11 -25 40 -93 64 -152 24 -59 46 -108 49 -108 5 0 7 4 65
140 20 47 40 93 45 102 6 10 10 25 10 33 0 8 5 15 12 15 6 0 9 3 6 6 -4 3 6
33 21 67 26 57 42 95 46 107 4 13 26 62 53 123 17 37 31 68 31 70 -1 2 17 47
41 102 10 22 41 97 70 165 29 69 89 213 135 320 81 190 217 510 238 560 6 14
11 27 12 30 1 3 9 23 19 45 10 22 27 62 37 89 18 44 43 103 69 161 5 11 28 65
51 120 23 55 49 116 57 135 9 19 16 37 17 40 1 3 9 23 18 45 10 22 34 79 54
127 20 48 40 85 43 83 3 -2 39 -82 79 -177 40 -95 77 -182 83 -192 5 -10 21
-49 35 -85 14 -36 28 -70 32 -76 4 -5 20 -40 34 -78 15 -37 36 -86 46 -110 17
-38 32 -74 36 -87 1 -3 9 -21 17 -40 17 -37 29 -65 73 -170 15 -36 35 -81 43
-100 9 -19 16 -37 17 -40 1 -3 9 -23 19 -45 29 -64 39 -90 40 -95 1 -4 20 -48
66 -155 5 -11 23 -54 41 -95 17 -41 39 -93 49 -115 9 -22 30 -71 45 -110 16
-38 32 -74 37 -79 4 -6 8 -18 8 -28 0 -10 5 -18 10 -18 6 0 10 -9 10 -19 0
-11 9 -36 19 -58 11 -21 26 -54 34 -73 8 -19 40 -96 72 -170 31 -74 60 -144
64 -155 5 -11 18 -40 29 -65 11 -25 40 -91 63 -147 23 -57 45 -103 48 -103 3
0 21 38 40 83 18 45 40 98 48 117 8 19 19 44 23 55 5 11 17 40 29 65 18 40 41
96 46 110 1 3 7 16 12 30 6 14 63 149 127 300 64 151 121 283 126 292 6 10 10
25 10 33 0 8 4 15 9 15 5 0 12 16 15 35 4 19 11 35 16 35 6 0 9 3 8 8 -1 8 8
35 27 77 8 17 37 86 65 155 29 69 60 143 71 165 18 40 41 95 44 105 0 3 11 27
23 54 12 27 22 54 22 60 0 7 4 16 9 21 5 6 26 51 46 100 20 50 41 96 47 102 6
7 8 13 5 13 -3 0 7 28 22 63 29 64 43 98 46 107 0 3 10 25 21 50 11 25 31 72
45 105 13 33 27 62 32 63 4 2 7 9 7 17 0 12 40 111 80 200 10 22 48 110 83
195 112 268 129 306 176 412 12 26 21 50 21 53 0 3 9 25 19 48 10 23 38 87 61
142 23 55 50 118 60 140 10 22 37 85 60 140 23 55 50 119 61 142 10 24 19 45
19 48 0 4 9 25 19 49 11 23 77 177 146 342 70 164 133 314 141 332 36 83 44
101 69 162 15 36 33 79 40 95 8 17 46 107 86 200 63 150 86 206 119 280 5 11
59 139 120 285 61 146 120 284 130 306 11 23 22 54 26 68 3 14 10 26 15 26 5
0 9 6 9 13 0 10 117 294 172 417 6 14 14 34 19 45 4 11 19 46 33 78 14 32 26
60 26 62 0 3 9 24 19 48 11 23 41 92 66 152 26 61 53 124 60 140 17 37 32 77
35 90 1 6 5 15 9 20 4 6 11 18 14 28 6 16 -16 17 -373 17 -212 0 -380 -4 -380
-9 0 -5 -12 -35 -27 -67 -15 -33 -28 -63 -29 -69 -1 -5 -14 -37 -28 -70 -40
-89 -40 -89 -101 -235 -31 -74 -62 -148 -70 -165 -8 -16 -23 -52 -35 -80 -11
-27 -25 -58 -30 -67 -6 -10 -10 -22 -10 -27 0 -5 -13 -38 -29 -73 -16 -35 -59
-135 -96 -223 -37 -88 -76 -180 -88 -205 -11 -25 -22 -50 -23 -55 -1 -6 -11
-32 -23 -58 -21 -46 -43 -97 -46 -107 -1 -3 -8 -21 -17 -40 -8 -19 -52 -123
-97 -230 -45 -107 -91 -215 -103 -240 -11 -25 -21 -50 -22 -56 -1 -7 -7 -18
-14 -26 -6 -8 -13 -23 -15 -34 -2 -10 -13 -41 -26 -69 -12 -27 -52 -120 -87
-205 -36 -85 -71 -168 -79 -185 -7 -16 -59 -138 -115 -270 -55 -132 -107 -253
-115 -270 -7 -16 -25 -59 -40 -95 -14 -36 -32 -78 -40 -95 -7 -16 -45 -106
-85 -200 -86 -205 -96 -229 -146 -340 -14 -33 -27 -64 -28 -70 -1 -5 -12 -32
-25 -60 -13 -27 -29 -66 -36 -85 -7 -19 -23 -57 -36 -85 -13 -27 -24 -52 -24
-55 0 -3 -11 -27 -23 -54 -12 -27 -22 -50 -22 -53 0 -2 -9 -24 -20 -49 -21
-46 -42 -95 -45 -104 -7 -30 -31 -80 -37 -80 -4 0 -7 -3 -6 -7 2 -5 -6 -28
-16 -53 -11 -25 -20 -48 -20 -52 -1 -3 -4 -10 -8 -14 -5 -4 -8 -14 -8 -22 0
-9 -7 -23 -15 -32 -8 -9 -16 -25 -18 -36 -2 -10 -10 -35 -19 -54 -9 -19 -67
-154 -129 -300 -140 -334 -128 -310 -146 -276 -8 15 -16 37 -19 49 -2 12 -8
23 -13 25 -6 2 -7 10 -4 18 3 8 0 14 -6 14 -6 0 -11 7 -11 15 0 8 -4 23 -10
33 -19 33 -110 255 -110 267 0 8 -3 15 -8 17 -4 2 -24 44 -44 93 -34 83 -94
225 -120 285 -6 14 -12 27 -13 30 -1 3 -9 23 -19 45 -10 22 -26 61 -36 86 -10
26 -27 66 -38 90 -11 24 -43 100 -72 169 -64 154 -72 171 -102 240 -14 30 -48
112 -78 182 l-53 127 78 183 c43 101 86 203 97 228 10 25 23 54 28 65 4 11 15
37 24 57 31 69 107 253 118 283 6 17 16 33 22 37 6 4 8 8 4 8 -6 0 38 108 112
275 10 22 41 97 70 165 28 69 58 139 65 155 8 17 46 107 85 200 39 94 78 184
85 200 7 17 57 134 110 260 53 127 102 244 109 260 8 17 21 47 30 68 9 20 24
54 33 75 9 20 18 42 19 47 1 6 11 30 22 55 32 70 172 400 172 405 0 2 12 30
26 62 15 32 33 74 41 93 8 19 18 44 23 55 20 43 160 377 160 381 0 2 -169 4
-376 4 l-375 0 -25 -57 c-14 -32 -29 -67 -34 -78 -5 -11 -32 -76 -60 -145 -29
-69 -61 -145 -72 -170 -11 -25 -24 -54 -29 -65 -4 -11 -19 -46 -33 -78 -14
-32 -26 -60 -26 -63 0 -3 -12 -31 -26 -62 -15 -31 -27 -63 -27 -69 0 -7 -4
-13 -8 -13 -4 0 -9 -10 -13 -23 -3 -13 -15 -45 -28 -73 -12 -27 -23 -51 -23
-54 -1 -3 -11 -26 -23 -52 -12 -26 -22 -54 -22 -62 0 -9 -4 -16 -10 -16 -5 0
-9 -3 -8 -7 1 -9 -1 -15 -83 -205 -33 -79 -69 -163 -79 -188 -10 -25 -26 -63
-36 -85 -10 -22 -18 -42 -19 -45 0 -3 -8 -21 -17 -40 -8 -19 -24 -55 -34 -80
-10 -25 -21 -47 -24 -50 -3 -3 -6 -9 -7 -15 -2 -11 -136 -332 -161 -385 -9
-19 -17 -37 -18 -40 -1 -6 -12 -35 -34 -85 -39 -89 -80 -186 -126 -297 -27
-65 -52 -118 -56 -118 -4 0 -10 10 -14 23 -3 12 -15 40 -25 62 -10 22 -57 132
-104 245 -48 113 -93 219 -100 235 -8 17 -39 91 -70 165 -31 74 -62 149 -70
165 -7 17 -19 46 -28 65 -8 19 -52 123 -97 230 -45 107 -93 219 -106 248 -13
29 -24 56 -24 60 0 5 -8 26 -19 48 -10 21 -69 158 -130 304 -62 146 -118 279
-125 295 -33 74 -49 112 -126 295 -45 107 -90 214 -101 238 l-19 42 -1525 0
-1525 0 16 -37z m2575 -662 c3 0 21 -38 38 -83 18 -46 39 -93 47 -105 8 -13
12 -23 9 -23 -3 0 0 -10 7 -22 7 -13 13 -25 13 -28 2 -5 13 -31 41 -95 10 -22
18 -44 20 -50 1 -5 13 -35 27 -65 14 -30 62 -143 107 -250 45 -107 88 -208 95
-225 28 -61 215 -507 215 -511 0 -2 13 -32 28 -66 26 -57 51 -116 87 -203 7
-16 27 -62 43 -101 37 -83 50 -117 49 -124 -1 -3 6 -18 16 -35 9 -16 62 -138
118 -270 55 -132 123 -294 151 -360 28 -66 53 -124 57 -130 3 -5 6 -12 7 -15
1 -8 15 -40 42 -102 22 -52 23 -61 12 -90 -13 -32 -52 -123 -70 -163 -5 -11
-46 -108 -91 -215 -45 -107 -90 -215 -101 -240 -10 -25 -23 -54 -28 -65 -4
-11 -15 -36 -23 -55 -8 -19 -47 -111 -86 -205 -40 -93 -76 -179 -81 -190 -34
-76 -64 -145 -75 -175 -7 -19 -22 -55 -33 -80 -11 -25 -45 -103 -75 -175 -30
-71 -63 -149 -73 -172 -18 -41 -33 -55 -35 -33 -3 19 -12 42 -48 123 -28 62
-173 407 -176 417 0 3 -11 28 -24 55 -13 28 -29 67 -37 88 -7 21 -17 43 -21
50 -4 7 -8 17 -9 22 -2 6 -46 111 -99 235 -53 124 -101 234 -105 245 -5 11
-19 43 -31 70 -23 55 -24 56 -99 235 -29 69 -58 139 -65 155 -7 17 -34 80 -59
140 -26 61 -51 119 -56 130 -37 78 -118 278 -116 286 0 3 -4 12 -10 20 -6 8
-28 55 -49 104 -20 50 -46 109 -56 132 -10 24 -19 45 -19 47 0 3 -13 34 -30
69 -16 36 -30 68 -30 71 0 3 -11 29 -24 58 -14 30 -34 78 -46 108 -12 30 -28
69 -35 85 -33 72 -147 341 -149 353 -1 7 -8 18 -14 24 -7 7 -12 17 -12 24 0
11 -44 119 -85 208 -7 17 -26 60 -40 96 -15 36 -40 93 -56 128 -16 35 -29 67
-29 71 0 5 -16 44 -36 87 -40 89 -38 85 -89 209 -21 50 -48 114 -61 143 -13
29 -24 55 -24 57 0 6 -48 115 -60 137 -6 10 -10 22 -10 27 0 10 -62 151 -80
183 -13 24 -13 26 7 30 15 3 1509 2 1524 -1z"/>
</g>
</svg>
